<?xml version="1.0" encoding="UTF-8"?>
<svg width="1103px" height="402px" viewBox="0 0 1103 402" version="1.1" xmlns="http://www.w3.org/2000/svg" xmlns:xlink="http://www.w3.org/1999/xlink">
    <title>tile</title>
    <defs>
        <filter id="filter-1">
            <feColorMatrix in="SourceGraphic" type="matrix" values="0 0 0 0 0.000000 0 0 0 0 0.000000 0 0 0 0 0.000000 0 0 0 1.000000 0"></feColorMatrix>
        </filter>
    </defs>
    <g id="Page-1" stroke="none" stroke-width="1" fill="none" fill-rule="evenodd">
        <g filter="url(#filter-1)" id="tile">
            <g>
                <path d="M258.2,100.6 C258.2,51.1 294.4,15.7 343.8,15.7 C393.5,15.7 429.7,51.1 429.7,100.6 C429.7,150.1 393.5,185.5 343.8,185.5 C294.4,185.5 258.2,150 258.2,100.6 Z M393.8,100.6 C393.8,69.8 374.1,46.7 343.8,46.7 C313.5,46.7 294.1,69.8 294.1,100.6 C294.1,131.1 313.5,154.5 343.8,154.5 C374.1,154.5 393.8,131.1 393.8,100.6 Z" id="Shape" fill="#FFFFFF" fill-rule="nonzero"></path>
                <polygon id="Path" fill="#FFFFFF" fill-rule="nonzero" points="551.8 182.5 502.1 116.8 489.3 132.1 489.3 182.5 454.3 182.5 454.3 18.4 489.2 18.4 489.2 91.7 547.3 18.4 590.4 18.4 525.2 95.4 594.8 182.5"></polygon>
                <path d="M258.2,316.6 C258.2,264.7 297.6,231.7 345.6,231.7 C379.8,231.7 401.2,248.9 413.5,268.4 L384.5,284.2 C376,270.9 361.4,262.9 345.6,262.8 C315.8,262.8 294.2,285.7 294.2,316.7 C294.2,347.7 315.9,370.6 345.6,370.6 C360.1,370.6 373.9,364.2 380.6,358.1 L380.6,338.4 L337.2,338.4 L337.2,307.9 L415.5,307.9 L415.5,370.9 C398.8,389.6 375.4,401.9 345.6,401.9 C297.6,401.7 258.2,368.3 258.2,316.6 Z" id="Path" fill="#FFFFFF" fill-rule="nonzero"></path>
                <path d="M536,398.5 L503.8,340.2 L478.2,340.2 L478.2,398.5 L443.3,398.5 L443.3,234.4 L520.1,234.4 C554.3,234.4 575.2,256.8 575.2,287.3 C575.2,316.3 557,331.8 539.3,336 L576.2,398.5 L536,398.5 L536,398.5 Z M539.5,287.3 C539.5,273.5 528.9,265.2 514.9,265.2 L478.2,265.2 L478.2,309.5 L514.9,309.5 C528.9,309.4 539.5,301.1 539.5,287.3 Z" id="Shape" fill="#FFFFFF" fill-rule="nonzero"></path>
                <path d="M593.6,316.6 C593.6,267.1 629.8,231.7 679.2,231.7 C728.9,231.7 765.1,267.1 765.1,316.6 C765.1,366.1 728.9,401.5 679.2,401.5 C629.8,401.5 593.6,366 593.6,316.6 Z M729.2,316.6 C729.2,285.8 709.5,262.7 679.2,262.7 C648.9,262.7 629.5,285.8 629.5,316.6 C629.5,347.1 648.9,370.5 679.2,370.5 C709.5,370.5 729.2,347.1 729.2,316.6 Z" id="Shape" fill="#FFFFFF" fill-rule="nonzero"></path>
                <path d="M789.8,333.1 L789.8,234.4 L825.2,234.4 L825.2,331.8 C825.2,354.7 838.5,370.4 863.8,370.4 C889.1,370.4 902.2,354.6 902.2,331.8 L902.2,234.4 L937.9,234.4 L937.9,332.8 C937.9,373.7 913.8,401.5 863.8,401.5 C813.8,401.5 789.8,373.4 789.8,333.1 Z" id="Path" fill="#FFFFFF" fill-rule="nonzero"></path>
                <path d="M970.2,398.5 L970.2,234.4 L1047,234.4 C1082.7,234.4 1102.1,258.5 1102.1,287.3 C1102.1,315.8 1082.4,340.2 1047,340.2 L1005.2,340.2 L1005.2,398.5 L970.2,398.5 L970.2,398.5 Z M1066.4,287.3 C1066.4,273.5 1056.1,265.2 1042.3,265.2 L1005.1,265.2 L1005.1,309.5 L1042.3,309.5 C1056,309.4 1066.4,300.8 1066.4,287.3 Z" id="Shape" fill="#FFFFFF" fill-rule="nonzero"></path>
                <path d="M117.5,20.4 C150.1,32 171.6,61.8 171.6,100 C171.6,138.2 150,168 117.4,179.6 C128.8,161.8 135.5,133.8 135.7,101.4 C135.7,100.9 135.7,100.5 135.7,100 C135.7,99.5 135.7,99 135.7,98.6 C135.5,66 128.8,38.1 117.5,20.4 Z" id="Path" fill="#FFFFFF" fill-rule="nonzero"></path>
                <path d="M117.5,20.4 C107.3,16.8 96.6,15 85.7,15.1 C74.9,15 64.2,16.8 54,20.5 C62.2,7.5 73,7.10542736e-15 85.7,7.10542736e-15 C98.4,7.10542736e-15 109.2,7.5 117.5,20.4 Z" id="Path" fill="#FFFFFF" fill-rule="nonzero"></path>
                <path d="M85.7,184.9 C96.5,185 107.2,183.2 117.3,179.6 C109,192.5 98.3,200 85.7,200 C73.1,200 62.4,192.5 54.1,179.6 C64.3,183.2 74.9,185 85.7,184.9 Z" id="Path" fill="#FFFFFF" fill-rule="nonzero"></path>
                <path d="M54,20.4 C42.7,38.1 36.2,66 36,98.6 C36,99.1 36,99.6 36,100 C36,133 42.6,161.6 54.1,179.6 C21.5,168 0,138.2 0,100 C0,61.8 21.5,32.1 54,20.4 Z" id="Path" fill="#FFFFFF" fill-rule="nonzero"></path>
            </g>
        </g>
    </g>
</svg>