<?xml version="1.0" encoding="utf-8"?><svg id="Vrstva_1" data-name="Vrstva 1" xmlns="http://www.w3.org/2000/svg" viewBox="0 0 1756 401"><path d="M258.22,100.68c0-49.46,36.18-84.9,85.64-84.9,49.71,0,85.89,35.44,85.89,84.9s-36.18,84.9-85.89,84.9C294.39,185.58,258.22,150.14,258.22,100.68Zm135.6,0c0-30.76-19.69-53.89-50-53.89s-49.71,23.13-49.71,53.89c0,30.52,19.44,53.89,49.71,53.89S393.82,131.19,393.82,100.68Z"/><path d="M551.81,182.63,502.1,116.92l-12.8,15.26v50.45H454.35V18.48H489.3V91.82l58.08-73.34h43.07l-65.21,77,69.64,87.12Z"/><path d="M258.22,316.68c0-51.93,39.38-84.9,87.36-84.9,34.21,0,55.62,17.23,67.92,36.67l-29,15.75a46.47,46.47,0,0,0-38.88-21.41c-29.78,0-51.43,22.89-51.43,53.89s21.66,53.89,51.43,53.89c14.52,0,28.3-6.4,34.95-12.55V338.33H337.22V307.81h78.26v63c-16.73,18.7-40.11,31-69.89,31C297.59,401.82,258.22,368.36,258.22,316.68Z"/><path d="M536.05,398.63l-32.24-58.32H478.22v58.32H443.28V234.48h76.78c34.21,0,55.13,22.39,55.13,52.91,0,29-18.21,44.54-35.93,48.73l36.91,62.51Zm3.45-111.24c0-13.78-10.58-22.15-24.61-22.15H478.22v44.3h36.67C528.92,309.54,539.5,301.17,539.5,287.39Z"/><path d="M593.63,316.68c0-49.46,36.18-84.9,85.64-84.9,49.71,0,85.89,35.44,85.89,84.9s-36.18,84.9-85.89,84.9C629.81,401.58,593.63,366.14,593.63,316.68Zm135.6,0c0-30.76-19.69-53.89-50-53.89s-49.71,23.13-49.71,53.89c0,30.52,19.44,53.89,49.71,53.89S729.23,347.19,729.23,316.68Z"/><path d="M789.77,333.16V234.48h35.44v97.45c0,22.89,13.29,38.64,38.64,38.64s38.39-15.75,38.39-38.64V234.48h35.68v98.44c0,40.85-24.12,68.66-74.07,68.66S789.77,373.52,789.77,333.16Z"/><path d="M970.15,398.63V234.48h76.78c35.68,0,55.13,24.12,55.13,52.91,0,28.55-19.69,52.91-55.13,52.91h-41.84v58.32H970.15Zm96.22-111.24c0-13.78-10.34-22.15-24.12-22.15h-37.16v44.3h37.16C1056,309.54,1066.37,300.93,1066.37,287.39Z"/><path d="M117.46,20.51c32.63,11.65,54.12,41.44,54.12,79.58s-21.55,68-54.24,79.62c11.44-17.77,18.12-45.75,18.3-78.2,0-.47,0-.94,0-1.42s0-1,0-1.44C135.46,66.07,128.83,38.21,117.46,20.51Z" fill="#00513f"/><path d="M117.46,20.51A94.22,94.22,0,0,0,85.7,15.19,93.45,93.45,0,0,0,54,20.54C62.25,7.59,73,.07,85.7.07S109.17,7.58,117.46,20.51Z" fill="#00513f"/><path d="M85.7,185a94.35,94.35,0,0,0,31.64-5.28c-8.27,12.87-19,20.39-31.64,20.39s-23.34-7.53-31.58-20.41A93.58,93.58,0,0,0,85.7,185Z" fill="#00513f"/><path d="M54,20.54C42.72,38.25,36.17,66.09,36,98.65c0,.48,0,1,0,1.44,0,33,6.62,61.57,18.14,79.6C21.58,168.05.06,138.24.06,100.09S21.53,32.2,54,20.54Z" fill="#00513f"/></svg>