<?xml version="1.0" encoding="UTF-8"?>
<svg width="577px" height="578px" viewBox="0 0 577 578" version="1.1" xmlns="http://www.w3.org/2000/svg" xmlns:xlink="http://www.w3.org/1999/xlink">
    <title>icon-email</title>
    <g id="GPA-2022" stroke="none" stroke-width="1" fill="none" fill-rule="evenodd">
        <g id="icon-email">
            <g id="g1402" transform="translate(-0.000000, 0.000000)" fill="#FFFFFF" fill-rule="nonzero">
                <path d="M64.566,0.0641111111 C23.236,0.0641111111 -2.84217094e-14,21.4351111 -2.84217094e-14,65.1001111 L-2.84217094e-14,515.220111 C-2.84217094e-14,556.060111 20.891,577.450111 62.196,577.450111 L514.216,577.450111 C555.516,577.450111 576.446,557.130111 576.446,515.220111 L576.446,65.1001111 C576.446,22.4991111 555.516,0.0631111111 512.916,0.0631111111 C512.916,0.0631111111 64.426,-0.0788888889 64.566,0.0631111111 L64.566,0.0641111111 Z" id="path1404"></path>
            </g>
            <g id="g1406" transform="translate(84.366000, 127.781111)" stroke="#232323" stroke-width="30.655">
                <polygon id="path1408" points="408.71 300.81 408.71 -5.68434189e-14 5.68434189e-14 -5.68434189e-14 5.68434189e-14 300.81"></polygon>
                <path d="M3.8,3.83 L180.12,182.5 C193.19,195.67 216.97,195.51 229.76,182.62 L405.96,5.27" id="path1412"></path>
                <line x1="9.85" y1="290.91" x2="144.95" y2="152.8" id="path1414"></line>
                <line x1="397.31" y1="289.31" x2="265.85" y2="154.72" id="path1416"></line>
            </g>
        </g>
    </g>
</svg>