<?xml version="1.0" encoding="UTF-8"?>
<svg width="616px" height="179px" viewBox="0 0 616 179" version="1.1" xmlns="http://www.w3.org/2000/svg" xmlns:xlink="http://www.w3.org/1999/xlink">
    <title>gam_logo_white</title>
    <g id="GPA-2022" stroke="none" stroke-width="1" fill="none" fill-rule="evenodd">
        <g id="gam_logo_white" transform="translate(-0.000000, 0.000000)" fill="#FFFFFF" fill-rule="nonzero">
            <path d="M127.25,78.93 L80.04,78.93 L80.04,106.45 L125.6,106.45 L125.6,143.46 C121.38,145.78 117.11,147.47 112.79,148.52 C108.46,149.58 102.93,150.1 96.18,150.1 C83.73,150.1 72.61,147.41 62.8,142.03 C52.99,136.65 45.29,129.22 39.71,119.73 C34.12,110.24 31.33,99.59 31.33,87.78 C31.33,75.97 34.18,65.59 39.87,56.62 C45.56,47.66 53.05,40.8 62.33,36.06 C71.61,31.32 81.52,28.94 92.07,28.94 C98.08,28.94 103.99,29.56 109.82,30.81 L98.92,0.72 C96.34,0.55 93.74,0.47 91.12,0.47 C72.35,0.47 56.05,4.58 42.24,12.79 C28.42,21 17.93,31.84 10.76,45.32 C3.59,58.8 -1.13686838e-13,73.32 -1.13686838e-13,88.9 C-1.13686838e-13,104.48 3.37,118.17 10.12,131.85 C16.87,145.53 27.09,156.74 40.81,165.48 C54.52,174.22 71.28,178.58 91.11,178.58 C118.95,178.58 140.56,171.78 155.96,158.18 L127.25,78.93 L127.25,78.93 Z" id="Path"></path>
            <g id="Group" transform="translate(135.640000, 0.000000)">
                <path d="M39.48,19.85 L39.48,39.91 C35.58,43.35 30.11,45.08 23.06,45.08 C18.04,45.08 13.8,43.98 10.33,41.76 C6.86,39.55 4.27,36.71 2.56,33.25 C0.85,29.79 0,26.16 0,22.38 C0,18.6 0.91,14.76 2.72,11.35 C4.53,7.94 7.19,5.19 10.69,3.12 C14.19,1.04 18.31,-5.68434189e-14 23.06,-5.68434189e-14 C28.29,-5.68434189e-14 33.18,1.31 37.72,3.92 L38.84,4.56 L35.56,10.57 L34.44,10.09 C32.94,9.29 31.22,8.61 29.27,8.05 C27.32,7.49 25.33,7.21 23.3,7.21 C20.63,7.21 18.12,7.81 15.77,9.01 C13.42,10.21 11.53,11.95 10.08,14.22 C8.64,16.49 7.92,19.12 7.92,22.11 C7.92,25.1 8.63,27.8 10.04,30.2 C11.45,32.6 13.4,34.48 15.89,35.85 C18.37,37.21 21.19,37.89 24.34,37.89 C26.05,37.89 27.45,37.76 28.55,37.49 C29.64,37.22 30.73,36.8 31.79,36.21 L31.79,26.84 L20.26,26.84 L20.26,19.87 L39.48,19.87 L39.48,19.85 Z" id="Path"></path>
                <path d="M53.73,26.17 L53.73,44.43 L48.44,44.43 L48.44,0.38 L62.3,0.38 C64.38,0.38 65.89,0.45 66.83,0.58 C67.76,0.71 68.68,0.89 69.59,1.1 C72.15,2.01 74.16,3.52 75.6,5.63 C77.04,7.74 77.76,10.32 77.76,13.36 C77.71,16.35 76.78,18.91 75,21.05 C73.21,23.19 70.77,24.65 67.67,25.46 L80.16,44.44 L74.15,44.44 L62.14,26.18 L53.73,26.18 L53.73,26.17 Z M66.38,20.96 C68.19,20.59 69.66,19.77 70.78,18.52 C71.9,17.27 72.46,15.44 72.46,13.03 C72.46,10.62 71.79,8.84 70.46,7.5 C69.12,6.17 67.34,5.39 65.09,5.18 C64.29,4.97 62.42,4.86 59.48,4.86 L53.71,4.86 L53.71,21.28 C55.85,21.44 57.77,21.52 59.48,21.52 C62.26,21.52 64.55,21.33 66.37,20.96 L66.38,20.96 Z" id="Shape"></path>
                <path d="M105.55,0.38 L120.69,44.43 L114.76,44.43 L110.6,31.54 L93.78,31.54 L89.62,44.43 L84.09,44.43 L99.15,0.38 L105.56,0.38 L105.55,0.38 Z M109.07,26.97 L102.1,5.91 L95.29,26.97 L109.06,26.97 L109.07,26.97 Z" id="Shape"></path>
                <polygon id="Path" points="126.94 44.43 126.94 0.38 133.67 0.38 157.62 37.3 157.62 0.38 163.07 0.38 163.07 44.43 156.26 44.43 132.23 7.35 132.23 44.43 126.94 44.43"></polygon>
                <path d="M188.77,44.43 L173.23,44.43 L173.23,0.38 L188.77,0.38 C193.15,0.38 196.86,1.27 199.9,3.06 C202.94,4.85 205.29,7.32 206.95,10.47 C208.66,13.99 209.51,17.97 209.51,22.4 C209.51,27.1 208.65,31.05 206.95,34.25 C205.29,37.51 202.96,40.02 199.94,41.78 C196.92,43.54 193.2,44.42 188.77,44.42 L188.77,44.43 Z M178.52,4.95 L178.52,39.79 L188.37,39.79 C191.95,39.79 194.82,39.08 196.98,37.67 C199.14,36.26 200.84,34.27 202.06,31.7 C203.13,29.51 203.66,26.41 203.66,22.41 C203.66,19.05 203.04,16 201.82,13.28 C200.43,10.56 198.86,8.58 197.09,7.35 C194.79,5.75 191.88,4.95 188.36,4.95 L178.51,4.95 L178.52,4.95 Z" id="Shape"></path>
                <path d="M47.73,67.08 L55.34,67.08 L71.92,111.13 L63.99,111.13 L59.51,99.52 L43.25,99.52 L38.84,111.13 L31.15,111.13 L47.73,67.08 L47.73,67.08 Z M56.94,92.47 L51.33,75.97 L45.72,92.47 L56.93,92.47 L56.94,92.47 Z" id="Shape"></path>
                <path d="M97.7,104.6 C99.83,103.45 100.9,101.76 100.9,99.51 C100.9,97.54 100.04,95.96 98.34,94.78 C96.63,93.61 94.18,92.43 90.97,91.26 L89.13,90.54 C85.13,88.94 82.13,87.28 80.16,85.57 C78.18,83.86 77.2,81.48 77.2,78.44 C77.2,74.44 78.51,71.42 81.12,69.39 C82.67,68.22 84.3,67.38 86.01,66.87 C87.72,66.36 89.72,66.11 92.02,66.11 C95.28,66.11 99.31,67.13 104.11,69.15 L102.59,73.88 C98.32,72.17 95.01,71.32 92.66,71.32 C89.56,71.32 87.12,71.89 85.33,73.04 C83.54,74.19 82.65,75.8 82.65,77.88 C82.65,79.32 83.12,80.55 84.05,81.56 C84.98,82.58 86.03,83.36 87.17,83.92 C88.32,84.48 89.93,85.19 92.02,86.04 C92.87,86.41 93.65,86.71 94.34,86.92 C97.12,88.04 99.29,89.04 100.87,89.92 C102.44,90.8 103.79,91.99 104.91,93.48 C106.03,94.98 106.59,96.87 106.59,99.17 C106.59,103.28 104.93,106.41 101.62,108.54 C98.31,110.68 94.28,111.74 89.53,111.74 C87.07,111.74 85.05,111.53 83.44,111.1 C81.84,110.67 79.41,109.9 76.15,108.78 L77.99,103.65 C82.69,105.41 86.59,106.29 89.68,106.29 C92.77,106.29 95.55,105.72 97.69,104.57 L97.7,104.6 Z" id="Path"></path>
                <path d="M134.71,104.6 C136.84,103.45 137.91,101.76 137.91,99.51 C137.91,97.54 137.05,95.96 135.35,94.78 C133.64,93.61 131.18,92.43 127.98,91.26 L126.14,90.54 C122.14,88.94 119.14,87.28 117.17,85.57 C115.19,83.86 114.21,81.48 114.21,78.44 C114.21,74.44 115.52,71.42 118.13,69.39 C119.68,68.22 121.31,67.38 123.02,66.87 C124.73,66.36 126.73,66.11 129.03,66.11 C132.29,66.11 136.32,67.13 141.12,69.15 L139.6,73.88 C135.33,72.17 132.02,71.32 129.67,71.32 C126.57,71.32 124.13,71.89 122.34,73.04 C120.55,74.19 119.66,75.8 119.66,77.88 C119.66,79.32 120.13,80.55 121.06,81.56 C121.99,82.58 123.04,83.36 124.18,83.92 C125.33,84.48 126.94,85.19 129.03,86.04 C129.88,86.41 130.66,86.71 131.35,86.92 C134.13,88.04 136.3,89.04 137.88,89.92 C139.45,90.8 140.8,91.99 141.92,93.48 C143.04,94.98 143.6,96.87 143.6,99.17 C143.6,103.28 141.94,106.41 138.63,108.54 C135.32,110.68 131.29,111.74 126.54,111.74 C124.08,111.74 122.06,111.53 120.45,111.1 C118.85,110.67 116.42,109.9 113.16,108.78 L115,103.65 C119.7,105.41 123.6,106.29 126.69,106.29 C129.78,106.29 132.56,105.72 134.7,104.57 L134.71,104.6 Z" id="Path"></path>
                <polygon id="Path" points="178.12 111.13 152.33 111.13 152.33 67.08 178.12 67.08 178.12 71.56 157.62 71.56 157.62 86.06 176.52 86.06 176.52 90.63 157.62 90.63 157.62 106.49 178.12 106.49 178.12 111.14"></polygon>
                <polygon id="Path" points="183.08 71.57 183.08 67.09 217.76 67.09 217.76 71.57 202.94 71.57 202.94 111.13 197.65 111.13 197.65 71.57 183.07 71.57"></polygon>
                <polygon id="Path" points="54.69 133.78 65.18 133.78 77.11 157.89 89.28 133.78 99.21 133.78 99.21 177.83 91.44 177.83 91.44 144.59 80.31 166.54 73.58 166.54 62.53 144.59 62.53 177.83 54.68 177.83 54.68 133.78"></polygon>
                <path d="M127.02,133.78 L142.16,177.83 L136.23,177.83 L132.07,164.93 L115.25,164.93 L111.09,177.83 L105.56,177.83 L120.62,133.78 L127.03,133.78 L127.02,133.78 Z M130.54,160.37 L123.57,139.31 L116.76,160.37 L130.53,160.37 L130.54,160.37 Z" id="Shape"></path>
                <polygon id="Path" points="148.4 177.83 148.4 133.78 155.13 133.78 179.08 170.7 179.08 133.78 184.53 133.78 184.53 177.83 177.72 177.83 153.69 140.75 153.69 177.83 148.4 177.83"></polygon>
                <path d="M212.07,133.78 L227.21,177.83 L221.28,177.83 L217.12,164.93 L200.3,164.93 L196.14,177.83 L190.61,177.83 L205.67,133.78 L212.08,133.78 L212.07,133.78 Z M215.59,160.37 L208.62,139.31 L201.81,160.37 L215.59,160.37 Z" id="Shape"></path>
                <path d="M268.13,136.98 L266.05,140.82 C264.39,139.97 262.46,139.25 260.24,138.66 C258.02,138.07 255.98,137.78 254.11,137.78 C250.96,137.78 248.06,138.64 245.42,140.34 C242.78,142.05 240.84,144.21 239.61,146.83 C238.38,149.45 237.77,152.41 237.77,155.72 C237.77,159.3 238.52,162.44 240.01,165.13 C241.51,167.83 243.51,169.9 246.02,171.34 C247.57,172.19 249.03,172.82 250.42,173.22 C251.81,173.62 253.36,173.82 255.06,173.82 C256.76,173.82 258.63,173.53 260.47,172.94 C262.31,172.35 263.85,171.55 265.08,170.54 L265.08,158.85 L252.43,158.85 L252.43,154.52 L269.97,154.52 L269.97,172.22 C268.31,173.87 266.26,175.24 263.8,176.3 C260.65,177.74 257.1,178.46 253.15,178.46 C249.2,178.46 245.51,177.46 242.26,175.46 C239,173.46 236.49,170.77 234.73,167.41 C232.86,163.94 231.93,160.18 231.93,156.12 C231.93,151.58 232.9,147.58 234.85,144.11 C236.8,140.64 239.38,137.97 242.58,136.1 C245.84,134.13 249.52,133.14 253.63,133.14 C256.46,133.14 259.04,133.46 261.36,134.1 C263.68,134.74 265.94,135.7 268.13,136.98 Z" id="Path"></path>
                <polygon id="Path" points="304.66 177.83 278.87 177.83 278.87 133.78 304.66 133.78 304.66 138.26 284.16 138.26 284.16 152.76 303.06 152.76 303.06 157.33 284.16 157.33 284.16 173.19 304.66 173.19"></polygon>
                <polygon id="Path" points="314.27 177.83 314.27 133.78 321.8 133.78 335.81 160.45 350.31 133.78 357.28 133.78 357.28 177.83 351.99 177.83 351.99 141.23 338.46 165.18 333.09 165.18 319.55 141.23 319.55 177.83 314.26 177.83"></polygon>
                <polygon id="Path" points="393.88 177.83 368.09 177.83 368.09 133.78 393.88 133.78 393.88 138.26 373.38 138.26 373.38 152.76 392.28 152.76 392.28 157.33 373.38 157.33 373.38 173.19 393.88 173.19"></polygon>
                <polygon id="Path" points="403.17 177.83 403.17 133.78 409.9 133.78 433.85 170.7 433.85 133.78 439.3 133.78 439.3 177.83 432.49 177.83 408.46 140.75 408.46 177.83 403.17 177.83"></polygon>
                <polygon id="Path" points="444.81 138.26 444.81 133.78 479.49 133.78 479.49 138.26 464.67 138.26 464.67 177.83 459.38 177.83 459.38 138.26 444.8 138.26"></polygon>
            </g>
            <g id="Group" transform="translate(566.030000, 1.010000)">
                <path d="M6.32,8.91 L6.32,13.11 L5.1,13.11 L5.1,2.98 L8.29,2.98 C8.77,2.98 9.12,3 9.33,3.03 C9.54,3.06 9.76,3.1 9.96,3.15 C10.55,3.36 11.01,3.71 11.34,4.19 C11.67,4.67 11.84,5.27 11.84,5.97 C11.83,6.66 11.62,7.25 11.2,7.74 C10.79,8.23 10.23,8.57 9.52,8.75 L12.39,13.12 L11.01,13.12 L8.25,8.92 L6.32,8.92 L6.32,8.91 Z M9.23,7.71 C9.65,7.62 9.98,7.44 10.24,7.15 C10.5,6.86 10.63,6.44 10.63,5.89 C10.63,5.34 10.48,4.93 10.17,4.62 C9.86,4.31 9.45,4.13 8.94,4.09 C8.75,4.04 8.32,4.02 7.65,4.02 L6.32,4.02 L6.32,7.8 C6.81,7.84 7.25,7.86 7.65,7.86 C8.29,7.86 8.82,7.82 9.23,7.73 L9.23,7.71 Z" id="Shape"></path>
                <path d="M8.32,16.64 C3.73,16.64 0,12.91 0,8.32 C0,3.73 3.73,0 8.32,0 C12.91,0 16.64,3.73 16.64,8.32 C16.64,12.91 12.91,16.64 8.32,16.64 Z M8.32,0.91 C4.23,0.91 0.91,4.23 0.91,8.32 C0.91,12.41 4.23,15.73 8.32,15.73 C12.41,15.73 15.73,12.41 15.73,8.32 C15.73,4.23 12.41,0.91 8.32,0.91 Z" id="Shape"></path>
            </g>
        </g>
    </g>
</svg>