<?xml version="1.0" standalone="no"?>
<!DOCTYPE svg PUBLIC "-//W3C//DTD SVG 20010904//EN"
 "http://www.w3.org/TR/2001/REC-SVG-20010904/DTD/svg10.dtd">
<svg version="1.0" xmlns="http://www.w3.org/2000/svg"
 width="700.000000pt" height="700.000000pt" viewBox="0 0 700.000000 700.000000"
 preserveAspectRatio="xMidYMid meet">
<metadata>
Created by potrace 1.14, written by Peter Selinger 2001-2017
</metadata>
<g transform="translate(0.000000,700.000000) scale(0.100000,-0.100000)"
fill="#000000" stroke="none">
<path d="M3937 6834 c-1 -1 -74 -4 -162 -8 -189 -7 -305 -20 -485 -50 -14 -3
-38 -7 -55 -10 -25 -4 -63 -12 -195 -41 -239 -53 -634 -209 -812 -322 -21 -12
-40 -23 -43 -23 -16 0 -372 -242 -395 -269 -3 -3 -30 -26 -60 -51 -98 -79
-277 -256 -369 -363 -86 -101 -281 -373 -281 -393 0 -3 -9 -19 -21 -35 -34
-48 -173 -336 -223 -459 -128 -323 -204 -663 -232 -1035 -11 -158 -6 -480 11
-620 3 -22 7 -62 10 -90 4 -27 10 -72 15 -100 5 -27 11 -63 14 -80 51 -337
238 -835 436 -1166 56 -94 178 -273 221 -324 375 -451 817 -780 1309 -972 239
-93 538 -169 785 -198 28 -4 57 -8 65 -10 8 -2 58 -7 110 -10 52 -4 111 -9
130 -11 44 -5 547 -5 620 0 30 2 87 7 125 10 39 3 97 9 130 12 33 2 71 7 85 9
14 3 45 7 70 10 25 3 57 8 73 10 15 3 42 7 60 10 17 3 43 8 57 10 14 3 36 7
50 10 255 47 577 151 807 260 213 101 453 255 594 382 l37 33 -83 228 c-46
125 -151 416 -235 647 -83 231 -155 429 -160 440 -5 11 -62 166 -126 345 -64
179 -193 534 -285 790 -93 256 -169 470 -169 477 0 7 -8 16 -17 21 -10 5 -409
8 -888 8 l-870 -1 0 -512 c0 -341 3 -513 10 -513 5 -1 388 -2 850 -3 l840 -2
0 -689 0 -690 -120 -57 c-295 -141 -511 -182 -945 -183 -285 -1 -343 3 -520
35 -147 26 -146 25 -282 65 -479 138 -904 426 -1193 809 -144 190 -266 424
-340 649 -24 74 -46 144 -49 157 -2 13 -11 59 -20 101 -34 162 -47 290 -49
483 -1 114 10 333 18 345 2 3 6 24 9 45 20 160 82 380 147 523 16 34 29 64 29
66 0 2 21 41 46 87 144 261 338 490 564 666 327 255 769 430 1190 471 100 9
487 9 575 -1 132 -15 305 -42 333 -52 6 -2 12 -1 12 3 0 4 -32 95 -71 202 -39
107 -72 200 -73 205 -2 6 -6 17 -9 25 -8 19 -145 399 -182 505 -16 44 -32 85
-36 90 -3 6 -10 24 -13 42 -4 17 -13 36 -19 41 -7 4 -50 10 -97 12 -99 3 -251
6 -253 4z"/>
</g>
</svg>
