<?xml version="1.0" encoding="UTF-8"?><svg id="Vrstva_1" xmlns="http://www.w3.org/2000/svg" viewBox="0 0 1366 768"><defs><style>.cls-1{fill:#25231f;}.cls-2{fill:#413c39;}.cls-3{fill:#064f3d;}</style></defs><path class="cls-1" d="M308.57,330.14c-9.71,.14-18.73-1.66-27.19-5.77-16.3-7.92-26.43-20.88-30.33-38.52-2.77-12.53-2.1-24.95,2.63-36.98,5.59-14.22,15.52-24.31,29.46-30.54,10.43-4.67,21.32-5.86,32.6-4.79,10.22,.98,19.51,4.42,27.9,10.22,11.65,8.05,19.01,19.16,22.23,32.88,2.69,11.46,2.5,22.97-1.12,34.24-5.62,17.5-17.23,29.37-34.46,35.71-7.1,2.61-14.47,3.73-21.73,3.56Zm-2.88-95.43c-11.75-.17-23.9,8.22-28.8,21.86-3.8,10.57-3.68,21.18,.52,31.62,3.26,8.09,8.8,14.18,16.86,17.74,6.4,2.82,13.09,3.59,20.03,2.43,11.12-1.86,19.32-7.76,24.27-17.83,5.54-11.27,5.68-22.9,1.38-34.6-1.73-4.72-4.47-8.84-8.13-12.29-6.58-6.21-14.51-8.93-26.13-8.92Z"/><path class="cls-1" d="M346.3,477.16h-27.48c-7.6-13.23-14.66-26.79-22.13-39.96-3.53-.4-14.85-.34-17.35,.08-.67,1.09-.38,2.33-.38,3.51-.03,10.79-.01,21.58-.02,32.37,0,1.2,0,2.4,0,3.66-.61,.18-1.01,.4-1.42,.4-7.05,.02-14.1,.02-21.15,0-.31,0-.63-.12-1.16-.22-.1-.58-.25-1.2-.28-1.82-.05-.88-.02-1.76-.02-2.64,0-34.68,0-69.36,0-104.03,0-1.31,.04-2.62,.06-3.81,1.12-.95,2.26-.67,3.32-.67,6.17-.03,12.34-.01,18.5-.01,10.24,0,20.49-.02,30.73,0,4.31,.01,8.56,.46,12.73,1.61,14.21,3.88,24.15,15.35,25.31,31.12,.37,4.96,.15,9.89-1.25,14.72-3.06,10.58-9.72,17.79-20.05,21.61-.9,.33-1.8,.66-2.87,1.05,1.38,3.19,3.27,5.9,4.91,8.73,1.65,2.86,3.36,5.69,5.02,8.54,1.61,2.75,3.2,5.52,4.81,8.28,1.66,2.85,3.35,5.69,5.01,8.54,1.64,2.83,3.45,5.56,5.14,8.94Zm-66.97-61.65c.52,.11,.84,.24,1.16,.24,8.03,.02,16.06,.09,24.09,0,2.86-.03,5.69-.6,8.3-1.9,5.69-2.86,8.44-7.56,8.25-13.87-.18-6.18-3.18-10.6-8.85-13.15-2.55-1.15-5.26-1.56-8.04-1.57-7.7-.02-15.4-.01-23.1,.01-.62,0-1.24,.19-1.92,.31-.1,.58-.23,1-.23,1.42,0,9.13,0,18.25,.02,27.38,0,.31,.17,.61,.32,1.13Z"/><path class="cls-1" d="M1028.67,364.05c9.96-.05,19.84-.02,29.65-.02,.37,.63,.64,.98,.79,1.37,14.21,36.95,28.4,73.9,42.59,110.85,.07,.18-.03,.42-.06,.63-.07,.07-.12,.17-.2,.21-.09,.05-.21,.09-.32,.09-1.1,.03-2.2,.06-3.3,.06-7.59,0-15.19,0-22.98,0-.41-.92-.85-1.79-1.18-2.69-1.59-4.34-3.15-8.68-4.73-13.02-.37-1.02-.78-2.04-1.22-3.17-.57-.09-1.09-.26-1.61-.26-15.08-.01-30.17-.01-45.25,0-.43,0-.87,.08-1.53,.15-2.56,6.11-4.59,12.49-7.17,18.79-3.01,.42-5.97,.15-8.91,.19-3.08,.05-6.17,.02-9.25,0-2.94-.01-5.89,.05-8.88-.05,0-.55-.08-.9,.01-1.19,1.12-3.62,42.31-109.65,43.53-111.97Zm32.06,72.33c-.26-.96-.44-1.81-.73-2.62-.99-2.8-2.02-5.58-3.03-8.37-4.16-11.47-8.33-22.94-12.49-34.41-.24-.66-.36-1.41-1.32-1.78-1.03,2.84-2.01,5.52-2.98,8.2-4.42,12.19-8.84,24.39-13.26,36.58-.29,.79-.81,1.57-.33,2.43,2.54,.35,26.49,.56,32.38,.28,.53-.03,1.05-.19,1.75-.31Z"/><path class="cls-1" d="M567.58,476.95c-2.48,.37-22.93,.46-26.9,.1-2.56-6.07-4.46-12.5-7.03-18.77-.83-.07-1.58-.17-2.34-.18-18.47-.3-42.73-.15-46.11,.29-2.31,6.14-4.67,12.4-6.98,18.54-3.27,.48-24.64,.43-27.32-.07,.28-.84,.52-1.66,.82-2.46,12.66-33.73,41.27-107.26,42.94-110.27,3.12-.24,6.41-.08,9.69-.1,3.41-.03,6.83-.05,10.24,0,3.28,.05,6.58-.25,9.76,.19,1.1,2.01,42.41,108.73,43.27,111.78,.08,.29-.02,.64-.04,.95Zm-75.29-40.63c2.8,.45,26.56,.68,32.71,.36,.52-.03,1.03-.2,1.69-.34-.19-.77-.31-1.41-.52-2.01-.65-1.87-1.34-3.73-2.01-5.59-4.46-12.31-8.9-24.63-13.4-36.92-.31-.85-.25-2.03-1.65-2.51-5.54,15.08-10.95,30.18-16.42,45.26-.18,.5-.24,1.04-.4,1.76Z"/><path class="cls-1" d="M734.92,430.84c-.36,3.56-.29,22.29,.1,24.74,.72,.7,1.64,.51,2.5,.52,5.18,.02,10.36,.01,15.53,.01,11.13,0,22.25,0,33.38,0,1.2,0,2.41,0,3.69,0,.19,.54,.46,.93,.46,1.32,.03,6.17,.02,12.33,0,18.5,0,.31-.16,.62-.23,.87-.14,.12-.22,.2-.32,.26-.09,.05-.19,.11-.3,.11-.55,.04-1.1,.09-1.65,.09-25.45-.01-50.9-.03-76.35-.06-.2,0-.41-.13-.81-.27-.08-.52-.23-1.14-.27-1.77-.05-.77-.02-1.54-.02-2.31,0-34.8,0-69.6,0-104.39v-3.75c1.22-.9,2.36-.66,3.44-.67,3.97-.03,7.93-.01,11.9-.01,20.16,0,40.32,0,60.48,.01,1.29,0,2.64-.28,3.85,.4,.46,3,.41,17.92-.06,20.44-1.11,.64-2.35,.36-3.53,.36-15.86,.02-31.73,.01-47.59,.02-1.3,0-2.61,.05-4.04,.09-.72,2.74-.3,5.37-.37,7.97-.07,2.53-.06,5.07,0,7.6,.06,2.62-.29,5.26,.27,7.82,1.22,.74,2.46,.45,3.64,.45,13,.02,26,.01,39,.01,2.86,0,5.73-.01,8.59,0,.87,0,1.73,.09,2.72,.15,.65,1.77,.31,3.54,.36,5.25,.06,1.76,.01,3.52,.01,5.29,0,1.65,.03,3.3,0,4.96-.04,1.73,.22,3.48-.3,5.37-1.3,.05-2.48,.12-3.67,.12-15.64,0-31.29,0-46.93,.03-1.16,0-2.43-.39-3.48,.48Z"/><path class="cls-1" d="M1280.26,364.47v20.2c-1.17,.91-2.43,.57-3.6,.57-12.78,.03-25.55,.02-38.33,.02-3.3,0-6.61,0-9.91,0-1.09,0-2.18,0-3.38,0-.18,.7-.42,1.2-.42,1.7-.03,6.82-.03,13.65-.01,20.47,0,.43,.15,.85,.22,1.24,1.15,.83,2.41,.5,3.58,.5,15.42,.02,30.84,.02,46.26,.02h4.01c.19,.55,.45,.95,.45,1.34,.02,6.16,.02,12.33,0,18.49,0,.31-.16,.61-.28,1.01-1.13,.53-2.36,.29-3.54,.29-15.53,.02-31.06,.01-46.59,.01h-3.74c-.16,.7-.37,1.2-.37,1.7-.02,7.38-.02,14.75,0,22.13,0,.52,.18,1.04,.28,1.58,1.38,.55,2.71,.34,4.01,.34,15.75,.02,31.5,0,47.25,.02,1.29,0,2.61-.14,3.83,.22,.51,2.72,.56,17.35,.07,20.72-.9,.06-1.85,.19-2.81,.19-7.27,.02-14.54,0-21.81,0-16.96,0-33.92,0-50.88,0h-3.76c-.15-.79-.32-1.4-.36-2.02-.06-.88-.02-1.76-.02-2.64,0-34.68,0-69.35,0-104.03,0-1.31,0-2.63,0-4.08,.77-.17,1.37-.38,1.98-.43,.76-.07,1.54-.03,2.31-.03,23.79,0,47.58,0,71.37,0,1.3,0,2.64-.21,4.19,.44Z"/><path class="cls-1" d="M364.27,476.9c-.38-3.03-.36-109.72,.03-112.53,.57-.11,1.19-.27,1.82-.33,.66-.06,1.32-.02,1.98-.02,23.91,0,47.82,0,71.72,.01,1.29,0,2.65-.27,3.95,.47,.06,.4,.18,.83,.18,1.25,0,6.06,0,12.11-.03,18.17,0,.3-.17,.61-.26,.91-1.16,.68-2.4,.41-3.59,.41-13.22,.02-26.44,.01-39.66,.01-3.2,0-6.39-.01-9.59,.01-.85,0-1.7,.14-2.69,.23-.1,.67-.22,1.19-.24,1.71-.23,5.79-.07,19.02,.25,21.48,1.04,.83,2.3,.49,3.47,.49,11.46,.03,22.92,.02,34.37,.02,4.3,0,8.59,0,12.89,0,1.09,0,2.18,.04,3.33,.06,.78,2.42,.33,4.73,.41,7,.08,2.2,.02,4.4,.02,6.61v7.1c-.88,.14-1.6,.36-2.32,.36-5.29,.03-10.58,.02-15.87,.02-10.8,0-21.59,0-32.39,0h-3.68c-.19,.55-.45,.94-.45,1.34-.03,7.6-.03,15.2-.01,22.79,0,.41,.16,.83,.26,1.29,1.24,.52,2.46,.34,3.65,.34,15.53,.01,31.07,0,46.6,.01,1.21,0,2.42-.02,3.64,.02,.52,.02,1.04,.15,1.55,.23,.14,.46,.31,.76,.31,1.07,.02,6.17,.02,12.33,0,18.5,0,.31-.16,.62-.21,.82-.16,.17-.22,.27-.32,.32-.09,.05-.21,.08-.32,.08-.66,.04-1.32,.1-1.97,.1-25.34-.01-50.68-.03-76.02-.06-.2,0-.4-.14-.84-.29Z"/><path class="cls-1" d="M892.34,378.15c-4.52,5.93-8.83,11.61-13.28,17.45-.7-.5-1.23-.83-1.71-1.22-9.75-7.92-20.97-11.35-33.45-10.93-2.45,.08-4.81,.64-7.06,1.58-2.61,1.09-4.78,2.77-5.93,5.45-1.74,4.06-1.07,7.85,2.84,10.4,2.24,1.46,4.66,2.52,7.21,3.21,5.95,1.6,11.93,3.08,17.9,4.62,5.87,1.51,11.67,3.22,17.17,5.83,3.91,1.86,7.54,4.14,10.63,7.18,5.19,5.11,7.72,11.44,8.17,18.62,.25,3.97-.1,7.9-1.03,11.8-2.33,9.72-8.12,16.66-16.83,21.33-5.02,2.68-10.4,4.24-15.99,5.02-11.15,1.56-22.2,.99-33.07-2.01-9.28-2.56-17.55-7.03-24.59-13.65-.47-.45-.89-.95-1.47-1.58,4.27-6.07,8.49-12.08,12.86-18.3,.81,.66,1.48,1.17,2.1,1.73,7.01,6.32,15.01,10.75,24.32,12.6,5.55,1.11,11.14,1.44,16.73,.25,3.5-.74,6.78-2.01,9.27-4.71,.96-1.04,1.86-2.21,2.45-3.48,1.83-3.88,.86-7.62-2.51-10.32-1.82-1.47-3.89-2.55-6.1-3.23-3.99-1.24-8.02-2.35-12.06-3.44-5.73-1.56-11.51-2.94-17.21-4.6-4.66-1.36-9.09-3.35-13.18-6.01-6.69-4.35-11.17-10.3-12.53-18.24-2.33-13.65,2.07-24.72,13.3-32.93,5.44-3.97,11.64-6.3,18.23-7.31,14.03-2.14,27.68-.68,40.67,5.28,5.13,2.35,9.79,5.46,14.15,9.62Z"/><path class="cls-1" d="M480.91,328.05h-29.35c-3.8-5-7.59-9.99-11.38-14.98-3.72-4.91-7.43-9.84-11.16-14.74-3.79-4.98-7.47-10.03-11.46-15.03-.5,.42-.86,.65-1.13,.96-2.2,2.6-4.34,5.27-6.6,7.82-1.03,1.17-1.33,2.42-1.32,3.92,.04,8.7,.02,17.39,.02,26.09,0,1.85-.05,3.71-.07,5.65-.56,.16-.96,.38-1.36,.38-6.94,.02-13.88,.03-20.81,.02-.42,0-.84-.14-1.21-.21-.69-1.11-.42-2.23-.43-3.3-.02-8.81-.01-17.61-.01-26.42,0-26.31,0-52.62,0-78.93,0-1.29-.13-2.61,.18-3.83,2.64-.48,19.26-.58,23.2-.17,.77,.8,.49,1.84,.49,2.79,.03,6.38,.01,12.77,.01,19.15,0,8.15,0,16.29,0,24.44,0,.94,.09,1.89,.14,2.78,.35,.04,.46,.07,.56,.06,.11-.01,.23-.04,.3-.11,.16-.15,.31-.31,.45-.48,12.85-16.22,25.7-32.43,38.53-48.63,3.81-.39,26.49-.29,29.18,.17-.56,1.25-1.42,2.21-2.25,3.19-8.04,9.49-16.07,18.99-24.11,28.49-5.33,6.3-10.67,12.6-16,18.9-.57,.67-1.09,1.37-1.73,2.17,.59,.82,1.12,1.64,1.72,2.39,14.37,17.97,28.74,35.93,43.11,53.91,.8,1,1.73,1.94,2.48,3.58Z"/><path class="cls-1" d="M992.02,384.77c-1.38,.72-2.62,.47-3.8,.47-8.37,.02-16.74,0-25.1,.02-1.18,0-2.41-.23-3.76,.5-.3,3.76-.09,7.6-.13,11.42-.04,3.74,0,7.48,0,11.23v68.45c-.8,.15-1.42,.37-2.03,.38-6.72,.02-13.43,.02-20.15,0-.54,0-1.08-.09-1.72-.15-.13-.56-.32-1.08-.36-1.61-.06-.99-.03-1.98-.03-2.97,0-27.51,0-55.03,0-82.54,0-1.41-.05-2.82-.08-4.2-1.3-.78-2.54-.51-3.71-.51-8.37-.03-16.74-.01-25.1-.02-1.2,0-2.39-.04-3.69-.06-.18-.69-.43-1.19-.44-1.7-.03-5.94-.02-11.89,0-17.83,0-.41,.17-.82,.29-1.39,.71-.09,1.34-.21,1.97-.23,12.2-.42,84.45-.16,87.72,.34,.53,3.4,.2,6.89,.24,10.35,.04,3.38,.14,6.77-.1,10.05Z"/><path class="cls-1" d="M1151.84,477.03c-.5,.08-.91,.2-1.33,.2-7.38,.01-14.75,0-22.28,0-.16-.73-.37-1.34-.41-1.96-.07-.99-.02-1.98-.02-2.97,0-27.53,0-55.06,0-82.59,0-1.31-.04-2.61-.07-3.92-1.23-.84-2.47-.54-3.64-.54-8.48-.03-16.97,0-25.45-.02-1.19,0-2.41,.19-3.7-.39-.44-3.4-.15-6.79-.19-10.17-.04-3.39-.06-6.79,.03-10.21,.63-.17,1.04-.36,1.46-.39,.88-.06,1.76-.05,2.64-.05,27.32,0,54.64,0,81.97,0,1.3,0,2.64-.25,3.86,.38,.47,2.67,.48,17.57,.02,20.42-1.09,.7-2.33,.41-3.51,.41-8.37,.03-16.75,0-25.12,.02-1.19,0-2.37,.07-3.51,.11-.72,1.35-.46,2.59-.46,3.76-.02,10.35-.01,20.7-.01,31.05,0,17.73,0,35.46,0,53.19,0,1.18,.16,2.4-.28,3.66Z"/><path class="cls-1" d="M579.07,364.03c7.31,0,14.47,0,21.62,.01,.53,0,1.06,.16,1.66,.26,.48,1.36,.29,2.68,.29,3.97,.01,24.44,0,48.89,0,73.33,0,3.74-.01,7.49,0,11.23,0,.96,.12,1.92,.2,3.02,3.24,.47,6.31,.19,9.36,.24,3.19,.05,6.39,.01,9.58,.01h28.15c.2,.51,.48,.9,.48,1.29,.03,6.17,.02,12.33,.01,18.5,0,.31-.15,.62-.27,1.1-.6,.08-1.23,.24-1.86,.24-22.58,.01-45.16,0-67.75,0-.44,0-.87-.06-1.5-.11-.15-.59-.38-1.18-.45-1.78-.08-.65-.03-1.32-.03-1.98,0-35.12,0-70.25,.01-105.37,0-1.18-.21-2.41,.47-3.97Z"/><path class="cls-3" d="M153.69,217.11c.79,.29,1.6,.53,2.36,.87,16.38,7.35,27.12,19.62,31.59,37.03,3.67,14.27,2.91,28.38-3.19,41.93-6.06,13.46-16.14,22.84-29.81,28.38-.37,.15-.76,.26-1.49,.51,.25-.73,.32-1.15,.52-1.49,5.09-8.79,7.81-18.38,9.51-28.29,1.79-10.44,2.43-20.97,1.9-31.54-.54-10.67-1.89-21.23-5.1-31.49-1.51-4.84-3.37-9.53-5.88-13.94-.27-.47-.51-.95-.76-1.43,.12-.18,.24-.35,.36-.53Z"/><path class="cls-3" d="M108.23,217.2c-1.3,2.67-2.47,4.91-3.5,7.21-3.25,7.28-5.18,14.94-6.47,22.78-1.63,9.91-2.23,19.9-1.82,29.91,.45,10.9,1.78,21.69,5,32.18,1.52,4.96,3.42,9.75,5.93,14.29,.31,.57,.59,1.15,.86,1.67-.45,.69-.84,.21-1.2,.13-.42-.1-.83-.29-1.23-.46-14.61-6.32-24.93-16.87-30.25-31.83-5.77-16.22-5.27-32.47,1.99-48.19,6.04-13.07,16.09-22.09,29.41-27.5,.27-.11,.6-.09,1.29-.18Z"/><path class="cls-3" d="M151.51,326.94c-.02,.2,.03,.45-.07,.6-2.91,4.37-6.41,8.17-11.19,10.46-8.36,4.01-16.21,2.99-23.41-2.86-2.32-1.88-4.36-4.03-6.11-6.45-.36-.5-.62-1.09-.96-1.71,.2,0,41.74-.03,41.74-.03Z"/><path class="cls-3" d="M109.52,216c6.2-10.66,15.46-14.29,23.15-13.5,2.1,.22,4.13,.67,6.06,1.48,5.67,2.37,9.81,6.48,13.38,11.93-2.81-.31-4.99-1.37-7.33-1.71-2.28-.34-4.54-.89-6.83-1.13-2.4-.25-4.83-.32-7.25-.32-2.31,0-4.63,.06-6.92,.3-2.4,.26-4.79,.69-7.16,1.18-2.25,.47-4.46,1.1-7.11,1.77Z"/><path class="cls-2" d="M535.7,536.41c1.69-.71,2.64-.05,3.52,1.15,4.82,6.57,9.68,13.1,14.53,19.64,.5,.68,1.07,1.3,1.61,1.95,1.04-.57,.74-1.42,.75-2.12,.03-5.72,.01-11.45,.02-17.17,0-1.09,.07-2.18,.12-3.45,.72-.09,1.32-.16,2.04-.25,.12,.64,.27,1.17,.3,1.69,.27,5.8,.07,24.23-.28,26.79-1.09,.59-2.04,.37-2.84-.6-.49-.59-.92-1.23-1.38-1.85-4.49-6.12-8.97-12.25-13.48-18.37-.63-.85-1.08-1.89-2.04-2.36-.24,.11-.36,.13-.42,.21-.06,.08-.09,.2-.1,.31-.03,.22-.06,.44-.06,.65-.03,7.15-.06,14.3-.1,21.46,0,.1-.07,.2-.12,.34-.61,.69-1.28,.65-1.97,.11-.4-2.55-.49-24.34-.09-28.12Z"/><path class="cls-2" d="M370.15,549.47c-.03,5.04-1.01,8.59-3.64,11.52-3.94,4.4-8.99,5.4-14.46,4-5.27-1.35-8.34-5.11-9.61-10.31-.85-3.5-.64-6.99,.64-10.38,2.01-5.32,6.68-8.6,12.42-8.77,5.99-.18,10.86,2.8,13.24,8.06,1.02,2.25,1.41,4.61,1.4,5.89Zm-25.48,.02c0,3.92,.58,6.55,2.18,8.92,3.83,5.7,11.94,6.45,16.96,1.76,4.49-4.2,5.29-13.89,.16-19.18-4.22-4.35-12.09-3.79-15.56-.23-2.72,2.79-3.72,6.11-3.75,8.74Z"/><path class="cls-2" d="M469.79,550.23c-.02,3.89-.86,7.24-3.13,10.14-3.03,3.88-7.12,5.4-11.9,5.12-7.38-.44-12.37-5.55-13.13-13.6-.26-2.78,.22-5.49,1.29-8.07,2.17-5.21,6.9-8.27,12.75-8.29,5.76-.02,10.62,3.09,12.8,8.23,.91,2.13,1.47,4.84,1.32,6.47Zm-14.01-12.33c-4.98,0-8.61,2.41-10.46,7.03-1.59,3.97-1.49,7.97,.26,11.84,1.9,4.19,5.32,6.39,9.89,6.47,4.56,.08,8.05-1.95,10.14-6.06,2.05-4.05,2.14-8.23,.44-12.42-1.8-4.42-5.49-6.84-10.27-6.85Z"/><path class="cls-2" d="M587.52,559.52c.05-2.18,.18-4.24-.09-6.18-1.38-.75-2.61-.46-3.8-.5-1.98-.06-3.96-.03-5.94-.1-.63-.02-.98-.45-.96-1.09,.03-.66,.46-.99,1.06-1,3.95-.06,7.89-.11,11.97,.03,.13,.83,.29,1.45,.3,2.08,.04,2.09-.05,4.18,.04,6.27,.06,1.35-.48,2.29-1.48,3.12-3.12,2.59-6.76,3.74-10.74,3.4-5.7-.49-10.08-3.2-12.28-8.63-2.26-5.58-1.83-11.04,1.83-15.95,4.71-6.32,15.31-7.59,21.42-1.63,.3,.29,.5,.69,.83,1.15-.47,.39-.86,.73-1.41,1.19-.75-.53-1.46-1-2.14-1.51-6.38-4.8-17.93-2.31-19.08,8.95-.17,1.71,.02,3.54,.46,5.21,2.63,9.92,14.39,11.48,20,5.2Z"/><path class="cls-2" d="M496.57,564.42v-27.94c.56-.14,1.06-.38,1.57-.38,3.08-.02,6.18-.18,9.25,.06,5.94,.47,10.17,3.54,12.09,9.21,1.46,4.32,1.23,8.69-1.06,12.77-2.35,4.18-6.12,6.33-10.75,6.71-3.39,.28-6.82,.03-10.23,0-.19,0-.38-.18-.87-.43Zm2.69-1.9c3.01,.32,5.88,.41,8.69,0,4.37-.65,7.41-3.14,8.97-7.32,.63-1.67,.83-3.41,.76-5.18-.26-6.95-4.77-11.47-11.71-11.71-1.65-.06-3.3-.04-4.95,.01-.62,.02-1.24,.25-1.81,.38-.36,3-.34,20.72,.04,23.82Z"/><path class="cls-2" d="M412.67,536.27c.76-.05,1.29-.08,1.98-.12,.64,2.1,.28,4.18,.34,6.21,.06,1.97,.01,3.94,.01,5.98,.56,.19,.95,.45,1.34,.45,5.28,.02,10.56,.01,15.84,0,.21,0,.42-.11,.83-.22,.12-.52,.36-1.12,.37-1.73,.05-2.64,0-5.28,.04-7.92,0-.86,.13-1.71,.21-2.65h2c.52,2.47,.68,22.62,.23,28.29-.62,.1-1.3,.22-2,.33-.19-.49-.4-.79-.4-1.09-.04-2.97-.03-5.94-.06-8.91-.01-1.07-.1-2.15-.15-3.19-.5-.18-.8-.38-1.1-.38-5.17-.03-10.34-.03-15.52-.03-.42,0-.83,.14-1.42,.24-.52,4.31,0,8.59-.32,12.73-.53,.76-1.15,.79-1.8,.48-.59-.28-.6-.87-.6-1.42,0-3.41-.01-6.82-.01-10.23,0-4.62,0-9.24,0-13.86,0-.97,.1-1.93,.16-2.96Z"/><path class="cls-2" d="M394.96,536.45c-3.62,4.66-7.84,8.68-11.6,13.39,1.06,1.25,2.1,2.51,3.17,3.74,1.08,1.24,2.2,2.46,3.3,3.69,1.03,1.15,2.09,2.27,3.07,3.45,1.03,1.23,2.34,2.26,3.15,3.89-1.57,.68-2.64,.39-3.63-.75-2.8-3.25-5.65-6.45-8.48-9.68-.72-.82-1.41-1.67-2.03-2.41-1.56,.6-2.24,1.66-2.96,2.58-.42,.54-.52,1.43-.54,2.17-.07,2.31,0,4.62-.07,6.93-.03,1.26-.22,1.34-2.04,1.3-.11-.28-.32-.57-.34-.88-.25-3.72-.08-25.09,.2-27.34,.55-.54,1.15-.48,1.95-.06,.08,.63,.24,1.36,.25,2.1,.03,3.3,0,6.6,.03,9.9,0,.72,.15,1.43,.26,2.45,1.14-.66,1.71-1.44,2.34-2.15,3.35-3.79,6.72-7.56,10.04-11.38,1.05-1.21,2.19-1.7,3.93-.93Z"/><path class="cls-2" d="M300.87,560.91c.36,.39,.64,.7,1.04,1.13-.94,1.56-2.43,2.31-3.95,2.8-8.07,2.59-14.5-2.38-14.61-9.8-.03-2.13,.23-4.16,1.22-6.08,1.91-3.69,5.68-5.81,9.77-5.47,4.16,.35,7.22,2.96,8.46,7.21,.4,1.38,.68,2.76,.21,4.3-2.85,.46-5.71,.15-8.55,.21-2.74,.06-5.48,.05-8.32,.07-.32,3.33,1.18,5.56,3.63,7.04,3.93,2.37,7.6,1.06,11.09-1.41Zm-14.72-7.89c2.63,.44,11.65,.46,14.42,.04,.97-3.62-3.18-7.69-7.11-7.63-1.94,.03-3.7,.67-5.04,2.07-1.45,1.52-2.61,3.24-2.27,5.52Z"/><path class="cls-2" d="M308.4,544.24c.68-.04,1.29-.07,1.89-.11,.2,.78,.35,1.4,.56,2.22,.94-.56,1.75-1.08,2.6-1.55,1.57-.86,3.22-1.4,5.04-1.34,4.3,.13,6.14,2.85,6.1,5.91-.05,3.41,0,6.82,0,10.23,0,1.63,.1,3.28-.12,4.85-1.57,.4-1.91,.28-1.92-.77-.04-3.63-.02-7.26-.04-10.89,0-.99,.03-1.99-.1-2.96-.4-2.93-2.3-4.44-5.27-4.24-1.68,.11-3.2,.73-4.59,1.68-1.37,.93-2.05,2.11-1.99,3.86,.11,3.52,.04,7.04,.02,10.56,0,.97-.09,1.94-.14,2.86-1.66,.31-2.02,.18-2.13-.72-.06-.43-.07-.88-.07-1.32,0-5.5,0-11,0-16.51,0-.54,.1-1.07,.18-1.77Z"/><path class="cls-2" d="M475.71,564.83c-.1-1.08-.24-1.82-.23-2.57,0-8.57-.07-17.14,.04-25.88,.83-.08,1.43-.13,1.99-.19,.65,1.15,.42,2.28,.42,3.36,.02,6.5,0,12.99,.02,19.49,0,1.08,.1,2.16,.16,3.4,.79,.11,1.41,.25,2.04,.26,2.64,.03,5.29,.01,7.93,.02,.77,0,1.54-.01,2.31,.01,1.18,.04,1.65,.41,1.57,1.18-.08,.76-.49,1.02-1.73,1.07-.77,.03-1.54,.01-2.31,.01-3.08,0-6.17,0-9.25,0-.87,0-1.74-.09-2.95-.15Z"/><path class="cls-2" d="M270.37,560.68c1.24,1.33,1.27,1.58,.59,2.32-3.23,3.56-10.91,3.57-14.57-1.32-2.8-3.74-2.62-10.21-.62-13.44,3.2-5.16,10.39-6.42,14.87-2.52,.39,.34,.66,.84,.99,1.27-.29,.34-.48,.62-.73,.82-.15,.12-.4,.13-.76,.23-.26-.19-.61-.44-.95-.69-4.64-3.42-10.48-1.56-12.04,3.92-.71,2.47-.7,5,.33,7.43,2.02,4.73,7.29,6.19,11.47,3.18,.44-.31,.83-.69,1.42-1.18Z"/><path class="cls-2" d="M526.34,564.67c-.35-3.46-.31-25.5,.05-28.34h1.77c.12,.2,.33,.38,.34,.57,.06,1.1,.1,2.19,.1,3.29,0,6.92,0,13.84,0,20.76,0,.88,.02,1.76-.03,2.64-.07,1.21-.23,1.28-2.24,1.09Z"/><path class="cls-2" d="M278.01,536.3c.09,.67,.26,1.3,.26,1.93,.02,8.13,.01,16.26,.01,24.39,0,.44-.02,.88-.07,1.31-.08,.63-.45,.98-1.1,.94-.66-.04-.93-.5-.98-1.09-.05-.55-.05-1.1-.05-1.65,0-7.69,0-15.38,0-23.07,0-.66,0-1.32,.08-1.97,.15-1.14,.93-.95,1.85-.79Z"/><path class="cls-2" d="M265.83,540.68h-2.64c-1.22-1.77-2.45-3.54-3.61-5.21,.46-.95,1.02-.78,1.41-.41,.63,.6,1.13,1.33,1.7,1.99,.56,.64,1.14,1.27,1.77,1.96,1.47-1.11,2.17-2.63,3.24-3.84,.47-.54,1.03-.71,1.81-.13-1.03,1.98-2.37,3.69-3.68,5.64Z"/></svg>