<?xml version="1.0" encoding="UTF-8"?><svg id="Vrstva_1" xmlns="http://www.w3.org/2000/svg" viewBox="0 0 1263.05 622.2"><defs><style>.cls-1{fill:#fff;}</style></defs><polygon class="cls-1" points="414.17 283.68 370.04 225.34 358.68 238.89 358.68 283.68 327.65 283.68 327.65 137.94 358.68 137.94 358.68 203.06 410.24 137.94 448.48 137.94 390.58 206.33 452.41 283.68 414.17 283.68"/><polygon class="cls-1" points="260.36 332.54 260.36 389.79 191.53 389.79 191.53 332.54 160.51 332.54 160.51 478.27 191.53 478.27 191.53 417.09 260.36 417.09 260.36 478.27 291.6 478.27 291.6 332.54 260.36 332.54"/><path class="cls-1" d="M433.62,405.52c0-27.31-17.48-47.85-44.36-47.85s-44.13,20.54-44.13,47.85,17.26,47.85,44.13,47.85,44.36-20.76,44.36-47.85m-120.39,0c0-43.92,32.12-75.38,76.03-75.38s76.25,31.46,76.25,75.38-32.12,75.38-76.25,75.38-76.03-31.46-76.03-75.38"/><polygon class="cls-1" points="487.36 332.54 487.36 478.27 580 478.27 580 450.96 518.39 450.96 518.39 332.54 487.36 332.54"/><path class="cls-1" d="M704.76,405.52c0-25.79-15.73-45.67-45.67-45.67h-26.43v91.11h26.43c28.84,0,45.67-20.76,45.67-45.44m-103.13,72.75v-145.73h57.46c45.67,0,77.35,29.06,77.35,72.98s-31.68,72.75-77.35,72.75h-57.46Z"/><rect class="cls-1" x="758.5" y="332.54" width="31.03" height="145.73"/><polygon class="cls-1" points="917.77 332.54 917.77 424.09 850.26 332.54 818.36 332.54 818.36 478.27 849.39 478.27 849.39 383.23 918.86 478.27 948.8 478.27 948.8 332.54 917.77 332.54"/><g><path class="cls-1" d="M970.64,405.52c0-46.1,34.96-75.38,77.56-75.38,30.37,0,49.38,15.29,60.3,32.55l-25.78,13.98c-6.56-10.27-19.01-19.01-34.52-19.01-26.43,0-45.67,20.32-45.67,47.85s19.23,47.85,45.67,47.85c12.89,0,25.13-5.68,31.03-11.14v-17.48h-38.45v-27.09h69.48v55.93c-14.85,16.61-35.61,27.53-62.05,27.53-42.6,0-77.56-29.71-77.56-75.59"/><path class="cls-1" d="M257.28,142.93c28.97,10.34,48.05,36.79,48.05,70.65s-19.13,60.37-48.16,70.69c10.16-15.78,16.09-40.62,16.25-69.43,.01-.42,.01-.83,.01-1.26s0-.85-.01-1.28c-.16-28.93-6.05-53.66-16.14-69.37"/><path class="cls-1" d="M257.28,142.93c-8.6-3.07-18.08-4.73-28.2-4.73s-19.54,1.66-28.13,4.75c7.32-11.5,16.89-18.17,28.13-18.17s20.84,6.67,28.2,18.15"/><path class="cls-1" d="M229.08,288.96c10.07,0,19.51-1.65,28.09-4.69-7.34,11.43-16.91,18.1-28.09,18.1s-20.72-6.68-28.04-18.12c8.57,3.06,18,4.71,28.04,4.71"/><path class="cls-1" d="M200.95,142.96c-10.02,15.72-15.84,40.44-16,69.35,0,.43,0,.85,0,1.28,0,29.32,5.88,54.66,16.1,70.67-28.89-10.34-47.99-36.8-47.99-70.67s19.06-60.28,47.9-70.63"/></g></svg>