<?xml version="1.0" encoding="utf-8"?>
<!-- Generator: Adobe Illustrator 27.3.1, SVG Export Plug-In . SVG Version: 6.00 Build 0)  -->
<svg version="1.1" id="Vrstva_1" xmlns="http://www.w3.org/2000/svg" xmlns:xlink="http://www.w3.org/1999/xlink" x="0px" y="0px"
	 viewBox="0 0 100 100" style="enable-background:new 0 0 100 100;" xml:space="preserve">
<style type="text/css">
	.st0{display:none;}
	.st1{display:inline;}
	.st2{fill:#0F66DC;}
	.st3{fill:#FFFFFF;}
	.st4{display:inline;fill:#0F66DC;}
	.st5{display:inline;fill:#FFFFFF;}
	.st6{fill:none;stroke:#FFFFFF;stroke-width:3;stroke-miterlimit:10;}
</style>
<g id="pojištění" class="st0">
	<g class="st1">
		<path class="st2" d="M26.5,43c-5.3,0-9.6-4.3-9.6-9.6c0-5.3,4.3-9.6,9.6-9.6c5.3,0,9.6,4.3,9.6,9.6C36.2,38.7,31.8,43,26.5,43z
			 M26.5,26.8c-3.6,0-6.6,2.9-6.6,6.6s2.9,6.6,6.6,6.6s6.6-2.9,6.6-6.6S30.1,26.8,26.5,26.8z"/>
		<path class="st2" d="M57.5,43H43.3c-0.8,0-1.5-0.7-1.5-1.5c0-0.8,0.7-1.5,1.5-1.5h14.3c0.8,0,1.5,0.7,1.5,1.5
			C59.1,42.3,58.4,43,57.5,43z"/>
		<path class="st2" d="M51,52.8H19.1c-0.9,0-1.5-0.7-1.5-1.5c0-0.8,0.7-1.5,1.5-1.5H51c0.8,0,1.5,0.7,1.5,1.5S51.8,52.8,51,52.8z"/>
		<path class="st2" d="M42.5,62H19.1c-0.9,0-1.5-0.7-1.5-1.5c0-0.8,0.7-1.5,1.5-1.5h23.3c0.8,0,1.5,0.7,1.5,1.5S43.3,62,42.5,62z"/>
		<path class="st2" d="M39.4,71.2H19.1c-0.9,0-1.5-0.7-1.5-1.5s0.7-1.5,1.5-1.5h20.3c0.8,0,1.5,0.7,1.5,1.5S40.3,71.2,39.4,71.2z"/>
		<path class="st2" d="M39.4,80.4H19.1c-0.9,0-1.5-0.7-1.5-1.5s0.7-1.5,1.5-1.5h20.3c0.8,0,1.5,0.7,1.5,1.5
			C41,79.7,40.3,80.4,39.4,80.4z"/>
		<path class="st2" d="M57.5,35.6H43.3c-0.8,0-1.5-0.7-1.5-1.5c0-0.8,0.7-1.5,1.5-1.5h14.3c0.8,0,1.5,0.7,1.5,1.5
			C59.1,34.9,58.4,35.6,57.5,35.6z"/>
		<path class="st2" d="M57.5,28.2H43.3c-0.8,0-1.5-0.7-1.5-1.5s0.7-1.5,1.5-1.5h14.3c0.8,0,1.5,0.7,1.5,1.5
			C59.1,27.5,58.4,28.2,57.5,28.2z"/>
		<path class="st2" d="M71.9,95.6h-9.8c-0.8,0-1.5-0.7-1.5-1.5v-4.6c-0.3-0.1-0.6-0.2-0.9-0.4l-3.3,3.3c-0.6,0.6-1.6,0.6-2.2,0
			l-6.9-6.9c-0.3-0.3-0.5-0.7-0.5-1.1s0.2-0.8,0.5-1.1l3.3-3.3c-0.1-0.3-0.3-0.6-0.4-0.9h-4.6c-0.8,0-1.5-0.7-1.5-1.5v-9.8
			c0-0.8,0.7-1.5,1.5-1.5h4.6c0.1-0.3,0.2-0.6,0.4-0.9L47.4,62c-0.3-0.3-0.5-0.7-0.5-1.1s0.2-0.8,0.5-1.1l6.9-6.9
			c0.3-0.3,0.7-0.5,1.1-0.5s0.8,0.2,1.1,0.5l3.3,3.3c0.3-0.1,0.6-0.3,0.9-0.4v-4.6c0-0.8,0.7-1.5,1.5-1.5h9.8c0.8,0,1.5,0.7,1.5,1.5
			v4.6c0.3,0.1,0.6,0.2,0.9,0.4l3.3-3.3c0.6-0.6,1.6-0.6,2.2,0l6.9,6.9c0.6,0.6,0.6,1.6,0,2.2l-3.3,3.3c0.1,0.3,0.3,0.6,0.4,0.9h4.6
			c0.8,0,1.5,0.7,1.5,1.5v9.8c0,0.8-0.7,1.5-1.5,1.5h-4.6c-0.1,0.3-0.2,0.6-0.4,0.9l3.3,3.3c0.6,0.6,0.6,1.6,0,2.2l-6.9,6.9
			c-0.6,0.6-1.6,0.6-2.2,0l-3.3-3.3c-0.3,0.1-0.6,0.3-0.9,0.4v4.6C73.5,94.9,72.8,95.6,71.9,95.6z M63.7,92.5h6.7v-4.2
			c0-0.7,0.4-1.3,1.1-1.5c0.8-0.3,1.7-0.6,2.5-1.1c0.6-0.3,1.3-0.2,1.8,0.3l2.9,2.9l4.7-4.7l-2.9-2.9c-0.5-0.5-0.6-1.2-0.3-1.8
			c0.4-0.8,0.8-1.7,1.1-2.5c0.2-0.6,0.8-1.1,1.5-1.1h4.2v-6.7h-4.2c-0.7,0-1.3-0.4-1.5-1.1c-0.3-0.8-0.6-1.7-1.1-2.5
			c-0.3-0.6-0.2-1.3,0.3-1.8l2.9-3l-4.7-4.7l-2.9,3c-0.5,0.5-1.2,0.6-1.8,0.3c-0.8-0.4-1.7-0.8-2.5-1c-0.6-0.2-1.1-0.8-1.1-1.5v-4.2
			h-6.7v4.2c0,0.7-0.4,1.3-1.1,1.5c-0.8,0.3-1.7,0.6-2.5,1c-0.6,0.3-1.3,0.2-1.8-0.3l-2.9-3L50.6,61l2.9,3c0.5,0.5,0.6,1.2,0.3,1.8
			c-0.4,0.8-0.8,1.7-1,2.5c-0.2,0.6-0.8,1.1-1.5,1.1h-4.2V76h4.2c0.7,0,1.3,0.4,1.5,1.1c0.3,0.8,0.6,1.7,1,2.5
			c0.3,0.6,0.2,1.3-0.3,1.8l-2.9,2.9l4.7,4.7l2.9-2.9c0.5-0.5,1.2-0.6,1.8-0.3c0.8,0.4,1.7,0.8,2.5,1.1c0.6,0.2,1.1,0.8,1.1,1.5
			V92.5z"/>
		<path class="st2" d="M67.1,85c-6.8,0-12.3-5.5-12.3-12.3s5.5-12.3,12.3-12.3s12.3,5.5,12.3,12.3S73.8,85,67.1,85z M67.1,63.4
			c-5.1,0-9.2,4.1-9.2,9.2s4.1,9.2,9.2,9.2c5.1,0,9.2-4.1,9.2-9.2S72.1,63.4,67.1,63.4z"/>
		<path class="st2" d="M77.9,48.9c-0.8,0-1.5-0.7-1.5-1.5V7.1H24.2V10h47.7c0.8,0,1.5,0.7,1.5,1.5v33.1c0,0.8-0.7,1.5-1.5,1.5
			s-1.5-0.7-1.5-1.5V13.1H22.7c-0.9,0-1.5-0.7-1.5-1.5v-6c0-0.8,0.7-1.5,1.5-1.5h55.2c0.8,0,1.5,0.7,1.5,1.5v41.8
			C79.4,48.2,78.7,48.9,77.9,48.9z"/>
		<path class="st2" d="M65.9,46.2c-0.8,0-1.5-0.7-1.5-1.5V19H16.7c-0.9,0-1.5-0.7-1.5-1.5v-6c0-0.9,0.7-1.5,1.5-1.5h55.2
			c0.8,0,1.5,0.7,1.5,1.5v32.2c0,0.8-0.7,1.5-1.5,1.5s-1.5-0.7-1.5-1.5V13.1H18.2V16h47.7c0.8,0,1.5,0.7,1.5,1.5v27.1
			C67.5,45.5,66.8,46.2,65.9,46.2z"/>
		<path class="st2" d="M52.1,96.1H10.7c-0.9,0-1.5-0.7-1.5-1.5v-77c0-0.9,0.7-1.5,1.5-1.5h55.2c0.8,0,1.5,0.7,1.5,1.5v27.1
			c0,0.8-0.7,1.5-1.5,1.5s-1.5-0.7-1.5-1.5V19H12.3V93h39.8c0.8,0,1.5,0.7,1.5,1.5C53.6,95.4,52.9,96.1,52.1,96.1z"/>
	</g>
</g>
<g id="financování" class="st0">
	<g class="st1">
		<path class="st3" d="M50.4,30.5c-0.3,0.1-0.7,0.2-1,0.2c-1.5,0-2.8-1.2-2.9-2.7l-0.1-4.5c0-1.5,1.2-2.8,2.7-2.9
			c1.5,0,2.8,1.2,2.9,2.7l0.1,4.5C52.2,29.1,51.5,30.1,50.4,30.5z"/>
		<path class="st3" d="M67.8,91.1c-5.1,2.2-10.7,3.5-16.5,3.7C26.7,95.5,6,76,5.2,51.4C4.5,26.7,24,6,48.6,5.2
			C73.3,4.5,94,24,94.8,48.6c0.4,12-3.9,23.3-12.1,32C78.4,85.2,73.4,88.7,67.8,91.1z M34.4,14c-4.8,2.1-9.2,5.2-12.9,9.1
			c-7.2,7.6-10.9,17.6-10.6,28c0.7,21.6,18.8,38.6,40.4,38c10.5-0.3,20.2-4.7,27.4-12.3c7.2-7.6,10.9-17.6,10.6-28
			s-4.7-20.2-12.3-27.4c-7.6-7.2-17.6-10.9-28-10.6C43.8,11,38.9,12.1,34.4,14z"/>
		<path class="st3" d="M56.4,73.6c-1.7,0.8-3.6,1.2-5.6,1.2c-8,0.2-14.8-5.8-15-13.4c0-1.5,1.2-2.8,2.7-2.9c1.5,0,2.8,1.2,2.9,2.7
			c0.1,4.5,4.3,8.1,9.3,7.9s8.9-4,8.8-8.5s-4.3-8.1-9.3-8c-8,0.2-14.8-5.8-15-13.4s6.1-14,14.2-14.2c8-0.2,14.8,5.8,15,13.4
			c0.1,1.5-1.2,2.8-2.7,2.9c-1.5,0-2.8-1.2-2.9-2.7c-0.1-4.5-4.3-8.1-9.3-8s-8.9,4-8.8,8.5c0.1,4.5,4.3,8.1,9.3,8
			c8-0.2,14.8,5.8,15,13.4C65.1,66.3,61.6,71.3,56.4,73.6z"/>
		<path class="st3" d="M51.9,79.6c-0.3,0.1-0.7,0.2-1,0.2c-1.5,0.1-2.8-1.2-2.9-2.7l-0.2-5.1c0-1.5,1.2-2.8,2.7-2.9
			c1.5-0.1,2.8,1.2,2.9,2.7l0.2,5.1C53.7,78.2,53,79.2,51.9,79.6z"/>
	</g>
</g>
<g id="investování" class="st0">
	<g class="st1">
		<path class="st2" d="M33.2,60.7c-0.2,0-0.4,0-0.6-0.1c-0.9-0.3-1.3-1.3-0.9-2.2l1-2.5c0.3-0.8,1.3-1.3,2.2-0.9
			c0.9,0.3,1.3,1.3,0.9,2.2l-1,2.5C34.5,60.3,33.9,60.7,33.2,60.7z"/>
		<path class="st2" d="M28.3,98c-3.4,0-6.7-0.6-9.9-1.9C4.7,90.6-2,75,3.5,61.3s21-20.4,34.8-14.9c13.7,5.5,20.4,21,14.9,34.7
			c-2.7,6.6-7.7,11.8-14.3,14.7C35.5,97.3,31.9,98,28.3,98z M28.3,47.8c-3.1,0-6.3,0.6-9.2,1.9c-5.8,2.5-10.2,7-12.5,12.8
			C1.8,74.6,7.7,88.2,19.7,93c5.8,2.3,12.2,2.2,17.9-0.2s10.2-7,12.5-12.8c2.3-5.8,2.2-12.2-0.2-17.9s-7-10.2-12.8-12.5
			C34.2,48.4,31.3,47.8,28.3,47.8z"/>
		<path class="st2" d="M26.2,85.7c-1.1,0-2.3-0.2-3.4-0.7c-4.5-1.8-6.7-6.7-5-10.9c0.3-0.8,1.3-1.3,2.2-0.9c0.9,0.3,1.3,1.3,0.9,2.2
			c-1,2.5,0.4,5.5,3.2,6.6s5.8-0.1,6.8-2.6c1-2.5-0.4-5.5-3.2-6.6c-4.5-1.8-6.7-6.7-5-10.9s6.7-6.2,11.2-4.4s6.7,6.7,5,10.9
			c-0.3,0.9-1.3,1.3-2.2,0.9c-0.8-0.3-1.3-1.3-0.9-2.2c1-2.5-0.4-5.5-3.2-6.6c-2.8-1.1-5.8,0.1-6.8,2.6c-1,2.5,0.4,5.5,3.2,6.6
			c4.5,1.8,6.7,6.7,5,10.9C32.7,83.8,29.6,85.7,26.2,85.7z"/>
		<path class="st2" d="M22.3,87.9c-0.2,0-0.4,0-0.6-0.1c-0.9-0.3-1.3-1.3-0.9-2.2l1.1-2.8c0.3-0.9,1.3-1.3,2.2-0.9
			c0.9,0.3,1.3,1.3,0.9,2.2l-1.1,2.8C23.6,87.5,23,87.9,22.3,87.9z"/>
		<path class="st2" d="M80.1,98H60.8c-1.3,0-2.3-1.3-2.3-3.1v-5.8c0-1.8,1-3.1,2.3-3.1h19.3c1.3,0,2.3,1.3,2.3,3.1v5.8
			C82.4,96.7,81.4,98,80.1,98z M61.8,94.7h17.2v-5.3H61.8V94.7z"/>
		<path class="st2" d="M96.8,98H3.2c-0.9,0-1.7-0.8-1.7-1.7s0.7-1.7,1.7-1.7h93.5c0.9,0,1.7,0.8,1.7,1.7C98.4,97.2,97.7,98,96.8,98z
			"/>
		<path class="st2" d="M73.2,63.8H58.5c-0.9,0-1.7-0.8-1.7-1.7s0.8-1.7,1.7-1.7h13.7v-5.3H54.4c-0.9,0-1.7-0.8-1.7-1.7
			s0.8-1.7,1.7-1.7h18.8c1.3,0,2.3,1.3,2.3,3.1v5.8C75.5,62.5,74.5,63.8,73.2,63.8z"/>
		<path class="st2" d="M84.3,63.8H58.5c-0.9,0-1.7-0.8-1.7-1.7s0.8-1.7,1.7-1.7H84v-5.3H54.4c-0.9,0-1.7-0.8-1.7-1.7
			s0.8-1.7,1.7-1.7h29.9c1.7,0,3.1,1.4,3.1,3.1v5.8C87.4,62.4,86,63.8,84.3,63.8z"/>
		<path class="st2" d="M79.1,80.9H59.9c-0.9,0-1.7-0.8-1.7-1.7s0.8-1.7,1.7-1.7h18.2v-5.3H59.9c-0.9,0-1.7-0.8-1.7-1.7
			s0.8-1.7,1.7-1.7h19.3c1.3,0,2.3,1.3,2.3,3.1v5.8C81.4,79.6,80.5,80.9,79.1,80.9z"/>
		<path class="st2" d="M76.2,72.3H59.9c-0.9,0-1.7-0.8-1.7-1.7s0.8-1.7,1.7-1.7h15.3v-5.3H58.5c-0.9,0-1.7-0.8-1.7-1.7
			s0.8-1.7,1.7-1.7h17.7c1.3,0,2.3,1.3,2.3,3.1v5.8C78.5,71.1,77.5,72.3,76.2,72.3z"/>
		<path class="st2" d="M87.2,72.3H59.9c-0.9,0-1.7-0.8-1.7-1.7s0.8-1.7,1.7-1.7H87v-5.3H58.5c-0.9,0-1.7-0.8-1.7-1.7
			s0.8-1.7,1.7-1.7h28.8c1.7,0,3.1,1.4,3.1,3.1v5.8C90.3,71,88.9,72.3,87.2,72.3z"/>
		<path class="st2" d="M90.2,80.9H58.8c-0.9,0-1.7-0.8-1.7-1.7s0.8-1.7,1.7-1.7H90v-5.3H59.9c-0.9,0-1.7-0.8-1.7-1.7
			s0.8-1.7,1.7-1.7h30.3c1.7,0,3.1,1.4,3.1,3.1v5.8C93.3,79.5,91.9,80.9,90.2,80.9z"/>
		<path class="st2" d="M88.4,89.4H55.1c-0.9,0-1.7-0.8-1.7-1.7s0.8-1.7,1.7-1.7h33v-5.3H58.8c-0.9,0-1.7-0.8-1.7-1.7
			s0.8-1.7,1.7-1.7h29.6c1.7,0,3.1,1.4,3.1,3.1v5.8C91.5,88.1,90.1,89.4,88.4,89.4z"/>
		<path class="st2" d="M91.2,98H49.7c-0.9,0-1.7-0.8-1.7-1.7s0.8-1.7,1.7-1.7h41.2v-5.3H55.2c-0.9,0-1.7-0.8-1.7-1.7
			s0.8-1.7,1.7-1.7h36c1.7,0,3.1,1.4,3.1,3.1v5.8C94.3,96.6,92.9,98,91.2,98z"/>
		<path class="st2" d="M77.3,89.4H58c-0.9,0-1.7-0.8-1.7-1.7s0.8-1.7,1.7-1.7h18.2v-5.3H58.8c-0.9,0-1.7-0.8-1.7-1.7
			s0.8-1.7,1.7-1.7h18.5c1.3,0,2.3,1.3,2.3,3.1v5.8C79.6,88.1,78.6,89.4,77.3,89.4z"/>
		<path class="st2" d="M65.4,55.2c-0.9,0-1.7-0.8-1.7-1.7V36.6c0-0.9,0.8-1.7,1.7-1.7h10.2L51.1,6.2L26.5,34.9h10.1
			c0.9,0,1.7,0.8,1.7,1.7v11c0,0.9-0.8,1.7-1.7,1.7S35,48.5,35,47.6v-9.3H22.9c-0.6,0-1.2-0.4-1.5-1s-0.2-1.3,0.2-1.8l28.2-33
			c0.6-0.7,1.9-0.7,2.5,0l28.2,33c0.4,0.5,0.5,1.2,0.2,1.8s-0.9,1-1.5,1H67.1v15.2C67.1,54.4,66.4,55.2,65.4,55.2z"/>
		<path class="st2" d="M36.7,38.3c-0.9,0-1.7-0.8-1.7-1.7v-3.1c0-0.9,0.8-1.7,1.7-1.7s1.7,0.7,1.7,1.7v3.1
			C38.3,37.5,37.6,38.3,36.7,38.3z"/>
		<path class="st2" d="M65.4,38.3c-0.9,0-1.7-0.8-1.7-1.7v-3.1c0-0.9,0.8-1.7,1.7-1.7s1.7,0.7,1.7,1.7v3.1
			C67.1,37.5,66.4,38.3,65.4,38.3z"/>
		<path class="st2" d="M51.1,41.7c-0.9,0-1.7-0.8-1.7-1.7V24.6c0-0.9,0.8-1.7,1.7-1.7s1.7,0.8,1.7,1.7V40
			C52.7,40.9,52,41.7,51.1,41.7z"/>
	</g>
</g>
<g id="pojisteni_odpovednosti" class="st0">
	<g class="st1">
		<path class="st3" d="M83.5,97.5H15.2c-0.9,0-1.6-0.7-1.6-1.6V4.1c0-0.9,0.7-1.6,1.6-1.6h68.3c0.9,0,1.6,0.7,1.6,1.6V11
			c0,0.9-0.7,1.6-1.6,1.6S82,11.9,82,11V5.7H16.8v88.7H82V50.8c0-0.9,0.7-1.6,1.6-1.6s1.6,0.7,1.6,1.6v45.1
			C85.1,96.8,84.4,97.5,83.5,97.5z"/>
		<path class="st3" d="M62.1,22.9H31c-0.9,0-1.6-0.7-1.6-1.6c0-0.9,0.7-1.6,1.6-1.6h31.2c0.9,0,1.6,0.7,1.6,1.6
			C63.7,22.2,63,22.9,62.1,22.9z"/>
		<path class="st3" d="M60.7,38.7H24.1c-0.9,0-1.6-0.7-1.6-1.6s0.7-1.6,1.6-1.6h36.5c0.9,0,1.6,0.7,1.6,1.6
			C62.2,37.9,61.5,38.7,60.7,38.7z"/>
		<path class="st3" d="M58.8,49.3H24.1c-0.9,0-1.6-0.7-1.6-1.6s0.7-1.6,1.6-1.6h34.7c0.9,0,1.6,0.7,1.6,1.6S59.7,49.3,58.8,49.3z"/>
		<path class="st3" d="M57,60H24.1c-0.9,0-1.6-0.7-1.6-1.6s0.7-1.6,1.6-1.6H57c0.9,0,1.6,0.7,1.6,1.6C58.6,59.3,57.9,60,57,60z"/>
		<path class="st3" d="M55.2,70.6H24.1c-0.9,0-1.6-0.7-1.6-1.6s0.7-1.6,1.6-1.6h31.1c0.9,0,1.6,0.7,1.6,1.6
			C56.8,69.9,56.1,70.6,55.2,70.6z"/>
		<path class="st3" d="M71.5,86.5H49.7c-0.9,0-1.6-0.7-1.6-1.6s0.7-1.6,1.6-1.6h21.8c0.9,0,1.6,0.7,1.6,1.6S72.4,86.5,71.5,86.5z"/>
		<path class="st3" d="M72,77c-0.1,0-0.2,0-0.3,0l-8.9-1.5c-0.4-0.1-0.8-0.3-1-0.6s-0.3-0.8-0.3-1.2l9.4-55.6
			c0.2-1.5,1.7-2.5,3.1-2.2l6.7,1.1c1.5,0.2,2.5,1.7,2.2,3.1l-9.4,55.6C73.4,76.5,72.7,77,72,77z M64.9,72.6l5.8,1L79.8,20L74,19
			L64.9,72.6z"/>
		<path class="st3" d="M65.8,86.5c-0.1,0-0.2,0-0.3,0c-0.6-0.1-1.1-0.6-1.3-1.2l-2.7-11c-0.1-0.5,0-1.1,0.4-1.4s0.9-0.6,1.4-0.5
			l8.9,1.5c0.5,0.1,1,0.4,1.2,0.9s0.2,1.1-0.1,1.5l-6.2,9.5C66.8,86.2,66.3,86.5,65.8,86.5z M65.2,75.9l1.3,5.2l2.9-4.4L65.2,75.9z"
			/>
		<path class="st3" d="M80.1,20c-0.1,0-0.2,0-0.3,0l-6.3-1.1c-0.9-0.1-1.4-1-1.3-1.8l0.5-2.7c0.2-1.2,0.9-2.4,1.9-3.1
			c1-0.7,2.3-1,3.6-0.8s2.3,0.9,3.1,1.9c0.7,1,1,2.3,0.8,3.6l-0.5,2.7c-0.1,0.4-0.3,0.8-0.6,1C80.7,19.9,80.4,20,80.1,20z
			 M75.6,16.1l3.2,0.5l0.2-1.2c0.1-0.4,0-0.9-0.3-1.2c-0.2-0.4-0.6-0.6-1.1-0.7s-0.8,0-1.2,0.3c-0.3,0.2-0.6,0.6-0.7,1.1L75.6,16.1z
			"/>
		<path class="st3" d="M81.9,47.4c-0.1,0-0.2,0-0.3,0c-0.9-0.2-1.4-1-1.3-1.8l2.8-16.3c0.1-0.7-0.4-1.4-1.1-1.5l-10.9-1.9
			c-0.9-0.1-1.4-1-1.3-1.8s0.9-1.4,1.8-1.3l10.9,1.9c2.4,0.4,4,2.7,3.6,5.1l-2.7,16.3C83.4,46.9,82.7,47.4,81.9,47.4z"/>
		<path class="st3" d="M79.5,32.5c-0.1,0-0.2,0-0.3,0L70.3,31c-0.9-0.1-1.4-1-1.3-1.8c0.2-0.9,0.9-1.4,1.8-1.3l8.9,1.5
			c0.9,0.1,1.4,1,1.3,1.8C80.9,32,80.3,32.5,79.5,32.5z"/>
	</g>
</g>
<g id="pojisteni_vozidel" class="st0">
	<g class="st1">
		<path class="st2" d="M85.3,87h-8c-2.2,0-4-1.8-4-4v-5.4H26.7V83c0,2.2-1.8,4-4,4h-8c-2.2,0-4-1.8-4-4v-5.4H9.3
			c-3.7,0-6.7-3-6.7-6.8V51.1c0-3.2,1.2-8.1,2.5-11l10.6-21.5c1.6-3.2,5.5-5.6,9-5.6h49.6c3.5,0,7.4,2.4,9.1,5.5l11.3,21.6
			c1.5,2.8,2.7,7.7,2.7,10.9v19.7c0,3.7-3,6.8-6.7,6.8h-1.4V83C89.3,85.2,87.5,87,85.3,87z M24.1,75h51.7v8c0,0.8,0.6,1.5,1.4,1.5h8
			c0.8,0,1.4-0.7,1.4-1.5v-8h4c2.3,0,4.1-1.9,4.1-4.2V51.1c0-2.8-1.1-7.3-2.4-9.7L81.1,19.7c-1.2-2.2-4.3-4.2-6.8-4.2H24.7
			c-2.5,0-5.5,1.9-6.7,4.2L7.5,41.3c-1.2,2.5-2.3,7-2.3,9.8v19.7C5.2,73.1,7,75,9.3,75h4v8c0,0.8,0.6,1.5,1.4,1.5h8
			c0.8,0,1.4-0.7,1.4-1.5L24.1,75L24.1,75z M16.9,68.6c-3.5,0-6.4-2.9-6.4-6.5s2.9-6.5,6.4-6.5s6.4,2.9,6.4,6.5
			C23.2,65.7,20.4,68.6,16.9,68.6z M16.9,58.2c-2.1,0-3.8,1.8-3.8,3.9c0,2.1,1.7,3.9,3.8,3.9s3.8-1.8,3.8-3.9
			C20.7,60,19,58.2,16.9,58.2z M83.6,68.1c-3.5,0-6.4-2.9-6.4-6.5s2.9-6.5,6.4-6.5c3.5,0,6.4,2.9,6.4,6.5
			C90,65.2,87.1,68.1,83.6,68.1z M83.6,57.8c-2.1,0-3.8,1.8-3.8,3.9s1.7,3.9,3.8,3.9s3.8-1.8,3.8-3.9C87.4,59.5,85.7,57.8,83.6,57.8
			z M72.4,67.2H27.6V58h44.8V67.2z M30.2,64.6h39.6v-4H30.2V64.6z M79.7,40.8H20.3c-1.9,0-3.4-0.7-4.2-2c-0.8-1.3-0.8-3,0-4.8
			l4.5-9.3c1.5-3.2,5.5-5.6,8.9-5.6h40.2c3.5,0,7.4,2.4,9.1,5.6l4.8,9.4c0.9,1.7,0.9,3.4,0.1,4.7C83,40,81.5,40.8,79.7,40.8z
			 M29.6,21.6c-2.5,0-5.5,1.9-6.6,4.2l-4.5,9.3C18,36,18,36.8,18.3,37.4c0.3,0.5,1,0.8,2,0.8h59.3c0.9,0,1.7-0.3,2-0.8
			c0.3-0.5,0.2-1.3-0.2-2.2l-4.8-9.4c-1.2-2.3-4.3-4.2-6.8-4.2C69.8,21.6,29.6,21.6,29.6,21.6z"/>
	</g>
</g>
<g id="cestovni_pojisteni" class="st0">
	<g class="st1">
		<path class="st3" d="M62,95.7c-0.7,0-1.3-0.4-1.7-1.1l-17.6-32l-11.1,8c0,0-0.1,0.1-0.1,0.1c0.1,0.3,0.1,0.7,0.2,1l2.7,13.6
			c0.2,0.9,0,2.1-0.3,2.8l-1.2,2.6c-0.3,0.8-1,1.2-1.7,1.2l0,0c-0.7,0-1.3-0.4-1.7-1.1l-9.3-17.5c-0.2-0.3-0.7-0.9-1-1.2L2.3,59.2
			c-0.6-0.5-1-1.2-0.8-1.9s0.7-1.2,1.5-1.4l2.7-0.7c0.8-0.2,2-0.1,2.8,0.2l13.6,4.9c0.1,0.1,0.3,0.1,0.4,0.2c0,0,0.1-0.1,0.1-0.1
			l9.8-10L4.5,27.3c-0.6-0.5-0.9-1.2-0.7-1.9s0.7-1.2,1.5-1.4l7.5-1.8c0.8-0.2,2.1-0.1,2.9,0.2l17.1,6.9c0.6-0.9,1.9-1.2,3-0.8
			l1.7,0.8c0.6,0.3,1.1,0.8,1.3,1.4c0.1,0.4,0.2,0.7,0.1,1l1.6,0.6c0.6-1,2-1.4,3.1-0.9l1.7,0.8c0.6,0.3,1.1,0.8,1.3,1.4
			c0.2,0.4,0.2,0.9,0.1,1.3l1.4,0.6c0.2,0,0.2,0,0.3,0c0,0,3.1-2.9,5.1-4.7c5.7-5.2,9.3-8.3,14.8-13.1C73.4,13,90.6,4.4,95.8,4.4
			c0.9,0,1.6,0.2,2.1,0.7c0.5,0.5,0.7,1.2,0.6,2c-0.3,5.2-12.8,21.2-17.8,25.3c-6.1,5.1-9.6,8-15.3,12.6c-2,1.7-5.3,4.2-5.3,4.2
			c0,0-0.1,0.2-0.1,0.3l0.2,0.8c1.1-0.1,2.1,0.7,2.4,1.8l0.5,1.7c0.4,1.2-0.3,2.6-1.5,3l0.3,1.6c0.1,0,0.2,0,0.2,0
			c1.1,0,2,0.7,2.3,1.7l0.5,1.8c0.4,1.3-0.3,2.7-1.6,3l-0.2,0.1l3.9,19.6c0.2,0.8,0,2.1-0.3,2.8l-3.2,7.1
			C63.3,95.2,62.7,95.7,62,95.7z M42.8,59.6c0.8,0,1.6,0.5,2,1.2l17.1,31l2.5-5.5c0.1-0.3,0.2-0.9,0.1-1.2l-3.9-19.8
			c-0.2-1.3,0.5-2.6,1.8-2.9l0.1,0L62,61.1c-0.1,0-0.2,0-0.4,0c-1.1,0-2-0.8-2.3-1.9L59,57.1c-0.2-1.2,0.4-2.4,1.5-2.8L60.1,53
			c-1.1,0.1-2.2-0.7-2.5-1.8L57.4,50c-0.3-1.1,0.2-2.4,1.1-3.1c0,0,3.3-2.6,5.3-4.2c5.6-4.5,9.2-7.4,15.2-12.5
			C84.6,25.5,95.5,10.5,95.8,7C91.5,7.1,75.1,15.1,70,19.7c-5.7,4.9-9.1,7.9-14.8,13.1c-2,1.8-5.1,4.6-5.1,4.6
			c-0.8,0.8-2.2,1-3.2,0.5l-1.7-0.8c-0.6-0.3-1.1-0.8-1.3-1.4c-0.2-0.4-0.2-0.9-0.1-1.3L42.7,34c-0.6,0.9-1.9,1.3-3,0.9l-2-0.8
			c-0.7-0.3-1.2-0.8-1.4-1.4c-0.2-0.4-0.2-0.8-0.1-1.1L34.9,31c-0.6,0.9-1.9,1.2-2.9,0.8l-17.3-6.9c-0.1-0.1-0.5-0.1-0.8-0.1
			c-0.2,0-0.3,0-0.4,0l-5.9,1.4l27.1,22.4c0.5,0.4,0.8,1,0.9,1.7s-0.2,1.3-0.7,1.8L24.7,62.3c-0.9,0.9-1.3,1.1-1.8,1.1h-0.3
			l-0.3-0.1c-0.1,0-0.5-0.2-1-0.4L7.7,58c-0.2-0.1-1.2-0.1-1.3-0.1l-1,0.2L20.8,70c0.6,0.5,1.4,1.3,1.7,2L31,88l0.4-1
			c0.1-0.3,0.2-0.9,0.1-1.2l-2.7-13.6c-0.1-0.6-0.2-1.2-0.3-1.4c-0.3-1.2,0.9-2.2,1.3-2.5l11.5-8.3C41.8,59.8,42.3,59.6,42.8,59.6z"
			/>
	</g>
</g>
<g id="život_lidí" class="st0">
	<g class="st1">
		<path class="st2" d="M40.9,87.6c-0.4,0-0.8-0.2-1.1-0.5c-0.3-0.3-0.5-0.7-0.5-1.1l-0.1-25.7l-4.8,0c-0.5,0-0.8-0.2-1.1-0.5
			s-0.5-0.7-0.5-1.1l0-19.2c0-5.4,4.4-9.8,9.8-9.8l13.9,0c2.7,0,5.1,1,6.9,2.8s2.9,4.3,2.9,6.9l0.1,19.2c0,0.4-0.2,0.8-0.5,1.1
			c-0.3,0.3-0.7,0.5-1.1,0.5l-4.8,0L60,85.9c0,0.9-0.7,1.6-1.6,1.6L40.9,87.6L40.9,87.6z M40.8,57.2c0.4,0,0.8,0.2,1.1,0.5
			c0.3,0.3,0.5,0.7,0.5,1.1l0.1,25.7l14.4,0l-0.1-25.7c0-0.4,0.2-0.8,0.5-1.1c0.3-0.3,0.7-0.5,1.1-0.5l4.8,0l0-17.6
			c0-1.8-0.7-3.4-2-4.7c-1.2-1.2-2.9-1.9-4.7-1.9c0,0-13.9,0-13.9,0c-3.7,0-6.6,3-6.6,6.6l0,17.6L40.8,57.2L40.8,57.2z"/>
		<path class="st2" d="M49.7,87.6c-0.9,0-1.6-0.7-1.6-1.6L48,63c0-0.9,0.7-1.6,1.6-1.6c0.9,0,1.6,0.7,1.6,1.6l0.1,23
			C51.3,86.9,50.6,87.6,49.7,87.6L49.7,87.6z"/>
		<path class="st2" d="M40.8,60.3c-0.9,0-1.6-0.7-1.6-1.6l0-17.1c0-0.9,0.7-1.6,1.6-1.6c0.9,0,1.6,0.7,1.6,1.6l0,17.1
			C42.4,59.6,41.7,60.3,40.8,60.3L40.8,60.3z"/>
		<path class="st2" d="M58.4,60.3c-0.9,0-1.6-0.7-1.6-1.6l0-17.1c0-0.9,0.7-1.6,1.6-1.6c0.9,0,1.6,0.7,1.6,1.6l0,17.1
			C60,59.6,59.3,60.3,58.4,60.3L58.4,60.3z"/>
		<path class="st2" d="M58.4,55.8c-0.9,0-1.6-0.7-1.6-1.6c0-0.9,0.7-1.6,1.6-1.6l6.4,0c0.9,0,1.6,0.7,1.6,1.6c0,0.9-0.7,1.6-1.6,1.6
			L58.4,55.8L58.4,55.8z"/>
		<path class="st2" d="M34.5,55.9c-0.9,0-1.6-0.7-1.6-1.6c0-0.9,0.7-1.6,1.6-1.6l6.4,0c0.9,0,1.6,0.7,1.6,1.6c0,0.9-0.7,1.6-1.6,1.6
			L34.5,55.9L34.5,55.9z"/>
		<path class="st2" d="M49.7,28.8c-1.7,0-4-0.8-5.9-4.2c-1-1.8-1.5-3.9-1.5-6.1v-1.9c0-0.3,0.1-0.6,0.2-0.8c0.7-1.2,3.8-3.3,7.3-3.3
			c2.3,0,4.1,0.8,5,1.3c1.2,0.6,2.6,1.7,2.6,3v1.7c0,2.2-0.5,4.3-1.4,6.1c-1.9,3.6-4.4,4.3-6.1,4.2C49.8,28.8,49.8,28.8,49.7,28.8z
			 M45.5,17.1v1.3c0,1.7,0.4,3.3,1.1,4.6c0.9,1.7,2,2.6,3.2,2.5c1.3,0.1,2.4-0.8,3.3-2.5c0.7-1.3,1.1-2.9,1.1-4.6v-1.3
			c-0.5-0.5-2.2-1.5-4.4-1.5C47.9,15.6,46.2,16.6,45.5,17.1z"/>
		<path class="st2" d="M79.6,80.1c-3.9,0-7.1-3.2-7.1-7.1c0-1.4,0.4-2.7,1.1-3.9c0.5-0.7,1.5-0.9,2.2-0.5c0.7,0.5,0.9,1.5,0.5,2.2
			c-0.4,0.6-0.6,1.4-0.6,2.2c0,1.1,0.4,2,1.2,2.8c0.8,0.7,1.7,1.2,2.8,1.2c1.1,0,2.1-0.4,2.8-1.2c0.7-0.8,1.2-1.7,1.2-2.8
			c0-1.1-0.4-2.1-1.2-2.8c-0.7-0.7-1.7-1.2-2.8-1.2c-0.3,0-0.7,0-1,0.1c-0.8,0.2-1.7-0.3-1.9-1.1s0.3-1.7,1.1-1.9
			c0.6-0.2,1.2-0.2,1.8-0.2c1.9,0,3.7,0.7,5,2.1c1.3,1.3,2.1,3.1,2.1,5C86.7,76.9,83.5,80.1,79.6,80.1
			C79.6,80.1,79.6,80.1,79.6,80.1z"/>
		<path class="st2" d="M89.4,62.7c-1.2,0-2.3-0.2-3.3-0.7c-0.8-0.3-1.2-1.3-0.8-2.1c0.3-0.8,1.3-1.2,2.1-0.8
			c0.7,0.3,1.4,0.4,2.1,0.4c3,0,5.4-2.5,5.4-5.4c0-1.5-0.6-2.8-1.6-3.8s-2.3-1.6-3.8-1.6c-3,0-5.4,2.5-5.4,5.4
			c0,0.7,0.1,1.3,0.4,1.9c0.3,0.8-0.1,1.7-0.9,2c-0.8,0.3-1.7-0.1-2.1-0.9c-0.4-1-0.6-2-0.6-3c0-4.7,3.8-8.6,8.6-8.6
			c4.8,0,8.6,3.8,8.6,8.6C98,58.9,94.2,62.7,89.4,62.7C89.4,62.7,89.4,62.7,89.4,62.7z"/>
		<path class="st2" d="M75.1,43.7c-1.7,0-3.2-0.7-4.4-1.8s-1.8-2.8-1.8-4.4s0.7-3.3,1.8-4.5c1.2-1.2,2.8-1.9,4.4-1.9
			c1.7,0,3.3,0.6,4.4,1.8c1.2,1.2,1.8,2.8,1.8,4.4c0,0.8-0.1,1.5-0.4,2.3c-0.3,0.8-1.2,1.2-2.1,0.9c-0.8-0.3-1.2-1.2-0.9-2
			c0.1-0.4,0.2-0.7,0.2-1.1c0-0.8-0.3-1.6-0.9-2.2s-1.4-0.9-2.2-0.9c-1.7,0-3.1,1.4-3.1,3.1c0,0.8,0.3,1.6,0.9,2.2s1.4,0.9,2.2,0.9
			c0.4,0,0.8-0.1,1.2-0.2c0.8-0.3,1.7,0,2.1,0.8c0.3,0.8,0,1.7-0.8,2.1C76.8,43.6,76,43.7,75.1,43.7C75.1,43.7,75.1,43.7,75.1,43.7z
			"/>
		<path class="st2" d="M85,27.4c-1.8,0-3.6-0.7-4.9-2c-1.3-1.3-2-3-2.1-4.9c0-2.1,1-4.1,2.6-5.5c0.7-0.5,1.7-0.4,2.2,0.3
			c0.5,0.7,0.4,1.7-0.3,2.2c-0.9,0.7-1.4,1.8-1.4,3c0,1,0.4,2,1.1,2.7c0.7,0.7,1.7,1.1,2.7,1.1c1,0,2-0.4,2.7-1.1
			c0.7-0.7,1.1-1.7,1.1-2.7s-0.4-2-1.1-2.7c-0.7-0.7-1.7-1.1-2.7-1.1c-0.9,0-1.6-0.7-1.6-1.6c0-0.9,0.7-1.6,1.6-1.6
			c1.9,0,3.6,0.7,4.9,2c1.3,1.3,2,3,2.1,4.9c0,1.9-0.7,3.6-2,4.9C88.6,26.7,86.8,27.4,85,27.4C85,27.4,85,27.4,85,27.4z"/>
		<path class="st2" d="M64.7,27.5c-0.9,0-1.6-0.7-1.6-1.6c0-0.9,0.7-1.6,1.6-1.6l5.3,0l0-3.8c0-0.9,0.7-1.6,1.6-1.6l8.1,0
			c0.9,0,1.6,0.7,1.6,1.6c0,0.9-0.7,1.6-1.6,1.6l-6.5,0l0,3.8c0,0.4-0.2,0.8-0.5,1.1c-0.3,0.3-0.7,0.5-1.1,0.5L64.7,27.5L64.7,27.5z
			"/>
		<path class="st2" d="M64.7,39.1c-0.9,0-1.6-0.7-1.6-1.6c0-0.9,0.7-1.6,1.6-1.6l5.7,0c0.9,0,1.6,0.7,1.6,1.6c0,0.9-0.7,1.6-1.6,1.6
			L64.7,39.1C64.7,39.1,64.7,39.1,64.7,39.1z"/>
		<path class="st2" d="M69.6,60.2c-0.9,0-1.6-0.7-1.6-1.6c0-0.9,0.7-1.6,1.6-1.6l2.8,0l0-2.8c0-0.4,0.2-0.8,0.5-1.1
			c0.3-0.3,0.7-0.5,1.1-0.5l8.4,0c0.9,0,1.6,0.7,1.6,1.6c0,0.9-0.7,1.6-1.6,1.6l-6.8,0l0,2.8c0,0.4-0.2,0.8-0.5,1.1
			c-0.3,0.3-0.7,0.5-1.1,0.5L69.6,60.2L69.6,60.2z"/>
		<path class="st2" d="M63,74.6c-0.9,0-1.6-0.7-1.6-1.6c0-0.9,0.7-1.6,1.6-1.6l11,0c0.9,0,1.6,0.7,1.6,1.6c0,0.9-0.7,1.6-1.6,1.6
			L63,74.6L63,74.6z"/>
		<path class="st2" d="M20.5,80.3c-3.9,0-7.1-3.2-7.1-7.1c0-1.9,0.7-3.7,2.1-5s3.1-2.1,5-2.1c0.5,0,1.2,0.1,1.8,0.2
			c0.9,0.2,1.4,1.1,1.1,1.9c-0.2,0.8-1.1,1.4-1.9,1.1c-0.3-0.1-0.6-0.2-1-0.1c-1.1,0-2,0.4-2.8,1.2c-0.7,0.8-1.1,1.7-1.1,2.8
			c0,1.1,0.4,2.1,1.2,2.8c0.8,0.7,1.7,1.2,2.8,1.2c1.1,0,2.1-0.4,2.8-1.2c0.7-0.8,1.1-1.7,1.1-2.8c0-0.8-0.2-1.5-0.6-2.2
			c-0.5-0.7-0.3-1.7,0.5-2.2c0.7-0.5,1.7-0.3,2.2,0.5c0.8,1.2,1.1,2.5,1.2,3.9C27.7,77.1,24.5,80.3,20.5,80.3
			C20.5,80.3,20.5,80.3,20.5,80.3z"/>
		<path class="st2" d="M10.6,62.9c-4.7,0-8.6-3.8-8.6-8.6c0-4.7,3.8-8.6,8.6-8.6c2.3,0,4.5,0.9,6.1,2.5c1.6,1.6,2.5,3.8,2.5,6.1
			c0,1-0.2,2.1-0.5,3c-0.3,0.8-1.2,1.2-2,0.9c-0.8-0.3-1.2-1.2-0.9-2c0.2-0.6,0.4-1.3,0.4-1.9c0-1.5-0.6-2.8-1.6-3.8
			c-1-1-2.4-1.6-3.8-1.6c-3,0-5.4,2.4-5.4,5.4c0,1.5,0.6,2.8,1.6,3.8c1,1,2.4,1.6,3.8,1.6c0.7,0,1.4-0.1,2.1-0.4
			c0.8-0.3,1.7,0,2.1,0.8c0.3,0.8,0,1.7-0.8,2.1C12.9,62.7,11.8,62.9,10.6,62.9C10.6,62.9,10.6,62.9,10.6,62.9z"/>
		<path class="st2" d="M24.8,43.9c-0.8,0-1.6-0.2-2.4-0.5c-0.8-0.3-1.2-1.3-0.9-2.1s1.3-1.2,2.1-0.8c0.4,0.2,0.8,0.2,1.2,0.2
			c0.8,0,1.6-0.3,2.2-0.9c0.6-0.6,0.9-1.4,0.9-2.2c0-1.7-1.4-3.1-3.1-3.1c-1.7,0-3.1,1.4-3.1,3.1c0,0.4,0.1,0.8,0.2,1.1
			c0.3,0.8-0.1,1.7-0.9,2c-0.8,0.3-1.7-0.1-2-0.9c-0.3-0.7-0.4-1.5-0.4-2.3c0-3.5,2.8-6.3,6.3-6.3c1.7,0,3.3,0.6,4.5,1.8
			c1.2,1.2,1.9,2.8,1.9,4.4s-0.6,3.3-1.8,4.5C28.1,43.2,26.5,43.9,24.8,43.9C24.8,43.9,24.8,43.9,24.8,43.9z"/>
		<path class="st2" d="M14.9,27.6c-3.8,0-6.9-3.1-6.9-6.9c0-1.9,0.7-3.6,2-4.9c1.3-1.3,3.1-2,4.9-2.1c0.9,0,1.6,0.7,1.6,1.6
			s-0.7,1.6-1.6,1.6c-1,0-2,0.4-2.7,1.1c-0.7,0.7-1.1,1.7-1.1,2.7c0,2.1,1.7,3.8,3.8,3.8c2.1,0,3.8-1.7,3.8-3.8c0-1.2-0.5-2.2-1.5-3
			c-0.7-0.5-0.8-1.5-0.3-2.2c0.5-0.7,1.5-0.8,2.2-0.3c1.7,1.3,2.7,3.3,2.7,5.5C21.8,24.5,18.7,27.6,14.9,27.6
			C14.9,27.6,14.9,27.6,14.9,27.6z"/>
		<path class="st2" d="M28.3,27.6c-0.9,0-1.6-0.7-1.6-1.6l0-3.8l-6.5,0c-0.9,0-1.6-0.7-1.6-1.6c0-0.9,0.7-1.6,1.6-1.6l8.1,0
			c0.9,0,1.6,0.7,1.6,1.6l0,3.8l5.3,0c0.9,0,1.6,0.7,1.6,1.6c0,0.9-0.7,1.6-1.6,1.6L28.3,27.6L28.3,27.6z"/>
		<path class="st2" d="M29.5,39.2c-0.9,0-1.6-0.7-1.6-1.6c0-0.9,0.7-1.6,1.6-1.6l5.7,0c0.9,0,1.6,0.7,1.6,1.6c0,0.9-0.7,1.6-1.6,1.6
			L29.5,39.2C29.5,39.2,29.5,39.2,29.5,39.2z"/>
		<path class="st2" d="M26,60.3c-0.4,0-0.8-0.2-1.1-0.5c-0.3-0.3-0.5-0.7-0.5-1.1l0-2.8l-6.8,0c-0.9,0-1.6-0.7-1.6-1.6
			c0-0.9,0.7-1.6,1.6-1.6l8.4,0c0.4,0.1,0.8,0.2,1.1,0.5c0.3,0.3,0.5,0.7,0.5,1.1l0,2.8l2.8,0c0.9,0,1.6,0.7,1.6,1.6
			c0,0.9-0.7,1.6-1.6,1.6L26,60.3C26,60.3,26,60.3,26,60.3z"/>
		<path class="st2" d="M26.1,74.7c-0.9,0-1.6-0.7-1.6-1.6c0-0.9,0.7-1.6,1.6-1.6l11,0c0.9,0,1.6,0.7,1.6,1.6c0,0.9-0.7,1.6-1.6,1.6
			L26.1,74.7C26.1,74.7,26.1,74.7,26.1,74.7z"/>
		<path class="st2" d="M32.1,87.6c-0.9,0-1.6-0.7-1.6-1.6c0-0.9,0.7-1.6,1.6-1.6l36-0.1c0.9,0,1.6,0.7,1.6,1.6
			c0,0.9-0.7,1.6-1.6,1.6L32.1,87.6L32.1,87.6z"/>
	</g>
</g>
<g id="podnikatelé" class="st0">
	<g class="st1">
		<path class="st3" d="M49.6,52.1c-0.2,0-0.4,0-0.7,0c-9.4-0.3-17-8.4-17-18V20c0-9.7,7.9-17.6,17.6-17.6S67.2,10.3,67.2,20v14.4
			c0,4.8-1.9,9.3-5.4,12.7C58.5,50.3,54.2,52.1,49.6,52.1z M49.6,5.6c-8,0-14.4,6.5-14.4,14.4v14c0,7.9,6.2,14.5,13.9,14.8
			c4,0.1,7.7-1.3,10.5-4c2.8-2.7,4.4-6.4,4.4-10.4V20.1C64,12.1,57.5,5.6,49.6,5.6z"/>
		<path class="st3" d="M54,19.8c-2,0-4.3-0.4-6.6-1.5C39.5,14.6,35,16.6,35,16.6c-0.8,0.4-1.8,0-2.1-0.7c-0.4-0.8-0.1-1.7,0.7-2.1
			c0.2-0.1,5.8-2.8,15.2,1.7c7.8,3.7,14.5-2.4,14.6-2.5c0.7-0.6,1.7-0.6,2.3,0.1c0.6,0.6,0.6,1.7-0.1,2.3
			C65.3,15.5,60.6,19.8,54,19.8z"/>
		<path class="st3" d="M66.1,32.2c-0.3,0-0.5,0-0.8-0.1C64.6,32,64,31.3,64,30.5l0-10.9c0-0.8,0.5-1.5,1.3-1.6
			c0.3,0,0.5-0.1,0.8-0.1c2.9,0,5.2,3.1,5.2,7.1C71.3,29.1,69,32.2,66.1,32.2z M67.2,22v6.2c0.5-0.7,0.9-1.8,0.9-3.1
			C68.1,23.8,67.7,22.7,67.2,22z"/>
		<path class="st3" d="M33.1,32.2c-2.9,0-5.2-3.1-5.2-7.1s2.3-7.1,5.2-7.1c0.3,0,0.5,0,0.8,0.1c0.8,0.1,1.3,0.8,1.3,1.6l0,0.3
			l0,10.6c0,0.8-0.5,1.4-1.3,1.6C33.6,32.2,33.3,32.2,33.1,32.2z M31.9,22c-0.5,0.7-0.9,1.8-0.9,3.1c0,1.3,0.4,2.4,0.9,3.1V22z"/>
		<path class="st3" d="M50,62c-4.9,0-8.6-2.2-8.6-5.1V49c0-0.5,0.3-1.1,0.7-1.3c0.5-0.3,1-0.3,1.5-0.1c1.7,0.8,3.5,1.2,5.3,1.3
			c2.5,0.1,5-0.5,7.2-1.6c0.5-0.3,1.1-0.2,1.6,0c0.5,0.3,0.8,0.8,0.8,1.4v8.2C58.6,59.8,54.9,62,50,62z M44.6,51.4v5.5
			c0,0.5,1.8,1.9,5.4,1.9s5.4-1.4,5.4-1.9v-5.8c-2.1,0.7-4.3,1-6.4,1C47.5,52,46,51.8,44.6,51.4z"/>
		<path class="st3" d="M82.6,97.6H17.4c-0.5,0-1-0.2-1.3-0.6c-0.3-0.4-0.4-0.9-0.3-1.4l6.4-28.6c1.1-4.9,4.8-8.8,9.7-10l10.7-2.8
			c0.5-0.1,1,0,1.4,0.3c0.4,0.3,0.6,0.8,0.6,1.3v1.1c0,0.5,1.8,1.9,5.4,1.9s5.4-1.4,5.4-1.9v-1.1c0-0.5,0.2-1,0.6-1.3
			s0.9-0.4,1.4-0.3L68.1,57c4.9,1.3,8.6,5.1,9.7,10l6.4,28.6c0.1,0.5,0,1-0.3,1.4C83.6,97.4,83.1,97.6,82.6,97.6z M19.4,94.4h61.2
			l-6-26.6c-0.8-3.7-3.7-6.7-7.4-7.6l-8.8-2.3C57.7,60.3,54.3,62,50,62s-7.7-1.7-8.5-4.2l-8.8,2.3c-3.7,1-6.5,3.9-7.4,7.6L19.4,94.4
			z"/>
		<path class="st3" d="M66.8,97.6c-0.8,0-1.5-0.6-1.6-1.3l-2.6-15.8c-0.1-0.9,0.5-1.7,1.3-1.8c0.9-0.2,1.7,0.4,1.8,1.3l2.6,15.8
			c0.1,0.9-0.4,1.7-1.3,1.8C67,97.6,66.9,97.6,66.8,97.6z"/>
		<path class="st3" d="M33.2,97.6c-0.1,0-0.2,0-0.3,0c-0.9-0.1-1.5-1-1.3-1.8l2.6-15.8c0.1-0.9,1-1.5,1.8-1.3c0.9,0.1,1.5,1,1.3,1.8
			l-2.6,15.8C34.6,97,34,97.6,33.2,97.6z"/>
		<path class="st3" d="M50,93.4c-0.4,0-0.8-0.1-1.1-0.4l-4.1-3.7c-0.4-0.4-0.6-0.9-0.5-1.4l4.1-27.7c0.1-0.8,0.8-1.4,1.6-1.4
			s1.5,0.6,1.6,1.4l4.1,27.7c0.1,0.5-0.1,1.1-0.5,1.4l-4.1,3.7C50.8,93.2,50.4,93.4,50,93.4z M47.6,87.4l2.4,2.1l2.4-2.1L50,71.4
			L47.6,87.4z"/>
		<path class="st3" d="M86.1,97.6H13.9c-0.9,0-1.6-0.7-1.6-1.6s0.7-1.6,1.6-1.6h72.2c0.9,0,1.6,0.7,1.6,1.6
			C87.7,96.9,87,97.6,86.1,97.6z"/>
	</g>
</g>
<g id="sportovci" class="st0">
	<path class="st4" d="M90.7,44.7h-1.3v-8.1c0-0.9-0.7-1.6-1.6-1.6h-7.8v-4.7c0-0.9-0.7-1.6-1.6-1.6h-9.5c-0.9,0-1.6,0.7-1.6,1.6
		v14.4H33V30.3c0-0.9-0.7-1.6-1.6-1.6h-9.5c-0.9,0-1.6,0.7-1.6,1.6V35h-7.9c-0.9,0-1.6,0.7-1.6,1.6v8.1H9.3C6.4,44.7,4,47.1,4,50
		s2.4,5.3,5.3,5.3h1.4v8.1c0,0.9,0.7,1.6,1.6,1.6h7.8v4.7c0,0.9,0.7,1.6,1.6,1.6h9.5c0.9,0,1.6-0.7,1.6-1.6V55.3h34.1v14.4
		c0,0.9,0.7,1.6,1.6,1.6h9.5c0.9,0,1.6-0.7,1.6-1.6v-4.7h7.8c0.9,0,1.6-0.7,1.6-1.6v-8.1h1.3c2.9,0,5.3-2.4,5.3-5.3
		S93.6,44.7,90.7,44.7z M9.3,52c-1.1,0-2.1-0.9-2.1-2s0.9-2,2.1-2h1.4v4.1L9.3,52L9.3,52z M14,61.8v-6.4V52v-4.1v-3.3v-6.4h6.2v6.4
		v3.3V52v3.3v6.4C20.2,61.8,14,61.8,14,61.8z M29.7,68.1h-6.2v-4.7v-8.1V52v-4.1v-3.3v-8.1v-4.7h6.2v12.7v3.3V52v3.3V68.1z M33,52
		v-4.1h34.1V52H33z M76.5,68.1h-6.2V55.3V52v-4.1v-3.3V31.9h6.2v4.7v8.1V48v4.1v3.3v8.1V68.1z M86,61.8h-6.2v-6.4V52v-4.1v-3.3v-6.4
		H86v6.4v3.3V52v3.3V61.8z M90.7,52h-1.3v-4.1h1.3c1.1,0,2.1,0.9,2.1,2S91.8,52,90.7,52z"/>
</g>
<g id="AGRO" class="st0">
	<path class="st5" d="M43.7,84.5c3.2,0,6.5-0.3,9.8-1c0.2,0.1,0.5,0.2,0.8,0.2c0,0,0.1,0,0.1,0C70.7,83,85,74.6,92.8,61.1
		c7.8-13.5,7.9-30.1,0.4-44.5c-0.4-0.8-1.2-1.2-2-1.2C75,16.1,60.6,24.6,52.8,38c-0.7,1.2-1.3,2.4-1.9,3.6c-1-1.3-2.1-2.5-3.2-3.6
		C37,27.2,20.8,23.3,4.5,27.6c-0.8,0.2-1.4,0.8-1.6,1.6c-4.3,16.3-0.4,32.5,10.4,43.3C21.3,80.3,32.1,84.5,43.7,84.5z M6.8,31.5
		c14.4-3.4,28.4,0.2,37.8,9.6c1.7,1.7,3.1,3.5,4.4,5.4c-2.4,7.3-2.8,15.2-1.3,22.8l-23-23c-0.9-0.8-2.2-0.8-3.1,0
		c-0.9,0.8-0.9,2.2,0,3.1l28.7,28.7c0.2,0.5,0.4,0.9,0.6,1.4C37.8,81.7,25.1,78,16.5,69.3C7.1,59.9,3.5,45.9,6.8,31.5z M66.1,29.1
		l5.2,18.6l-7.5,13l-6.1-21.9c0-0.1,0-0.2-0.1-0.2C60,35,62.8,31.8,66.1,29.1z M58.7,78.9c-0.1,0-0.3,0-0.4,0.1l0.6-1l5.6-9.7
		l22.1-5.6C80.1,71.5,70.1,77.3,58.7,78.9z M94.3,40.6c-0.2,0-0.4,0-0.6,0.1l-15.5,4l12.9-22.3C93.5,28.3,94.6,34.5,94.3,40.6z
		 M89.7,57.3l-22.1,5.6l7.5-13l18.8-4.8c-0.7,4.2-2,8.3-3.9,12.1C89.9,57.3,89.8,57.3,89.7,57.3z M87.3,20.2L74.4,42.5l-4.3-15.4
		c-0.1-0.2-0.2-0.4-0.2-0.6C75,23.2,80.9,21,87.3,20.2z M53.9,46c0.2-0.6,0.5-1.2,0.8-1.8l2.2,7.9l2.3,8.3l1.6,5.8l-0.9,1.6l-2.3,4
		l-2.8,4.8l0,0.1l-0.2,0.4c-0.2-0.4-0.3-0.7-0.4-1.1c-3-7.7-3.6-15.9-2-23.7c0.2-1.1,0.5-2.2,0.8-3.3C53.2,47.8,53.5,46.9,53.9,46z"
		/>
</g>
<g id="pravni_ochrana" class="st0">
	<g class="st1">
		<path class="st2" d="M81.5,97.6h-63c-3.8,0-6.8-3.1-6.8-6.8s3.1-6.8,6.8-6.8h63c3.8,0,6.8,3.1,6.8,6.8S85.2,97.6,81.5,97.6z
			 M18.5,87.2c-2,0-3.7,1.6-3.7,3.7c0,2,1.6,3.7,3.7,3.7h63c2,0,3.7-1.6,3.7-3.7c0-2-1.6-3.7-3.7-3.7H18.5z"/>
		<path class="st2" d="M50,20.8c-5.1,0-9.2-4.1-9.2-9.2s4.1-9.2,9.2-9.2s9.2,4.1,9.2,9.2S55.1,20.8,50,20.8z M50,5.5
			c-3.3,0-6.1,2.7-6.1,6.1s2.7,6.1,6.1,6.1s6.1-2.7,6.1-6.1S53.3,5.5,50,5.5z"/>
		<path class="st2" d="M53.7,87.2h-7.3c-0.9,0-1.6-0.7-1.6-1.6V18.3c0-0.5,0.3-1.1,0.8-1.4s1.1-0.3,1.5,0c1.9,1,3.9,1,5.8,0
			c0.5-0.3,1.1-0.3,1.5,0c0.5,0.3,0.8,0.8,0.8,1.4v19.1c0,0.9-0.7,1.6-1.6,1.6s-1.6-0.7-1.6-1.6V20.6c-1.4,0.3-2.8,0.3-4.2,0V84h4.2
			V71.8c0-0.9,0.7-1.6,1.6-1.6s1.6,0.7,1.6,1.6v13.8C55.2,86.5,54.5,87.2,53.7,87.2z"/>
		<path class="st2" d="M53.7,85c-0.9,0-1.6-5.2-1.6-11.6V38.6c0-6.4,0.7-11.6,1.6-11.6s1.6,5.2,1.6,11.6v34.8
			C55.2,79.8,54.5,85,53.7,85z"/>
		<path class="st2" d="M84.6,18.3c-3.7,0-6.7-3-6.7-6.7s3-6.7,6.7-6.7c3.7,0,6.7,3,6.7,6.7C91.3,15.3,88.3,18.3,84.6,18.3z M84.6,8
			c-2,0-3.6,1.6-3.6,3.6s1.6,3.6,3.6,3.6c2,0,3.6-1.6,3.6-3.6S86.6,8,84.6,8z"/>
		<path class="st2" d="M81,16.9H56.6c-0.6,0-1.1-0.3-1.3-0.8c-0.3-0.5-0.3-1.1,0-1.6c0.5-0.9,0.8-1.9,0.8-2.9c0-1-0.3-2-0.8-2.9
			c-0.3-0.5-0.3-1.1,0-1.6s0.8-0.8,1.3-0.8H81c0.6,0,1.2,0.4,1.4,1c0.2,0.6,0.1,1.3-0.4,1.7c-0.7,0.7-1.1,1.6-1.1,2.6
			s0.4,1.9,1.1,2.6c0.5,0.4,0.6,1.1,0.4,1.7C82.2,16.5,81.7,16.9,81,16.9z M58.9,13.8h19.3c-0.2-0.7-0.3-1.4-0.3-2.2
			s0.1-1.5,0.3-2.2H58.9c0.2,0.7,0.3,1.4,0.3,2.2C59.2,12.3,59.1,13.1,58.9,13.8z"/>
		<path class="st2" d="M15.4,18.3c-3.7,0-6.7-3-6.7-6.7s3-6.7,6.7-6.7s6.7,3,6.7,6.7C22.1,15.3,19.1,18.3,15.4,18.3z M15.4,8
			c-2,0-3.6,1.6-3.6,3.6s1.6,3.6,3.6,3.6s3.6-1.6,3.6-3.6S17.4,8,15.4,8z"/>
		<path class="st2" d="M43.4,16.9H19c-0.6,0-1.2-0.4-1.5-1c-0.2-0.6-0.1-1.3,0.4-1.7c0.7-0.7,1.1-1.6,1.1-2.6S18.6,9.7,17.9,9
			c-0.5-0.4-0.6-1.1-0.4-1.7s0.8-1,1.5-1h24.4c0.6,0,1.1,0.3,1.3,0.8c0.3,0.5,0.3,1.1,0,1.6c-0.5,0.9-0.8,1.9-0.8,2.9s0.3,2,0.8,2.9
			c0.3,0.5,0.3,1.1,0,1.6C44.4,16.6,43.9,16.9,43.4,16.9z M21.8,13.8h19.3c-0.2-0.7-0.3-1.4-0.3-2.2s0.1-1.4,0.3-2.2H21.8
			c0.2,0.7,0.4,1.4,0.4,2.2C22.1,12.3,22,13.1,21.8,13.8z"/>
		<path class="st2" d="M84.6,54.9c-7.2,0-13-5.8-13-13c0-0.9,0.7-1.6,1.6-1.6h22.9c0.9,0,1.6,0.7,1.6,1.6
			C97.6,49.1,91.8,54.9,84.6,54.9z M74.8,43.4c0.8,4.7,4.8,8.3,9.8,8.3s9-3.6,9.8-8.3H74.8z"/>
		<path class="st2" d="M96.1,43.4c-0.6,0-1.2-0.3-1.4-0.9l-10-22l-10.1,22c-0.4,0.8-1.3,1.1-2.1,0.8s-1.1-1.3-0.8-2.1l11.5-25.1
			c0.2-0.6,0.8-0.9,1.4-0.9c0.6,0,1.2,0.4,1.4,0.9l11.5,25.1c0.4,0.8,0,1.7-0.8,2.1C96.5,43.4,96.3,43.4,96.1,43.4z"/>
		<path class="st2" d="M15.4,54.9c-7.2,0-13-5.8-13-13c0-0.9,0.7-1.6,1.6-1.6h22.9c0.9,0,1.6,0.7,1.6,1.6
			C28.5,49.1,22.6,54.9,15.4,54.9z M5.6,43.4c0.8,4.7,4.8,8.3,9.8,8.3s9-3.6,9.8-8.3H5.6z"/>
		<path class="st2" d="M26.9,43.4c-0.6,0-1.2-0.3-1.4-0.9l-10-22l-10.1,22c-0.4,0.8-1.3,1.1-2.1,0.8S2.2,42,2.5,41.2L14,16.1
			c0.2-0.6,0.8-0.9,1.4-0.9c0.6,0,1.2,0.4,1.4,0.9l11.5,25.1c0.4,0.8,0,1.7-0.8,2.1C27.3,43.4,27.1,43.4,26.9,43.4z"/>
	</g>
</g>
<g id="spotrebitelske_na_bydleni">
	<path class="st6" d="M81,91.6c1.7,0,3.1-1.4,3.1-3.1V55.7h8.1h0c2.9,0,5.3-2.4,5.3-5.3c0-1.7-0.8-3.2-2-4.2L85,37.1V22
		c0-1.8-1.4-3.2-3.2-3.2h-6.6c-1.8,0-3.2,1.4-3.2,3.2v3.8L53.5,9.7c-2-1.7-5-1.7-7,0L4.3,46.3c-1.7,1.5-2.3,3.8-1.5,5.9
		c0.8,2.1,2.8,3.5,5,3.5h8.1v32.9c0,1.7,1.4,3.1,3.1,3.1h18.2V67.7c0-3.4,2.7-6.1,6.1-6.1h13.4c3.4,0,6.1,2.7,6.1,6.1v23.9H81z"/>
</g>
</svg>
