<?xml version="1.0" encoding="UTF-8"?>
<svg width="98px" height="96px" viewBox="0 0 98 96" version="1.1" xmlns="http://www.w3.org/2000/svg" xmlns:xlink="http://www.w3.org/1999/xlink">
    <title>investivani-do-komodit</title>
    <g id="Page-1" stroke="none" stroke-width="1" fill="none" fill-rule="evenodd">
        <g id="investivani-do-komodit" fill="#FFFFFF" fill-rule="nonzero">
            <g id="Group" transform="translate(5.761094, 6.435000)">
                <path d="M7.55,35.15 L1.43,35.15 C0.64,35.15 0,34.52 0,33.73 L0,5.08 C0,4.29 0.64,3.65 1.43,3.65 L7.55,3.65 C8.34,3.65 8.98,4.29 8.98,5.08 L8.98,33.72 C8.98,34.52 8.34,35.15 7.55,35.15 Z M2.85,32.3 L6.12,32.3 L6.12,6.51 L2.85,6.51 L2.85,32.3 Z" id="Shape"></path>
                <path d="M30.17,38.48 C27.63,38.48 25.17,37.77 23.05,36.43 L17.11,32.67 L7.55,32.67 C6.76,32.67 6.12,32.03 6.12,31.24 L6.12,7.57 C6.12,6.78 6.76,6.14 7.55,6.14 L17.43,6.14 L50.87,1.99 C54.79,1.5 58.66,2.52 61.76,4.86 L73.05,14.26 C73.51,14.64 73.68,15.28 73.48,15.84 C73.28,16.41 72.74,16.78 72.14,16.78 L56.82,16.78 C55.01,16.65 53.44,17.35 53.12,17.51 L41.26,25.6 L52.01,25.53 C53.76,25.53 55.34,26.19 56.52,27.39 C57.71,28.6 58.34,30.22 58.29,31.94 C58.2,35.45 55.27,38.32 51.76,38.34 L30.24,38.48 C30.23,38.48 30.2,38.48 30.17,38.48 Z M8.98,29.81 L17.53,29.81 C17.8,29.81 18.07,29.89 18.29,30.03 L24.58,34.01 C26.26,35.07 28.16,35.64 30.24,35.62 L51.76,35.48 C53.74,35.47 55.4,33.84 55.45,31.86 C55.47,30.92 55.13,30.04 54.49,29.39 C53.85,28.73 52.96,28.38 52.04,28.38 L40.58,28.46 C39.47,28.45 38.47,27.78 38.09,26.72 C37.7,25.63 38.04,24.46 38.95,23.73 L51.59,15.1 C51.63,15.07 51.68,15.04 51.72,15.02 C51.82,14.97 54.17,13.73 56.92,13.94 L68.19,13.94 L59.98,7.1 C57.53,5.25 54.4,4.43 51.22,4.82 L17.7,8.99 C17.64,9 17.58,9 17.52,9 L8.97,9 L8.97,29.81 L8.98,29.81 Z" id="Shape"></path>
                <path d="M65.15,24.96 C64.36,24.96 63.72,24.32 63.72,23.53 L63.72,21.47 C63.72,20.68 64.36,20.04 65.15,20.04 C65.94,20.04 66.58,20.68 66.58,21.47 L66.58,23.53 C66.58,24.32 65.94,24.96 65.15,24.96 Z" id="Path"></path>
                <path d="M46.92,28.42 C46.76,28.42 46.59,28.39 46.43,28.33 C45.69,28.06 45.31,27.24 45.59,26.5 C47.68,20.85 52.1,16.38 57.72,14.24 C58.46,13.96 59.28,14.33 59.56,15.06 C59.84,15.8 59.47,16.62 58.74,16.9 C53.88,18.75 50.07,22.61 48.27,27.48 C48.05,28.07 47.5,28.42 46.92,28.42 Z" id="Path"></path>
                <path d="M65.15,54.58 C54.92,54.58 46.27,47.27 44.59,37.19 C44.46,36.41 44.98,35.68 45.76,35.55 C46.54,35.42 47.27,35.95 47.4,36.72 C48.85,45.41 56.32,51.73 65.15,51.73 C75.07,51.73 83.15,43.66 83.15,33.73 C83.15,26.34 78.52,19.59 71.62,16.93 C70.88,16.65 70.52,15.82 70.8,15.09 C71.08,14.35 71.91,13.99 72.64,14.27 C80.63,17.34 86,25.16 86,33.73 C86,45.22 76.65,54.58 65.15,54.58 Z" id="Path"></path>
                <path d="M65.15,45.35 C61.35,45.35 58.26,42.42 58.26,38.83 C58.26,38.04 58.9,37.4 59.69,37.4 C60.48,37.4 61.12,38.04 61.12,38.83 C61.12,40.85 62.93,42.5 65.16,42.5 C67.39,42.5 69.2,40.85 69.2,38.83 C69.2,36.81 67.39,35.16 65.16,35.16 C61.36,35.16 58.27,32.23 58.27,28.63 C58.27,25.03 61.36,22.1 65.16,22.1 C68.96,22.1 72.05,25.03 72.05,28.63 C72.05,29.42 71.41,30.06 70.62,30.06 C69.83,30.06 69.19,29.42 69.19,28.63 C69.19,26.61 67.38,24.96 65.15,24.96 C62.92,24.96 61.11,26.61 61.11,28.63 C61.11,30.65 62.92,32.3 65.15,32.3 C68.95,32.3 72.04,35.23 72.04,38.83 C72.04,42.43 68.95,45.35 65.15,45.35 Z" id="Path"></path>
                <path d="M65.15,47.69 C64.36,47.69 63.72,47.05 63.72,46.26 L63.72,43.92 C63.72,43.13 64.36,42.49 65.15,42.49 C65.94,42.49 66.58,43.13 66.58,43.92 L66.58,46.26 C66.58,47.05 65.94,47.69 65.15,47.69 Z" id="Path"></path>
                <path d="M84.57,83.12 L1.43,83.12 C0.64,83.12 0,82.48 0,81.69 L0,1.43 C0,0.64 0.64,1.77635684e-15 1.43,1.77635684e-15 C2.22,1.77635684e-15 2.86,0.64 2.86,1.43 L2.86,80.27 L84.58,80.27 C85.37,80.27 86.01,80.91 86.01,81.7 C86,82.48 85.36,83.12 84.57,83.12 Z" id="Path"></path>
                <path d="M57.93,83.12 C57.58,83.12 57.22,82.99 56.95,82.73 C52.63,78.62 45.6,72.02 44.15,70.85 C43.43,70.75 41.62,70.47 36.9,69.65 C36.57,69.59 36.27,69.42 36.05,69.16 L29.02,60.82 L18.76,71.94 C18.52,72.2 18.19,72.36 17.84,72.39 L10.56,73.04 L2.26,78.97 C1.62,79.43 0.73,79.28 0.27,78.64 C-0.19,78 -0.04,77.11 0.6,76.65 L9.22,70.49 C9.43,70.34 9.67,70.25 9.92,70.23 L17.03,69.59 L28.01,57.68 C28.29,57.38 28.68,57.2 29.09,57.22 C29.5,57.23 29.89,57.41 30.15,57.73 L37.89,66.91 C40.99,67.44 44.31,68 44.73,68.03 C45.37,68.01 45.64,68.03 58.91,80.64 C59.48,81.18 59.5,82.09 58.96,82.66 C58.69,82.97 58.31,83.12 57.93,83.12 Z M44.5,70.89 C44.54,70.89 44.57,70.9 44.61,70.9 C44.59,70.9 44.56,70.89 44.5,70.89 Z" id="Shape"></path>
                <path d="M82.01,83.12 C81.46,83.12 80.94,82.8 80.7,82.26 L74.65,68.41 L65.3,64.42 C65.21,64.38 65.13,64.33 65.05,64.28 L58.3,59.59 L52.58,61.9 C52.5,61.93 52.41,61.96 52.32,61.98 L44.24,63.54 L38.11,69.28 C37.53,69.82 36.63,69.79 36.09,69.21 C35.55,68.63 35.58,67.73 36.16,67.19 L42.59,61.17 C42.79,60.99 43.03,60.86 43.29,60.81 L51.64,59.19 L57.94,56.64 C58.39,56.46 58.89,56.52 59.29,56.79 L66.56,61.84 L76.3,66 C76.63,66.14 76.9,66.41 77.05,66.74 L83.32,81.11 C83.64,81.83 83.31,82.67 82.58,82.99 C82.4,83.08 82.2,83.12 82.01,83.12 Z" id="Path"></path>
                <path d="M25.42,72.4 L17.71,72.4 C16.92,72.4 16.28,71.76 16.28,70.97 C16.28,70.18 16.92,69.54 17.71,69.54 L25.42,69.54 C26.21,69.54 26.85,70.18 26.85,70.97 C26.84,71.76 26.2,72.4 25.42,72.4 Z" id="Path"></path>
                <path d="M75.74,68.75 L64,68.75 C63.21,68.75 62.57,68.11 62.57,67.32 C62.57,66.53 63.21,65.89 64,65.89 L75.74,65.89 C76.53,65.89 77.17,66.53 77.17,67.32 C77.17,68.11 76.53,68.75 75.74,68.75 Z" id="Path"></path>
            </g>
        </g>
    </g>
</svg>