<?xml version="1.0" encoding="UTF-8"?>
<svg width="98px" height="96px" viewBox="0 0 98 96" version="1.1" xmlns="http://www.w3.org/2000/svg" xmlns:xlink="http://www.w3.org/1999/xlink">
    <title>investivani-do-OPF</title>
    <g id="Page-1" stroke="none" stroke-width="1" fill="none" fill-rule="evenodd">
        <g id="investivani-do-OPF" fill="#0F66DC" fill-rule="nonzero">
            <g id="Group" transform="translate(10.381094, 2.935000)">
                <path d="M47.38,37.2 L29.38,37.2 C28.58,37.2 27.91,36.58 27.86,35.78 C26.23,13.42 36.78,1.04 37.23,0.53 C37.81,-0.13 38.95,-0.13 39.53,0.53 C39.98,1.05 50.53,13.42 48.9,35.79 C48.84,36.58 48.18,37.2 47.38,37.2 Z M30.82,34.14 L45.94,34.14 C46.72,18.27 40.92,7.86 38.38,4.1 C35.84,7.85 30.04,18.27 30.82,34.14 Z" id="Shape"></path>
                <path d="M55.74,37.2 L47.38,37.2 C46.54,37.2 45.85,36.52 45.85,35.67 C45.85,34.83 46.53,34.14 47.38,34.14 L53.44,34.14 C51.28,30.28 47.08,28.73 47.03,28.71 C46.23,28.43 45.82,27.55 46.11,26.76 C46.4,25.96 47.28,25.55 48.06,25.84 C48.35,25.94 55.17,28.46 57.2,35.24 C57.34,35.7 57.25,36.2 56.96,36.59 C56.67,36.97 56.22,37.2 55.74,37.2 Z" id="Path"></path>
                <path d="M29.38,37.2 L21.02,37.2 C20.54,37.2 20.08,36.97 19.79,36.58 C19.5,36.19 19.41,35.69 19.55,35.23 C21.58,28.46 28.4,25.94 28.69,25.83 C29.48,25.54 30.36,25.96 30.64,26.75 C30.92,27.54 30.51,28.42 29.72,28.7 C29.64,28.73 25.46,30.31 23.31,34.13 L29.38,34.13 C30.22,34.13 30.91,34.81 30.91,35.66 C30.91,36.52 30.23,37.2 29.38,37.2 Z" id="Path"></path>
                <path d="M69.21,90.12 L7.55,90.12 C5.17,90.12 3.23,88.18 3.23,85.8 L3.23,38.46 C3.23,36.08 5.17,34.14 7.55,34.14 L69.2,34.14 C71.58,34.14 73.52,36.08 73.52,38.46 L73.52,85.8 C73.52,88.18 71.59,90.12 69.21,90.12 Z M7.55,37.2 C6.85,37.2 6.29,37.77 6.29,38.46 L6.29,85.8 C6.29,86.5 6.86,87.06 7.55,87.06 L69.2,87.06 C69.9,87.06 70.46,86.49 70.46,85.8 L70.46,38.46 C70.46,37.76 69.89,37.2 69.2,37.2 L7.55,37.2 Z" id="Shape"></path>
                <path d="M48.92,50.42 L27.84,50.42 C25.27,50.42 23.18,48.33 23.18,45.76 C23.18,43.19 25.27,41.1 27.84,41.1 L48.93,41.1 C51.5,41.1 53.59,43.19 53.59,45.76 C53.59,48.33 51.49,50.42 48.92,50.42 Z M27.84,44.16 C26.96,44.16 26.24,44.88 26.24,45.76 C26.24,46.64 26.96,47.36 27.84,47.36 L48.93,47.36 C49.81,47.36 50.53,46.64 50.53,45.76 C50.53,44.88 49.81,44.16 48.93,44.16 L27.84,44.16 Z" id="Shape"></path>
                <path d="M64.77,25.17 C64.16,25.17 63.55,24.98 63.01,24.59 L60.86,23.03 L58.78,24.59 C57.71,25.37 56.33,25.37 55.26,24.59 C54.19,23.81 53.77,22.5 54.17,21.25 L54.99,18.72 L52.86,17.23 C51.79,16.45 51.36,15.14 51.77,13.88 C52.18,12.62 53.3,11.81 54.62,11.81 L57.28,11.81 L58.04,9.32 C58.45,8.06 59.56,7.25 60.88,7.25 C62.2,7.25 63.32,8.06 63.72,9.32 L64.54,11.85 L67.14,11.81 C68.46,11.81 69.58,12.62 69.98,13.88 C70.39,15.14 69.96,16.45 68.89,17.23 C68.89,17.23 66.74,18.79 66.74,18.79 L67.59,21.25 C68,22.51 67.57,23.82 66.5,24.59 C65.99,24.98 65.38,25.17 64.77,25.17 Z M60.89,19.98 C61.51,19.98 62.12,20.17 62.65,20.55 L64.64,22 L63.88,19.66 C63.48,18.42 63.91,17.08 64.96,16.32 L66.95,14.87 L64.49,14.87 C63.19,14.87 62.05,14.04 61.65,12.8 L60.89,10.46 L60.13,12.8 C59.73,14.04 58.59,14.87 57.29,14.87 L54.83,14.87 L56.82,16.32 C57.87,17.09 58.31,18.43 57.91,19.67 L57.15,22.01 L59.14,20.56 C59.66,20.17 60.28,19.98 60.89,19.98 Z" id="Shape"></path>
                <path d="M19.74,25.17 C19.13,25.17 18.52,24.98 17.98,24.59 L15.83,23.03 L13.75,24.59 C12.68,25.37 11.3,25.37 10.23,24.59 C9.16,23.81 8.74,22.5 9.14,21.25 L9.96,18.72 L7.83,17.23 C6.76,16.45 6.34,15.14 6.74,13.88 C7.15,12.63 8.26,11.81 9.58,11.81 L12.24,11.81 L13,9.33 C13.41,8.07 14.52,7.26 15.84,7.26 C17.16,7.26 18.28,8.07 18.69,9.33 L19.51,11.86 L22.11,11.81 C23.43,11.81 24.55,12.62 24.96,13.88 C25.37,15.14 24.94,16.45 23.87,17.23 L21.72,18.79 L22.57,21.25 C22.98,22.51 22.55,23.82 21.48,24.59 C20.97,24.98 20.35,25.17 19.74,25.17 Z M15.87,19.98 C16.49,19.98 17.1,20.17 17.63,20.55 L19.62,22 L18.86,19.66 C18.46,18.42 18.89,17.08 19.95,16.32 L21.94,14.87 L19.48,14.87 C18.18,14.87 17.04,14.04 16.64,12.8 L15.88,10.46 L15.12,12.8 C14.72,14.04 13.58,14.87 12.28,14.87 L9.82,14.87 L11.81,16.32 C12.86,17.08 13.3,18.43 12.9,19.66 L12.14,22 L14.13,20.55 C14.63,20.17 15.25,19.98 15.87,19.98 Z M9.63,14.75 L8.74,15.99 L9.63,14.77 C9.63,14.75 9.63,14.75 9.63,14.75 Z" id="Shape"></path>
                <path d="M38.38,22.66 C37.54,22.66 36.85,21.98 36.85,21.13 L36.85,1.53 C36.85,0.69 37.53,1.77635684e-15 38.38,1.77635684e-15 C39.22,1.77635684e-15 39.91,0.68 39.91,1.53 L39.91,21.13 C39.91,21.98 39.22,22.66 38.38,22.66 Z" id="Path"></path>
                <path d="M75.23,90.12 L1.53,90.12 C0.69,90.12 3.55271368e-15,89.44 3.55271368e-15,88.59 C3.55271368e-15,87.75 0.68,87.06 1.53,87.06 L75.24,87.06 C76.08,87.06 76.77,87.74 76.77,88.59 C76.76,89.43 76.08,90.12 75.23,90.12 Z" id="Path"></path>
                <path d="M38.38,63.51 C37.54,63.51 36.85,62.83 36.85,61.98 L36.85,60.61 C36.85,59.77 37.53,59.08 38.38,59.08 C39.22,59.08 39.91,59.76 39.91,60.61 L39.91,61.98 C39.91,62.83 39.22,63.51 38.38,63.51 Z" id="Path"></path>
                <path d="M38.38,83.14 C30.44,83.14 23.98,76.68 23.98,68.74 C23.98,60.8 30.44,54.34 38.38,54.34 C46.32,54.34 52.78,60.8 52.78,68.74 C52.78,76.68 46.32,83.14 38.38,83.14 Z M38.38,57.4 C32.12,57.4 27.04,62.49 27.04,68.74 C27.04,75 32.13,80.08 38.38,80.08 C44.64,80.08 49.73,74.99 49.73,68.74 C49.72,62.49 44.64,57.4 38.38,57.4 Z" id="Shape"></path>
                <path d="M38.38,77.03 C35.54,77.03 33.23,74.83 33.23,72.12 C33.23,71.28 33.91,70.59 34.76,70.59 C35.6,70.59 36.29,71.27 36.29,72.12 C36.29,73.14 37.23,73.97 38.38,73.97 C39.53,73.97 40.47,73.14 40.47,72.12 C40.47,71.1 39.53,70.27 38.38,70.27 C35.54,70.27 33.23,68.07 33.23,65.36 C33.23,62.65 35.54,60.46 38.38,60.46 C41.22,60.46 43.53,62.66 43.53,65.37 C43.53,66.21 42.85,66.9 42,66.9 C41.16,66.9 40.47,66.22 40.47,65.37 C40.47,64.35 39.53,63.52 38.38,63.52 C37.23,63.52 36.29,64.35 36.29,65.37 C36.29,66.39 37.23,67.22 38.38,67.22 C41.22,67.22 43.53,69.42 43.53,72.13 C43.53,74.83 41.22,77.03 38.38,77.03 Z" id="Path"></path>
                <path d="M38.38,78.58 C37.54,78.58 36.85,77.9 36.85,77.05 L36.85,75.5 C36.85,74.66 37.53,73.97 38.38,73.97 C39.22,73.97 39.91,74.65 39.91,75.5 L39.91,77.05 C39.91,77.89 39.22,78.58 38.38,78.58 Z" id="Path"></path>
            </g>
        </g>
    </g>
</svg>