<?xml version="1.0" encoding="UTF-8"?>
<svg width="98px" height="96px" viewBox="0 0 98 96" version="1.1" xmlns="http://www.w3.org/2000/svg" xmlns:xlink="http://www.w3.org/1999/xlink">
    <title>konsolidace</title>
    <g id="Page-1" stroke="none" stroke-width="1" fill="none" fill-rule="evenodd">
        <g id="konsolidace" transform="translate(-0.000000, -0.000000)" fill="#FFFFFF" fill-rule="nonzero">
            <g transform="translate(11.141094, 3.075000)" id="Group">
                <path d="M30.58,24.44 C26.86,24.44 23.83,21.41 23.83,17.69 C23.83,13.97 26.86,10.94 30.58,10.94 C34.3,10.94 37.33,13.97 37.33,17.69 C37.33,21.41 34.3,24.44 30.58,24.44 Z M30.58,14.01 C28.55,14.01 26.9,15.66 26.9,17.69 C26.9,19.72 28.55,21.37 30.58,21.37 C32.61,21.37 34.26,19.72 34.26,17.69 C34.26,15.66 32.61,14.01 30.58,14.01 Z" id="Shape"></path>
                <path d="M41.74,40.46 C40.89,40.46 40.2,39.77 40.2,38.92 L40.2,32.89 C40.2,30.62 38.36,28.78 36.09,28.78 L25.07,28.78 C22.8,28.78 20.96,30.62 20.96,32.89 L20.96,38.92 C20.96,39.77 20.27,40.46 19.42,40.46 C18.57,40.46 17.88,39.77 17.88,38.92 L17.88,32.89 C17.88,28.93 21.1,25.71 25.06,25.71 L36.09,25.71 C40.05,25.71 43.2701073,28.93 43.2701073,32.89 L43.2701073,38.92 C43.28,39.77 42.59,40.46 41.74,40.46 Z" id="Path"></path>
                <path d="M25.78,40.46 C24.93,40.46 24.24,39.77 24.24,38.92 L24.24,36.76 C24.24,35.91 24.93,35.22 25.78,35.22 C26.63,35.22 27.32,35.91 27.32,36.76 L27.32,38.92 C27.31,39.77 26.63,40.46 25.78,40.46 Z" id="Path"></path>
                <path d="M35.39,40.46 C34.54,40.46 33.85,39.77 33.85,38.92 L33.85,36.76 C33.85,35.91 34.54,35.22 35.39,35.22 C36.24,35.22 36.93,35.91 36.93,36.76 L36.93,38.92 C36.93,39.77 36.24,40.46 35.39,40.46 Z" id="Path"></path>
                <path d="M50.92,46.22 L10.24,46.22 C9.39,46.22 8.7,45.53 8.7,44.68 C8.7,43.83 9.39,43.14 10.24,43.14 L50.92,43.14 C51.77,43.14 52.46,43.83 52.46,44.68 C52.46,45.53 51.77,46.22 50.92,46.22 Z" id="Path"></path>
                <path d="M50.92,54.27 L10.24,54.27 C9.39,54.27 8.7,53.58 8.7,52.73 C8.7,51.88 9.39,51.19 10.24,51.19 L50.92,51.19 C51.77,51.19 52.46,51.88 52.46,52.73 C52.46,53.59 51.77,54.27 50.92,54.27 Z" id="Path"></path>
                <path d="M55.43,62.33 L10.24,62.33 C9.39,62.33 8.7,61.64 8.7,60.79 C8.7,59.94 9.39,59.25 10.24,59.25 L55.43,59.25 C56.28,59.25 56.97,59.94 56.97,60.79 C56.97,61.64 56.28,62.33 55.43,62.33 Z" id="Path"></path>
                <path d="M46.62,70.39 L10.24,70.39 C9.39,70.39 8.7,69.7 8.7,68.85 C8.7,68 9.39,67.31 10.24,67.31 L46.62,67.31 C47.47,67.31 48.16,68 48.16,68.85 C48.15,69.71 47.47,70.39 46.62,70.39 Z" id="Path"></path>
                <path d="M45.81,78.45 L10.24,78.45 C9.39,78.45 8.7,77.76 8.7,76.91 C8.7,76.06 9.39,75.37 10.24,75.37 L45.81,75.37 C46.66,75.37 47.35,76.06 47.35,76.91 C47.35,77.77 46.66,78.45 45.81,78.45 Z" id="Path"></path>
                <path d="M54.46,88.85 L1.54,88.85 C0.69,88.85 -3.55271368e-15,88.16 -3.55271368e-15,87.31 L-3.55271368e-15,7.23 C-3.55271368e-15,6.38 0.69,5.69 1.54,5.69 L59.62,5.69 C60.47,5.69 61.16,6.38 61.16,7.23 L61.16,60.16 C61.16,61.01 60.47,61.7 59.62,61.7 C52.71,61.7 47.08,67.32 47.08,74.23 C47.08,79.41 50.2,83.98 55.02,85.88 C55.71,86.15 56.1,86.87 55.96,87.59 C55.83,88.33 55.2,88.85 54.46,88.85 Z M3.08,85.78 L49.12,85.78 C45.92,82.89 44.02,78.74 44.02,74.23 C44.02,66.14 50.2,59.47 58.09,58.7 L58.09,8.76 L3.08,8.76 L3.08,85.78 Z" id="Shape"></path>
                <path d="M59.62,89.84 C51.01,89.84 44.01,82.84 44.01,74.23 C44.01,65.62 51.01,58.62 59.62,58.62 C68.23,58.62 75.23,65.62 75.23,74.23 C75.23,82.84 68.23,89.84 59.62,89.84 Z M59.62,61.7 C52.71,61.7 47.08,67.32 47.08,74.23 C47.08,81.14 52.7,86.77 59.62,86.77 C66.53,86.77 72.16,81.15 72.16,74.23 C72.16,67.32 66.54,61.7 59.62,61.7 Z" id="Shape"></path>
                <path d="M58.21,81.62 C57.71,81.61 57.26,81.38 56.97,80.99 L51.5,73.51 C51,72.83 51.15,71.87 51.83,71.36 C52.52,70.86 53.47,71.01 53.98,71.69 L58.24,77.52 L64.81,68.97 C65.33,68.3 66.29,68.17 66.96,68.69 C67.63,69.21 67.76,70.17 67.24,70.84 L59.43,81.02 C59.14,81.4 58.69,81.62 58.21,81.62 Z" id="Path"></path>
                <path d="M66.03,63.25 C65.79,63.25 65.55,63.19 65.33,63.08 C63.54,62.16 61.62,61.7 59.62,61.7 C58.77,61.7 58.08,61.01 58.08,60.16 L58.08,8.76 L7.95,8.76 C7.1,8.76 6.41,8.07 6.41,7.22 L6.41,1.54 C6.41,0.69 7.1,1.77635684e-15 7.95,1.77635684e-15 L66.03,1.77635684e-15 C66.88,1.77635684e-15 67.57,0.69 67.57,1.54 L67.57,61.72 C67.57,62.26 67.29,62.75 66.84,63.03 C66.59,63.18 66.31,63.25 66.03,63.25 Z M61.16,58.7 C62.3,58.81 63.41,59.05 64.5,59.41 L64.5,3.07 L9.49,3.07 L9.49,5.69 L59.62,5.69 C60.47,5.69 61.16,6.38 61.16,7.23 L61.16,58.7 Z" id="Shape"></path>
            </g>
        </g>
    </g>
</svg>