<?xml version="1.0" encoding="UTF-8"?>
<svg width="98px" height="96px" viewBox="0 0 98 96" version="1.1" xmlns="http://www.w3.org/2000/svg" xmlns:xlink="http://www.w3.org/1999/xlink">
    <title>penzijni-pripojisteni</title>
    <g id="Page-1" stroke="none" stroke-width="1" fill="none" fill-rule="evenodd">
        <g id="penzijni-pripojisteni" transform="translate(-0.000000, 0.000000)" fill="#0F66DC" fill-rule="nonzero">
            <g id="Group" transform="translate(12.761094, 1.413783)">
                <path d="M62.72,93.1612169 L9.28,93.1612169 C5.69,93.1612169 2.77,90.2412169 2.77,86.6512169 L2.77,42.3612169 C2.77,41.5012169 3.46,40.8112169 4.32,40.8112169 L67.69,40.8112169 C68.55,40.8112169 69.24,41.5012169 69.24,42.3612169 L69.24,86.6512169 C69.23,90.2412169 66.31,93.1612169 62.72,93.1612169 Z M5.86,43.9112169 L5.86,86.6512169 C5.86,88.5312169 7.39,90.0712169 9.28,90.0712169 L62.72,90.0712169 C64.6,90.0712169 66.14,88.5412169 66.14,86.6512169 L66.14,43.9112169 L5.86,43.9112169 Z" id="Shape"></path>
                <path d="M44.03,58.0412169 L27.97,58.0412169 C25.07,58.0412169 22.7,55.6812169 22.7,52.7712169 C22.7,49.8712169 25.06,47.5012169 27.97,47.5012169 L44.03,47.5012169 C46.93,47.5012169 49.3,49.8612169 49.3,52.7712169 C49.3,55.6812169 46.94,58.0412169 44.03,58.0412169 Z M27.97,50.6112169 C26.77,50.6112169 25.8,51.5812169 25.8,52.7812169 C25.8,53.9812169 26.77,54.9512169 27.97,54.9512169 L44.03,54.9512169 C45.23,54.9512169 46.2,53.9812169 46.2,52.7812169 C46.2,51.5812169 45.23,50.6112169 44.03,50.6112169 L27.97,50.6112169 Z" id="Shape"></path>
                <path d="M70.45,93.1612169 L1.55,93.1612169 C0.69,93.1612169 -3.55271368e-15,92.4712169 -3.55271368e-15,91.6112169 C-3.55271368e-15,90.7512169 0.69,90.0612169 1.55,90.0612169 L70.45,90.0612169 C71.31,90.0612169 72,90.7512169 72,91.6112169 C72,92.4712169 71.31,93.1612169 70.45,93.1612169 Z" id="Path"></path>
                <path d="M42.31,8.62121693 C42.26,8.62121693 42.2,8.62121693 42.15,8.61121693 C41.3,8.52121693 40.68,7.76121693 40.77,6.91121693 L40.9,5.69121693 C40.99,4.84121693 41.75,4.21121693 42.6,4.31121693 C43.45,4.40121693 44.07,5.16121693 43.98,6.01121693 L43.85,7.23121693 C43.77,8.03121693 43.09,8.62121693 42.31,8.62121693 Z" id="Path"></path>
                <path d="M41.7,26.2412169 C41.25,26.2412169 40.8,26.2212169 40.35,26.1712169 C33.16,25.4312169 27.9,18.9712169 28.65,11.7812169 C29.38,4.58121693 35.83,-0.678783066 43.03,0.0712169342 C50.22,0.811216934 55.48,7.27121693 54.73,14.4612169 C54.04,21.2012169 48.33,26.2412169 41.7,26.2412169 Z M41.68,3.10121693 C36.61,3.10121693 32.25,6.95121693 31.72,12.0912169 C31.15,17.5912169 35.17,22.5212169 40.66,23.0912169 C46.15,23.6412169 51.09,19.6412169 51.66,14.1512169 C52.23,8.65121693 48.21,3.72121693 42.72,3.15121693 C42.37,3.11121693 42.02,3.10121693 41.68,3.10121693 Z" id="Shape"></path>
                <path d="M41.42,20.7212169 C41.25,20.7212169 41.08,20.7112169 40.9,20.6912169 C39.64,20.5612169 38.5,19.9812169 37.69,19.0512169 C36.85,18.0912169 36.46,16.8812169 36.59,15.6412169 C36.68,14.7912169 37.44,14.1612169 38.29,14.2612169 C39.14,14.3512169 39.76,15.1112169 39.67,15.9612169 C39.63,16.3412169 39.76,16.7112169 40.02,17.0212169 C40.31,17.3612169 40.74,17.5712169 41.21,17.6212169 C42.15,17.7012169 42.98,17.1312169 43.06,16.3212169 C43.1,15.9412169 42.97,15.5712169 42.71,15.2612169 C42.42,14.9212169 41.99,14.7112169 41.52,14.6612169 C38.88,14.3912169 36.95,12.1212169 37.21,9.61121693 C37.47,7.10121693 39.82,5.26121693 42.46,5.54121693 C43.72,5.67121693 44.86,6.25121693 45.67,7.18121693 C46.51,8.14121693 46.9,9.35121693 46.77,10.5912169 C46.68,11.4412169 45.92,12.0612169 45.07,11.9712169 C44.22,11.8812169 43.6,11.1212169 43.69,10.2712169 C43.73,9.89121693 43.6,9.52121693 43.34,9.21121693 C43.05,8.87121693 42.62,8.66121693 42.15,8.61121693 C41.2,8.52121693 40.38,9.10121693 40.3,9.92121693 C40.22,10.7412169 40.91,11.4812169 41.85,11.5812169 C43.11,11.7112169 44.24,12.2912169 45.06,13.2212169 C45.9,14.1812169 46.29,15.3912169 46.16,16.6312169 C45.91,18.9812169 43.84,20.7212169 41.42,20.7212169 Z" id="Path"></path>
                <path d="M40.92,22.0912169 C40.87,22.0912169 40.81,22.0912169 40.76,22.0812169 C39.91,21.9912169 39.29,21.2312169 39.38,20.3812169 L39.52,18.9912169 C39.61,18.1412169 40.37,17.5112169 41.22,17.6112169 C42.07,17.7012169 42.69,18.4612169 42.6,19.3112169 L42.46,20.7012169 C42.38,21.5012169 41.71,22.0912169 40.92,22.0912169 Z" id="Path"></path>
                <path d="M18,31.3612169 C17.45,31.3612169 16.92,31.0712169 16.64,30.5512169 L15.97,29.3212169 C15.56,28.5712169 15.84,27.6312169 16.59,27.2212169 C17.34,26.8212169 18.28,27.0912169 18.69,27.8512169 L19.36,29.0812169 C19.77,29.8312169 19.49,30.7712169 18.74,31.1812169 C18.5,31.3012169 18.25,31.3612169 18,31.3612169 Z" id="Path"></path>
                <path d="M9.82,43.9112169 C9.27,43.9112169 8.75,43.6212169 8.46,43.1112169 L8.34,42.9012169 C4.47,35.7612169 7.13,26.8112169 14.27,22.9512169 C21.4,19.0812169 30.36,21.7412169 34.22,28.8812169 C36.65,33.3612169 36.6,38.6912169 34.1,43.1312169 C33.68,43.8812169 32.74,44.1412169 31.99,43.7212169 C31.25,43.3012169 30.98,42.3612169 31.4,41.6112169 C33.38,38.1012169 33.41,33.8912169 31.5,30.3612169 C28.45,24.7312169 21.38,22.6312169 15.75,25.6812169 C10.12,28.7312169 8.02,35.8012169 11.07,41.4312169 L11.18,41.6212169 C11.59,42.3712169 11.32,43.3112169 10.58,43.7312169 C10.33,43.8512169 10.08,43.9112169 9.82,43.9112169 Z" id="Path"></path>
                <path d="M22.73,43.9112169 C22.29,43.9112169 21.84,43.8512169 21.41,43.7412169 C20.06,43.3912169 18.97,42.5412169 18.32,41.3512169 C17.91,40.6012169 18.19,39.6612169 18.94,39.2512169 C19.69,38.8512169 20.63,39.1212169 21.04,39.8812169 C21.27,40.3112169 21.68,40.6212169 22.19,40.7512169 C22.74,40.8912169 23.32,40.8112169 23.85,40.5312169 C24.37,40.2512169 24.76,39.8012169 24.94,39.2612169 C25.11,38.7712169 25.07,38.2512169 24.84,37.8212169 C24.61,37.3912169 24.2,37.0812169 23.69,36.9512169 C23.14,36.8112169 22.56,36.8912169 22.03,37.1712169 C20.81,37.8312169 19.43,38.0112169 18.12,37.6712169 C16.77,37.3212169 15.68,36.4712169 15.03,35.2812169 C14.38,34.0912169 14.27,32.7012169 14.71,31.3812169 C15.14,30.1012169 16.05,29.0312169 17.26,28.3712169 C18.48,27.7112169 19.87,27.5412169 21.17,27.8812169 C22.52,28.2312169 23.61,29.0812169 24.26,30.2712169 C24.67,31.0212169 24.39,31.9612169 23.64,32.3712169 C22.89,32.7812169 21.95,32.5012169 21.54,31.7512169 C21.31,31.3212169 20.9,31.0112169 20.39,30.8812169 C19.84,30.7412169 19.26,30.8212169 18.73,31.1012169 C18.21,31.3812169 17.82,31.8312169 17.64,32.3712169 C17.47,32.8612169 17.51,33.3812169 17.74,33.8112169 C17.97,34.2412169 18.38,34.5512169 18.89,34.6812169 C19.44,34.8212169 20.03,34.7412169 20.55,34.4612169 C21.77,33.8012169 23.16,33.6312169 24.46,33.9612169 C25.81,34.3112169 26.9,35.1612169 27.55,36.3512169 C28.2,37.5412169 28.31,38.9312169 27.87,40.2512169 C27.44,41.5312169 26.53,42.6012169 25.32,43.2612169 C24.51,43.6912169 23.62,43.9112169 22.73,43.9112169 Z" id="Path"></path>
                <path d="M52.62,34.8212169 C52.57,34.8212169 52.51,34.8212169 52.46,34.8112169 C51.61,34.7212169 50.99,33.9612169 51.08,33.1112169 L51.19,32.0112169 C51.28,31.1612169 52.04,30.5312169 52.89,30.6312169 C53.74,30.7212169 54.36,31.4812169 54.27,32.3312169 L54.16,33.4312169 C54.07,34.2312169 53.4,34.8212169 52.62,34.8212169 Z" id="Path"></path>
                <path d="M54.52,43.9112169 C54.33,43.9112169 54.14,43.8812169 53.95,43.8012169 C53.15,43.4912169 52.76,42.5912169 53.08,41.7912169 C53.11,41.7112169 53.13,41.6212169 53.14,41.5312169 C53.21,40.8912169 52.65,40.3012169 51.9,40.2212169 C49.45,39.9712169 47.65,37.8612169 47.9,35.5112169 C48.14,33.1712169 50.34,31.4612169 52.78,31.7212169 C55.23,31.9712169 57.03,34.0812169 56.79,36.4312169 C56.7,37.2812169 55.94,37.9112169 55.09,37.8112169 C54.24,37.7212169 53.62,36.9612169 53.71,36.1112169 C53.78,35.4712169 53.22,34.8812169 52.47,34.8012169 C51.72,34.7312169 51.05,35.1812169 50.99,35.8312169 C50.92,36.4712169 51.48,37.0612169 52.23,37.1412169 C54.68,37.3912169 56.48,39.5012169 56.23,41.8512169 C56.19,42.2212169 56.1,42.5912169 55.97,42.9312169 C55.72,43.5412169 55.14,43.9112169 54.52,43.9112169 Z" id="Path"></path>
                <path d="M61.75,43.9112169 L42.37,43.9112169 C41.73,43.9112169 41.15,43.5112169 40.92,42.9112169 C40.25,41.1512169 40.01,39.3212169 40.2,37.4612169 C40.53,34.2912169 42.07,31.4412169 44.54,29.4312169 C47.01,27.4212169 50.12,26.4912169 53.28,26.8212169 C56.45,27.1512169 59.3,28.6912169 61.31,31.1612169 C63.32,33.6312169 64.25,36.7412169 63.92,39.9012169 C63.82,40.9012169 63.57,41.9112169 63.2,42.9012169 C62.97,43.5112169 62.39,43.9112169 61.75,43.9112169 Z M43.5,40.8112169 L60.61,40.8112169 C60.71,40.4012169 60.79,39.9912169 60.83,39.5912169 C61.07,37.2412169 60.39,34.9512169 58.9,33.1212169 C57.41,31.2912169 55.3,30.1512169 52.96,29.9112169 C50.62,29.6712169 48.32,30.3512169 46.49,31.8412169 C44.66,33.3312169 43.52,35.4412169 43.28,37.7812169 C43.18,38.8112169 43.25,39.8212169 43.5,40.8112169 Z" id="Shape"></path>
                <path d="M39.9,83.6812169 C39.16,83.6812169 38.42,83.4512169 37.78,82.9812169 L36.31,81.9112169 C36.13,81.7812169 35.88,81.7812169 35.7,81.9112169 L34.23,82.9812169 C32.94,83.9212169 31.27,83.9212169 29.98,82.9812169 C28.69,82.0412169 28.17,80.4612169 28.67,78.9412169 L29.23,77.2112169 C29.3,77.0012169 29.22,76.7612169 29.04,76.6312169 L27.57,75.5612169 C26.28,74.6212169 25.76,73.0412169 26.26,71.5212169 C26.75,70.0012169 28.1,69.0212169 29.7,69.0212169 L31.52,69.0212169 C31.74,69.0212169 31.94,68.8812169 32.01,68.6612169 L32.57,66.9312169 C33.06,65.4112169 34.41,64.4312169 36.01,64.4312169 C37.61,64.4312169 38.96,65.4112169 39.45,66.9312169 L40,68.6612169 C40.07,68.8712169 40.27,69.0212169 40.49,69.0212169 L42.31,69.0212169 C43.91,69.0212169 45.26,70.0012169 45.75,71.5212169 C46.24,73.0412169 45.73,74.6212169 44.44,75.5612169 L42.97,76.6312169 C42.79,76.7612169 42.71,76.9912169 42.78,77.2112169 L43.34,78.9412169 C43.83,80.4612169 43.32,82.0412169 42.03,82.9812169 C41.38,83.4512169 40.64,83.6812169 39.9,83.6812169 Z M29.69,72.1112169 C29.38,72.1112169 29.25,72.3012169 29.2,72.4712169 C29.15,72.6312169 29.14,72.8712169 29.39,73.0512169 L30.86,74.1212169 C32.13,75.0412169 32.66,76.6712169 32.17,78.1612169 L31.61,79.8912169 C31.51,80.1812169 31.66,80.3712169 31.8,80.4712169 C31.94,80.5712169 32.16,80.6512169 32.41,80.4712169 L33.88,79.4012169 C35.15,78.4812169 36.86,78.4812169 38.13,79.4012169 L39.6,80.4712169 C39.85,80.6612169 40.07,80.5712169 40.21,80.4712169 C40.35,80.3712169 40.49,80.1912169 40.4,79.8912169 L39.84,78.1612169 C39.35,76.6612169 39.88,75.0412169 41.15,74.1212169 L42.62,73.0512169 C42.87,72.8712169 42.86,72.6412169 42.81,72.4712169 C42.76,72.3112169 42.63,72.1112169 42.32,72.1112169 L40.5,72.1112169 C38.93,72.1112169 37.55,71.1112169 37.06,69.6112169 L36.5,67.8812169 C36.4,67.5812169 36.18,67.5212169 36.01,67.5212169 C35.84,67.5212169 35.61,67.5812169 35.52,67.8812169 L34.96,69.6112169 C34.47,71.1012169 33.09,72.1112169 31.52,72.1112169 L29.69,72.1112169 Z" id="Shape"></path>
            </g>
        </g>
    </g>
</svg>