<?xml version="1.0" encoding="UTF-8"?>
<svg width="98px" height="96px" viewBox="0 0 98 96" version="1.1" xmlns="http://www.w3.org/2000/svg" xmlns:xlink="http://www.w3.org/1999/xlink">
    <title>podnikatelske-pujcky</title>
    <g id="Page-1" stroke="none" stroke-width="1" fill="none" fill-rule="evenodd">
        <g id="podnikatelske-pujcky" transform="translate(-0.000000, -0.000000)" fill="#0F66DC" fill-rule="nonzero">
            <g id="Group" transform="translate(11.761094, 1.905000)">
                <path d="M54.39,92.18 L5.82,92.18 C2.61,92.18 0,89.57 0,86.36 L0,19.2 C0,15.99 2.61,13.38 5.82,13.38 L54.39,13.38 C57.6,13.38 60.2100286,15.99 60.2100286,19.2 L60.2100286,86.36 C60.22,89.57 57.61,92.18 54.39,92.18 Z M5.82,16.35 C4.25,16.35 2.97,17.63 2.97,19.2 L2.97,86.36 C2.97,87.93 4.25,89.21 5.82,89.21 L54.39,89.21 C55.96,89.21 57.24,87.93 57.24,86.36 L57.24,19.2 C57.24,17.63 55.96,16.35 54.39,16.35 L5.82,16.35 Z" id="Shape"></path>
                <path d="M30.11,37.83 C25.05,37.83 20.93,33.71 20.93,28.66 C20.93,23.6 25.05,19.48 30.11,19.48 C35.17,19.48 39.28,23.6 39.28,28.66 C39.28,33.71 35.17,37.83 30.11,37.83 Z M30.11,22.45 C26.69,22.45 23.91,25.23 23.91,28.65 C23.91,32.07 26.69,34.85 30.11,34.85 C33.53,34.85 36.31,32.07 36.31,28.65 C36.31,25.23 33.53,22.45 30.11,22.45 Z" id="Shape"></path>
                <path d="M44.73,56.86 L15.49,56.86 C14.67,56.86 14,56.19 14,55.37 L14,46.79 C14,41.89 17.99,37.91 22.88,37.91 L23.34,37.91 C24.41,37.91 25.39,38.34 26.03,39.1 L30.1,44.48 L34.12,39.16 C34.81,38.34 35.79,37.9 36.86,37.9 L37.32,37.9 C42.22,37.9 46.2,41.89 46.2,46.78 L46.2,55.36 C46.22,56.19 45.55,56.86 44.73,56.86 Z M16.97,53.88 L43.24,53.88 L43.24,46.79 C43.24,43.53 40.59,40.88 37.33,40.88 L36.87,40.88 C36.66,40.88 36.51,40.95 36.45,41.02 L31.29,47.85 C30.73,48.59 29.48,48.59 28.92,47.85 L23.71,40.96 C23.7,40.95 23.55,40.88 23.34,40.88 L22.88,40.88 C19.62,40.88 16.97,43.53 16.97,46.79 L16.97,53.88 Z" id="Shape"></path>
                <path d="M50.99,66.78 L9.23,66.78 C8.41,66.78 7.74,66.11 7.74,65.29 C7.74,64.47 8.41,63.8 9.23,63.8 L50.99,63.8 C51.81,63.8 52.48,64.47 52.48,65.29 C52.47,66.12 51.81,66.78 50.99,66.78 Z" id="Path"></path>
                <path d="M50.99,74.84 L9.23,74.84 C8.41,74.84 7.74,74.17 7.74,73.35 C7.74,72.53 8.41,71.86 9.23,71.86 L50.99,71.86 C51.81,71.86 52.48,72.53 52.48,73.35 C52.47,74.17 51.81,74.84 50.99,74.84 Z" id="Path"></path>
                <path d="M50.99,82.89 L9.23,82.89 C8.41,82.89 7.74,82.22 7.74,81.4 C7.74,80.58 8.41,79.91 9.23,79.91 L50.99,79.91 C51.81,79.91 52.48,80.58 52.48,81.4 C52.47,82.22 51.81,82.89 50.99,82.89 Z" id="Path"></path>
                <path d="M68.18,78.8 L65.63,78.8 C64.81,78.8 64.14,78.13 64.14,77.31 L64.14,12.51 C64.14,10.94 62.86,9.66 61.29,9.66 L15.27,9.66 C14.45,9.66 13.78,8.99 13.78,8.17 L13.78,5.82 C13.78,2.61 16.39,0 19.6,0 L68.17,0 C71.38,0 73.9900286,2.61 73.9900286,5.82 L73.9900286,72.98 C74,76.19 71.39,78.8 68.18,78.8 Z M67.11,75.83 L68.18,75.83 C69.75,75.83 71.03,74.55 71.03,72.98 L71.03,5.82 C71.03,4.25 69.75,2.97 68.18,2.97 L19.61,2.97 C18.04,2.97 16.76,4.25 16.76,5.82 L16.76,6.69 L61.29,6.69 C64.5,6.69 67.11,9.3 67.11,12.51 L67.11,75.83 L67.11,75.83 Z" id="Shape"></path>
                <path d="M61.29,85.49 L58.74,85.49 C57.92,85.49 57.25,84.82 57.25,84 L57.25,19.2 C57.25,17.63 55.97,16.35 54.4,16.35 L8.38,16.35 C7.56,16.35 6.89,15.68 6.89,14.86 L6.89,12.51 C6.89,9.3 9.5,6.69 12.71,6.69 L61.28,6.69 C64.49,6.69 67.1000286,9.3 67.1000286,12.51 L67.1000286,79.67 C67.11,82.88 64.5,85.49 61.29,85.49 Z M60.22,82.52 L61.29,82.52 C62.86,82.52 64.14,81.24 64.14,79.67 L64.14,12.51 C64.14,10.94 62.86,9.66 61.29,9.66 L12.71,9.66 C11.14,9.66 9.86,10.94 9.86,12.51 L9.86,13.38 L54.39,13.38 C57.6,13.38 60.21,15.99 60.21,19.2 L60.21,82.52 L60.22,82.52 Z" id="Shape"></path>
            </g>
        </g>
    </g>
</svg>