<?xml version="1.0" encoding="utf-8"?>
<!-- Generator: Adobe Illustrator 27.0.1, SVG Export Plug-In . SVG Version: 6.00 Build 0)  -->
<svg version="1.1" xmlns="http://www.w3.org/2000/svg" xmlns:xlink="http://www.w3.org/1999/xlink" x="0px" y="0px"
	 viewBox="0 0 100 100" style="enable-background:new 0 0 100 100;" xml:space="preserve">
<style type="text/css">
	.st0{display:none;}
	.st1{display:inline;}
	.st2{fill:#0F66DC;}
	.st3{fill:#FFFFFF;}
</style>
<g id="pojištění" class="st0">
	<g class="st1">
		<path class="st2" d="M26.53,43.04c-5.31,0-9.64-4.32-9.64-9.64c0-5.31,4.32-9.64,9.64-9.64c5.31,0,9.64,4.32,9.64,9.64
			C36.16,38.71,31.84,43.04,26.53,43.04z M26.53,26.84c-3.62,0-6.56,2.94-6.56,6.56c0,3.62,2.94,6.56,6.56,6.56s6.56-2.94,6.56-6.56
			C33.09,29.78,30.14,26.84,26.53,26.84z"/>
		<path class="st2" d="M57.55,43.04H43.27c-0.85,0-1.54-0.69-1.54-1.54c0-0.85,0.69-1.54,1.54-1.54h14.28
			c0.85,0,1.54,0.69,1.54,1.54C59.08,42.35,58.4,43.04,57.55,43.04z"/>
		<path class="st2" d="M50.96,52.78H19.11c-0.85,0-1.54-0.69-1.54-1.54c0-0.85,0.69-1.54,1.54-1.54h31.85
			c0.85,0,1.54,0.69,1.54,1.54C52.5,52.09,51.81,52.78,50.96,52.78z"/>
		<path class="st2" d="M42.45,61.98H19.11c-0.85,0-1.54-0.69-1.54-1.54c0-0.85,0.69-1.54,1.54-1.54h23.34
			c0.85,0,1.54,0.69,1.54,1.54C43.99,61.29,43.3,61.98,42.45,61.98z"/>
		<path class="st2" d="M39.43,71.18H19.11c-0.85,0-1.54-0.69-1.54-1.54c0-0.85,0.69-1.54,1.54-1.54h20.32
			c0.85,0,1.54,0.69,1.54,1.54C40.97,70.49,40.28,71.18,39.43,71.18z"/>
		<path class="st2" d="M39.43,80.37H19.11c-0.85,0-1.54-0.69-1.54-1.54c0-0.85,0.69-1.54,1.54-1.54h20.32
			c0.85,0,1.54,0.69,1.54,1.54C40.97,79.69,40.28,80.37,39.43,80.37z"/>
		<path class="st2" d="M57.55,35.63H43.27c-0.85,0-1.54-0.69-1.54-1.54c0-0.85,0.69-1.54,1.54-1.54h14.28
			c0.85,0,1.54,0.69,1.54,1.54C59.08,34.94,58.4,35.63,57.55,35.63z"/>
		<path class="st2" d="M57.55,28.21H43.27c-0.85,0-1.54-0.69-1.54-1.54c0-0.85,0.69-1.54,1.54-1.54h14.28
			c0.85,0,1.54,0.69,1.54,1.54C59.08,27.52,58.4,28.21,57.55,28.21z"/>
		<path class="st2" d="M71.93,95.61h-9.76c-0.85,0-1.54-0.69-1.54-1.54v-4.6c-0.31-0.12-0.62-0.25-0.93-0.39l-3.26,3.26
			c-0.6,0.6-1.57,0.6-2.17,0l-6.91-6.9c-0.29-0.29-0.45-0.68-0.45-1.09s0.16-0.8,0.45-1.09l3.26-3.26
			c-0.14-0.31-0.27-0.62-0.39-0.93h-4.6c-0.85,0-1.54-0.69-1.54-1.54v-9.76c0-0.85,0.69-1.54,1.54-1.54h4.6
			c0.12-0.31,0.25-0.62,0.39-0.93l-3.26-3.26c-0.29-0.29-0.45-0.68-0.45-1.09s0.16-0.8,0.45-1.09l6.91-6.9
			c0.29-0.29,0.68-0.45,1.09-0.45c0.41,0,0.8,0.16,1.09,0.45l3.26,3.26c0.31-0.14,0.62-0.27,0.93-0.39v-4.6
			c0-0.85,0.69-1.54,1.54-1.54h9.76c0.85,0,1.54,0.69,1.54,1.54v4.6c0.31,0.12,0.62,0.25,0.93,0.39l3.26-3.26
			c0.6-0.6,1.57-0.6,2.17,0l6.9,6.9c0.6,0.6,0.6,1.57,0,2.17l-3.26,3.26c0.14,0.31,0.27,0.62,0.39,0.93h4.6
			c0.85,0,1.54,0.69,1.54,1.54v9.76c0,0.85-0.69,1.54-1.54,1.54h-4.6c-0.12,0.31-0.25,0.62-0.39,0.93l3.26,3.26
			c0.6,0.6,0.6,1.57,0,2.17l-6.9,6.9c-0.6,0.6-1.57,0.6-2.17,0l-3.26-3.26c-0.31,0.14-0.62,0.27-0.93,0.39v4.6
			C73.47,94.92,72.78,95.61,71.93,95.61z M63.7,92.54h6.69v-4.15c0-0.67,0.44-1.27,1.08-1.47c0.84-0.26,1.68-0.61,2.51-1.05
			c0.6-0.31,1.33-0.2,1.8,0.27l2.95,2.94l4.73-4.73l-2.94-2.95c-0.48-0.48-0.59-1.21-0.27-1.8c0.44-0.83,0.79-1.68,1.05-2.51
			c0.2-0.64,0.8-1.08,1.47-1.08h4.15v-6.69h-4.15c-0.67,0-1.27-0.44-1.47-1.08c-0.26-0.84-0.61-1.68-1.05-2.51
			c-0.31-0.6-0.2-1.33,0.27-1.8l2.94-2.95l-4.73-4.73l-2.95,2.95c-0.48,0.48-1.21,0.59-1.8,0.27c-0.83-0.44-1.67-0.79-2.51-1.05
			c-0.64-0.2-1.08-0.8-1.08-1.47v-4.15H63.7v4.15c0,0.67-0.44,1.27-1.08,1.47c-0.84,0.26-1.69,0.61-2.51,1.05
			c-0.6,0.32-1.33,0.2-1.8-0.27l-2.94-2.95l-4.73,4.73l2.94,2.95c0.48,0.48,0.59,1.21,0.27,1.8c-0.44,0.83-0.79,1.68-1.05,2.51
			c-0.2,0.64-0.8,1.08-1.47,1.08h-4.16V76h4.16c0.67,0,1.27,0.44,1.47,1.08c0.26,0.84,0.61,1.68,1.05,2.51
			c0.31,0.6,0.2,1.33-0.27,1.8l-2.94,2.95l4.73,4.73l2.94-2.94c0.47-0.48,1.21-0.59,1.8-0.27c0.83,0.44,1.68,0.79,2.51,1.05
			c0.64,0.2,1.08,0.8,1.08,1.47V92.54z"/>
		<path class="st2" d="M67.05,84.97c-6.79,0-12.31-5.52-12.31-12.31s5.52-12.31,12.31-12.31c6.79,0,12.31,5.52,12.31,12.31
			S73.84,84.97,67.05,84.97z M67.05,63.42c-5.09,0-9.24,4.14-9.24,9.24s4.14,9.24,9.24,9.24c5.09,0,9.24-4.14,9.24-9.24
			S72.14,63.42,67.05,63.42z"/>
		<path class="st2" d="M77.86,48.94c-0.85,0-1.54-0.69-1.54-1.54V7.11H24.22V10h47.67c0.85,0,1.54,0.69,1.54,1.54v33.12
			c0,0.85-0.69,1.54-1.54,1.54c-0.85,0-1.54-0.69-1.54-1.54V13.08H22.68c-0.85,0-1.54-0.69-1.54-1.54V5.57
			c0-0.85,0.69-1.54,1.54-1.54h55.18c0.85,0,1.54,0.69,1.54,1.54V47.4C79.4,48.25,78.71,48.94,77.86,48.94z"/>
		<path class="st2" d="M65.92,46.2c-0.85,0-1.54-0.69-1.54-1.54V19.05H16.71c-0.85,0-1.54-0.69-1.54-1.54v-5.97
			c0-0.85,0.69-1.54,1.54-1.54h55.18c0.85,0,1.54,0.69,1.54,1.54V43.7c0,0.85-0.69,1.54-1.54,1.54c-0.85,0-1.54-0.69-1.54-1.54
			V13.08H18.25v2.9h47.67c0.85,0,1.54,0.69,1.54,1.54v27.15C67.46,45.51,66.77,46.2,65.92,46.2z"/>
		<path class="st2" d="M52.06,96.06H10.74c-0.85,0-1.54-0.69-1.54-1.54V17.51c0-0.85,0.69-1.54,1.54-1.54h55.18
			c0.85,0,1.54,0.69,1.54,1.54v27.15c0,0.85-0.69,1.54-1.54,1.54c-0.85,0-1.54-0.69-1.54-1.54V19.05H12.28v73.93h39.78
			c0.85,0,1.54,0.69,1.54,1.54C53.59,95.37,52.91,96.06,52.06,96.06z"/>
	</g>
</g>
<g id="financování" class="st0">
	<g class="st1">
		<path class="st3" d="M50.44,30.53c-0.32,0.14-0.66,0.22-1.03,0.23c-1.54,0.05-2.83-1.16-2.87-2.7L46.4,23.6
			c-0.04-1.54,1.17-2.83,2.7-2.87c1.54-0.05,2.83,1.16,2.87,2.7l0.14,4.45C52.15,29.06,51.46,30.09,50.44,30.53z"/>
		<path class="st3" d="M67.85,91.08c-5.14,2.23-10.72,3.49-16.49,3.67C26.69,95.5,6,76.04,5.25,51.36C4.5,26.69,23.96,6,48.64,5.25
			C73.31,4.5,94,23.96,94.75,48.64c0.36,11.95-3.95,23.33-12.14,32.04C78.37,85.18,73.36,88.69,67.85,91.08z M34.37,14.04
			c-4.82,2.09-9.2,5.16-12.91,9.11c-7.17,7.62-10.95,17.58-10.63,28.05c0.66,21.6,18.76,38.64,40.36,37.98
			c10.46-0.32,20.17-4.69,27.35-12.32c7.17-7.62,10.95-17.59,10.63-28.05c-0.32-10.46-4.69-20.17-12.32-27.35
			c-7.62-7.17-17.58-10.95-28.05-10.63C43.75,10.98,38.87,12.08,34.37,14.04z"/>
		<path class="st3" d="M56.37,73.57c-1.72,0.75-3.61,1.19-5.62,1.25c-8.05,0.24-14.78-5.75-15.01-13.36
			c-0.04-1.54,1.17-2.83,2.7-2.87c1.54-0.05,2.83,1.16,2.87,2.7c0.14,4.54,4.3,8.1,9.27,7.95c4.97-0.15,8.91-3.97,8.77-8.5
			c-0.14-4.53-4.3-8.1-9.27-7.95c-8.05,0.24-14.78-5.75-15.01-13.36c-0.23-7.61,6.13-14,14.17-14.25
			c8.05-0.24,14.78,5.75,15.02,13.36c0.05,1.54-1.16,2.83-2.7,2.87c-1.54,0.05-2.83-1.16-2.87-2.7c-0.14-4.54-4.3-8.1-9.27-7.95
			c-4.97,0.15-8.9,3.97-8.77,8.5c0.14,4.53,4.29,8.1,9.27,7.95c8.05-0.24,14.78,5.75,15.02,13.36
			C65.1,66.28,61.56,71.31,56.37,73.57z"/>
		<path class="st3" d="M51.94,79.64c-0.32,0.14-0.66,0.22-1.03,0.23c-1.54,0.05-2.83-1.16-2.87-2.7l-0.16-5.05
			c-0.04-1.54,1.17-2.83,2.7-2.87c1.54-0.05,2.83,1.16,2.87,2.7l0.16,5.05C53.65,78.17,52.95,79.2,51.94,79.64z"/>
	</g>
</g>
<g id="investování" class="st0">
	<g class="st1">
		<path class="st2" d="M33.21,60.68c-0.21,0-0.42-0.04-0.62-0.12c-0.86-0.34-1.27-1.31-0.93-2.17l0.99-2.47
			c0.34-0.85,1.32-1.27,2.17-0.93c0.86,0.34,1.27,1.31,0.93,2.17l-0.99,2.47C34.5,60.28,33.87,60.68,33.21,60.68z"/>
		<path class="st2" d="M28.34,98c-3.35,0-6.7-0.64-9.91-1.92C4.73,90.62-1.97,75.03,3.49,61.33c5.46-13.7,21.04-20.4,34.75-14.94
			c13.7,5.46,20.4,21.05,14.94,34.75c-2.65,6.64-7.72,11.85-14.28,14.67C35.5,97.27,31.92,98,28.34,98z M28.33,47.81
			c-3.14,0-6.27,0.64-9.24,1.92C13.34,52.2,8.9,56.76,6.59,62.57C1.81,74.56,7.67,88.21,19.66,92.99
			c5.81,2.31,12.17,2.23,17.92-0.24c5.75-2.47,10.19-7.03,12.5-12.84c2.32-5.81,2.23-12.17-0.24-17.92
			c-2.47-5.75-7.03-10.18-12.84-12.5C34.2,48.37,31.26,47.81,28.33,47.81z"/>
		<path class="st2" d="M26.21,85.67c-1.12,0-2.26-0.21-3.38-0.65c-4.47-1.78-6.73-6.67-5.05-10.89c0.34-0.85,1.32-1.27,2.17-0.93
			c0.86,0.34,1.27,1.31,0.93,2.17c-1,2.52,0.43,5.46,3.19,6.56c2.76,1.1,5.82-0.05,6.83-2.57c1-2.52-0.43-5.46-3.19-6.56
			c-4.47-1.78-6.73-6.67-5.05-10.89c1.68-4.22,6.69-6.21,11.16-4.43c4.47,1.78,6.73,6.67,5.05,10.89c-0.34,0.86-1.31,1.27-2.17,0.93
			c-0.85-0.34-1.27-1.31-0.93-2.17c1-2.52-0.43-5.46-3.19-6.56c-2.76-1.1-5.82,0.06-6.83,2.57c-1,2.52,0.42,5.46,3.19,6.56
			c4.47,1.78,6.73,6.67,5.05,10.89C32.73,83.76,29.59,85.67,26.21,85.67z"/>
		<path class="st2" d="M22.34,87.94c-0.21,0-0.41-0.04-0.62-0.12c-0.85-0.34-1.27-1.31-0.93-2.16l1.12-2.81
			c0.34-0.86,1.31-1.27,2.17-0.93c0.85,0.34,1.27,1.31,0.93,2.17l-1.12,2.8C23.63,87.54,23,87.94,22.34,87.94z"/>
		<path class="st2" d="M80.09,97.99H60.83c-1.35,0-2.33-1.3-2.33-3.09v-5.77c0-1.79,0.98-3.09,2.33-3.09h19.26
			c1.35,0,2.33,1.3,2.33,3.09v5.77C82.41,96.69,81.44,97.99,80.09,97.99z M61.83,94.66h17.25v-5.29H61.83V94.66z"/>
		<path class="st2" d="M96.75,97.99H3.25c-0.92,0-1.67-0.75-1.67-1.67c0-0.92,0.75-1.67,1.67-1.67h93.51c0.92,0,1.67,0.75,1.67,1.67
			C98.42,97.25,97.67,97.99,96.75,97.99z"/>
		<path class="st2" d="M73.19,63.8H58.5c-0.92,0-1.67-0.75-1.67-1.67s0.75-1.67,1.67-1.67h13.69v-5.28H54.41
			c-0.92,0-1.67-0.75-1.67-1.67s0.75-1.67,1.67-1.67h18.78c1.35,0,2.33,1.3,2.33,3.09v5.77C75.52,62.5,74.54,63.8,73.19,63.8z"/>
		<path class="st2" d="M84.28,63.8H58.5c-0.92,0-1.67-0.75-1.67-1.67s0.75-1.67,1.67-1.67h25.54v-5.28H54.41
			c-0.92,0-1.67-0.75-1.67-1.67s0.75-1.67,1.67-1.67h29.87c1.7,0,3.09,1.39,3.09,3.09v5.77C87.37,62.42,85.99,63.8,84.28,63.8z"/>
		<path class="st2" d="M79.12,80.9H59.86c-0.92,0-1.67-0.75-1.67-1.67c0-0.92,0.75-1.67,1.67-1.67h18.25v-5.29H59.86
			c-0.92,0-1.67-0.75-1.67-1.67c0-0.92,0.75-1.67,1.67-1.67h19.26c1.35,0,2.33,1.3,2.33,3.09v5.77C81.44,79.6,80.47,80.9,79.12,80.9
			z"/>
		<path class="st2" d="M76.15,72.35H59.86c-0.92,0-1.67-0.75-1.67-1.67c0-0.92,0.75-1.67,1.67-1.67h15.29v-5.29H58.48
			c-0.92,0-1.67-0.75-1.67-1.67s0.75-1.67,1.67-1.67h17.67c1.35,0,2.33,1.3,2.33,3.09v5.77C78.48,71.05,77.5,72.35,76.15,72.35z"/>
		<path class="st2" d="M87.25,72.35H59.86c-0.92,0-1.67-0.75-1.67-1.67c0-0.92,0.75-1.67,1.67-1.67h27.15v-5.29H58.48
			c-0.92,0-1.67-0.75-1.67-1.67s0.75-1.67,1.67-1.67h28.77c1.7,0,3.09,1.39,3.09,3.09v5.77C90.34,70.96,88.95,72.35,87.25,72.35z"/>
		<path class="st2" d="M90.21,80.9H58.81c-0.92,0-1.67-0.75-1.67-1.67c0-0.92,0.75-1.67,1.67-1.67h31.16v-5.29H59.86
			c-0.92,0-1.67-0.75-1.67-1.67c0-0.92,0.75-1.67,1.67-1.67h30.35c1.71,0,3.09,1.39,3.09,3.09v5.77
			C93.3,79.51,91.92,80.9,90.21,80.9z"/>
		<path class="st2" d="M88.39,89.44H55.14c-0.92,0-1.67-0.75-1.67-1.67c0-0.92,0.75-1.67,1.67-1.67h33.01v-5.28H58.82
			c-0.92,0-1.67-0.75-1.67-1.67c0-0.92,0.75-1.67,1.67-1.67h29.56c1.71,0,3.09,1.39,3.09,3.09v5.77
			C91.48,88.06,90.09,89.44,88.39,89.44z"/>
		<path class="st2" d="M91.18,97.99H49.73c-0.92,0-1.67-0.75-1.67-1.67c0-0.92,0.75-1.67,1.67-1.67h41.21v-5.29H55.18
			c-0.92,0-1.67-0.75-1.67-1.67c0-0.92,0.75-1.67,1.67-1.67h36c1.71,0,3.09,1.39,3.09,3.09v5.77C94.27,96.6,92.89,97.99,91.18,97.99
			z"/>
		<path class="st2" d="M77.29,89.44H58.04c-0.92,0-1.67-0.75-1.67-1.67c0-0.92,0.75-1.67,1.67-1.67h18.25v-5.28H58.82
			c-0.92,0-1.67-0.75-1.67-1.67c0-0.92,0.75-1.67,1.67-1.67h18.47c1.35,0,2.33,1.3,2.33,3.09v5.77
			C79.62,88.14,78.64,89.44,77.29,89.44z"/>
		<path class="st2" d="M65.45,55.19c-0.92,0-1.67-0.75-1.67-1.67V36.6c0-0.92,0.75-1.67,1.67-1.67H75.6L51.06,6.2L26.51,34.93h10.14
			c0.92,0,1.67,0.75,1.67,1.67v10.99c0,0.92-0.75,1.67-1.67,1.67s-1.67-0.75-1.67-1.67v-9.32H22.9c-0.65,0-1.24-0.38-1.51-0.97
			c-0.27-0.59-0.18-1.29,0.25-1.78L49.79,2.56c0.63-0.74,1.9-0.74,2.53,0l28.16,32.96c0.42,0.49,0.52,1.19,0.25,1.78
			c-0.27,0.59-0.86,0.97-1.51,0.97H67.12v15.25C67.12,54.44,66.37,55.19,65.45,55.19z"/>
		<path class="st2" d="M36.66,38.27c-0.92,0-1.67-0.75-1.67-1.67v-3.14c0-0.92,0.75-1.67,1.67-1.67s1.67,0.75,1.67,1.67v3.14
			C38.33,37.52,37.58,38.27,36.66,38.27z"/>
		<path class="st2" d="M65.45,38.27c-0.92,0-1.67-0.75-1.67-1.67v-3.14c0-0.92,0.75-1.67,1.67-1.67c0.92,0,1.67,0.75,1.67,1.67v3.14
			C67.12,37.52,66.37,38.27,65.45,38.27z"/>
		<path class="st2" d="M51.06,41.65c-0.92,0-1.67-0.75-1.67-1.67V24.62c0-0.92,0.75-1.67,1.67-1.67c0.92,0,1.67,0.75,1.67,1.67
			v15.37C52.72,40.91,51.98,41.65,51.06,41.65z"/>
	</g>
</g>
<g id="pojisteni_odpovednosti" class="st0">
	<g class="st1">
		<path class="st3" d="M83.54,97.48H15.25c-0.87,0-1.57-0.7-1.57-1.57V4.09c0-0.87,0.7-1.57,1.57-1.57h68.29
			c0.87,0,1.57,0.7,1.57,1.57v6.94c0,0.87-0.7,1.57-1.57,1.57c-0.87,0-1.57-0.7-1.57-1.57V5.67H16.82v88.67h65.15V50.83
			c0-0.87,0.7-1.57,1.57-1.57c0.87,0,1.57,0.7,1.57,1.57v45.08C85.11,96.77,84.41,97.48,83.54,97.48z"/>
		<path class="st3" d="M62.14,22.88H30.96c-0.87,0-1.57-0.7-1.57-1.57c0-0.87,0.7-1.57,1.57-1.57h31.18c0.87,0,1.57,0.7,1.57,1.57
			C63.72,22.18,63.01,22.88,62.14,22.88z"/>
		<path class="st3" d="M60.65,38.65H24.13c-0.87,0-1.57-0.7-1.57-1.57c0-0.87,0.7-1.57,1.57-1.57h36.52c0.87,0,1.57,0.7,1.57,1.57
			C62.23,37.94,61.52,38.65,60.65,38.65z"/>
		<path class="st3" d="M58.85,49.3H24.13c-0.87,0-1.57-0.7-1.57-1.57c0-0.87,0.7-1.57,1.57-1.57h34.72c0.87,0,1.57,0.7,1.57,1.57
			C60.42,48.6,59.72,49.3,58.85,49.3z"/>
		<path class="st3" d="M57.05,59.96H24.13c-0.87,0-1.57-0.7-1.57-1.57c0-0.87,0.7-1.57,1.57-1.57h32.91c0.87,0,1.57,0.7,1.57,1.57
			C58.62,59.26,57.91,59.96,57.05,59.96z"/>
		<path class="st3" d="M55.24,70.62H24.13c-0.87,0-1.57-0.7-1.57-1.57c0-0.87,0.7-1.57,1.57-1.57h31.11c0.87,0,1.57,0.7,1.57,1.57
			C56.81,69.91,56.11,70.62,55.24,70.62z"/>
		<path class="st3" d="M71.52,86.46H49.7c-0.87,0-1.57-0.7-1.57-1.57s0.7-1.57,1.57-1.57h21.82c0.87,0,1.57,0.7,1.57,1.57
			S72.38,86.46,71.52,86.46z"/>
		<path class="st3" d="M71.98,77c-0.09,0-0.17-0.01-0.26-0.02l-8.92-1.51c-0.41-0.07-0.78-0.3-1.02-0.64
			c-0.24-0.34-0.34-0.76-0.27-1.17l9.41-55.58c0.25-1.48,1.67-2.49,3.14-2.23l6.65,1.13c1.48,0.25,2.48,1.66,2.23,3.14l-9.41,55.58
			C73.4,76.46,72.74,77,71.98,77z M64.87,72.63l5.83,0.99l9.08-53.62l-5.83-0.99L64.87,72.63z"/>
		<path class="st3" d="M65.79,86.46c-0.09,0-0.17-0.01-0.26-0.02c-0.62-0.1-1.11-0.56-1.26-1.17L61.53,74.3
			c-0.13-0.52,0.01-1.06,0.37-1.45c0.36-0.39,0.89-0.57,1.41-0.48l8.92,1.51c0.52,0.09,0.97,0.43,1.18,0.92
			c0.21,0.49,0.16,1.05-0.13,1.49l-6.19,9.46C66.81,86.2,66.32,86.46,65.79,86.46z M65.16,75.87l1.28,5.15l2.91-4.44L65.16,75.87z"
			/>
		<path class="st3" d="M80.06,20.02c-0.09,0-0.18-0.01-0.26-0.02l-6.28-1.06c-0.86-0.15-1.43-0.96-1.29-1.81l0.46-2.73
			c0.21-1.25,0.9-2.35,1.93-3.08c1.04-0.73,2.3-1.02,3.55-0.81c1.25,0.21,2.35,0.9,3.08,1.93c0.74,1.04,1.03,2.3,0.81,3.55
			l-0.46,2.73c-0.07,0.41-0.3,0.78-0.64,1.02C80.7,19.92,80.38,20.02,80.06,20.02z M75.59,16.1l3.18,0.54l0.2-1.18
			c0.07-0.43-0.03-0.85-0.28-1.2c-0.25-0.35-0.62-0.58-1.05-0.66c-0.43-0.08-0.85,0.02-1.21,0.27c-0.35,0.25-0.58,0.62-0.66,1.05
			L75.59,16.1z"/>
		<path class="st3" d="M81.95,47.4c-0.09,0-0.18-0.01-0.26-0.02c-0.86-0.15-1.43-0.96-1.29-1.81l2.76-16.32
			c0.12-0.7-0.36-1.37-1.06-1.48l-10.92-1.85c-0.86-0.15-1.43-0.96-1.29-1.81c0.14-0.85,0.95-1.42,1.81-1.29l10.92,1.85
			c2.41,0.41,4.04,2.7,3.63,5.11L83.5,46.09C83.37,46.86,82.7,47.4,81.95,47.4z"/>
		<path class="st3" d="M79.51,32.55c-0.09,0-0.18-0.01-0.26-0.02l-8.92-1.51c-0.86-0.15-1.43-0.96-1.29-1.81
			c0.15-0.86,0.95-1.42,1.81-1.29l8.92,1.51c0.86,0.15,1.43,0.96,1.29,1.81C80.93,32.01,80.26,32.55,79.51,32.55z"/>
	</g>
</g>
<g id="pojisteni_vozidel">
	<g>
		<path class="st2" d="M85.3,87h-8.04c-2.2,0-3.99-1.81-3.99-4.04v-5.4H26.73v5.4c0,2.22-1.79,4.04-3.99,4.04h-8.04
			c-2.2,0-3.99-1.81-3.99-4.04v-5.4H9.28c-3.69,0-6.69-3.04-6.69-6.78V51.13c0-3.2,1.15-8.12,2.55-10.97l10.6-21.52
			c1.56-3.16,5.5-5.63,8.98-5.63h49.62c3.47,0,7.45,2.43,9.07,5.54l11.31,21.65c1.48,2.82,2.68,7.73,2.68,10.94v19.66
			c0,3.74-3,6.78-6.69,6.78h-1.43v5.4C89.29,85.19,87.5,87,85.3,87z M24.15,74.99h51.7v7.97c0,0.8,0.63,1.46,1.41,1.46h8.04
			c0.78,0,1.41-0.65,1.41-1.46v-7.97h4c2.27,0,4.11-1.89,4.11-4.2V51.13c0-2.81-1.09-7.27-2.38-9.74L81.13,19.73
			c-1.18-2.25-4.29-4.16-6.79-4.16H24.73c-2.49,0-5.54,1.92-6.66,4.19L7.46,41.29c-1.24,2.51-2.29,7.01-2.29,9.83v19.66
			c0,2.32,1.84,4.2,4.11,4.2h4v7.97c0,0.8,0.63,1.46,1.41,1.46h8.04c0.78,0,1.41-0.65,1.41-1.46V74.99z M16.85,68.61
			c-3.52,0-6.38-2.9-6.38-6.47c0-3.57,2.86-6.47,6.38-6.47c3.52,0,6.39,2.9,6.39,6.47C23.23,65.7,20.37,68.61,16.85,68.61z
			 M16.85,58.24c-2.1,0-3.81,1.75-3.81,3.9c0,2.15,1.71,3.9,3.81,3.9c2.1,0,3.81-1.75,3.81-3.9C20.66,59.99,18.95,58.24,16.85,58.24
			z M83.59,68.14c-3.52,0-6.39-2.9-6.39-6.47c0-3.57,2.86-6.47,6.39-6.47c3.52,0,6.38,2.9,6.38,6.47
			C89.97,65.23,87.11,68.14,83.59,68.14z M83.59,57.77c-2.1,0-3.81,1.75-3.81,3.9c0,2.15,1.71,3.9,3.81,3.9
			c2.1,0,3.81-1.75,3.81-3.9C87.39,59.52,85.69,57.77,83.59,57.77z M72.37,67.19H27.62v-9.18h44.75V67.19z M30.2,64.62h39.6v-4.02
			H30.2V64.62z M79.65,40.77H20.34c-1.85,0-3.38-0.74-4.19-2.03c-0.82-1.31-0.81-3.04,0.02-4.75l4.52-9.32
			c1.54-3.17,5.47-5.65,8.95-5.65h40.16c3.47,0,7.44,2.44,9.05,5.56l4.85,9.44c0.87,1.69,0.92,3.41,0.12,4.72
			C83.03,40.03,81.52,40.77,79.65,40.77z M29.64,21.6c-2.49,0-5.52,1.92-6.63,4.2l-4.52,9.32c-0.44,0.9-0.49,1.72-0.15,2.25
			c0.33,0.53,1.04,0.82,2,0.82h59.31c0.94,0,1.66-0.29,1.96-0.79c0.32-0.52,0.24-1.32-0.22-2.2l-4.85-9.44
			c-1.16-2.26-4.26-4.16-6.76-4.16H29.64z"/>
	</g>
</g>
</svg>
