<?xml version="1.0" encoding="utf-8"?>
<!-- Generator: Adobe Illustrator 27.0.1, SVG Export Plug-In . SVG Version: 6.00 Build 0)  -->
<svg version="1.1" xmlns="http://www.w3.org/2000/svg" xmlns:xlink="http://www.w3.org/1999/xlink" x="0px" y="0px"
	 viewBox="0 0 100 100" style="enable-background:new 0 0 100 100;" xml:space="preserve">
<style type="text/css">
	.st0{display:none;}
	.st1{display:inline;}
	.st2{fill:#0F66DC;}
	.st3{fill:#FFFFFF;}
	.st4{display:inline;fill:#0F66DC;}
	.st5{display:inline;fill:#FFFFFF;}
</style>
<g id="pojištění" class="st0">
	<g class="st1">
		<path class="st2" d="M26.53,43.04c-5.31,0-9.64-4.32-9.64-9.64c0-5.31,4.32-9.64,9.64-9.64c5.31,0,9.64,4.32,9.64,9.64
			C36.16,38.71,31.84,43.04,26.53,43.04z M26.53,26.84c-3.62,0-6.56,2.94-6.56,6.56c0,3.62,2.94,6.56,6.56,6.56s6.56-2.94,6.56-6.56
			C33.09,29.78,30.14,26.84,26.53,26.84z"/>
		<path class="st2" d="M57.55,43.04H43.27c-0.85,0-1.54-0.69-1.54-1.54c0-0.85,0.69-1.54,1.54-1.54h14.28
			c0.85,0,1.54,0.69,1.54,1.54C59.08,42.35,58.4,43.04,57.55,43.04z"/>
		<path class="st2" d="M50.96,52.78H19.11c-0.85,0-1.54-0.69-1.54-1.54c0-0.85,0.69-1.54,1.54-1.54h31.85
			c0.85,0,1.54,0.69,1.54,1.54C52.5,52.09,51.81,52.78,50.96,52.78z"/>
		<path class="st2" d="M42.45,61.98H19.11c-0.85,0-1.54-0.69-1.54-1.54c0-0.85,0.69-1.54,1.54-1.54h23.34
			c0.85,0,1.54,0.69,1.54,1.54C43.99,61.29,43.3,61.98,42.45,61.98z"/>
		<path class="st2" d="M39.43,71.18H19.11c-0.85,0-1.54-0.69-1.54-1.54c0-0.85,0.69-1.54,1.54-1.54h20.32
			c0.85,0,1.54,0.69,1.54,1.54C40.97,70.49,40.28,71.18,39.43,71.18z"/>
		<path class="st2" d="M39.43,80.37H19.11c-0.85,0-1.54-0.69-1.54-1.54c0-0.85,0.69-1.54,1.54-1.54h20.32
			c0.85,0,1.54,0.69,1.54,1.54C40.97,79.69,40.28,80.37,39.43,80.37z"/>
		<path class="st2" d="M57.55,35.63H43.27c-0.85,0-1.54-0.69-1.54-1.54c0-0.85,0.69-1.54,1.54-1.54h14.28
			c0.85,0,1.54,0.69,1.54,1.54C59.08,34.94,58.4,35.63,57.55,35.63z"/>
		<path class="st2" d="M57.55,28.21H43.27c-0.85,0-1.54-0.69-1.54-1.54c0-0.85,0.69-1.54,1.54-1.54h14.28
			c0.85,0,1.54,0.69,1.54,1.54C59.08,27.52,58.4,28.21,57.55,28.21z"/>
		<path class="st2" d="M71.93,95.61h-9.76c-0.85,0-1.54-0.69-1.54-1.54v-4.6c-0.31-0.12-0.62-0.25-0.93-0.39l-3.26,3.26
			c-0.6,0.6-1.57,0.6-2.17,0l-6.91-6.9c-0.29-0.29-0.45-0.68-0.45-1.09s0.16-0.8,0.45-1.09l3.26-3.26
			c-0.14-0.31-0.27-0.62-0.39-0.93h-4.6c-0.85,0-1.54-0.69-1.54-1.54v-9.76c0-0.85,0.69-1.54,1.54-1.54h4.6
			c0.12-0.31,0.25-0.62,0.39-0.93l-3.26-3.26c-0.29-0.29-0.45-0.68-0.45-1.09s0.16-0.8,0.45-1.09l6.91-6.9
			c0.29-0.29,0.68-0.45,1.09-0.45c0.41,0,0.8,0.16,1.09,0.45l3.26,3.26c0.31-0.14,0.62-0.27,0.93-0.39v-4.6
			c0-0.85,0.69-1.54,1.54-1.54h9.76c0.85,0,1.54,0.69,1.54,1.54v4.6c0.31,0.12,0.62,0.25,0.93,0.39l3.26-3.26
			c0.6-0.6,1.57-0.6,2.17,0l6.9,6.9c0.6,0.6,0.6,1.57,0,2.17l-3.26,3.26c0.14,0.31,0.27,0.62,0.39,0.93h4.6
			c0.85,0,1.54,0.69,1.54,1.54v9.76c0,0.85-0.69,1.54-1.54,1.54h-4.6c-0.12,0.31-0.25,0.62-0.39,0.93l3.26,3.26
			c0.6,0.6,0.6,1.57,0,2.17l-6.9,6.9c-0.6,0.6-1.57,0.6-2.17,0l-3.26-3.26c-0.31,0.14-0.62,0.27-0.93,0.39v4.6
			C73.47,94.92,72.78,95.61,71.93,95.61z M63.7,92.54h6.69v-4.15c0-0.67,0.44-1.27,1.08-1.47c0.84-0.26,1.68-0.61,2.51-1.05
			c0.6-0.31,1.33-0.2,1.8,0.27l2.95,2.94l4.73-4.73l-2.94-2.95c-0.48-0.48-0.59-1.21-0.27-1.8c0.44-0.83,0.79-1.68,1.05-2.51
			c0.2-0.64,0.8-1.08,1.47-1.08h4.15v-6.69h-4.15c-0.67,0-1.27-0.44-1.47-1.08c-0.26-0.84-0.61-1.68-1.05-2.51
			c-0.31-0.6-0.2-1.33,0.27-1.8l2.94-2.95l-4.73-4.73l-2.95,2.95c-0.48,0.48-1.21,0.59-1.8,0.27c-0.83-0.44-1.67-0.79-2.51-1.05
			c-0.64-0.2-1.08-0.8-1.08-1.47v-4.15H63.7v4.15c0,0.67-0.44,1.27-1.08,1.47c-0.84,0.26-1.69,0.61-2.51,1.05
			c-0.6,0.32-1.33,0.2-1.8-0.27l-2.94-2.95l-4.73,4.73l2.94,2.95c0.48,0.48,0.59,1.21,0.27,1.8c-0.44,0.83-0.79,1.68-1.05,2.51
			c-0.2,0.64-0.8,1.08-1.47,1.08h-4.16V76h4.16c0.67,0,1.27,0.44,1.47,1.08c0.26,0.84,0.61,1.68,1.05,2.51
			c0.31,0.6,0.2,1.33-0.27,1.8l-2.94,2.95l4.73,4.73l2.94-2.94c0.47-0.48,1.21-0.59,1.8-0.27c0.83,0.44,1.68,0.79,2.51,1.05
			c0.64,0.2,1.08,0.8,1.08,1.47V92.54z"/>
		<path class="st2" d="M67.05,84.97c-6.79,0-12.31-5.52-12.31-12.31s5.52-12.31,12.31-12.31c6.79,0,12.31,5.52,12.31,12.31
			S73.84,84.97,67.05,84.97z M67.05,63.42c-5.09,0-9.24,4.14-9.24,9.24s4.14,9.24,9.24,9.24c5.09,0,9.24-4.14,9.24-9.24
			S72.14,63.42,67.05,63.42z"/>
		<path class="st2" d="M77.86,48.94c-0.85,0-1.54-0.69-1.54-1.54V7.11H24.22V10h47.67c0.85,0,1.54,0.69,1.54,1.54v33.12
			c0,0.85-0.69,1.54-1.54,1.54c-0.85,0-1.54-0.69-1.54-1.54V13.08H22.68c-0.85,0-1.54-0.69-1.54-1.54V5.57
			c0-0.85,0.69-1.54,1.54-1.54h55.18c0.85,0,1.54,0.69,1.54,1.54V47.4C79.4,48.25,78.71,48.94,77.86,48.94z"/>
		<path class="st2" d="M65.92,46.2c-0.85,0-1.54-0.69-1.54-1.54V19.05H16.71c-0.85,0-1.54-0.69-1.54-1.54v-5.97
			c0-0.85,0.69-1.54,1.54-1.54h55.18c0.85,0,1.54,0.69,1.54,1.54V43.7c0,0.85-0.69,1.54-1.54,1.54c-0.85,0-1.54-0.69-1.54-1.54
			V13.08H18.25v2.9h47.67c0.85,0,1.54,0.69,1.54,1.54v27.15C67.46,45.51,66.77,46.2,65.92,46.2z"/>
		<path class="st2" d="M52.06,96.06H10.74c-0.85,0-1.54-0.69-1.54-1.54V17.51c0-0.85,0.69-1.54,1.54-1.54h55.18
			c0.85,0,1.54,0.69,1.54,1.54v27.15c0,0.85-0.69,1.54-1.54,1.54c-0.85,0-1.54-0.69-1.54-1.54V19.05H12.28v73.93h39.78
			c0.85,0,1.54,0.69,1.54,1.54C53.59,95.37,52.91,96.06,52.06,96.06z"/>
	</g>
</g>
<g id="financování" class="st0">
	<g class="st1">
		<path class="st3" d="M50.44,30.53c-0.32,0.14-0.66,0.22-1.03,0.23c-1.54,0.05-2.83-1.16-2.87-2.7L46.4,23.6
			c-0.04-1.54,1.17-2.83,2.7-2.87c1.54-0.05,2.83,1.16,2.87,2.7l0.14,4.45C52.15,29.06,51.46,30.09,50.44,30.53z"/>
		<path class="st3" d="M67.85,91.08c-5.14,2.23-10.72,3.49-16.49,3.67C26.69,95.5,6,76.04,5.25,51.36C4.5,26.69,23.96,6,48.64,5.25
			C73.31,4.5,94,23.96,94.75,48.64c0.36,11.95-3.95,23.33-12.14,32.04C78.37,85.18,73.36,88.69,67.85,91.08z M34.37,14.04
			c-4.82,2.09-9.2,5.16-12.91,9.11c-7.17,7.62-10.95,17.58-10.63,28.05c0.66,21.6,18.76,38.64,40.36,37.98
			c10.46-0.32,20.17-4.69,27.35-12.32c7.17-7.62,10.95-17.59,10.63-28.05c-0.32-10.46-4.69-20.17-12.32-27.35
			c-7.62-7.17-17.58-10.95-28.05-10.63C43.75,10.98,38.87,12.08,34.37,14.04z"/>
		<path class="st3" d="M56.37,73.57c-1.72,0.75-3.61,1.19-5.62,1.25c-8.05,0.24-14.78-5.75-15.01-13.36
			c-0.04-1.54,1.17-2.83,2.7-2.87c1.54-0.05,2.83,1.16,2.87,2.7c0.14,4.54,4.3,8.1,9.27,7.95c4.97-0.15,8.91-3.97,8.77-8.5
			c-0.14-4.53-4.3-8.1-9.27-7.95c-8.05,0.24-14.78-5.75-15.01-13.36c-0.23-7.61,6.13-14,14.17-14.25
			c8.05-0.24,14.78,5.75,15.02,13.36c0.05,1.54-1.16,2.83-2.7,2.87c-1.54,0.05-2.83-1.16-2.87-2.7c-0.14-4.54-4.3-8.1-9.27-7.95
			c-4.97,0.15-8.9,3.97-8.77,8.5c0.14,4.53,4.29,8.1,9.27,7.95c8.05-0.24,14.78,5.75,15.02,13.36
			C65.1,66.28,61.56,71.31,56.37,73.57z"/>
		<path class="st3" d="M51.94,79.64c-0.32,0.14-0.66,0.22-1.03,0.23c-1.54,0.05-2.83-1.16-2.87-2.7l-0.16-5.05
			c-0.04-1.54,1.17-2.83,2.7-2.87c1.54-0.05,2.83,1.16,2.87,2.7l0.16,5.05C53.65,78.17,52.95,79.2,51.94,79.64z"/>
	</g>
</g>
<g id="investování" class="st0">
	<g class="st1">
		<path class="st2" d="M33.21,60.68c-0.21,0-0.42-0.04-0.62-0.12c-0.86-0.34-1.27-1.31-0.93-2.17l0.99-2.47
			c0.34-0.85,1.32-1.27,2.17-0.93c0.86,0.34,1.27,1.31,0.93,2.17l-0.99,2.47C34.5,60.28,33.87,60.68,33.21,60.68z"/>
		<path class="st2" d="M28.34,98c-3.35,0-6.7-0.64-9.91-1.92C4.73,90.62-1.97,75.03,3.49,61.33c5.46-13.7,21.04-20.4,34.75-14.94
			c13.7,5.46,20.4,21.05,14.94,34.75c-2.65,6.64-7.72,11.85-14.28,14.67C35.5,97.27,31.92,98,28.34,98z M28.33,47.81
			c-3.14,0-6.27,0.64-9.24,1.92C13.34,52.2,8.9,56.76,6.59,62.57C1.81,74.56,7.67,88.21,19.66,92.99
			c5.81,2.31,12.17,2.23,17.92-0.24c5.75-2.47,10.19-7.03,12.5-12.84c2.32-5.81,2.23-12.17-0.24-17.92
			c-2.47-5.75-7.03-10.18-12.84-12.5C34.2,48.37,31.26,47.81,28.33,47.81z"/>
		<path class="st2" d="M26.21,85.67c-1.12,0-2.26-0.21-3.38-0.65c-4.47-1.78-6.73-6.67-5.05-10.89c0.34-0.85,1.32-1.27,2.17-0.93
			c0.86,0.34,1.27,1.31,0.93,2.17c-1,2.52,0.43,5.46,3.19,6.56c2.76,1.1,5.82-0.05,6.83-2.57c1-2.52-0.43-5.46-3.19-6.56
			c-4.47-1.78-6.73-6.67-5.05-10.89c1.68-4.22,6.69-6.21,11.16-4.43c4.47,1.78,6.73,6.67,5.05,10.89c-0.34,0.86-1.31,1.27-2.17,0.93
			c-0.85-0.34-1.27-1.31-0.93-2.17c1-2.52-0.43-5.46-3.19-6.56c-2.76-1.1-5.82,0.06-6.83,2.57c-1,2.52,0.42,5.46,3.19,6.56
			c4.47,1.78,6.73,6.67,5.05,10.89C32.73,83.76,29.59,85.67,26.21,85.67z"/>
		<path class="st2" d="M22.34,87.94c-0.21,0-0.41-0.04-0.62-0.12c-0.85-0.34-1.27-1.31-0.93-2.16l1.12-2.81
			c0.34-0.86,1.31-1.27,2.17-0.93c0.85,0.34,1.27,1.31,0.93,2.17l-1.12,2.8C23.63,87.54,23,87.94,22.34,87.94z"/>
		<path class="st2" d="M80.09,97.99H60.83c-1.35,0-2.33-1.3-2.33-3.09v-5.77c0-1.79,0.98-3.09,2.33-3.09h19.26
			c1.35,0,2.33,1.3,2.33,3.09v5.77C82.41,96.69,81.44,97.99,80.09,97.99z M61.83,94.66h17.25v-5.29H61.83V94.66z"/>
		<path class="st2" d="M96.75,97.99H3.25c-0.92,0-1.67-0.75-1.67-1.67c0-0.92,0.75-1.67,1.67-1.67h93.51c0.92,0,1.67,0.75,1.67,1.67
			C98.42,97.25,97.67,97.99,96.75,97.99z"/>
		<path class="st2" d="M73.19,63.8H58.5c-0.92,0-1.67-0.75-1.67-1.67s0.75-1.67,1.67-1.67h13.69v-5.28H54.41
			c-0.92,0-1.67-0.75-1.67-1.67s0.75-1.67,1.67-1.67h18.78c1.35,0,2.33,1.3,2.33,3.09v5.77C75.52,62.5,74.54,63.8,73.19,63.8z"/>
		<path class="st2" d="M84.28,63.8H58.5c-0.92,0-1.67-0.75-1.67-1.67s0.75-1.67,1.67-1.67h25.54v-5.28H54.41
			c-0.92,0-1.67-0.75-1.67-1.67s0.75-1.67,1.67-1.67h29.87c1.7,0,3.09,1.39,3.09,3.09v5.77C87.37,62.42,85.99,63.8,84.28,63.8z"/>
		<path class="st2" d="M79.12,80.9H59.86c-0.92,0-1.67-0.75-1.67-1.67c0-0.92,0.75-1.67,1.67-1.67h18.25v-5.29H59.86
			c-0.92,0-1.67-0.75-1.67-1.67c0-0.92,0.75-1.67,1.67-1.67h19.26c1.35,0,2.33,1.3,2.33,3.09v5.77C81.44,79.6,80.47,80.9,79.12,80.9
			z"/>
		<path class="st2" d="M76.15,72.35H59.86c-0.92,0-1.67-0.75-1.67-1.67c0-0.92,0.75-1.67,1.67-1.67h15.29v-5.29H58.48
			c-0.92,0-1.67-0.75-1.67-1.67s0.75-1.67,1.67-1.67h17.67c1.35,0,2.33,1.3,2.33,3.09v5.77C78.48,71.05,77.5,72.35,76.15,72.35z"/>
		<path class="st2" d="M87.25,72.35H59.86c-0.92,0-1.67-0.75-1.67-1.67c0-0.92,0.75-1.67,1.67-1.67h27.15v-5.29H58.48
			c-0.92,0-1.67-0.75-1.67-1.67s0.75-1.67,1.67-1.67h28.77c1.7,0,3.09,1.39,3.09,3.09v5.77C90.34,70.96,88.95,72.35,87.25,72.35z"/>
		<path class="st2" d="M90.21,80.9H58.81c-0.92,0-1.67-0.75-1.67-1.67c0-0.92,0.75-1.67,1.67-1.67h31.16v-5.29H59.86
			c-0.92,0-1.67-0.75-1.67-1.67c0-0.92,0.75-1.67,1.67-1.67h30.35c1.71,0,3.09,1.39,3.09,3.09v5.77
			C93.3,79.51,91.92,80.9,90.21,80.9z"/>
		<path class="st2" d="M88.39,89.44H55.14c-0.92,0-1.67-0.75-1.67-1.67c0-0.92,0.75-1.67,1.67-1.67h33.01v-5.28H58.82
			c-0.92,0-1.67-0.75-1.67-1.67c0-0.92,0.75-1.67,1.67-1.67h29.56c1.71,0,3.09,1.39,3.09,3.09v5.77
			C91.48,88.06,90.09,89.44,88.39,89.44z"/>
		<path class="st2" d="M91.18,97.99H49.73c-0.92,0-1.67-0.75-1.67-1.67c0-0.92,0.75-1.67,1.67-1.67h41.21v-5.29H55.18
			c-0.92,0-1.67-0.75-1.67-1.67c0-0.92,0.75-1.67,1.67-1.67h36c1.71,0,3.09,1.39,3.09,3.09v5.77C94.27,96.6,92.89,97.99,91.18,97.99
			z"/>
		<path class="st2" d="M77.29,89.44H58.04c-0.92,0-1.67-0.75-1.67-1.67c0-0.92,0.75-1.67,1.67-1.67h18.25v-5.28H58.82
			c-0.92,0-1.67-0.75-1.67-1.67c0-0.92,0.75-1.67,1.67-1.67h18.47c1.35,0,2.33,1.3,2.33,3.09v5.77
			C79.62,88.14,78.64,89.44,77.29,89.44z"/>
		<path class="st2" d="M65.45,55.19c-0.92,0-1.67-0.75-1.67-1.67V36.6c0-0.92,0.75-1.67,1.67-1.67H75.6L51.06,6.2L26.51,34.93h10.14
			c0.92,0,1.67,0.75,1.67,1.67v10.99c0,0.92-0.75,1.67-1.67,1.67s-1.67-0.75-1.67-1.67v-9.32H22.9c-0.65,0-1.24-0.38-1.51-0.97
			c-0.27-0.59-0.18-1.29,0.25-1.78L49.79,2.56c0.63-0.74,1.9-0.74,2.53,0l28.16,32.96c0.42,0.49,0.52,1.19,0.25,1.78
			c-0.27,0.59-0.86,0.97-1.51,0.97H67.12v15.25C67.12,54.44,66.37,55.19,65.45,55.19z"/>
		<path class="st2" d="M36.66,38.27c-0.92,0-1.67-0.75-1.67-1.67v-3.14c0-0.92,0.75-1.67,1.67-1.67s1.67,0.75,1.67,1.67v3.14
			C38.33,37.52,37.58,38.27,36.66,38.27z"/>
		<path class="st2" d="M65.45,38.27c-0.92,0-1.67-0.75-1.67-1.67v-3.14c0-0.92,0.75-1.67,1.67-1.67c0.92,0,1.67,0.75,1.67,1.67v3.14
			C67.12,37.52,66.37,38.27,65.45,38.27z"/>
		<path class="st2" d="M51.06,41.65c-0.92,0-1.67-0.75-1.67-1.67V24.62c0-0.92,0.75-1.67,1.67-1.67c0.92,0,1.67,0.75,1.67,1.67
			v15.37C52.72,40.91,51.98,41.65,51.06,41.65z"/>
	</g>
</g>
<g id="pojisteni_odpovednosti" class="st0">
	<g class="st1">
		<path class="st3" d="M83.54,97.48H15.25c-0.87,0-1.57-0.7-1.57-1.57V4.09c0-0.87,0.7-1.57,1.57-1.57h68.29
			c0.87,0,1.57,0.7,1.57,1.57v6.94c0,0.87-0.7,1.57-1.57,1.57c-0.87,0-1.57-0.7-1.57-1.57V5.67H16.82v88.67h65.15V50.83
			c0-0.87,0.7-1.57,1.57-1.57c0.87,0,1.57,0.7,1.57,1.57v45.08C85.11,96.77,84.41,97.48,83.54,97.48z"/>
		<path class="st3" d="M62.14,22.88H30.96c-0.87,0-1.57-0.7-1.57-1.57c0-0.87,0.7-1.57,1.57-1.57h31.18c0.87,0,1.57,0.7,1.57,1.57
			C63.72,22.18,63.01,22.88,62.14,22.88z"/>
		<path class="st3" d="M60.65,38.65H24.13c-0.87,0-1.57-0.7-1.57-1.57c0-0.87,0.7-1.57,1.57-1.57h36.52c0.87,0,1.57,0.7,1.57,1.57
			C62.23,37.94,61.52,38.65,60.65,38.65z"/>
		<path class="st3" d="M58.85,49.3H24.13c-0.87,0-1.57-0.7-1.57-1.57c0-0.87,0.7-1.57,1.57-1.57h34.72c0.87,0,1.57,0.7,1.57,1.57
			C60.42,48.6,59.72,49.3,58.85,49.3z"/>
		<path class="st3" d="M57.05,59.96H24.13c-0.87,0-1.57-0.7-1.57-1.57c0-0.87,0.7-1.57,1.57-1.57h32.91c0.87,0,1.57,0.7,1.57,1.57
			C58.62,59.26,57.91,59.96,57.05,59.96z"/>
		<path class="st3" d="M55.24,70.62H24.13c-0.87,0-1.57-0.7-1.57-1.57c0-0.87,0.7-1.57,1.57-1.57h31.11c0.87,0,1.57,0.7,1.57,1.57
			C56.81,69.91,56.11,70.62,55.24,70.62z"/>
		<path class="st3" d="M71.52,86.46H49.7c-0.87,0-1.57-0.7-1.57-1.57s0.7-1.57,1.57-1.57h21.82c0.87,0,1.57,0.7,1.57,1.57
			S72.38,86.46,71.52,86.46z"/>
		<path class="st3" d="M71.98,77c-0.09,0-0.17-0.01-0.26-0.02l-8.92-1.51c-0.41-0.07-0.78-0.3-1.02-0.64
			c-0.24-0.34-0.34-0.76-0.27-1.17l9.41-55.58c0.25-1.48,1.67-2.49,3.14-2.23l6.65,1.13c1.48,0.25,2.48,1.66,2.23,3.14l-9.41,55.58
			C73.4,76.46,72.74,77,71.98,77z M64.87,72.63l5.83,0.99l9.08-53.62l-5.83-0.99L64.87,72.63z"/>
		<path class="st3" d="M65.79,86.46c-0.09,0-0.17-0.01-0.26-0.02c-0.62-0.1-1.11-0.56-1.26-1.17L61.53,74.3
			c-0.13-0.52,0.01-1.06,0.37-1.45c0.36-0.39,0.89-0.57,1.41-0.48l8.92,1.51c0.52,0.09,0.97,0.43,1.18,0.92
			c0.21,0.49,0.16,1.05-0.13,1.49l-6.19,9.46C66.81,86.2,66.32,86.46,65.79,86.46z M65.16,75.87l1.28,5.15l2.91-4.44L65.16,75.87z"
			/>
		<path class="st3" d="M80.06,20.02c-0.09,0-0.18-0.01-0.26-0.02l-6.28-1.06c-0.86-0.15-1.43-0.96-1.29-1.81l0.46-2.73
			c0.21-1.25,0.9-2.35,1.93-3.08c1.04-0.73,2.3-1.02,3.55-0.81c1.25,0.21,2.35,0.9,3.08,1.93c0.74,1.04,1.03,2.3,0.81,3.55
			l-0.46,2.73c-0.07,0.41-0.3,0.78-0.64,1.02C80.7,19.92,80.38,20.02,80.06,20.02z M75.59,16.1l3.18,0.54l0.2-1.18
			c0.07-0.43-0.03-0.85-0.28-1.2c-0.25-0.35-0.62-0.58-1.05-0.66c-0.43-0.08-0.85,0.02-1.21,0.27c-0.35,0.25-0.58,0.62-0.66,1.05
			L75.59,16.1z"/>
		<path class="st3" d="M81.95,47.4c-0.09,0-0.18-0.01-0.26-0.02c-0.86-0.15-1.43-0.96-1.29-1.81l2.76-16.32
			c0.12-0.7-0.36-1.37-1.06-1.48l-10.92-1.85c-0.86-0.15-1.43-0.96-1.29-1.81c0.14-0.85,0.95-1.42,1.81-1.29l10.92,1.85
			c2.41,0.41,4.04,2.7,3.63,5.11L83.5,46.09C83.37,46.86,82.7,47.4,81.95,47.4z"/>
		<path class="st3" d="M79.51,32.55c-0.09,0-0.18-0.01-0.26-0.02l-8.92-1.51c-0.86-0.15-1.43-0.96-1.29-1.81
			c0.15-0.86,0.95-1.42,1.81-1.29l8.92,1.51c0.86,0.15,1.43,0.96,1.29,1.81C80.93,32.01,80.26,32.55,79.51,32.55z"/>
	</g>
</g>
<g id="pojisteni_vozidel" class="st0">
	<g class="st1">
		<path class="st2" d="M85.3,87h-8.04c-2.2,0-3.99-1.81-3.99-4.04v-5.4H26.73v5.4c0,2.22-1.79,4.04-3.99,4.04h-8.04
			c-2.2,0-3.99-1.81-3.99-4.04v-5.4H9.28c-3.69,0-6.69-3.04-6.69-6.78V51.13c0-3.2,1.15-8.12,2.55-10.97l10.6-21.52
			c1.56-3.16,5.5-5.63,8.98-5.63h49.62c3.47,0,7.45,2.43,9.07,5.54l11.31,21.65c1.48,2.82,2.68,7.73,2.68,10.94v19.66
			c0,3.74-3,6.78-6.69,6.78h-1.43v5.4C89.29,85.19,87.5,87,85.3,87z M24.15,74.99h51.7v7.97c0,0.8,0.63,1.46,1.41,1.46h8.04
			c0.78,0,1.41-0.65,1.41-1.46v-7.97h4c2.27,0,4.11-1.89,4.11-4.2V51.13c0-2.81-1.09-7.27-2.38-9.74L81.13,19.73
			c-1.18-2.25-4.29-4.16-6.79-4.16H24.73c-2.49,0-5.54,1.92-6.66,4.19L7.46,41.29c-1.24,2.51-2.29,7.01-2.29,9.83v19.66
			c0,2.32,1.84,4.2,4.11,4.2h4v7.97c0,0.8,0.63,1.46,1.41,1.46h8.04c0.78,0,1.41-0.65,1.41-1.46V74.99z M16.85,68.61
			c-3.52,0-6.38-2.9-6.38-6.47c0-3.57,2.86-6.47,6.38-6.47c3.52,0,6.39,2.9,6.39,6.47C23.23,65.7,20.37,68.61,16.85,68.61z
			 M16.85,58.24c-2.1,0-3.81,1.75-3.81,3.9c0,2.15,1.71,3.9,3.81,3.9c2.1,0,3.81-1.75,3.81-3.9C20.66,59.99,18.95,58.24,16.85,58.24
			z M83.59,68.14c-3.52,0-6.39-2.9-6.39-6.47c0-3.57,2.86-6.47,6.39-6.47c3.52,0,6.38,2.9,6.38,6.47
			C89.97,65.23,87.11,68.14,83.59,68.14z M83.59,57.77c-2.1,0-3.81,1.75-3.81,3.9c0,2.15,1.71,3.9,3.81,3.9
			c2.1,0,3.81-1.75,3.81-3.9C87.39,59.52,85.69,57.77,83.59,57.77z M72.37,67.19H27.62v-9.18h44.75V67.19z M30.2,64.62h39.6v-4.02
			H30.2V64.62z M79.65,40.77H20.34c-1.85,0-3.38-0.74-4.19-2.03c-0.82-1.31-0.81-3.04,0.02-4.75l4.52-9.32
			c1.54-3.17,5.47-5.65,8.95-5.65h40.16c3.47,0,7.44,2.44,9.05,5.56l4.85,9.44c0.87,1.69,0.92,3.41,0.12,4.72
			C83.03,40.03,81.52,40.77,79.65,40.77z M29.64,21.6c-2.49,0-5.52,1.92-6.63,4.2l-4.52,9.32c-0.44,0.9-0.49,1.72-0.15,2.25
			c0.33,0.53,1.04,0.82,2,0.82h59.31c0.94,0,1.66-0.29,1.96-0.79c0.32-0.52,0.24-1.32-0.22-2.2l-4.85-9.44
			c-1.16-2.26-4.26-4.16-6.76-4.16H29.64z"/>
	</g>
</g>
<g id="cestovni_pojisteni" class="st0">
	<g class="st1">
		<path class="st3" d="M61.95,95.66c-0.69,0-1.3-0.39-1.68-1.08L42.63,62.57l-11.11,8.01c-0.04,0.03-0.08,0.06-0.12,0.09
			c0.07,0.31,0.14,0.69,0.21,1.04l2.68,13.59c0.17,0.86,0.03,2.06-0.32,2.84l-1.15,2.56c-0.34,0.76-0.98,1.21-1.71,1.21l0,0
			c-0.69,0-1.31-0.4-1.68-1.11l-9.29-17.46c-0.19-0.35-0.67-0.92-0.98-1.16L2.34,59.25c-0.65-0.5-0.95-1.22-0.8-1.91
			c0.15-0.69,0.71-1.22,1.5-1.41l2.72-0.66c0.83-0.2,2.04-0.12,2.83,0.16l13.62,4.94c0.15,0.06,0.3,0.11,0.44,0.16
			c0.03-0.03,0.06-0.07,0.1-0.1l9.84-10L4.51,27.28c-0.63-0.52-0.9-1.24-0.74-1.93c0.16-0.69,0.72-1.21,1.5-1.39l7.53-1.82
			c0.83-0.2,2.07-0.11,2.86,0.21L32.8,29.2c0.61-0.89,1.93-1.25,2.99-0.77l1.66,0.75c0.63,0.29,1.12,0.8,1.35,1.41
			c0.13,0.35,0.17,0.71,0.12,1.05l1.57,0.63c0.61-0.96,1.96-1.37,3.06-0.87l1.66,0.75c0.61,0.28,1.09,0.79,1.32,1.4
			c0.16,0.43,0.19,0.87,0.09,1.3l1.42,0.64c0.17,0.03,0.24-0.03,0.26-0.04c0,0,3.1-2.9,5.08-4.66c5.67-5.19,9.3-8.34,14.8-13.11
			c5.26-4.7,22.38-13.33,27.6-13.33c0.93,0,1.61,0.24,2.08,0.73c0.47,0.48,0.68,1.15,0.63,1.97c-0.3,5.18-12.84,21.16-17.82,25.27
			c-6.06,5.13-9.6,8.02-15.26,12.57c-2.01,1.66-5.31,4.25-5.31,4.25c-0.04,0.05-0.1,0.21-0.09,0.29l0.21,0.84
			c1.07-0.07,2.1,0.67,2.42,1.76l0.53,1.73c0.38,1.24-0.28,2.56-1.48,3.01L62,58.36c0.08-0.01,0.17-0.01,0.25-0.01
			c1.06,0,2.01,0.71,2.32,1.73l0.53,1.75c0.39,1.28-0.33,2.65-1.6,3.04l-0.21,0.06l3.87,19.61c0.17,0.85,0.03,2.05-0.32,2.84
			l-3.18,7.07C63.33,95.2,62.69,95.66,61.95,95.66z M42.78,59.62c0.83,0,1.6,0.46,2.01,1.2l17.07,30.97l2.49-5.54
			c0.12-0.27,0.19-0.89,0.13-1.2l-3.9-19.76c-0.25-1.26,0.52-2.56,1.75-2.94l0.07-0.02l-0.36-1.2c-0.11,0.02-0.25,0.03-0.38,0.03
			c-1.12,0-2.05-0.78-2.26-1.89l-0.42-2.15c-0.23-1.17,0.41-2.38,1.5-2.85l-0.38-1.23c-1.11,0.1-2.17-0.67-2.46-1.83l-0.28-1.16
			c-0.28-1.09,0.17-2.4,1.06-3.09c0,0,3.27-2.56,5.27-4.22c5.65-4.54,9.19-7.43,15.23-12.55c5.66-4.66,16.54-19.71,16.85-23.14
			C91.5,7.1,75.14,15.12,69.98,19.72c-5.69,4.94-9.12,7.92-14.78,13.09c-1.98,1.76-5.06,4.64-5.06,4.64
			c-0.8,0.76-2.23,0.99-3.25,0.52l-1.65-0.75c-0.61-0.28-1.09-0.79-1.32-1.4c-0.16-0.43-0.19-0.87-0.09-1.3L42.66,34
			c-0.61,0.92-1.91,1.32-2.98,0.89l-2.02-0.81c-0.65-0.26-1.17-0.76-1.41-1.37c-0.15-0.37-0.19-0.76-0.12-1.13l-1.22-0.55
			c-0.62,0.85-1.87,1.21-2.92,0.79l-17.34-6.93c-0.15-0.06-0.47-0.12-0.82-0.12c-0.22,0-0.34,0.03-0.38,0.03l-5.9,1.43l27.13,22.36
			c0.52,0.43,0.83,1.05,0.86,1.7c0.03,0.65-0.22,1.29-0.69,1.75L24.71,62.33c-0.89,0.93-1.34,1.11-1.82,1.11h-0.31l-0.29-0.14
			c-0.06-0.02-0.51-0.19-1.01-0.37L7.66,58c-0.25-0.09-1.17-0.09-1.26-0.07l-0.98,0.24l15.4,11.86c0.61,0.47,1.35,1.35,1.73,2.04
			l8.48,15.95l0.44-0.98c0.12-0.27,0.19-0.9,0.13-1.2l-2.68-13.59c-0.11-0.55-0.24-1.18-0.3-1.41c-0.3-1.24,0.91-2.21,1.29-2.49
			l11.5-8.28C41.82,59.78,42.29,59.62,42.78,59.62z"/>
	</g>
</g>
<g id="život_lidí" class="st0">
	<g class="st1">
		<path class="st2" d="M40.92,87.6c-0.42,0-0.82-0.17-1.12-0.46c-0.3-0.3-0.47-0.7-0.47-1.12l-0.06-25.69l-4.79,0.01
			c-0.47,0.02-0.82-0.16-1.12-0.46c-0.3-0.3-0.47-0.7-0.47-1.12l-0.05-19.22c-0.01-5.4,4.37-9.81,9.77-9.82l13.87-0.04
			c2.65,0,5.08,1,6.94,2.85c1.86,1.85,2.88,4.31,2.89,6.92l0.05,19.21c0,0.42-0.17,0.82-0.46,1.12c-0.3,0.3-0.7,0.47-1.12,0.47
			l-4.79,0.01l0.06,25.68c0,0.88-0.71,1.59-1.58,1.59L40.92,87.6C40.92,87.6,40.92,87.6,40.92,87.6z M40.85,57.16
			c0.42,0,0.82,0.17,1.12,0.46c0.3,0.3,0.47,0.7,0.47,1.12l0.06,25.69l14.37-0.04L56.8,58.7c0-0.42,0.17-0.82,0.46-1.12
			c0.3-0.3,0.7-0.47,1.12-0.47l4.79-0.01l-0.05-17.63c0-1.77-0.7-3.43-1.95-4.68c-1.25-1.24-2.91-1.93-4.67-1.93
			c-0.02,0-13.89,0.04-13.89,0.04C38.96,32.9,36,35.88,36,39.54l0.04,17.63L40.85,57.16C40.85,57.16,40.85,57.16,40.85,57.16z"/>
		<path class="st2" d="M49.69,87.57c-0.87,0-1.58-0.71-1.59-1.58l-0.06-22.96c0-0.88,0.71-1.59,1.58-1.59
			c0.88,0,1.59,0.71,1.59,1.58l0.06,22.96C51.28,86.86,50.57,87.57,49.69,87.57C49.69,87.57,49.69,87.57,49.69,87.57z"/>
		<path class="st2" d="M40.85,60.33c-0.87,0-1.58-0.71-1.59-1.58l-0.04-17.13c0-0.88,0.71-1.59,1.58-1.59
			c0.88,0,1.59,0.71,1.59,1.58l0.04,17.13C42.44,59.61,41.73,60.32,40.85,60.33C40.85,60.33,40.85,60.33,40.85,60.33z"/>
		<path class="st2" d="M58.39,60.28c-0.87,0-1.58-0.71-1.59-1.58l-0.04-17.13c0-0.88,0.71-1.59,1.58-1.59
			c0.88,0,1.59,0.71,1.59,1.58l0.04,17.13C59.98,59.57,59.27,60.28,58.39,60.28C58.39,60.28,58.39,60.28,58.39,60.28z"/>
		<path class="st2" d="M58.38,55.81c-0.87,0-1.58-0.71-1.59-1.58c0-0.88,0.71-1.59,1.58-1.59l6.38-0.02c0.88,0,1.59,0.71,1.59,1.58
			c0,0.88-0.71,1.59-1.58,1.59L58.38,55.81C58.38,55.81,58.38,55.81,58.38,55.81z"/>
		<path class="st2" d="M34.46,55.87c-0.87,0-1.58-0.71-1.59-1.58c0-0.88,0.71-1.59,1.58-1.59l6.38-0.02c0.88,0,1.59,0.71,1.59,1.58
			c0,0.88-0.71,1.59-1.58,1.59L34.46,55.87C34.46,55.87,34.46,55.87,34.46,55.87z"/>
		<path class="st2" d="M49.72,28.75c-1.66,0-4.04-0.76-5.88-4.21c-0.95-1.79-1.46-3.9-1.46-6.11l0-1.89c0-0.29,0.08-0.57,0.23-0.82
			c0.72-1.19,3.76-3.32,7.26-3.33c2.3,0,4.11,0.8,4.99,1.28c1.18,0.64,2.58,1.68,2.58,3.01l0,1.73c0.01,2.21-0.49,4.32-1.43,6.12
			c-1.89,3.59-4.38,4.32-6.12,4.24C49.83,28.75,49.78,28.75,49.72,28.75z M45.55,17.15l0,1.27c0,1.69,0.38,3.29,1.09,4.63
			c0.91,1.72,1.98,2.58,3.24,2.53c1.34,0.11,2.41-0.83,3.32-2.55c0.7-1.34,1.07-2.94,1.07-4.63l0-1.33
			c-0.52-0.47-2.19-1.52-4.37-1.52C47.9,15.56,46.22,16.59,45.55,17.15z"/>
		<path class="st2" d="M79.56,80.12c-3.92,0-7.11-3.18-7.12-7.1c0-1.39,0.39-2.73,1.14-3.88c0.48-0.74,1.46-0.95,2.19-0.47
			c0.74,0.48,0.95,1.46,0.47,2.19c-0.41,0.64-0.63,1.38-0.63,2.15c0,1.05,0.42,2.04,1.16,2.79c0.75,0.74,1.74,1.15,2.79,1.15
			c1.07,0,2.06-0.42,2.8-1.16c0.74-0.75,1.15-1.74,1.15-2.8c0-1.06-0.42-2.05-1.16-2.79c-0.74-0.74-1.73-1.15-2.78-1.15
			c-0.34,0.02-0.67,0.04-1,0.13c-0.84,0.22-1.71-0.29-1.93-1.14c-0.22-0.85,0.29-1.71,1.14-1.93c0.58-0.15,1.18-0.23,1.78-0.23
			c1.91,0,3.69,0.74,5.04,2.07c1.35,1.34,2.09,3.13,2.1,5.03c0.01,3.93-3.18,7.13-7.1,7.14C79.57,80.12,79.57,80.12,79.56,80.12z"/>
		<path class="st2" d="M89.42,62.74c-1.15,0-2.27-0.22-3.33-0.67c-0.81-0.34-1.19-1.27-0.85-2.08c0.34-0.81,1.26-1.19,2.08-0.85
			c0.67,0.28,1.37,0.42,2.1,0.42c3-0.01,5.42-2.45,5.41-5.43c0-1.45-0.57-2.81-1.6-3.83c-1.03-1.02-2.34-1.64-3.84-1.58
			c-2.99,0.01-5.41,2.45-5.41,5.43c0,0.66,0.12,1.31,0.36,1.92c0.31,0.82-0.1,1.73-0.91,2.05c-0.81,0.31-1.73-0.09-2.05-0.91
			c-0.37-0.97-0.56-2-0.57-3.05c-0.01-4.74,3.83-8.6,8.57-8.61c4.75,0,8.6,3.84,8.61,8.57c0.01,4.74-3.83,8.6-8.57,8.61
			C89.43,62.74,89.42,62.74,89.42,62.74z"/>
		<path class="st2" d="M75.1,43.73c-1.67,0-3.24-0.65-4.43-1.83c-1.19-1.18-1.85-2.76-1.85-4.44c0-1.68,0.65-3.26,1.83-4.45
			c1.18-1.19,2.76-1.85,4.44-1.85c1.69,0,3.26,0.65,4.45,1.83c1.19,1.18,1.85,2.76,1.85,4.44c0,0.78-0.14,1.55-0.42,2.27
			c-0.32,0.82-1.24,1.22-2.05,0.91c-0.82-0.32-1.22-1.23-0.91-2.05c0.14-0.36,0.21-0.73,0.21-1.12c0-0.83-0.33-1.61-0.92-2.2
			c-0.59-0.59-1.37-0.91-2.19-0.91c-1.73,0-3.12,1.4-3.11,3.12c0,0.83,0.33,1.61,0.92,2.2c0.59,0.59,1.37,0.91,2.19,0.91
			c0.43,0,0.83-0.08,1.21-0.24c0.8-0.34,1.74,0.03,2.08,0.84c0.34,0.81-0.03,1.74-0.84,2.08c-0.77,0.33-1.59,0.49-2.43,0.5
			C75.12,43.73,75.11,43.73,75.1,43.73z"/>
		<path class="st2" d="M84.96,27.43c-1.85,0-3.59-0.72-4.9-2.02c-1.32-1.31-2.04-3.05-2.05-4.91c0-2.15,0.96-4.14,2.64-5.47
			c0.69-0.54,1.69-0.43,2.23,0.26c0.54,0.69,0.43,1.68-0.26,2.23c-0.92,0.72-1.44,1.81-1.44,2.98c0,1.01,0.4,1.96,1.12,2.67
			c0.71,0.71,1.66,1.1,2.67,1.1c1.02,0,1.97-0.4,2.68-1.12c0.71-0.72,1.1-1.67,1.1-2.68c0-1.01-0.4-1.96-1.12-2.67
			c-0.71-0.71-1.66-1.1-2.67-1.1c-0.89,0-1.6-0.71-1.6-1.58c0-0.88,0.71-1.59,1.58-1.59c1.87,0,3.61,0.72,4.92,2.02
			c1.32,1.31,2.04,3.05,2.05,4.91c0,1.86-0.71,3.61-2.02,4.92c-1.31,1.32-3.05,2.04-4.91,2.05C84.97,27.43,84.97,27.43,84.96,27.43z
			"/>
		<path class="st2" d="M64.69,27.48c-0.87,0-1.58-0.71-1.59-1.58c0-0.88,0.71-1.59,1.58-1.59l5.29-0.01l-0.01-3.78
			c0-0.88,0.71-1.59,1.58-1.59l8.05-0.02c0.88,0,1.59,0.71,1.59,1.58c0,0.88-0.71,1.59-1.58,1.59l-6.47,0.02l0.01,3.78
			c0,0.42-0.17,0.82-0.46,1.12c-0.3,0.3-0.7,0.47-1.12,0.47L64.69,27.48C64.69,27.48,64.69,27.48,64.69,27.48z"/>
		<path class="st2" d="M64.71,39.06c-0.87,0-1.58-0.71-1.59-1.58c0-0.88,0.71-1.59,1.58-1.59l5.7-0.01c0.88,0,1.59,0.71,1.59,1.58
			c0,0.88-0.71,1.59-1.58,1.59L64.71,39.06C64.72,39.06,64.72,39.06,64.71,39.06z"/>
		<path class="st2" d="M69.63,60.17c-0.87,0-1.58-0.71-1.59-1.58c0-0.88,0.71-1.59,1.58-1.59L72.4,57l-0.01-2.81
			c0-0.42,0.16-0.82,0.46-1.12c0.3-0.3,0.7-0.47,1.12-0.47l8.43-0.02c0.91,0.03,1.59,0.71,1.59,1.58c0,0.88-0.71,1.59-1.58,1.59
			l-6.84,0.02l0.01,2.81c0,0.42-0.16,0.83-0.46,1.12c-0.3,0.3-0.7,0.47-1.12,0.47L69.63,60.17C69.63,60.17,69.63,60.17,69.63,60.17z
			"/>
		<path class="st2" d="M63.04,74.63c-0.87,0-1.58-0.71-1.59-1.58c0-0.88,0.71-1.59,1.58-1.59l10.99-0.03c0.88,0,1.59,0.71,1.59,1.58
			c0,0.88-0.71,1.59-1.58,1.59L63.04,74.63C63.04,74.63,63.04,74.63,63.04,74.63z"/>
		<path class="st2" d="M20.54,80.27c-3.92,0-7.11-3.18-7.12-7.1c0-1.9,0.73-3.69,2.07-5.04c1.34-1.35,3.13-2.09,5.03-2.1
			c0.54-0.03,1.2,0.07,1.78,0.22c0.85,0.22,1.36,1.08,1.14,1.93c-0.22,0.85-1.08,1.36-1.93,1.14c-0.32-0.08-0.58-0.16-0.99-0.12
			c-1.06,0-2.05,0.42-2.79,1.16c-0.74,0.75-1.15,1.74-1.15,2.8c0,1.06,0.42,2.05,1.16,2.79c0.75,0.74,1.74,1.15,2.79,1.15
			c1.07,0,2.06-0.42,2.8-1.16c0.74-0.75,1.15-1.74,1.15-2.8c0-0.77-0.22-1.51-0.64-2.15c-0.48-0.73-0.27-1.72,0.46-2.19
			c0.73-0.48,1.72-0.27,2.2,0.46c0.75,1.15,1.15,2.49,1.16,3.87c0.01,3.93-3.18,7.13-7.1,7.14C20.55,80.27,20.54,80.27,20.54,80.27z
			"/>
		<path class="st2" d="M10.59,62.94c-4.72,0-8.57-3.84-8.59-8.57c-0.01-4.74,3.83-8.6,8.57-8.61c2.31,0,4.46,0.89,6.08,2.5
			c1.63,1.62,2.52,3.77,2.53,6.07c0,1.04-0.18,2.07-0.55,3.05c-0.31,0.82-1.23,1.23-2.04,0.93c-0.82-0.31-1.24-1.22-0.93-2.04
			c0.23-0.62,0.35-1.26,0.35-1.92c0-1.45-0.57-2.81-1.6-3.83c-1.02-1.02-2.38-1.58-3.82-1.58c-3,0.01-5.43,2.44-5.42,5.43
			c0,1.45,0.57,2.81,1.6,3.83c1.02,1.02,2.38,1.58,3.82,1.58c0.73-0.03,1.45-0.14,2.12-0.43c0.8-0.34,1.74,0.03,2.08,0.84
			c0.34,0.8-0.03,1.74-0.84,2.08c-1.06,0.45-2.19,0.68-3.35,0.68C10.6,62.94,10.59,62.94,10.59,62.94z"/>
		<path class="st2" d="M24.81,43.86c-0.84,0-1.65-0.16-2.42-0.48c-0.81-0.34-1.19-1.26-0.85-2.07c0.34-0.81,1.27-1.19,2.07-0.85
			c0.38,0.16,0.78,0.24,1.2,0.24c0.84,0,1.62-0.33,2.2-0.92c0.59-0.59,0.91-1.37,0.91-2.2c0-1.71-1.4-3.11-3.11-3.11
			c-1.72,0-3.12,1.41-3.11,3.12c0,0.38,0.07,0.76,0.21,1.12c0.32,0.82-0.09,1.74-0.9,2.05c-0.82,0.32-1.74-0.09-2.05-0.9
			c-0.28-0.73-0.43-1.49-0.43-2.26c-0.01-3.46,2.8-6.29,6.27-6.3c1.69,0,3.26,0.65,4.45,1.83c1.19,1.18,1.85,2.76,1.85,4.44
			c0,1.68-0.64,3.26-1.83,4.45c-1.18,1.19-2.76,1.85-4.44,1.85C24.82,43.86,24.81,43.86,24.81,43.86z"/>
		<path class="st2" d="M14.87,27.61c-3.83,0-6.94-3.11-6.95-6.93c0-1.86,0.71-3.61,2.02-4.92c1.31-1.32,3.05-2.04,4.91-2.05
			c0.88,0,1.59,0.71,1.59,1.58c0,0.87-0.71,1.59-1.58,1.59c-1.01,0-1.96,0.4-2.67,1.11c-0.71,0.72-1.1,1.67-1.1,2.68
			c0.01,2.08,1.7,3.77,3.78,3.77c2.1-0.01,3.79-1.71,3.78-3.79c0-1.17-0.53-2.25-1.45-2.97c-0.69-0.54-0.81-1.54-0.27-2.22
			c0.54-0.69,1.54-0.81,2.23-0.27c1.69,1.32,2.66,3.31,2.67,5.46c0.01,3.83-3.1,6.96-6.93,6.97C14.88,27.61,14.87,27.61,14.87,27.61
			z"/>
		<path class="st2" d="M28.3,27.58c-0.87,0-1.58-0.71-1.59-1.58l-0.01-3.78l-6.47,0.02c-0.88,0-1.59-0.71-1.59-1.58
			c0-0.88,0.71-1.59,1.58-1.59l8.05-0.02c0.88,0,1.59,0.71,1.59,1.58l0.01,3.78l5.28-0.01c0.88,0,1.59,0.71,1.59,1.58
			c0,0.88-0.71,1.59-1.58,1.59L28.3,27.58C28.3,27.58,28.3,27.58,28.3,27.58z"/>
		<path class="st2" d="M29.5,39.15c-0.87,0-1.58-0.71-1.59-1.58c0-0.88,0.71-1.59,1.58-1.59l5.7-0.01c0.88,0.03,1.59,0.71,1.59,1.58
			c0,0.88-0.71,1.59-1.58,1.59L29.5,39.15C29.51,39.15,29.51,39.15,29.5,39.15z"/>
		<path class="st2" d="M26.03,60.28c-0.42,0-0.82-0.17-1.12-0.46c-0.3-0.3-0.47-0.7-0.47-1.12l-0.01-2.81l-6.84,0.02
			c-0.88,0-1.59-0.71-1.59-1.58c0-0.88,0.71-1.59,1.58-1.59l8.43-0.02c0.41,0.06,0.82,0.16,1.12,0.46c0.3,0.3,0.47,0.7,0.47,1.12
			l0.01,2.81l2.78-0.01c0.88,0,1.59,0.71,1.59,1.58c0,0.88-0.71,1.59-1.58,1.59L26.03,60.28C26.04,60.28,26.04,60.28,26.03,60.28z"
			/>
		<path class="st2" d="M26.07,74.72c-0.87,0-1.58-0.71-1.59-1.58c0-0.88,0.71-1.59,1.58-1.59l10.99-0.03c0.88,0,1.59,0.71,1.59,1.58
			c0,0.88-0.71,1.59-1.58,1.59L26.07,74.72C26.08,74.72,26.07,74.72,26.07,74.72z"/>
		<path class="st2" d="M32.1,87.62c-0.87,0-1.58-0.71-1.58-1.58c0-0.88,0.71-1.59,1.58-1.59l35.96-0.09c0.88,0,1.59,0.71,1.59,1.58
			c0,0.88-0.71,1.59-1.58,1.59L32.1,87.62C32.1,87.62,32.1,87.62,32.1,87.62z"/>
	</g>
</g>
<g id="podnikatelé" class="st0">
	<g class="st1">
		<path class="st3" d="M49.58,52.08c-0.22,0-0.43,0-0.65-0.01c-9.37-0.33-17-8.41-17-18.01V20.05c0-9.73,7.91-17.64,17.64-17.64
			c9.73,0,17.64,7.91,17.64,17.64v14.4c0,4.83-1.91,9.34-5.39,12.69C58.5,50.34,54.18,52.08,49.58,52.08z M49.58,5.63
			c-7.95,0-14.42,6.47-14.42,14.42v14.01c0,7.89,6.23,14.52,13.89,14.8c3.98,0.14,7.7-1.29,10.54-4.03C62.43,42.08,64,38.4,64,34.45
			v-14.4C64,12.1,57.53,5.63,49.58,5.63z"/>
		<path class="st3" d="M54.01,19.82c-2.04,0-4.27-0.42-6.58-1.51c-7.92-3.73-12.38-1.72-12.42-1.69c-0.79,0.38-1.75,0.05-2.14-0.74
			c-0.39-0.79-0.07-1.74,0.71-2.14c0.23-0.12,5.76-2.79,15.22,1.66c7.79,3.67,14.5-2.41,14.57-2.47c0.65-0.6,1.67-0.56,2.27,0.09
			c0.6,0.65,0.56,1.67-0.09,2.27C65.3,15.52,60.56,19.82,54.01,19.82z"/>
		<path class="st3" d="M66.06,32.18c-0.26,0-0.51-0.03-0.75-0.08C64.55,31.96,64,31.3,64,30.53l-0.02-10.86
			c-0.02-0.78,0.52-1.47,1.29-1.62c0.26-0.05,0.52-0.08,0.79-0.08c2.94,0,5.24,3.12,5.24,7.11C71.3,29.06,69,32.18,66.06,32.18z
			 M67.21,21.97v6.17c0.51-0.7,0.87-1.8,0.87-3.06C68.09,23.79,67.71,22.67,67.21,21.97z"/>
		<path class="st3" d="M33.09,32.18c-2.94,0-5.24-3.12-5.24-7.11c0-3.99,2.3-7.11,5.24-7.11c0.27,0,0.53,0.03,0.79,0.08
			c0.77,0.15,1.31,0.84,1.29,1.62l-0.01,0.26l-0.01,10.6c0,0.77-0.55,1.44-1.31,1.58C33.6,32.15,33.35,32.18,33.09,32.18z
			 M31.94,21.97c-0.5,0.7-0.87,1.82-0.87,3.11c0,1.29,0.37,2.4,0.87,3.11V21.97z"/>
		<path class="st3" d="M50,61.99c-4.9,0-8.59-2.19-8.59-5.1v-7.86c0-0.55,0.28-1.06,0.74-1.35c0.46-0.3,1.04-0.33,1.54-0.11
			c1.7,0.78,3.5,1.21,5.35,1.28c2.49,0.09,4.98-0.47,7.19-1.62c0.5-0.26,1.1-0.24,1.58,0.05c0.48,0.29,0.77,0.81,0.77,1.37v8.23
			C58.59,59.8,54.9,61.99,50,61.99z M44.63,51.36v5.53c0,0.48,1.85,1.88,5.37,1.88s5.37-1.4,5.37-1.88V51.1
			c-2.06,0.72-4.26,1.04-6.44,0.97C47.47,52.02,46.02,51.78,44.63,51.36z"/>
		<path class="st3" d="M82.63,97.59H17.37c-0.49,0-0.95-0.22-1.26-0.6c-0.3-0.38-0.42-0.88-0.31-1.36l6.41-28.57
			c1.1-4.92,4.82-8.77,9.71-10.04l10.7-2.78c0.48-0.12,0.99-0.02,1.39,0.28c0.39,0.3,0.62,0.77,0.62,1.27v1.09
			c0,0.48,1.85,1.88,5.37,1.88s5.37-1.4,5.37-1.88V55.8c0-0.5,0.23-0.97,0.62-1.27c0.39-0.3,0.91-0.41,1.39-0.28l10.7,2.78
			c4.88,1.27,8.6,5.11,9.71,10.04c0,0,6.41,28.57,6.41,28.57c0.11,0.48-0.01,0.98-0.31,1.36C83.58,97.37,83.12,97.59,82.63,97.59z
			 M19.38,94.37h61.25l-5.97-26.61c-0.84-3.74-3.67-6.66-7.38-7.63l-8.83-2.29c-0.71,2.42-4.1,4.15-8.45,4.15
			c-4.35,0-7.74-1.73-8.45-4.15l-8.82,2.29c-3.71,0.96-6.54,3.89-7.38,7.63L19.38,94.37z"/>
		<path class="st3" d="M66.83,97.59c-0.78,0-1.46-0.56-1.59-1.35l-2.56-15.85c-0.14-0.88,0.45-1.7,1.33-1.84
			c0.88-0.15,1.7,0.45,1.84,1.33l2.56,15.85c0.14,0.88-0.45,1.7-1.33,1.84C67,97.58,66.91,97.59,66.83,97.59z"/>
		<path class="st3" d="M33.17,97.59c-0.09,0-0.17-0.01-0.26-0.02c-0.88-0.14-1.47-0.97-1.33-1.84l2.56-15.85
			c0.14-0.88,0.97-1.47,1.84-1.33c0.88,0.14,1.47,0.97,1.33,1.84l-2.56,15.85C34.63,97.03,33.95,97.59,33.17,97.59z"/>
		<path class="st3" d="M50,93.36c-0.39,0-0.77-0.14-1.08-0.41l-4.1-3.69c-0.4-0.36-0.59-0.9-0.51-1.43l4.1-27.67
			c0.12-0.79,0.79-1.37,1.59-1.37c0.8,0,1.47,0.58,1.59,1.37l4.1,27.67c0.08,0.53-0.11,1.07-0.51,1.43l-4.1,3.69
			C50.77,93.22,50.39,93.36,50,93.36z M47.62,87.44L50,89.58l2.38-2.14L50,71.36L47.62,87.44z"/>
		<path class="st3" d="M86.13,97.59H13.87c-0.89,0-1.61-0.72-1.61-1.61c0-0.89,0.72-1.61,1.61-1.61h72.25
			c0.89,0,1.61,0.72,1.61,1.61C87.73,96.87,87.01,97.59,86.13,97.59z"/>
	</g>
</g>
<g id="sportovci" class="st0">
	<path class="st4" d="M90.66,44.66h-1.35v-8.07c0-0.9-0.74-1.64-1.64-1.64h-7.85v-4.67c0-0.92-0.72-1.64-1.64-1.64H68.7
		c-0.9,0-1.64,0.72-1.64,1.64v14.37H32.95V30.29c0-0.92-0.74-1.64-1.64-1.64h-9.48c-0.92,0-1.64,0.72-1.64,1.64v4.67h-7.85
		c-0.9,0-1.64,0.74-1.64,1.64v8.07H9.34C6.4,44.66,4,47.06,4,50s2.4,5.34,5.34,5.34h1.35v8.07c0,0.9,0.74,1.64,1.64,1.64h7.85v4.67
		c0,0.9,0.72,1.64,1.64,1.64h9.48c0.9,0,1.64-0.74,1.64-1.64V55.34h34.11v14.38c0,0.9,0.74,1.64,1.64,1.64h9.48
		c0.92,0,1.64-0.74,1.64-1.64v-4.67h7.85c0.9,0,1.64-0.74,1.64-1.64v-8.07h1.35c2.94,0,5.34-2.4,5.34-5.34S93.6,44.66,90.66,44.66z
		 M9.34,52.05c-1.13,0-2.05-0.92-2.05-2.05s0.92-2.05,2.05-2.05h1.35v4.11H9.34z M13.97,61.76v-6.42v-3.29v-4.11v-3.29v-6.42h6.21
		v6.42v3.29v4.11v3.29v6.42H13.97z M29.66,68.07h-6.19v-4.67v-8.07v-3.29v-4.11v-3.29v-8.07v-4.67h6.19v12.73v3.29v4.11v3.29V68.07z
		 M32.95,52.05v-4.11h34.11v4.11H32.95z M76.53,68.07h-6.19V55.34v-3.29v-4.11v-3.29V31.93h6.19v4.67v8.07v3.29v4.11v3.29v8.07
		V68.07z M86.03,61.76h-6.21v-6.42v-3.29v-4.11v-3.29v-6.42h6.21v6.42v3.29v4.11v3.29V61.76z M90.66,52.05h-1.35v-4.11h1.35
		c1.13,0,2.05,0.92,2.05,2.05S91.79,52.05,90.66,52.05z"/>
</g>
<g id="AGRO" class="st0">
	<path class="st5" d="M43.72,84.54c3.23,0,6.52-0.33,9.84-0.99c0.25,0.1,0.52,0.16,0.8,0.16c0.03,0,0.06,0,0.09,0
		c16.24-0.67,30.58-9.11,38.36-22.57c7.78-13.47,7.94-30.1,0.41-44.51c-0.39-0.75-1.18-1.21-2.03-1.17
		c-16.24,0.67-30.58,9.11-38.36,22.57c-0.69,1.19-1.31,2.4-1.87,3.63c-0.99-1.27-2.06-2.48-3.21-3.63
		C36.96,27.24,20.79,23.34,4.49,27.59c-0.77,0.2-1.36,0.8-1.56,1.56c-4.26,16.3-0.36,32.47,10.44,43.26
		C21.28,80.34,32.09,84.54,43.72,84.54z M6.85,31.52c14.35-3.35,28.4,0.2,37.8,9.61c1.66,1.66,3.13,3.46,4.41,5.38
		c-2.37,7.32-2.81,15.16-1.3,22.84L24.8,46.37c-0.85-0.85-2.24-0.85-3.1,0c-0.85,0.85-0.85,2.24,0,3.1l28.7,28.7
		c0.19,0.47,0.39,0.94,0.59,1.4c-13.19,2.13-25.85-1.55-34.54-10.24C7.05,59.92,3.51,45.86,6.85,31.52z M66.12,29.15l5.22,18.61
		l-7.49,12.96l-6.14-21.9c-0.02-0.08-0.05-0.16-0.08-0.23C59.95,34.98,62.82,31.81,66.12,29.15z M58.74,78.93
		c-0.13,0.02-0.26,0.04-0.39,0.06l0.59-1.02l5.62-9.72l22.07-5.64C80.1,71.47,70.11,77.33,58.74,78.93z M94.34,40.64
		c-0.21-0.01-0.42,0.01-0.63,0.07l-15.52,3.97l12.89-22.3C93.52,28.29,94.61,34.53,94.34,40.64z M89.7,57.3l-22.08,5.64l7.5-12.97
		l18.76-4.8c-0.66,4.18-1.97,8.26-3.94,12.08C89.86,57.26,89.78,57.28,89.7,57.3z M87.27,20.19L74.4,42.47l-4.32-15.41
		c-0.06-0.21-0.15-0.4-0.25-0.57C74.98,23.2,80.92,21.03,87.27,20.19z M53.9,45.95c0.23-0.61,0.48-1.21,0.75-1.81l2.2,7.86
		l2.32,8.26l1.62,5.77l-0.92,1.58l-2.3,3.98l-2.77,4.79l-0.03,0.05l-0.21,0.36c-0.15-0.36-0.29-0.71-0.43-1.07
		c-2.96-7.74-3.63-15.94-2.02-23.67c0.23-1.11,0.51-2.21,0.84-3.3C53.24,47.8,53.55,46.87,53.9,45.95z"/>
</g>
<g id="pravni_ochrana">
	<g>
		<path class="st2" d="M81.48,97.61H18.52c-3.75,0-6.79-3.05-6.79-6.79s3.05-6.79,6.79-6.79h62.96c3.75,0,6.79,3.05,6.79,6.79
			S85.22,97.61,81.48,97.61z M18.52,87.16c-2.02,0-3.66,1.64-3.66,3.66c0,2.02,1.64,3.66,3.66,3.66h62.96
			c2.02,0,3.66-1.64,3.66-3.66c0-2.02-1.64-3.66-3.66-3.66H18.52z"/>
		<path class="st2" d="M50,20.81c-5.08,0-9.21-4.13-9.21-9.21c0-5.08,4.13-9.21,9.21-9.21s9.21,4.13,9.21,9.21
			C59.21,16.68,55.08,20.81,50,20.81z M50,5.53c-3.35,0-6.07,2.72-6.07,6.07c0,3.35,2.72,6.07,6.07,6.07s6.07-2.72,6.07-6.07
			C56.07,8.25,53.35,5.53,50,5.53z"/>
		<path class="st2" d="M53.66,87.16h-7.31c-0.87,0-1.57-0.7-1.57-1.57V18.27c0-0.55,0.29-1.07,0.77-1.35
			c0.48-0.28,1.07-0.29,1.55-0.02c1.88,1.03,3.93,1.03,5.8,0c0.49-0.27,1.08-0.26,1.55,0.02c0.48,0.28,0.77,0.79,0.77,1.35v19.07
			c0,0.87-0.7,1.57-1.57,1.57c-0.87,0-1.57-0.7-1.57-1.57V20.56c-1.37,0.34-2.81,0.34-4.18,0v63.47h4.18V71.82
			c0-0.87,0.7-1.57,1.57-1.57c0.87,0,1.57,0.7,1.57,1.57v13.78C55.22,86.46,54.52,87.16,53.66,87.16z"/>
		<path class="st2" d="M53.66,85c-0.87,0-1.57-5.19-1.57-11.6V38.6c0-6.41,0.7-11.6,1.57-11.6c0.87,0,1.57,5.19,1.57,11.6v34.8
			C55.22,79.81,54.52,85,53.66,85z"/>
		<path class="st2" d="M84.58,18.32c-3.71,0-6.73-3.02-6.73-6.73c0-3.71,3.02-6.73,6.73-6.73c3.71,0,6.73,3.02,6.73,6.73
			C91.31,15.31,88.29,18.32,84.58,18.32z M84.58,8.01c-1.98,0-3.59,1.61-3.59,3.59c0,1.98,1.61,3.59,3.59,3.59
			c1.98,0,3.59-1.61,3.59-3.59C88.17,9.62,86.56,8.01,84.58,8.01z"/>
		<path class="st2" d="M81.02,16.89H56.63c-0.56,0-1.07-0.3-1.35-0.78c-0.28-0.48-0.29-1.07-0.01-1.56
			c0.53-0.95,0.81-1.95,0.81-2.95c0-1.01-0.27-2-0.81-2.95C54.99,8.16,55,7.57,55.28,7.09c0.28-0.48,0.8-0.78,1.35-0.78h24.39
			c0.64,0,1.22,0.39,1.45,0.98c0.24,0.59,0.09,1.27-0.37,1.72c-0.72,0.69-1.12,1.61-1.12,2.59c0,0.98,0.4,1.9,1.12,2.59
			c0.46,0.44,0.61,1.12,0.37,1.72C82.24,16.5,81.66,16.89,81.02,16.89z M58.94,13.75h19.27c-0.23-0.68-0.35-1.41-0.35-2.16
			c0-0.75,0.12-1.47,0.35-2.16H58.94c0.18,0.71,0.27,1.43,0.27,2.16C59.21,12.33,59.12,13.05,58.94,13.75z"/>
		<path class="st2" d="M15.42,18.32c-3.71,0-6.73-3.02-6.73-6.73c0-3.71,3.02-6.73,6.73-6.73c3.71,0,6.73,3.02,6.73,6.73
			C22.15,15.31,19.13,18.32,15.42,18.32z M15.42,8.01c-1.98,0-3.59,1.61-3.59,3.59c0,1.98,1.61,3.59,3.59,3.59
			c1.98,0,3.59-1.61,3.59-3.59C19.01,9.62,17.4,8.01,15.42,8.01z"/>
		<path class="st2" d="M43.37,16.89H18.98c-0.64,0-1.22-0.39-1.45-0.98c-0.24-0.59-0.09-1.27,0.37-1.72
			c0.72-0.69,1.12-1.61,1.12-2.59c0-0.98-0.4-1.9-1.12-2.59c-0.46-0.44-0.61-1.12-0.37-1.72c0.24-0.6,0.81-0.98,1.45-0.98h24.39
			c0.56,0,1.07,0.3,1.35,0.78C45,7.57,45,8.16,44.73,8.65c-0.53,0.95-0.81,1.94-0.81,2.95c0,1.01,0.27,2,0.81,2.95
			c0.27,0.49,0.27,1.08-0.01,1.56C44.44,16.59,43.92,16.89,43.37,16.89z M21.79,13.75h19.27c-0.18-0.71-0.27-1.43-0.27-2.16
			c0-0.73,0.09-1.45,0.27-2.16H21.79c0.23,0.68,0.35,1.41,0.35,2.16C22.15,12.34,22.03,13.07,21.79,13.75z"/>
		<path class="st2" d="M84.58,54.91c-7.19,0-13.04-5.85-13.04-13.04c0-0.87,0.7-1.57,1.57-1.57h22.94c0.87,0,1.57,0.7,1.57,1.57
			C97.62,49.06,91.77,54.91,84.58,54.91z M74.8,43.44c0.75,4.72,4.85,8.34,9.78,8.34c4.93,0,9.03-3.62,9.78-8.34H74.8z"/>
		<path class="st2" d="M96.05,43.44c-0.59,0-1.16-0.34-1.43-0.92L84.58,20.53L74.53,42.52c-0.36,0.79-1.29,1.13-2.08,0.77
			c-0.79-0.36-1.13-1.29-0.77-2.08l11.47-25.11c0.25-0.56,0.81-0.92,1.43-0.92c0.61,0,1.17,0.36,1.43,0.92l11.47,25.11
			c0.36,0.79,0.01,1.72-0.77,2.08C96.49,43.39,96.27,43.44,96.05,43.44z"/>
		<path class="st2" d="M15.42,54.91c-7.19,0-13.04-5.85-13.04-13.04c0-0.87,0.7-1.57,1.57-1.57h22.94c0.87,0,1.57,0.7,1.57,1.57
			C28.46,49.06,22.61,54.91,15.42,54.91z M5.64,43.44c0.75,4.72,4.85,8.34,9.78,8.34c4.93,0,9.03-3.62,9.78-8.34H5.64z"/>
		<path class="st2" d="M26.89,43.44c-0.59,0-1.16-0.34-1.43-0.92L15.42,20.53L5.37,42.52c-0.36,0.79-1.29,1.13-2.08,0.77
			c-0.79-0.36-1.13-1.29-0.77-2.08l11.47-25.11c0.25-0.56,0.81-0.92,1.43-0.92c0.61,0,1.17,0.36,1.43,0.92l11.47,25.11
			c0.36,0.79,0.01,1.72-0.77,2.08C27.33,43.39,27.11,43.44,26.89,43.44z"/>
	</g>
</g>
</svg>
