<?xml version="1.0" encoding="UTF-8"?>
<svg width="98px" height="96px" viewBox="0 0 98 96" version="1.1" xmlns="http://www.w3.org/2000/svg" xmlns:xlink="http://www.w3.org/1999/xlink">
    <title>proc-sporit</title>
    <g id="Page-1" stroke="none" stroke-width="1" fill="none" fill-rule="evenodd">
        <g id="proc-sporit" transform="translate(-0.000000, 0.000000)" fill="#0F66DC" fill-rule="nonzero">
            <g id="Group" transform="translate(0.341094, 0.000000)">
                <path d="M31.63,58.675 C31.42,58.675 31.21,58.635 31.01,58.555 C30.15,58.215 29.74,57.245 30.08,56.385 L31.07,53.915 C31.41,53.065 32.39,52.645 33.24,52.985 C34.1,53.325 34.51,54.295 34.17,55.155 L33.18,57.625 C32.92,58.275 32.29,58.675 31.63,58.675 Z" id="Path"></path>
                <path d="M26.76,95.995 C23.41,95.995 20.06,95.355 16.85,94.075 C3.15,88.615 -3.55,73.025 1.91,59.325 C7.37,45.625 22.95,38.925 36.66,44.385 C50.36,49.845 57.06,65.435 51.6,79.135 C48.95,85.775 43.88,90.985 37.32,93.805 C33.92,95.265 30.34,95.995 26.76,95.995 Z M26.75,45.805 C23.61,45.805 20.48,46.445 17.51,47.725 C11.76,50.195 7.32,54.755 5.01,60.565 C0.23,72.555 6.09,86.205 18.08,90.985 C23.89,93.295 30.25,93.215 36,90.745 C41.75,88.275 46.19,83.715 48.5,77.905 C50.82,72.095 50.73,65.735 48.26,59.985 C45.79,54.235 41.23,49.805 35.42,47.485 C32.62,46.365 29.68,45.805 26.75,45.805 Z" id="Shape"></path>
                <path d="M24.63,83.665 C23.51,83.665 22.37,83.455 21.25,83.015 C16.78,81.235 14.52,76.345 16.2,72.125 C16.54,71.275 17.52,70.855 18.37,71.195 C19.23,71.535 19.64,72.505 19.3,73.365 C18.3,75.885 19.73,78.825 22.49,79.925 C25.25,81.025 28.31,79.875 29.32,77.355 C30.32,74.835 28.89,71.895 26.13,70.795 C21.66,69.015 19.4,64.125 21.08,59.905 C22.76,55.685 27.77,53.695 32.24,55.475 C36.71,57.255 38.97,62.145 37.29,66.365 C36.95,67.225 35.98,67.635 35.12,67.295 C34.27,66.955 33.85,65.985 34.19,65.125 C35.19,62.605 33.76,59.665 31,58.565 C28.24,57.465 25.18,58.625 24.17,61.135 C23.17,63.655 24.59,66.595 27.36,67.695 C31.83,69.475 34.09,74.365 32.41,78.585 C31.15,81.755 28.01,83.665 24.63,83.665 Z" id="Path"></path>
                <path d="M20.76,85.935 C20.55,85.935 20.35,85.895 20.14,85.815 C19.29,85.475 18.87,84.505 19.21,83.655 L20.33,80.845 C20.67,79.985 21.64,79.575 22.5,79.915 C23.35,80.255 23.77,81.225 23.43,82.085 L22.31,84.885 C22.05,85.535 21.42,85.935 20.76,85.935 Z" id="Path"></path>
                <path d="M78.51,95.985 L59.25,95.985 C57.9,95.985 56.92,94.685 56.92,92.895 L56.92,87.125 C56.92,85.335 57.9,84.035 59.25,84.035 L78.51,84.035 C79.86,84.035 80.84,85.335 80.84,87.125 L80.84,92.895 C80.83,94.685 79.86,95.985 78.51,95.985 Z M60.25,92.655 L77.5,92.655 L77.5,87.365 L60.25,87.365 L60.25,92.655 Z" id="Shape"></path>
                <path d="M95.17,95.985 L1.67,95.985 C0.75,95.985 1.77635684e-15,95.235 1.77635684e-15,94.315 C1.77635684e-15,93.395 0.75,92.645 1.67,92.645 L95.18,92.645 C96.1,92.645 96.85,93.395 96.85,94.315 C96.84,95.245 96.09,95.985 95.17,95.985 Z" id="Path"></path>
                <path d="M71.61,61.795 L56.92,61.795 C56,61.795 55.25,61.045 55.25,60.125 C55.25,59.205 56,58.455 56.92,58.455 L70.61,58.455 L70.61,53.175 L52.83,53.175 C51.91,53.175 51.16,52.425 51.16,51.505 C51.16,50.585 51.91,49.835 52.83,49.835 L71.61,49.835 C72.96,49.835 73.94,51.135 73.94,52.925 L73.94,58.695 C73.94,60.495 72.96,61.795 71.61,61.795 Z" id="Path"></path>
                <path d="M82.7,61.795 L56.92,61.795 C56,61.795 55.25,61.045 55.25,60.125 C55.25,59.205 56,58.455 56.92,58.455 L82.46,58.455 L82.46,53.175 L52.83,53.175 C51.91,53.175 51.16,52.425 51.16,51.505 C51.16,50.585 51.91,49.835 52.83,49.835 L82.7,49.835 C84.4,49.835 85.79,51.225 85.79,52.925 L85.79,58.695 C85.79,60.415 84.41,61.795 82.7,61.795 Z" id="Path"></path>
                <path d="M77.54,78.895 L58.28,78.895 C57.36,78.895 56.61,78.145 56.61,77.225 C56.61,76.305 57.36,75.555 58.28,75.555 L76.53,75.555 L76.53,70.265 L58.28,70.265 C57.36,70.265 56.61,69.515 56.61,68.595 C56.61,67.675 57.36,66.925 58.28,66.925 L77.54,66.925 C78.89,66.925 79.87,68.225 79.87,70.015 L79.87,75.785 C79.86,77.595 78.89,78.895 77.54,78.895 Z" id="Path"></path>
                <path d="M74.57,70.345 L58.28,70.345 C57.36,70.345 56.61,69.595 56.61,68.675 C56.61,67.755 57.36,67.005 58.28,67.005 L73.57,67.005 L73.57,61.715 L56.9,61.715 C55.98,61.715 55.23,60.965 55.23,60.045 C55.23,59.125 55.98,58.375 56.9,58.375 L74.57,58.375 C75.92,58.375 76.9,59.675 76.9,61.465 L76.9,67.235 C76.9,69.045 75.92,70.345 74.57,70.345 Z" id="Path"></path>
                <path d="M85.67,70.345 L58.28,70.345 C57.36,70.345 56.61,69.595 56.61,68.675 C56.61,67.755 57.36,67.005 58.28,67.005 L85.43,67.005 L85.43,61.715 L56.9,61.715 C55.98,61.715 55.23,60.965 55.23,60.045 C55.23,59.125 55.98,58.375 56.9,58.375 L85.67,58.375 C87.37,58.375 88.76,59.765 88.76,61.465 L88.76,67.235 C88.76,68.955 87.37,70.345 85.67,70.345 Z" id="Path"></path>
                <path d="M88.63,78.895 L57.23,78.895 C56.31,78.895 55.56,78.145 55.56,77.225 C55.56,76.305 56.31,75.555 57.23,75.555 L88.39,75.555 L88.39,70.265 L58.28,70.265 C57.36,70.265 56.61,69.515 56.61,68.595 C56.61,67.675 57.36,66.925 58.28,66.925 L88.63,66.925 C90.34,66.925 91.72,68.315 91.72,70.015 L91.72,75.785 C91.72,77.505 90.34,78.895 88.63,78.895 Z" id="Path"></path>
                <path d="M86.81,87.435 L53.56,87.435 C52.64,87.435 51.89,86.685 51.89,85.765 C51.89,84.845 52.64,84.095 53.56,84.095 L86.57,84.095 L86.57,78.815 L57.24,78.815 C56.32,78.815 55.57,78.065 55.57,77.145 C55.57,76.225 56.32,75.475 57.24,75.475 L86.8,75.475 C88.51,75.475 89.8900536,76.865 89.8900536,78.565 L89.8900536,84.335 C89.9,86.055 88.51,87.435 86.81,87.435 Z" id="Path"></path>
                <path d="M89.6,95.985 L48.15,95.985 C47.23,95.985 46.48,95.235 46.48,94.315 C46.48,93.395 47.23,92.645 48.15,92.645 L89.36,92.645 L89.36,87.355 L53.6,87.355 C52.68,87.355 51.93,86.605 51.93,85.685 C51.93,84.765 52.68,84.015 53.6,84.015 L89.6,84.015 C91.31,84.015 92.69,85.405 92.69,87.105 L92.69,92.875 C92.69,94.595 91.31,95.985 89.6,95.985 Z" id="Path"></path>
                <path d="M75.71,87.435 L56.46,87.435 C55.54,87.435 54.79,86.685 54.79,85.765 C54.79,84.845 55.54,84.095 56.46,84.095 L74.71,84.095 L74.71,78.815 L57.24,78.815 C56.32,78.815 55.57,78.065 55.57,77.145 C55.57,76.225 56.32,75.475 57.24,75.475 L75.71,75.475 C77.06,75.475 78.04,76.775 78.04,78.565 L78.04,84.335 C78.04,86.135 77.06,87.435 75.71,87.435 Z" id="Path"></path>
                <path d="M63.87,53.185 C62.95,53.185 62.2,52.435 62.2,51.515 L62.2,34.595 C62.2,33.675 62.95,32.925 63.87,32.925 L74.02,32.925 L49.48,4.195 L24.93,32.925 L35.07,32.925 C35.99,32.925 36.74,33.675 36.74,34.595 L36.74,45.585 C36.74,46.505 35.99,47.255 35.07,47.255 C34.15,47.255 33.4,46.505 33.4,45.585 L33.4,36.265 L21.32,36.265 C20.67,36.265 20.08,35.885 19.81,35.295 C19.54,34.705 19.63,34.005 20.06,33.515 L48.21,0.555 C48.84,-0.185 50.11,-0.185 50.74,0.555 L78.9,33.515 C79.32,34.005 79.42,34.705 79.15,35.295 C78.88,35.885 78.29,36.265 77.64,36.265 L65.54,36.265 L65.54,51.515 C65.54,52.435 64.79,53.185 63.87,53.185 Z" id="Path"></path>
                <path d="M35.08,36.265 C34.16,36.265 33.41,35.515 33.41,34.595 L33.41,31.455 C33.41,30.535 34.16,29.785 35.08,29.785 C36,29.785 36.75,30.535 36.75,31.455 L36.75,34.595 C36.75,35.515 36,36.265 35.08,36.265 Z" id="Path"></path>
                <path d="M63.87,36.265 C62.95,36.265 62.2,35.515 62.2,34.595 L62.2,31.455 C62.2,30.535 62.95,29.785 63.87,29.785 C64.79,29.785 65.54,30.535 65.54,31.455 L65.54,34.595 C65.54,35.515 64.79,36.265 63.87,36.265 Z" id="Path"></path>
                <path d="M49.48,39.645 C48.56,39.645 47.81,38.895 47.81,37.975 L47.81,22.615 C47.81,21.695 48.56,20.945 49.48,20.945 C50.4,20.945 51.15,21.695 51.15,22.615 L51.15,37.985 C51.14,38.905 50.4,39.645 49.48,39.645 Z" id="Path"></path>
            </g>
        </g>
    </g>
</svg>