<?xml version="1.0" encoding="utf-8"?>
<!-- Generator: Adobe Illustrator 27.0.1, SVG Export Plug-In . SVG Version: 6.00 Build 0)  -->
<svg version="1.1" xmlns="http://www.w3.org/2000/svg" xmlns:xlink="http://www.w3.org/1999/xlink" x="0px" y="0px"
	 viewBox="0 0 100 100" style="enable-background:new 0 0 100 100;" xml:space="preserve">
<style type="text/css">
	.st0{display:none;}
	.st1{display:inline;}
	.st2{fill:#0F66DC;}
	.st3{fill:#FFFFFF;}
	.st4{display:inline;fill:#0F66DC;}
	.st5{display:inline;fill:#FFFFFF;}
	.st6{display:inline;fill:none;stroke:#0F66DC;stroke-width:3;stroke-miterlimit:10;}
	.st7{fill:none;stroke:#FFFFFF;stroke-width:3;stroke-miterlimit:10;}
</style>
<g id="pojištění" class="st0">
	<g class="st1">
		<path class="st2" d="M26.53,43.04c-5.31,0-9.64-4.32-9.64-9.64c0-5.31,4.32-9.64,9.64-9.64c5.31,0,9.64,4.32,9.64,9.64
			C36.16,38.71,31.84,43.04,26.53,43.04z M26.53,26.84c-3.62,0-6.56,2.94-6.56,6.56c0,3.62,2.94,6.56,6.56,6.56s6.56-2.94,6.56-6.56
			C33.09,29.78,30.14,26.84,26.53,26.84z"/>
		<path class="st2" d="M57.55,43.04H43.27c-0.85,0-1.54-0.69-1.54-1.54c0-0.85,0.69-1.54,1.54-1.54h14.28
			c0.85,0,1.54,0.69,1.54,1.54C59.08,42.35,58.4,43.04,57.55,43.04z"/>
		<path class="st2" d="M50.96,52.78H19.11c-0.85,0-1.54-0.69-1.54-1.54c0-0.85,0.69-1.54,1.54-1.54h31.85
			c0.85,0,1.54,0.69,1.54,1.54C52.5,52.09,51.81,52.78,50.96,52.78z"/>
		<path class="st2" d="M42.45,61.98H19.11c-0.85,0-1.54-0.69-1.54-1.54c0-0.85,0.69-1.54,1.54-1.54h23.34
			c0.85,0,1.54,0.69,1.54,1.54C43.99,61.29,43.3,61.98,42.45,61.98z"/>
		<path class="st2" d="M39.43,71.18H19.11c-0.85,0-1.54-0.69-1.54-1.54c0-0.85,0.69-1.54,1.54-1.54h20.32
			c0.85,0,1.54,0.69,1.54,1.54C40.97,70.49,40.28,71.18,39.43,71.18z"/>
		<path class="st2" d="M39.43,80.37H19.11c-0.85,0-1.54-0.69-1.54-1.54c0-0.85,0.69-1.54,1.54-1.54h20.32
			c0.85,0,1.54,0.69,1.54,1.54C40.97,79.69,40.28,80.37,39.43,80.37z"/>
		<path class="st2" d="M57.55,35.63H43.27c-0.85,0-1.54-0.69-1.54-1.54c0-0.85,0.69-1.54,1.54-1.54h14.28
			c0.85,0,1.54,0.69,1.54,1.54C59.08,34.94,58.4,35.63,57.55,35.63z"/>
		<path class="st2" d="M57.55,28.21H43.27c-0.85,0-1.54-0.69-1.54-1.54c0-0.85,0.69-1.54,1.54-1.54h14.28
			c0.85,0,1.54,0.69,1.54,1.54C59.08,27.52,58.4,28.21,57.55,28.21z"/>
		<path class="st2" d="M71.93,95.61h-9.76c-0.85,0-1.54-0.69-1.54-1.54v-4.6c-0.31-0.12-0.62-0.25-0.93-0.39l-3.26,3.26
			c-0.6,0.6-1.57,0.6-2.17,0l-6.91-6.9c-0.29-0.29-0.45-0.68-0.45-1.09s0.16-0.8,0.45-1.09l3.26-3.26
			c-0.14-0.31-0.27-0.62-0.39-0.93h-4.6c-0.85,0-1.54-0.69-1.54-1.54v-9.76c0-0.85,0.69-1.54,1.54-1.54h4.6
			c0.12-0.31,0.25-0.62,0.39-0.93l-3.26-3.26c-0.29-0.29-0.45-0.68-0.45-1.09s0.16-0.8,0.45-1.09l6.91-6.9
			c0.29-0.29,0.68-0.45,1.09-0.45c0.41,0,0.8,0.16,1.09,0.45l3.26,3.26c0.31-0.14,0.62-0.27,0.93-0.39v-4.6
			c0-0.85,0.69-1.54,1.54-1.54h9.76c0.85,0,1.54,0.69,1.54,1.54v4.6c0.31,0.12,0.62,0.25,0.93,0.39l3.26-3.26
			c0.6-0.6,1.57-0.6,2.17,0l6.9,6.9c0.6,0.6,0.6,1.57,0,2.17l-3.26,3.26c0.14,0.31,0.27,0.62,0.39,0.93h4.6
			c0.85,0,1.54,0.69,1.54,1.54v9.76c0,0.85-0.69,1.54-1.54,1.54h-4.6c-0.12,0.31-0.25,0.62-0.39,0.93l3.26,3.26
			c0.6,0.6,0.6,1.57,0,2.17l-6.9,6.9c-0.6,0.6-1.57,0.6-2.17,0l-3.26-3.26c-0.31,0.14-0.62,0.27-0.93,0.39v4.6
			C73.47,94.92,72.78,95.61,71.93,95.61z M63.7,92.54h6.69v-4.15c0-0.67,0.44-1.27,1.08-1.47c0.84-0.26,1.68-0.61,2.51-1.05
			c0.6-0.31,1.33-0.2,1.8,0.27l2.95,2.94l4.73-4.73l-2.94-2.95c-0.48-0.48-0.59-1.21-0.27-1.8c0.44-0.83,0.79-1.68,1.05-2.51
			c0.2-0.64,0.8-1.08,1.47-1.08h4.15v-6.69h-4.15c-0.67,0-1.27-0.44-1.47-1.08c-0.26-0.84-0.61-1.68-1.05-2.51
			c-0.31-0.6-0.2-1.33,0.27-1.8l2.94-2.95l-4.73-4.73l-2.95,2.95c-0.48,0.48-1.21,0.59-1.8,0.27c-0.83-0.44-1.67-0.79-2.51-1.05
			c-0.64-0.2-1.08-0.8-1.08-1.47v-4.15H63.7v4.15c0,0.67-0.44,1.27-1.08,1.47c-0.84,0.26-1.69,0.61-2.51,1.05
			c-0.6,0.32-1.33,0.2-1.8-0.27l-2.94-2.95l-4.73,4.73l2.94,2.95c0.48,0.48,0.59,1.21,0.27,1.8c-0.44,0.83-0.79,1.68-1.05,2.51
			c-0.2,0.64-0.8,1.08-1.47,1.08h-4.16V76h4.16c0.67,0,1.27,0.44,1.47,1.08c0.26,0.84,0.61,1.68,1.05,2.51
			c0.31,0.6,0.2,1.33-0.27,1.8l-2.94,2.95l4.73,4.73l2.94-2.94c0.47-0.48,1.21-0.59,1.8-0.27c0.83,0.44,1.68,0.79,2.51,1.05
			c0.64,0.2,1.08,0.8,1.08,1.47V92.54z"/>
		<path class="st2" d="M67.05,84.97c-6.79,0-12.31-5.52-12.31-12.31s5.52-12.31,12.31-12.31c6.79,0,12.31,5.52,12.31,12.31
			S73.84,84.97,67.05,84.97z M67.05,63.42c-5.09,0-9.24,4.14-9.24,9.24s4.14,9.24,9.24,9.24c5.09,0,9.24-4.14,9.24-9.24
			S72.14,63.42,67.05,63.42z"/>
		<path class="st2" d="M77.86,48.94c-0.85,0-1.54-0.69-1.54-1.54V7.11H24.22V10h47.67c0.85,0,1.54,0.69,1.54,1.54v33.12
			c0,0.85-0.69,1.54-1.54,1.54c-0.85,0-1.54-0.69-1.54-1.54V13.08H22.68c-0.85,0-1.54-0.69-1.54-1.54V5.57
			c0-0.85,0.69-1.54,1.54-1.54h55.18c0.85,0,1.54,0.69,1.54,1.54V47.4C79.4,48.25,78.71,48.94,77.86,48.94z"/>
		<path class="st2" d="M65.92,46.2c-0.85,0-1.54-0.69-1.54-1.54V19.05H16.71c-0.85,0-1.54-0.69-1.54-1.54v-5.97
			c0-0.85,0.69-1.54,1.54-1.54h55.18c0.85,0,1.54,0.69,1.54,1.54V43.7c0,0.85-0.69,1.54-1.54,1.54c-0.85,0-1.54-0.69-1.54-1.54
			V13.08H18.25v2.9h47.67c0.85,0,1.54,0.69,1.54,1.54v27.15C67.46,45.51,66.77,46.2,65.92,46.2z"/>
		<path class="st2" d="M52.06,96.06H10.74c-0.85,0-1.54-0.69-1.54-1.54V17.51c0-0.85,0.69-1.54,1.54-1.54h55.18
			c0.85,0,1.54,0.69,1.54,1.54v27.15c0,0.85-0.69,1.54-1.54,1.54c-0.85,0-1.54-0.69-1.54-1.54V19.05H12.28v73.93h39.78
			c0.85,0,1.54,0.69,1.54,1.54C53.59,95.37,52.91,96.06,52.06,96.06z"/>
	</g>
</g>
<g id="financování" class="st0">
	<g class="st1">
		<path class="st3" d="M50.44,30.53c-0.32,0.14-0.66,0.22-1.03,0.23c-1.54,0.05-2.83-1.16-2.87-2.7L46.4,23.6
			c-0.04-1.54,1.17-2.83,2.7-2.87c1.54-0.05,2.83,1.16,2.87,2.7l0.14,4.45C52.15,29.06,51.46,30.09,50.44,30.53z"/>
		<path class="st3" d="M67.85,91.08c-5.14,2.23-10.72,3.49-16.49,3.67C26.69,95.5,6,76.04,5.25,51.36C4.5,26.69,23.96,6,48.64,5.25
			C73.31,4.5,94,23.96,94.75,48.64c0.36,11.95-3.95,23.33-12.14,32.04C78.37,85.18,73.36,88.69,67.85,91.08z M34.37,14.04
			c-4.82,2.09-9.2,5.16-12.91,9.11c-7.17,7.62-10.95,17.58-10.63,28.05c0.66,21.6,18.76,38.64,40.36,37.98
			c10.46-0.32,20.17-4.69,27.35-12.32c7.17-7.62,10.95-17.59,10.63-28.05c-0.32-10.46-4.69-20.17-12.32-27.35
			c-7.62-7.17-17.58-10.95-28.05-10.63C43.75,10.98,38.87,12.08,34.37,14.04z"/>
		<path class="st3" d="M56.37,73.57c-1.72,0.75-3.61,1.19-5.62,1.25c-8.05,0.24-14.78-5.75-15.01-13.36
			c-0.04-1.54,1.17-2.83,2.7-2.87c1.54-0.05,2.83,1.16,2.87,2.7c0.14,4.54,4.3,8.1,9.27,7.95c4.97-0.15,8.91-3.97,8.77-8.5
			c-0.14-4.53-4.3-8.1-9.27-7.95c-8.05,0.24-14.78-5.75-15.01-13.36c-0.23-7.61,6.13-14,14.17-14.25
			c8.05-0.24,14.78,5.75,15.02,13.36c0.05,1.54-1.16,2.83-2.7,2.87c-1.54,0.05-2.83-1.16-2.87-2.7c-0.14-4.54-4.3-8.1-9.27-7.95
			c-4.97,0.15-8.9,3.97-8.77,8.5c0.14,4.53,4.29,8.1,9.27,7.95c8.05-0.24,14.78,5.75,15.02,13.36
			C65.1,66.28,61.56,71.31,56.37,73.57z"/>
		<path class="st3" d="M51.94,79.64c-0.32,0.14-0.66,0.22-1.03,0.23c-1.54,0.05-2.83-1.16-2.87-2.7l-0.16-5.05
			c-0.04-1.54,1.17-2.83,2.7-2.87c1.54-0.05,2.83,1.16,2.87,2.7l0.16,5.05C53.65,78.17,52.95,79.2,51.94,79.64z"/>
	</g>
</g>
<g id="investování" class="st0">
	<g class="st1">
		<path class="st2" d="M33.21,60.68c-0.21,0-0.42-0.04-0.62-0.12c-0.86-0.34-1.27-1.31-0.93-2.17l0.99-2.47
			c0.34-0.85,1.32-1.27,2.17-0.93c0.86,0.34,1.27,1.31,0.93,2.17l-0.99,2.47C34.5,60.28,33.87,60.68,33.21,60.68z"/>
		<path class="st2" d="M28.34,98c-3.35,0-6.7-0.64-9.91-1.92C4.73,90.62-1.97,75.03,3.49,61.33c5.46-13.7,21.04-20.4,34.75-14.94
			c13.7,5.46,20.4,21.05,14.94,34.75c-2.65,6.64-7.72,11.85-14.28,14.67C35.5,97.27,31.92,98,28.34,98z M28.33,47.81
			c-3.14,0-6.27,0.64-9.24,1.92C13.34,52.2,8.9,56.76,6.59,62.57C1.81,74.56,7.67,88.21,19.66,92.99
			c5.81,2.31,12.17,2.23,17.92-0.24c5.75-2.47,10.19-7.03,12.5-12.84c2.32-5.81,2.23-12.17-0.24-17.92
			c-2.47-5.75-7.03-10.18-12.84-12.5C34.2,48.37,31.26,47.81,28.33,47.81z"/>
		<path class="st2" d="M26.21,85.67c-1.12,0-2.26-0.21-3.38-0.65c-4.47-1.78-6.73-6.67-5.05-10.89c0.34-0.85,1.32-1.27,2.17-0.93
			c0.86,0.34,1.27,1.31,0.93,2.17c-1,2.52,0.43,5.46,3.19,6.56c2.76,1.1,5.82-0.05,6.83-2.57c1-2.52-0.43-5.46-3.19-6.56
			c-4.47-1.78-6.73-6.67-5.05-10.89c1.68-4.22,6.69-6.21,11.16-4.43c4.47,1.78,6.73,6.67,5.05,10.89c-0.34,0.86-1.31,1.27-2.17,0.93
			c-0.85-0.34-1.27-1.31-0.93-2.17c1-2.52-0.43-5.46-3.19-6.56c-2.76-1.1-5.82,0.06-6.83,2.57c-1,2.52,0.42,5.46,3.19,6.56
			c4.47,1.78,6.73,6.67,5.05,10.89C32.73,83.76,29.59,85.67,26.21,85.67z"/>
		<path class="st2" d="M22.34,87.94c-0.21,0-0.41-0.04-0.62-0.12c-0.85-0.34-1.27-1.31-0.93-2.16l1.12-2.81
			c0.34-0.86,1.31-1.27,2.17-0.93c0.85,0.34,1.27,1.31,0.93,2.17l-1.12,2.8C23.63,87.54,23,87.94,22.34,87.94z"/>
		<path class="st2" d="M80.09,97.99H60.83c-1.35,0-2.33-1.3-2.33-3.09v-5.77c0-1.79,0.98-3.09,2.33-3.09h19.26
			c1.35,0,2.33,1.3,2.33,3.09v5.77C82.41,96.69,81.44,97.99,80.09,97.99z M61.83,94.66h17.25v-5.29H61.83V94.66z"/>
		<path class="st2" d="M96.75,97.99H3.25c-0.92,0-1.67-0.75-1.67-1.67c0-0.92,0.75-1.67,1.67-1.67h93.51c0.92,0,1.67,0.75,1.67,1.67
			C98.42,97.25,97.67,97.99,96.75,97.99z"/>
		<path class="st2" d="M73.19,63.8H58.5c-0.92,0-1.67-0.75-1.67-1.67s0.75-1.67,1.67-1.67h13.69v-5.28H54.41
			c-0.92,0-1.67-0.75-1.67-1.67s0.75-1.67,1.67-1.67h18.78c1.35,0,2.33,1.3,2.33,3.09v5.77C75.52,62.5,74.54,63.8,73.19,63.8z"/>
		<path class="st2" d="M84.28,63.8H58.5c-0.92,0-1.67-0.75-1.67-1.67s0.75-1.67,1.67-1.67h25.54v-5.28H54.41
			c-0.92,0-1.67-0.75-1.67-1.67s0.75-1.67,1.67-1.67h29.87c1.7,0,3.09,1.39,3.09,3.09v5.77C87.37,62.42,85.99,63.8,84.28,63.8z"/>
		<path class="st2" d="M79.12,80.9H59.86c-0.92,0-1.67-0.75-1.67-1.67c0-0.92,0.75-1.67,1.67-1.67h18.25v-5.29H59.86
			c-0.92,0-1.67-0.75-1.67-1.67c0-0.92,0.75-1.67,1.67-1.67h19.26c1.35,0,2.33,1.3,2.33,3.09v5.77C81.44,79.6,80.47,80.9,79.12,80.9
			z"/>
		<path class="st2" d="M76.15,72.35H59.86c-0.92,0-1.67-0.75-1.67-1.67c0-0.92,0.75-1.67,1.67-1.67h15.29v-5.29H58.48
			c-0.92,0-1.67-0.75-1.67-1.67s0.75-1.67,1.67-1.67h17.67c1.35,0,2.33,1.3,2.33,3.09v5.77C78.48,71.05,77.5,72.35,76.15,72.35z"/>
		<path class="st2" d="M87.25,72.35H59.86c-0.92,0-1.67-0.75-1.67-1.67c0-0.92,0.75-1.67,1.67-1.67h27.15v-5.29H58.48
			c-0.92,0-1.67-0.75-1.67-1.67s0.75-1.67,1.67-1.67h28.77c1.7,0,3.09,1.39,3.09,3.09v5.77C90.34,70.96,88.95,72.35,87.25,72.35z"/>
		<path class="st2" d="M90.21,80.9H58.81c-0.92,0-1.67-0.75-1.67-1.67c0-0.92,0.75-1.67,1.67-1.67h31.16v-5.29H59.86
			c-0.92,0-1.67-0.75-1.67-1.67c0-0.92,0.75-1.67,1.67-1.67h30.35c1.71,0,3.09,1.39,3.09,3.09v5.77
			C93.3,79.51,91.92,80.9,90.21,80.9z"/>
		<path class="st2" d="M88.39,89.44H55.14c-0.92,0-1.67-0.75-1.67-1.67c0-0.92,0.75-1.67,1.67-1.67h33.01v-5.28H58.82
			c-0.92,0-1.67-0.75-1.67-1.67c0-0.92,0.75-1.67,1.67-1.67h29.56c1.71,0,3.09,1.39,3.09,3.09v5.77
			C91.48,88.06,90.09,89.44,88.39,89.44z"/>
		<path class="st2" d="M91.18,97.99H49.73c-0.92,0-1.67-0.75-1.67-1.67c0-0.92,0.75-1.67,1.67-1.67h41.21v-5.29H55.18
			c-0.92,0-1.67-0.75-1.67-1.67c0-0.92,0.75-1.67,1.67-1.67h36c1.71,0,3.09,1.39,3.09,3.09v5.77C94.27,96.6,92.89,97.99,91.18,97.99
			z"/>
		<path class="st2" d="M77.29,89.44H58.04c-0.92,0-1.67-0.75-1.67-1.67c0-0.92,0.75-1.67,1.67-1.67h18.25v-5.28H58.82
			c-0.92,0-1.67-0.75-1.67-1.67c0-0.92,0.75-1.67,1.67-1.67h18.47c1.35,0,2.33,1.3,2.33,3.09v5.77
			C79.62,88.14,78.64,89.44,77.29,89.44z"/>
		<path class="st2" d="M65.45,55.19c-0.92,0-1.67-0.75-1.67-1.67V36.6c0-0.92,0.75-1.67,1.67-1.67H75.6L51.06,6.2L26.51,34.93h10.14
			c0.92,0,1.67,0.75,1.67,1.67v10.99c0,0.92-0.75,1.67-1.67,1.67s-1.67-0.75-1.67-1.67v-9.32H22.9c-0.65,0-1.24-0.38-1.51-0.97
			c-0.27-0.59-0.18-1.29,0.25-1.78L49.79,2.56c0.63-0.74,1.9-0.74,2.53,0l28.16,32.96c0.42,0.49,0.52,1.19,0.25,1.78
			c-0.27,0.59-0.86,0.97-1.51,0.97H67.12v15.25C67.12,54.44,66.37,55.19,65.45,55.19z"/>
		<path class="st2" d="M36.66,38.27c-0.92,0-1.67-0.75-1.67-1.67v-3.14c0-0.92,0.75-1.67,1.67-1.67s1.67,0.75,1.67,1.67v3.14
			C38.33,37.52,37.58,38.27,36.66,38.27z"/>
		<path class="st2" d="M65.45,38.27c-0.92,0-1.67-0.75-1.67-1.67v-3.14c0-0.92,0.75-1.67,1.67-1.67c0.92,0,1.67,0.75,1.67,1.67v3.14
			C67.12,37.52,66.37,38.27,65.45,38.27z"/>
		<path class="st2" d="M51.06,41.65c-0.92,0-1.67-0.75-1.67-1.67V24.62c0-0.92,0.75-1.67,1.67-1.67c0.92,0,1.67,0.75,1.67,1.67
			v15.37C52.72,40.91,51.98,41.65,51.06,41.65z"/>
	</g>
</g>
<g id="pojisteni_odpovednosti" class="st0">
	<g class="st1">
		<path class="st3" d="M83.54,97.48H15.25c-0.87,0-1.57-0.7-1.57-1.57V4.09c0-0.87,0.7-1.57,1.57-1.57h68.29
			c0.87,0,1.57,0.7,1.57,1.57v6.94c0,0.87-0.7,1.57-1.57,1.57c-0.87,0-1.57-0.7-1.57-1.57V5.67H16.82v88.67h65.15V50.83
			c0-0.87,0.7-1.57,1.57-1.57c0.87,0,1.57,0.7,1.57,1.57v45.08C85.11,96.77,84.41,97.48,83.54,97.48z"/>
		<path class="st3" d="M62.14,22.88H30.96c-0.87,0-1.57-0.7-1.57-1.57c0-0.87,0.7-1.57,1.57-1.57h31.18c0.87,0,1.57,0.7,1.57,1.57
			C63.72,22.18,63.01,22.88,62.14,22.88z"/>
		<path class="st3" d="M60.65,38.65H24.13c-0.87,0-1.57-0.7-1.57-1.57c0-0.87,0.7-1.57,1.57-1.57h36.52c0.87,0,1.57,0.7,1.57,1.57
			C62.23,37.94,61.52,38.65,60.65,38.65z"/>
		<path class="st3" d="M58.85,49.3H24.13c-0.87,0-1.57-0.7-1.57-1.57c0-0.87,0.7-1.57,1.57-1.57h34.72c0.87,0,1.57,0.7,1.57,1.57
			C60.42,48.6,59.72,49.3,58.85,49.3z"/>
		<path class="st3" d="M57.05,59.96H24.13c-0.87,0-1.57-0.7-1.57-1.57c0-0.87,0.7-1.57,1.57-1.57h32.91c0.87,0,1.57,0.7,1.57,1.57
			C58.62,59.26,57.91,59.96,57.05,59.96z"/>
		<path class="st3" d="M55.24,70.62H24.13c-0.87,0-1.57-0.7-1.57-1.57c0-0.87,0.7-1.57,1.57-1.57h31.11c0.87,0,1.57,0.7,1.57,1.57
			C56.81,69.91,56.11,70.62,55.24,70.62z"/>
		<path class="st3" d="M71.52,86.46H49.7c-0.87,0-1.57-0.7-1.57-1.57s0.7-1.57,1.57-1.57h21.82c0.87,0,1.57,0.7,1.57,1.57
			S72.38,86.46,71.52,86.46z"/>
		<path class="st3" d="M71.98,77c-0.09,0-0.17-0.01-0.26-0.02l-8.92-1.51c-0.41-0.07-0.78-0.3-1.02-0.64
			c-0.24-0.34-0.34-0.76-0.27-1.17l9.41-55.58c0.25-1.48,1.67-2.49,3.14-2.23l6.65,1.13c1.48,0.25,2.48,1.66,2.23,3.14l-9.41,55.58
			C73.4,76.46,72.74,77,71.98,77z M64.87,72.63l5.83,0.99l9.08-53.62l-5.83-0.99L64.87,72.63z"/>
		<path class="st3" d="M65.79,86.46c-0.09,0-0.17-0.01-0.26-0.02c-0.62-0.1-1.11-0.56-1.26-1.17L61.53,74.3
			c-0.13-0.52,0.01-1.06,0.37-1.45c0.36-0.39,0.89-0.57,1.41-0.48l8.92,1.51c0.52,0.09,0.97,0.43,1.18,0.92
			c0.21,0.49,0.16,1.05-0.13,1.49l-6.19,9.46C66.81,86.2,66.32,86.46,65.79,86.46z M65.16,75.87l1.28,5.15l2.91-4.44L65.16,75.87z"
			/>
		<path class="st3" d="M80.06,20.02c-0.09,0-0.18-0.01-0.26-0.02l-6.28-1.06c-0.86-0.15-1.43-0.96-1.29-1.81l0.46-2.73
			c0.21-1.25,0.9-2.35,1.93-3.08c1.04-0.73,2.3-1.02,3.55-0.81c1.25,0.21,2.35,0.9,3.08,1.93c0.74,1.04,1.03,2.3,0.81,3.55
			l-0.46,2.73c-0.07,0.41-0.3,0.78-0.64,1.02C80.7,19.92,80.38,20.02,80.06,20.02z M75.59,16.1l3.18,0.54l0.2-1.18
			c0.07-0.43-0.03-0.85-0.28-1.2c-0.25-0.35-0.62-0.58-1.05-0.66c-0.43-0.08-0.85,0.02-1.21,0.27c-0.35,0.25-0.58,0.62-0.66,1.05
			L75.59,16.1z"/>
		<path class="st3" d="M81.95,47.4c-0.09,0-0.18-0.01-0.26-0.02c-0.86-0.15-1.43-0.96-1.29-1.81l2.76-16.32
			c0.12-0.7-0.36-1.37-1.06-1.48l-10.92-1.85c-0.86-0.15-1.43-0.96-1.29-1.81c0.14-0.85,0.95-1.42,1.81-1.29l10.92,1.85
			c2.41,0.41,4.04,2.7,3.63,5.11L83.5,46.09C83.37,46.86,82.7,47.4,81.95,47.4z"/>
		<path class="st3" d="M79.51,32.55c-0.09,0-0.18-0.01-0.26-0.02l-8.92-1.51c-0.86-0.15-1.43-0.96-1.29-1.81
			c0.15-0.86,0.95-1.42,1.81-1.29l8.92,1.51c0.86,0.15,1.43,0.96,1.29,1.81C80.93,32.01,80.26,32.55,79.51,32.55z"/>
	</g>
</g>
<g id="pojisteni_vozidel" class="st0">
	<g class="st1">
		<path class="st2" d="M85.3,87h-8.04c-2.2,0-3.99-1.81-3.99-4.04v-5.4H26.73v5.4c0,2.22-1.79,4.04-3.99,4.04h-8.04
			c-2.2,0-3.99-1.81-3.99-4.04v-5.4H9.28c-3.69,0-6.69-3.04-6.69-6.78V51.13c0-3.2,1.15-8.12,2.55-10.97l10.6-21.52
			c1.56-3.16,5.5-5.63,8.98-5.63h49.62c3.47,0,7.45,2.43,9.07,5.54l11.31,21.65c1.48,2.82,2.68,7.73,2.68,10.94v19.66
			c0,3.74-3,6.78-6.69,6.78h-1.43v5.4C89.29,85.19,87.5,87,85.3,87z M24.15,74.99h51.7v7.97c0,0.8,0.63,1.46,1.41,1.46h8.04
			c0.78,0,1.41-0.65,1.41-1.46v-7.97h4c2.27,0,4.11-1.89,4.11-4.2V51.13c0-2.81-1.09-7.27-2.38-9.74L81.13,19.73
			c-1.18-2.25-4.29-4.16-6.79-4.16H24.73c-2.49,0-5.54,1.92-6.66,4.19L7.46,41.29c-1.24,2.51-2.29,7.01-2.29,9.83v19.66
			c0,2.32,1.84,4.2,4.11,4.2h4v7.97c0,0.8,0.63,1.46,1.41,1.46h8.04c0.78,0,1.41-0.65,1.41-1.46V74.99z M16.85,68.61
			c-3.52,0-6.38-2.9-6.38-6.47c0-3.57,2.86-6.47,6.38-6.47c3.52,0,6.39,2.9,6.39,6.47C23.23,65.7,20.37,68.61,16.85,68.61z
			 M16.85,58.24c-2.1,0-3.81,1.75-3.81,3.9c0,2.15,1.71,3.9,3.81,3.9c2.1,0,3.81-1.75,3.81-3.9C20.66,59.99,18.95,58.24,16.85,58.24
			z M83.59,68.14c-3.52,0-6.39-2.9-6.39-6.47c0-3.57,2.86-6.47,6.39-6.47c3.52,0,6.38,2.9,6.38,6.47
			C89.97,65.23,87.11,68.14,83.59,68.14z M83.59,57.77c-2.1,0-3.81,1.75-3.81,3.9c0,2.15,1.71,3.9,3.81,3.9
			c2.1,0,3.81-1.75,3.81-3.9C87.39,59.52,85.69,57.77,83.59,57.77z M72.37,67.19H27.62v-9.18h44.75V67.19z M30.2,64.62h39.6v-4.02
			H30.2V64.62z M79.65,40.77H20.34c-1.85,0-3.38-0.74-4.19-2.03c-0.82-1.31-0.81-3.04,0.02-4.75l4.52-9.32
			c1.54-3.17,5.47-5.65,8.95-5.65h40.16c3.47,0,7.44,2.44,9.05,5.56l4.85,9.44c0.87,1.69,0.92,3.41,0.12,4.72
			C83.03,40.03,81.52,40.77,79.65,40.77z M29.64,21.6c-2.49,0-5.52,1.92-6.63,4.2l-4.52,9.32c-0.44,0.9-0.49,1.72-0.15,2.25
			c0.33,0.53,1.04,0.82,2,0.82h59.31c0.94,0,1.66-0.29,1.96-0.79c0.32-0.52,0.24-1.32-0.22-2.2l-4.85-9.44
			c-1.16-2.26-4.26-4.16-6.76-4.16H29.64z"/>
	</g>
</g>
<g id="cestovni_pojisteni" class="st0">
	<g class="st1">
		<path class="st3" d="M61.95,95.66c-0.69,0-1.3-0.39-1.68-1.08L42.63,62.57l-11.11,8.01c-0.04,0.03-0.08,0.06-0.12,0.09
			c0.07,0.31,0.14,0.69,0.21,1.04l2.68,13.59c0.17,0.86,0.03,2.06-0.32,2.84l-1.15,2.56c-0.34,0.76-0.98,1.21-1.71,1.21l0,0
			c-0.69,0-1.31-0.4-1.68-1.11l-9.29-17.46c-0.19-0.35-0.67-0.92-0.98-1.16L2.34,59.25c-0.65-0.5-0.95-1.22-0.8-1.91
			c0.15-0.69,0.71-1.22,1.5-1.41l2.72-0.66c0.83-0.2,2.04-0.12,2.83,0.16l13.62,4.94c0.15,0.06,0.3,0.11,0.44,0.16
			c0.03-0.03,0.06-0.07,0.1-0.1l9.84-10L4.51,27.28c-0.63-0.52-0.9-1.24-0.74-1.93c0.16-0.69,0.72-1.21,1.5-1.39l7.53-1.82
			c0.83-0.2,2.07-0.11,2.86,0.21L32.8,29.2c0.61-0.89,1.93-1.25,2.99-0.77l1.66,0.75c0.63,0.29,1.12,0.8,1.35,1.41
			c0.13,0.35,0.17,0.71,0.12,1.05l1.57,0.63c0.61-0.96,1.96-1.37,3.06-0.87l1.66,0.75c0.61,0.28,1.09,0.79,1.32,1.4
			c0.16,0.43,0.19,0.87,0.09,1.3l1.42,0.64c0.17,0.03,0.24-0.03,0.26-0.04c0,0,3.1-2.9,5.08-4.66c5.67-5.19,9.3-8.34,14.8-13.11
			c5.26-4.7,22.38-13.33,27.6-13.33c0.93,0,1.61,0.24,2.08,0.73c0.47,0.48,0.68,1.15,0.63,1.97c-0.3,5.18-12.84,21.16-17.82,25.27
			c-6.06,5.13-9.6,8.02-15.26,12.57c-2.01,1.66-5.31,4.25-5.31,4.25c-0.04,0.05-0.1,0.21-0.09,0.29l0.21,0.84
			c1.07-0.07,2.1,0.67,2.42,1.76l0.53,1.73c0.38,1.24-0.28,2.56-1.48,3.01L62,58.36c0.08-0.01,0.17-0.01,0.25-0.01
			c1.06,0,2.01,0.71,2.32,1.73l0.53,1.75c0.39,1.28-0.33,2.65-1.6,3.04l-0.21,0.06l3.87,19.61c0.17,0.85,0.03,2.05-0.32,2.84
			l-3.18,7.07C63.33,95.2,62.69,95.66,61.95,95.66z M42.78,59.62c0.83,0,1.6,0.46,2.01,1.2l17.07,30.97l2.49-5.54
			c0.12-0.27,0.19-0.89,0.13-1.2l-3.9-19.76c-0.25-1.26,0.52-2.56,1.75-2.94l0.07-0.02l-0.36-1.2c-0.11,0.02-0.25,0.03-0.38,0.03
			c-1.12,0-2.05-0.78-2.26-1.89l-0.42-2.15c-0.23-1.17,0.41-2.38,1.5-2.85l-0.38-1.23c-1.11,0.1-2.17-0.67-2.46-1.83l-0.28-1.16
			c-0.28-1.09,0.17-2.4,1.06-3.09c0,0,3.27-2.56,5.27-4.22c5.65-4.54,9.19-7.43,15.23-12.55c5.66-4.66,16.54-19.71,16.85-23.14
			C91.5,7.1,75.14,15.12,69.98,19.72c-5.69,4.94-9.12,7.92-14.78,13.09c-1.98,1.76-5.06,4.64-5.06,4.64
			c-0.8,0.76-2.23,0.99-3.25,0.52l-1.65-0.75c-0.61-0.28-1.09-0.79-1.32-1.4c-0.16-0.43-0.19-0.87-0.09-1.3L42.66,34
			c-0.61,0.92-1.91,1.32-2.98,0.89l-2.02-0.81c-0.65-0.26-1.17-0.76-1.41-1.37c-0.15-0.37-0.19-0.76-0.12-1.13l-1.22-0.55
			c-0.62,0.85-1.87,1.21-2.92,0.79l-17.34-6.93c-0.15-0.06-0.47-0.12-0.82-0.12c-0.22,0-0.34,0.03-0.38,0.03l-5.9,1.43l27.13,22.36
			c0.52,0.43,0.83,1.05,0.86,1.7c0.03,0.65-0.22,1.29-0.69,1.75L24.71,62.33c-0.89,0.93-1.34,1.11-1.82,1.11h-0.31l-0.29-0.14
			c-0.06-0.02-0.51-0.19-1.01-0.37L7.66,58c-0.25-0.09-1.17-0.09-1.26-0.07l-0.98,0.24l15.4,11.86c0.61,0.47,1.35,1.35,1.73,2.04
			l8.48,15.95l0.44-0.98c0.12-0.27,0.19-0.9,0.13-1.2l-2.68-13.59c-0.11-0.55-0.24-1.18-0.3-1.41c-0.3-1.24,0.91-2.21,1.29-2.49
			l11.5-8.28C41.82,59.78,42.29,59.62,42.78,59.62z"/>
	</g>
</g>
<g id="život_lidí" class="st0">
	<g class="st1">
		<path class="st2" d="M40.92,87.6c-0.42,0-0.82-0.17-1.12-0.46c-0.3-0.3-0.47-0.7-0.47-1.12l-0.06-25.69l-4.79,0.01
			c-0.47,0.02-0.82-0.16-1.12-0.46c-0.3-0.3-0.47-0.7-0.47-1.12l-0.05-19.22c-0.01-5.4,4.37-9.81,9.77-9.82l13.87-0.04
			c2.65,0,5.08,1,6.94,2.85c1.86,1.85,2.88,4.31,2.89,6.92l0.05,19.21c0,0.42-0.17,0.82-0.46,1.12c-0.3,0.3-0.7,0.47-1.12,0.47
			l-4.79,0.01l0.06,25.68c0,0.88-0.71,1.59-1.58,1.59L40.92,87.6C40.92,87.6,40.92,87.6,40.92,87.6z M40.85,57.16
			c0.42,0,0.82,0.17,1.12,0.46c0.3,0.3,0.47,0.7,0.47,1.12l0.06,25.69l14.37-0.04L56.8,58.7c0-0.42,0.17-0.82,0.46-1.12
			c0.3-0.3,0.7-0.47,1.12-0.47l4.79-0.01l-0.05-17.63c0-1.77-0.7-3.43-1.95-4.68c-1.25-1.24-2.91-1.93-4.67-1.93
			c-0.02,0-13.89,0.04-13.89,0.04C38.96,32.9,36,35.88,36,39.54l0.04,17.63L40.85,57.16C40.85,57.16,40.85,57.16,40.85,57.16z"/>
		<path class="st2" d="M49.69,87.57c-0.87,0-1.58-0.71-1.59-1.58l-0.06-22.96c0-0.88,0.71-1.59,1.58-1.59
			c0.88,0,1.59,0.71,1.59,1.58l0.06,22.96C51.28,86.86,50.57,87.57,49.69,87.57C49.69,87.57,49.69,87.57,49.69,87.57z"/>
		<path class="st2" d="M40.85,60.33c-0.87,0-1.58-0.71-1.59-1.58l-0.04-17.13c0-0.88,0.71-1.59,1.58-1.59
			c0.88,0,1.59,0.71,1.59,1.58l0.04,17.13C42.44,59.61,41.73,60.32,40.85,60.33C40.85,60.33,40.85,60.33,40.85,60.33z"/>
		<path class="st2" d="M58.39,60.28c-0.87,0-1.58-0.71-1.59-1.58l-0.04-17.13c0-0.88,0.71-1.59,1.58-1.59
			c0.88,0,1.59,0.71,1.59,1.58l0.04,17.13C59.98,59.57,59.27,60.28,58.39,60.28C58.39,60.28,58.39,60.28,58.39,60.28z"/>
		<path class="st2" d="M58.38,55.81c-0.87,0-1.58-0.71-1.59-1.58c0-0.88,0.71-1.59,1.58-1.59l6.38-0.02c0.88,0,1.59,0.71,1.59,1.58
			c0,0.88-0.71,1.59-1.58,1.59L58.38,55.81C58.38,55.81,58.38,55.81,58.38,55.81z"/>
		<path class="st2" d="M34.46,55.87c-0.87,0-1.58-0.71-1.59-1.58c0-0.88,0.71-1.59,1.58-1.59l6.38-0.02c0.88,0,1.59,0.71,1.59,1.58
			c0,0.88-0.71,1.59-1.58,1.59L34.46,55.87C34.46,55.87,34.46,55.87,34.46,55.87z"/>
		<path class="st2" d="M49.72,28.75c-1.66,0-4.04-0.76-5.88-4.21c-0.95-1.79-1.46-3.9-1.46-6.11l0-1.89c0-0.29,0.08-0.57,0.23-0.82
			c0.72-1.19,3.76-3.32,7.26-3.33c2.3,0,4.11,0.8,4.99,1.28c1.18,0.64,2.58,1.68,2.58,3.01l0,1.73c0.01,2.21-0.49,4.32-1.43,6.12
			c-1.89,3.59-4.38,4.32-6.12,4.24C49.83,28.75,49.78,28.75,49.72,28.75z M45.55,17.15l0,1.27c0,1.69,0.38,3.29,1.09,4.63
			c0.91,1.72,1.98,2.58,3.24,2.53c1.34,0.11,2.41-0.83,3.32-2.55c0.7-1.34,1.07-2.94,1.07-4.63l0-1.33
			c-0.52-0.47-2.19-1.52-4.37-1.52C47.9,15.56,46.22,16.59,45.55,17.15z"/>
		<path class="st2" d="M79.56,80.12c-3.92,0-7.11-3.18-7.12-7.1c0-1.39,0.39-2.73,1.14-3.88c0.48-0.74,1.46-0.95,2.19-0.47
			c0.74,0.48,0.95,1.46,0.47,2.19c-0.41,0.64-0.63,1.38-0.63,2.15c0,1.05,0.42,2.04,1.16,2.79c0.75,0.74,1.74,1.15,2.79,1.15
			c1.07,0,2.06-0.42,2.8-1.16c0.74-0.75,1.15-1.74,1.15-2.8c0-1.06-0.42-2.05-1.16-2.79c-0.74-0.74-1.73-1.15-2.78-1.15
			c-0.34,0.02-0.67,0.04-1,0.13c-0.84,0.22-1.71-0.29-1.93-1.14c-0.22-0.85,0.29-1.71,1.14-1.93c0.58-0.15,1.18-0.23,1.78-0.23
			c1.91,0,3.69,0.74,5.04,2.07c1.35,1.34,2.09,3.13,2.1,5.03c0.01,3.93-3.18,7.13-7.1,7.14C79.57,80.12,79.57,80.12,79.56,80.12z"/>
		<path class="st2" d="M89.42,62.74c-1.15,0-2.27-0.22-3.33-0.67c-0.81-0.34-1.19-1.27-0.85-2.08c0.34-0.81,1.26-1.19,2.08-0.85
			c0.67,0.28,1.37,0.42,2.1,0.42c3-0.01,5.42-2.45,5.41-5.43c0-1.45-0.57-2.81-1.6-3.83c-1.03-1.02-2.34-1.64-3.84-1.58
			c-2.99,0.01-5.41,2.45-5.41,5.43c0,0.66,0.12,1.31,0.36,1.92c0.31,0.82-0.1,1.73-0.91,2.05c-0.81,0.31-1.73-0.09-2.05-0.91
			c-0.37-0.97-0.56-2-0.57-3.05c-0.01-4.74,3.83-8.6,8.57-8.61c4.75,0,8.6,3.84,8.61,8.57c0.01,4.74-3.83,8.6-8.57,8.61
			C89.43,62.74,89.42,62.74,89.42,62.74z"/>
		<path class="st2" d="M75.1,43.73c-1.67,0-3.24-0.65-4.43-1.83c-1.19-1.18-1.85-2.76-1.85-4.44c0-1.68,0.65-3.26,1.83-4.45
			c1.18-1.19,2.76-1.85,4.44-1.85c1.69,0,3.26,0.65,4.45,1.83c1.19,1.18,1.85,2.76,1.85,4.44c0,0.78-0.14,1.55-0.42,2.27
			c-0.32,0.82-1.24,1.22-2.05,0.91c-0.82-0.32-1.22-1.23-0.91-2.05c0.14-0.36,0.21-0.73,0.21-1.12c0-0.83-0.33-1.61-0.92-2.2
			c-0.59-0.59-1.37-0.91-2.19-0.91c-1.73,0-3.12,1.4-3.11,3.12c0,0.83,0.33,1.61,0.92,2.2c0.59,0.59,1.37,0.91,2.19,0.91
			c0.43,0,0.83-0.08,1.21-0.24c0.8-0.34,1.74,0.03,2.08,0.84c0.34,0.81-0.03,1.74-0.84,2.08c-0.77,0.33-1.59,0.49-2.43,0.5
			C75.12,43.73,75.11,43.73,75.1,43.73z"/>
		<path class="st2" d="M84.96,27.43c-1.85,0-3.59-0.72-4.9-2.02c-1.32-1.31-2.04-3.05-2.05-4.91c0-2.15,0.96-4.14,2.64-5.47
			c0.69-0.54,1.69-0.43,2.23,0.26c0.54,0.69,0.43,1.68-0.26,2.23c-0.92,0.72-1.44,1.81-1.44,2.98c0,1.01,0.4,1.96,1.12,2.67
			c0.71,0.71,1.66,1.1,2.67,1.1c1.02,0,1.97-0.4,2.68-1.12c0.71-0.72,1.1-1.67,1.1-2.68c0-1.01-0.4-1.96-1.12-2.67
			c-0.71-0.71-1.66-1.1-2.67-1.1c-0.89,0-1.6-0.71-1.6-1.58c0-0.88,0.71-1.59,1.58-1.59c1.87,0,3.61,0.72,4.92,2.02
			c1.32,1.31,2.04,3.05,2.05,4.91c0,1.86-0.71,3.61-2.02,4.92c-1.31,1.32-3.05,2.04-4.91,2.05C84.97,27.43,84.97,27.43,84.96,27.43z
			"/>
		<path class="st2" d="M64.69,27.48c-0.87,0-1.58-0.71-1.59-1.58c0-0.88,0.71-1.59,1.58-1.59l5.29-0.01l-0.01-3.78
			c0-0.88,0.71-1.59,1.58-1.59l8.05-0.02c0.88,0,1.59,0.71,1.59,1.58c0,0.88-0.71,1.59-1.58,1.59l-6.47,0.02l0.01,3.78
			c0,0.42-0.17,0.82-0.46,1.12c-0.3,0.3-0.7,0.47-1.12,0.47L64.69,27.48C64.69,27.48,64.69,27.48,64.69,27.48z"/>
		<path class="st2" d="M64.71,39.06c-0.87,0-1.58-0.71-1.59-1.58c0-0.88,0.71-1.59,1.58-1.59l5.7-0.01c0.88,0,1.59,0.71,1.59,1.58
			c0,0.88-0.71,1.59-1.58,1.59L64.71,39.06C64.72,39.06,64.72,39.06,64.71,39.06z"/>
		<path class="st2" d="M69.63,60.17c-0.87,0-1.58-0.71-1.59-1.58c0-0.88,0.71-1.59,1.58-1.59L72.4,57l-0.01-2.81
			c0-0.42,0.16-0.82,0.46-1.12c0.3-0.3,0.7-0.47,1.12-0.47l8.43-0.02c0.91,0.03,1.59,0.71,1.59,1.58c0,0.88-0.71,1.59-1.58,1.59
			l-6.84,0.02l0.01,2.81c0,0.42-0.16,0.83-0.46,1.12c-0.3,0.3-0.7,0.47-1.12,0.47L69.63,60.17C69.63,60.17,69.63,60.17,69.63,60.17z
			"/>
		<path class="st2" d="M63.04,74.63c-0.87,0-1.58-0.71-1.59-1.58c0-0.88,0.71-1.59,1.58-1.59l10.99-0.03c0.88,0,1.59,0.71,1.59,1.58
			c0,0.88-0.71,1.59-1.58,1.59L63.04,74.63C63.04,74.63,63.04,74.63,63.04,74.63z"/>
		<path class="st2" d="M20.54,80.27c-3.92,0-7.11-3.18-7.12-7.1c0-1.9,0.73-3.69,2.07-5.04c1.34-1.35,3.13-2.09,5.03-2.1
			c0.54-0.03,1.2,0.07,1.78,0.22c0.85,0.22,1.36,1.08,1.14,1.93c-0.22,0.85-1.08,1.36-1.93,1.14c-0.32-0.08-0.58-0.16-0.99-0.12
			c-1.06,0-2.05,0.42-2.79,1.16c-0.74,0.75-1.15,1.74-1.15,2.8c0,1.06,0.42,2.05,1.16,2.79c0.75,0.74,1.74,1.15,2.79,1.15
			c1.07,0,2.06-0.42,2.8-1.16c0.74-0.75,1.15-1.74,1.15-2.8c0-0.77-0.22-1.51-0.64-2.15c-0.48-0.73-0.27-1.72,0.46-2.19
			c0.73-0.48,1.72-0.27,2.2,0.46c0.75,1.15,1.15,2.49,1.16,3.87c0.01,3.93-3.18,7.13-7.1,7.14C20.55,80.27,20.54,80.27,20.54,80.27z
			"/>
		<path class="st2" d="M10.59,62.94c-4.72,0-8.57-3.84-8.59-8.57c-0.01-4.74,3.83-8.6,8.57-8.61c2.31,0,4.46,0.89,6.08,2.5
			c1.63,1.62,2.52,3.77,2.53,6.07c0,1.04-0.18,2.07-0.55,3.05c-0.31,0.82-1.23,1.23-2.04,0.93c-0.82-0.31-1.24-1.22-0.93-2.04
			c0.23-0.62,0.35-1.26,0.35-1.92c0-1.45-0.57-2.81-1.6-3.83c-1.02-1.02-2.38-1.58-3.82-1.58c-3,0.01-5.43,2.44-5.42,5.43
			c0,1.45,0.57,2.81,1.6,3.83c1.02,1.02,2.38,1.58,3.82,1.58c0.73-0.03,1.45-0.14,2.12-0.43c0.8-0.34,1.74,0.03,2.08,0.84
			c0.34,0.8-0.03,1.74-0.84,2.08c-1.06,0.45-2.19,0.68-3.35,0.68C10.6,62.94,10.59,62.94,10.59,62.94z"/>
		<path class="st2" d="M24.81,43.86c-0.84,0-1.65-0.16-2.42-0.48c-0.81-0.34-1.19-1.26-0.85-2.07c0.34-0.81,1.27-1.19,2.07-0.85
			c0.38,0.16,0.78,0.24,1.2,0.24c0.84,0,1.62-0.33,2.2-0.92c0.59-0.59,0.91-1.37,0.91-2.2c0-1.71-1.4-3.11-3.11-3.11
			c-1.72,0-3.12,1.41-3.11,3.12c0,0.38,0.07,0.76,0.21,1.12c0.32,0.82-0.09,1.74-0.9,2.05c-0.82,0.32-1.74-0.09-2.05-0.9
			c-0.28-0.73-0.43-1.49-0.43-2.26c-0.01-3.46,2.8-6.29,6.27-6.3c1.69,0,3.26,0.65,4.45,1.83c1.19,1.18,1.85,2.76,1.85,4.44
			c0,1.68-0.64,3.26-1.83,4.45c-1.18,1.19-2.76,1.85-4.44,1.85C24.82,43.86,24.81,43.86,24.81,43.86z"/>
		<path class="st2" d="M14.87,27.61c-3.83,0-6.94-3.11-6.95-6.93c0-1.86,0.71-3.61,2.02-4.92c1.31-1.32,3.05-2.04,4.91-2.05
			c0.88,0,1.59,0.71,1.59,1.58c0,0.87-0.71,1.59-1.58,1.59c-1.01,0-1.96,0.4-2.67,1.11c-0.71,0.72-1.1,1.67-1.1,2.68
			c0.01,2.08,1.7,3.77,3.78,3.77c2.1-0.01,3.79-1.71,3.78-3.79c0-1.17-0.53-2.25-1.45-2.97c-0.69-0.54-0.81-1.54-0.27-2.22
			c0.54-0.69,1.54-0.81,2.23-0.27c1.69,1.32,2.66,3.31,2.67,5.46c0.01,3.83-3.1,6.96-6.93,6.97C14.88,27.61,14.87,27.61,14.87,27.61
			z"/>
		<path class="st2" d="M28.3,27.58c-0.87,0-1.58-0.71-1.59-1.58l-0.01-3.78l-6.47,0.02c-0.88,0-1.59-0.71-1.59-1.58
			c0-0.88,0.71-1.59,1.58-1.59l8.05-0.02c0.88,0,1.59,0.71,1.59,1.58l0.01,3.78l5.28-0.01c0.88,0,1.59,0.71,1.59,1.58
			c0,0.88-0.71,1.59-1.58,1.59L28.3,27.58C28.3,27.58,28.3,27.58,28.3,27.58z"/>
		<path class="st2" d="M29.5,39.15c-0.87,0-1.58-0.71-1.59-1.58c0-0.88,0.71-1.59,1.58-1.59l5.7-0.01c0.88,0.03,1.59,0.71,1.59,1.58
			c0,0.88-0.71,1.59-1.58,1.59L29.5,39.15C29.51,39.15,29.51,39.15,29.5,39.15z"/>
		<path class="st2" d="M26.03,60.28c-0.42,0-0.82-0.17-1.12-0.46c-0.3-0.3-0.47-0.7-0.47-1.12l-0.01-2.81l-6.84,0.02
			c-0.88,0-1.59-0.71-1.59-1.58c0-0.88,0.71-1.59,1.58-1.59l8.43-0.02c0.41,0.06,0.82,0.16,1.12,0.46c0.3,0.3,0.47,0.7,0.47,1.12
			l0.01,2.81l2.78-0.01c0.88,0,1.59,0.71,1.59,1.58c0,0.88-0.71,1.59-1.58,1.59L26.03,60.28C26.04,60.28,26.04,60.28,26.03,60.28z"
			/>
		<path class="st2" d="M26.07,74.72c-0.87,0-1.58-0.71-1.59-1.58c0-0.88,0.71-1.59,1.58-1.59l10.99-0.03c0.88,0,1.59,0.71,1.59,1.58
			c0,0.88-0.71,1.59-1.58,1.59L26.07,74.72C26.08,74.72,26.07,74.72,26.07,74.72z"/>
		<path class="st2" d="M32.1,87.62c-0.87,0-1.58-0.71-1.58-1.58c0-0.88,0.71-1.59,1.58-1.59l35.96-0.09c0.88,0,1.59,0.71,1.59,1.58
			c0,0.88-0.71,1.59-1.58,1.59L32.1,87.62C32.1,87.62,32.1,87.62,32.1,87.62z"/>
	</g>
</g>
<g id="podnikatelé" class="st0">
	<g class="st1">
		<path class="st3" d="M49.58,52.08c-0.22,0-0.43,0-0.65-0.01c-9.37-0.33-17-8.41-17-18.01V20.05c0-9.73,7.91-17.64,17.64-17.64
			c9.73,0,17.64,7.91,17.64,17.64v14.4c0,4.83-1.91,9.34-5.39,12.69C58.5,50.34,54.18,52.08,49.58,52.08z M49.58,5.63
			c-7.95,0-14.42,6.47-14.42,14.42v14.01c0,7.89,6.23,14.52,13.89,14.8c3.98,0.14,7.7-1.29,10.54-4.03C62.43,42.08,64,38.4,64,34.45
			v-14.4C64,12.1,57.53,5.63,49.58,5.63z"/>
		<path class="st3" d="M54.01,19.82c-2.04,0-4.27-0.42-6.58-1.51c-7.92-3.73-12.38-1.72-12.42-1.69c-0.79,0.38-1.75,0.05-2.14-0.74
			c-0.39-0.79-0.07-1.74,0.71-2.14c0.23-0.12,5.76-2.79,15.22,1.66c7.79,3.67,14.5-2.41,14.57-2.47c0.65-0.6,1.67-0.56,2.27,0.09
			c0.6,0.65,0.56,1.67-0.09,2.27C65.3,15.52,60.56,19.82,54.01,19.82z"/>
		<path class="st3" d="M66.06,32.18c-0.26,0-0.51-0.03-0.75-0.08C64.55,31.96,64,31.3,64,30.53l-0.02-10.86
			c-0.02-0.78,0.52-1.47,1.29-1.62c0.26-0.05,0.52-0.08,0.79-0.08c2.94,0,5.24,3.12,5.24,7.11C71.3,29.06,69,32.18,66.06,32.18z
			 M67.21,21.97v6.17c0.51-0.7,0.87-1.8,0.87-3.06C68.09,23.79,67.71,22.67,67.21,21.97z"/>
		<path class="st3" d="M33.09,32.18c-2.94,0-5.24-3.12-5.24-7.11c0-3.99,2.3-7.11,5.24-7.11c0.27,0,0.53,0.03,0.79,0.08
			c0.77,0.15,1.31,0.84,1.29,1.62l-0.01,0.26l-0.01,10.6c0,0.77-0.55,1.44-1.31,1.58C33.6,32.15,33.35,32.18,33.09,32.18z
			 M31.94,21.97c-0.5,0.7-0.87,1.82-0.87,3.11c0,1.29,0.37,2.4,0.87,3.11V21.97z"/>
		<path class="st3" d="M50,61.99c-4.9,0-8.59-2.19-8.59-5.1v-7.86c0-0.55,0.28-1.06,0.74-1.35c0.46-0.3,1.04-0.33,1.54-0.11
			c1.7,0.78,3.5,1.21,5.35,1.28c2.49,0.09,4.98-0.47,7.19-1.62c0.5-0.26,1.1-0.24,1.58,0.05c0.48,0.29,0.77,0.81,0.77,1.37v8.23
			C58.59,59.8,54.9,61.99,50,61.99z M44.63,51.36v5.53c0,0.48,1.85,1.88,5.37,1.88s5.37-1.4,5.37-1.88V51.1
			c-2.06,0.72-4.26,1.04-6.44,0.97C47.47,52.02,46.02,51.78,44.63,51.36z"/>
		<path class="st3" d="M82.63,97.59H17.37c-0.49,0-0.95-0.22-1.26-0.6c-0.3-0.38-0.42-0.88-0.31-1.36l6.41-28.57
			c1.1-4.92,4.82-8.77,9.71-10.04l10.7-2.78c0.48-0.12,0.99-0.02,1.39,0.28c0.39,0.3,0.62,0.77,0.62,1.27v1.09
			c0,0.48,1.85,1.88,5.37,1.88s5.37-1.4,5.37-1.88V55.8c0-0.5,0.23-0.97,0.62-1.27c0.39-0.3,0.91-0.41,1.39-0.28l10.7,2.78
			c4.88,1.27,8.6,5.11,9.71,10.04c0,0,6.41,28.57,6.41,28.57c0.11,0.48-0.01,0.98-0.31,1.36C83.58,97.37,83.12,97.59,82.63,97.59z
			 M19.38,94.37h61.25l-5.97-26.61c-0.84-3.74-3.67-6.66-7.38-7.63l-8.83-2.29c-0.71,2.42-4.1,4.15-8.45,4.15
			c-4.35,0-7.74-1.73-8.45-4.15l-8.82,2.29c-3.71,0.96-6.54,3.89-7.38,7.63L19.38,94.37z"/>
		<path class="st3" d="M66.83,97.59c-0.78,0-1.46-0.56-1.59-1.35l-2.56-15.85c-0.14-0.88,0.45-1.7,1.33-1.84
			c0.88-0.15,1.7,0.45,1.84,1.33l2.56,15.85c0.14,0.88-0.45,1.7-1.33,1.84C67,97.58,66.91,97.59,66.83,97.59z"/>
		<path class="st3" d="M33.17,97.59c-0.09,0-0.17-0.01-0.26-0.02c-0.88-0.14-1.47-0.97-1.33-1.84l2.56-15.85
			c0.14-0.88,0.97-1.47,1.84-1.33c0.88,0.14,1.47,0.97,1.33,1.84l-2.56,15.85C34.63,97.03,33.95,97.59,33.17,97.59z"/>
		<path class="st3" d="M50,93.36c-0.39,0-0.77-0.14-1.08-0.41l-4.1-3.69c-0.4-0.36-0.59-0.9-0.51-1.43l4.1-27.67
			c0.12-0.79,0.79-1.37,1.59-1.37c0.8,0,1.47,0.58,1.59,1.37l4.1,27.67c0.08,0.53-0.11,1.07-0.51,1.43l-4.1,3.69
			C50.77,93.22,50.39,93.36,50,93.36z M47.62,87.44L50,89.58l2.38-2.14L50,71.36L47.62,87.44z"/>
		<path class="st3" d="M86.13,97.59H13.87c-0.89,0-1.61-0.72-1.61-1.61c0-0.89,0.72-1.61,1.61-1.61h72.25
			c0.89,0,1.61,0.72,1.61,1.61C87.73,96.87,87.01,97.59,86.13,97.59z"/>
	</g>
</g>
<g id="sportovci" class="st0">
	<path class="st4" d="M90.66,44.66h-1.35v-8.07c0-0.9-0.74-1.64-1.64-1.64h-7.85v-4.67c0-0.92-0.72-1.64-1.64-1.64H68.7
		c-0.9,0-1.64,0.72-1.64,1.64v14.37H32.95V30.29c0-0.92-0.74-1.64-1.64-1.64h-9.48c-0.92,0-1.64,0.72-1.64,1.64v4.67h-7.85
		c-0.9,0-1.64,0.74-1.64,1.64v8.07H9.34C6.4,44.66,4,47.06,4,50s2.4,5.34,5.34,5.34h1.35v8.07c0,0.9,0.74,1.64,1.64,1.64h7.85v4.67
		c0,0.9,0.72,1.64,1.64,1.64h9.48c0.9,0,1.64-0.74,1.64-1.64V55.34h34.11v14.38c0,0.9,0.74,1.64,1.64,1.64h9.48
		c0.92,0,1.64-0.74,1.64-1.64v-4.67h7.85c0.9,0,1.64-0.74,1.64-1.64v-8.07h1.35c2.94,0,5.34-2.4,5.34-5.34S93.6,44.66,90.66,44.66z
		 M9.34,52.05c-1.13,0-2.05-0.92-2.05-2.05s0.92-2.05,2.05-2.05h1.35v4.11H9.34z M13.97,61.76v-6.42v-3.29v-4.11v-3.29v-6.42h6.21
		v6.42v3.29v4.11v3.29v6.42H13.97z M29.66,68.07h-6.19v-4.67v-8.07v-3.29v-4.11v-3.29v-8.07v-4.67h6.19v12.73v3.29v4.11v3.29V68.07z
		 M32.95,52.05v-4.11h34.11v4.11H32.95z M76.53,68.07h-6.19V55.34v-3.29v-4.11v-3.29V31.93h6.19v4.67v8.07v3.29v4.11v3.29v8.07
		V68.07z M86.03,61.76h-6.21v-6.42v-3.29v-4.11v-3.29v-6.42h6.21v6.42v3.29v4.11v3.29V61.76z M90.66,52.05h-1.35v-4.11h1.35
		c1.13,0,2.05,0.92,2.05,2.05S91.79,52.05,90.66,52.05z"/>
</g>
<g id="AGRO" class="st0">
	<path class="st5" d="M43.72,84.54c3.23,0,6.52-0.33,9.84-0.99c0.25,0.1,0.52,0.16,0.8,0.16c0.03,0,0.06,0,0.09,0
		c16.24-0.67,30.58-9.11,38.36-22.57c7.78-13.47,7.94-30.1,0.41-44.51c-0.39-0.75-1.18-1.21-2.03-1.17
		c-16.24,0.67-30.58,9.11-38.36,22.57c-0.69,1.19-1.31,2.4-1.87,3.63c-0.99-1.27-2.06-2.48-3.21-3.63
		C36.96,27.24,20.79,23.34,4.49,27.59c-0.77,0.2-1.36,0.8-1.56,1.56c-4.26,16.3-0.36,32.47,10.44,43.26
		C21.28,80.34,32.09,84.54,43.72,84.54z M6.85,31.52c14.35-3.35,28.4,0.2,37.8,9.61c1.66,1.66,3.13,3.46,4.41,5.38
		c-2.37,7.32-2.81,15.16-1.3,22.84L24.8,46.37c-0.85-0.85-2.24-0.85-3.1,0c-0.85,0.85-0.85,2.24,0,3.1l28.7,28.7
		c0.19,0.47,0.39,0.94,0.59,1.4c-13.19,2.13-25.85-1.55-34.54-10.24C7.05,59.92,3.51,45.86,6.85,31.52z M66.12,29.15l5.22,18.61
		l-7.49,12.96l-6.14-21.9c-0.02-0.08-0.05-0.16-0.08-0.23C59.95,34.98,62.82,31.81,66.12,29.15z M58.74,78.93
		c-0.13,0.02-0.26,0.04-0.39,0.06l0.59-1.02l5.62-9.72l22.07-5.64C80.1,71.47,70.11,77.33,58.74,78.93z M94.34,40.64
		c-0.21-0.01-0.42,0.01-0.63,0.07l-15.52,3.97l12.89-22.3C93.52,28.29,94.61,34.53,94.34,40.64z M89.7,57.3l-22.08,5.64l7.5-12.97
		l18.76-4.8c-0.66,4.18-1.97,8.26-3.94,12.08C89.86,57.26,89.78,57.28,89.7,57.3z M87.27,20.19L74.4,42.47l-4.32-15.41
		c-0.06-0.21-0.15-0.4-0.25-0.57C74.98,23.2,80.92,21.03,87.27,20.19z M53.9,45.95c0.23-0.61,0.48-1.21,0.75-1.81l2.2,7.86
		l2.32,8.26l1.62,5.77l-0.92,1.58l-2.3,3.98l-2.77,4.79l-0.03,0.05l-0.21,0.36c-0.15-0.36-0.29-0.71-0.43-1.07
		c-2.96-7.74-3.63-15.94-2.02-23.67c0.23-1.11,0.51-2.21,0.84-3.3C53.24,47.8,53.55,46.87,53.9,45.95z"/>
</g>
<g id="pravni_ochrana" class="st0">
	<g class="st1">
		<path class="st2" d="M81.48,97.61H18.52c-3.75,0-6.79-3.05-6.79-6.79s3.05-6.79,6.79-6.79h62.96c3.75,0,6.79,3.05,6.79,6.79
			S85.22,97.61,81.48,97.61z M18.52,87.16c-2.02,0-3.66,1.64-3.66,3.66c0,2.02,1.64,3.66,3.66,3.66h62.96
			c2.02,0,3.66-1.64,3.66-3.66c0-2.02-1.64-3.66-3.66-3.66H18.52z"/>
		<path class="st2" d="M50,20.81c-5.08,0-9.21-4.13-9.21-9.21c0-5.08,4.13-9.21,9.21-9.21s9.21,4.13,9.21,9.21
			C59.21,16.68,55.08,20.81,50,20.81z M50,5.53c-3.35,0-6.07,2.72-6.07,6.07c0,3.35,2.72,6.07,6.07,6.07s6.07-2.72,6.07-6.07
			C56.07,8.25,53.35,5.53,50,5.53z"/>
		<path class="st2" d="M53.66,87.16h-7.31c-0.87,0-1.57-0.7-1.57-1.57V18.27c0-0.55,0.29-1.07,0.77-1.35
			c0.48-0.28,1.07-0.29,1.55-0.02c1.88,1.03,3.93,1.03,5.8,0c0.49-0.27,1.08-0.26,1.55,0.02c0.48,0.28,0.77,0.79,0.77,1.35v19.07
			c0,0.87-0.7,1.57-1.57,1.57c-0.87,0-1.57-0.7-1.57-1.57V20.56c-1.37,0.34-2.81,0.34-4.18,0v63.47h4.18V71.82
			c0-0.87,0.7-1.57,1.57-1.57c0.87,0,1.57,0.7,1.57,1.57v13.78C55.22,86.46,54.52,87.16,53.66,87.16z"/>
		<path class="st2" d="M53.66,85c-0.87,0-1.57-5.19-1.57-11.6V38.6c0-6.41,0.7-11.6,1.57-11.6c0.87,0,1.57,5.19,1.57,11.6v34.8
			C55.22,79.81,54.52,85,53.66,85z"/>
		<path class="st2" d="M84.58,18.32c-3.71,0-6.73-3.02-6.73-6.73c0-3.71,3.02-6.73,6.73-6.73c3.71,0,6.73,3.02,6.73,6.73
			C91.31,15.31,88.29,18.32,84.58,18.32z M84.58,8.01c-1.98,0-3.59,1.61-3.59,3.59c0,1.98,1.61,3.59,3.59,3.59
			c1.98,0,3.59-1.61,3.59-3.59C88.17,9.62,86.56,8.01,84.58,8.01z"/>
		<path class="st2" d="M81.02,16.89H56.63c-0.56,0-1.07-0.3-1.35-0.78c-0.28-0.48-0.29-1.07-0.01-1.56
			c0.53-0.95,0.81-1.95,0.81-2.95c0-1.01-0.27-2-0.81-2.95C54.99,8.16,55,7.57,55.28,7.09c0.28-0.48,0.8-0.78,1.35-0.78h24.39
			c0.64,0,1.22,0.39,1.45,0.98c0.24,0.59,0.09,1.27-0.37,1.72c-0.72,0.69-1.12,1.61-1.12,2.59c0,0.98,0.4,1.9,1.12,2.59
			c0.46,0.44,0.61,1.12,0.37,1.72C82.24,16.5,81.66,16.89,81.02,16.89z M58.94,13.75h19.27c-0.23-0.68-0.35-1.41-0.35-2.16
			c0-0.75,0.12-1.47,0.35-2.16H58.94c0.18,0.71,0.27,1.43,0.27,2.16C59.21,12.33,59.12,13.05,58.94,13.75z"/>
		<path class="st2" d="M15.42,18.32c-3.71,0-6.73-3.02-6.73-6.73c0-3.71,3.02-6.73,6.73-6.73c3.71,0,6.73,3.02,6.73,6.73
			C22.15,15.31,19.13,18.32,15.42,18.32z M15.42,8.01c-1.98,0-3.59,1.61-3.59,3.59c0,1.98,1.61,3.59,3.59,3.59
			c1.98,0,3.59-1.61,3.59-3.59C19.01,9.62,17.4,8.01,15.42,8.01z"/>
		<path class="st2" d="M43.37,16.89H18.98c-0.64,0-1.22-0.39-1.45-0.98c-0.24-0.59-0.09-1.27,0.37-1.72
			c0.72-0.69,1.12-1.61,1.12-2.59c0-0.98-0.4-1.9-1.12-2.59c-0.46-0.44-0.61-1.12-0.37-1.72c0.24-0.6,0.81-0.98,1.45-0.98h24.39
			c0.56,0,1.07,0.3,1.35,0.78C45,7.57,45,8.16,44.73,8.65c-0.53,0.95-0.81,1.94-0.81,2.95c0,1.01,0.27,2,0.81,2.95
			c0.27,0.49,0.27,1.08-0.01,1.56C44.44,16.59,43.92,16.89,43.37,16.89z M21.79,13.75h19.27c-0.18-0.71-0.27-1.43-0.27-2.16
			c0-0.73,0.09-1.45,0.27-2.16H21.79c0.23,0.68,0.35,1.41,0.35,2.16C22.15,12.34,22.03,13.07,21.79,13.75z"/>
		<path class="st2" d="M84.58,54.91c-7.19,0-13.04-5.85-13.04-13.04c0-0.87,0.7-1.57,1.57-1.57h22.94c0.87,0,1.57,0.7,1.57,1.57
			C97.62,49.06,91.77,54.91,84.58,54.91z M74.8,43.44c0.75,4.72,4.85,8.34,9.78,8.34c4.93,0,9.03-3.62,9.78-8.34H74.8z"/>
		<path class="st2" d="M96.05,43.44c-0.59,0-1.16-0.34-1.43-0.92L84.58,20.53L74.53,42.52c-0.36,0.79-1.29,1.13-2.08,0.77
			c-0.79-0.36-1.13-1.29-0.77-2.08l11.47-25.11c0.25-0.56,0.81-0.92,1.43-0.92c0.61,0,1.17,0.36,1.43,0.92l11.47,25.11
			c0.36,0.79,0.01,1.72-0.77,2.08C96.49,43.39,96.27,43.44,96.05,43.44z"/>
		<path class="st2" d="M15.42,54.91c-7.19,0-13.04-5.85-13.04-13.04c0-0.87,0.7-1.57,1.57-1.57h22.94c0.87,0,1.57,0.7,1.57,1.57
			C28.46,49.06,22.61,54.91,15.42,54.91z M5.64,43.44c0.75,4.72,4.85,8.34,9.78,8.34c4.93,0,9.03-3.62,9.78-8.34H5.64z"/>
		<path class="st2" d="M26.89,43.44c-0.59,0-1.16-0.34-1.43-0.92L15.42,20.53L5.37,42.52c-0.36,0.79-1.29,1.13-2.08,0.77
			c-0.79-0.36-1.13-1.29-0.77-2.08l11.47-25.11c0.25-0.56,0.81-0.92,1.43-0.92c0.61,0,1.17,0.36,1.43,0.92l11.47,25.11
			c0.36,0.79,0.01,1.72-0.77,2.08C27.33,43.39,27.11,43.44,26.89,43.44z"/>
	</g>
</g>
<g id="spotrebitelske_na_bydleni" class="st0">
	<path class="st6" d="M80.99,91.6c1.7,0,3.08-1.37,3.08-3.07V55.66h8.08h0.01c2.95,0,5.34-2.39,5.34-5.34c0-1.68-0.78-3.19-2-4.17
		L85.04,37.1V22.03c0-1.76-1.43-3.19-3.19-3.19h-6.6c-1.76,0-3.19,1.43-3.19,3.19v3.8L53.5,9.71c-2.01-1.74-4.99-1.74-7,0
		L4.35,46.29c-1.68,1.46-2.28,3.81-1.5,5.9c0.78,2.08,2.78,3.47,5,3.47c2.02,0,8.08,0,8.08,0v32.86c0,1.7,1.38,3.07,3.08,3.07h18.16
		V67.71c0-3.38,2.74-6.12,6.11-6.12h13.44c3.38,0,6.12,2.74,6.12,6.12V91.6H80.99z"/>
</g>
<g id="konsolidace" class="st0">
	<g class="st1">
		<path class="st3" d="M42.96,29.52c-3.72,0-6.75-3.03-6.75-6.75c0-3.72,3.03-6.75,6.75-6.75c3.72,0,6.75,3.03,6.75,6.75
			C49.71,26.49,46.68,29.52,42.96,29.52z M42.96,19.09c-2.03,0-3.68,1.65-3.68,3.68c0,2.03,1.65,3.68,3.68,3.68
			c2.03,0,3.68-1.65,3.68-3.68C46.64,20.74,44.99,19.09,42.96,19.09z"/>
		<path class="st3" d="M54.12,45.54c-0.85,0-1.54-0.69-1.54-1.54v-6.03c0-2.27-1.84-4.11-4.11-4.11H37.45
			c-2.27,0-4.11,1.84-4.11,4.11V44c0,0.85-0.69,1.54-1.54,1.54c-0.85,0-1.54-0.69-1.54-1.54v-6.03c0-3.96,3.22-7.18,7.18-7.18h11.03
			c3.96,0,7.18,3.22,7.18,7.18V44C55.66,44.85,54.97,45.54,54.12,45.54z"/>
		<path class="st3" d="M38.16,45.54c-0.85,0-1.54-0.69-1.54-1.54v-2.16c0-0.85,0.69-1.54,1.54-1.54c0.85,0,1.54,0.69,1.54,1.54V44
			C39.69,44.85,39.01,45.54,38.16,45.54z"/>
		<path class="st3" d="M47.77,45.54c-0.85,0-1.54-0.69-1.54-1.54v-2.16c0-0.85,0.69-1.54,1.54-1.54c0.85,0,1.54,0.69,1.54,1.54V44
			C49.31,44.85,48.62,45.54,47.77,45.54z"/>
		<path class="st3" d="M63.3,51.3H22.62c-0.85,0-1.54-0.69-1.54-1.54c0-0.85,0.69-1.54,1.54-1.54H63.3c0.85,0,1.54,0.69,1.54,1.54
			C64.84,50.61,64.15,51.3,63.3,51.3z"/>
		<path class="st3" d="M63.3,59.35H22.62c-0.85,0-1.54-0.69-1.54-1.54c0-0.85,0.69-1.54,1.54-1.54H63.3c0.85,0,1.54,0.69,1.54,1.54
			C64.84,58.67,64.15,59.35,63.3,59.35z"/>
		<path class="st3" d="M67.81,67.41H22.62c-0.85,0-1.54-0.69-1.54-1.54s0.69-1.54,1.54-1.54h45.19c0.85,0,1.54,0.69,1.54,1.54
			S68.66,67.41,67.81,67.41z"/>
		<path class="st3" d="M59,75.47H22.62c-0.85,0-1.54-0.69-1.54-1.54c0-0.85,0.69-1.54,1.54-1.54H59c0.85,0,1.54,0.69,1.54,1.54
			C60.53,74.79,59.85,75.47,59,75.47z"/>
		<path class="st3" d="M58.19,83.53H22.62c-0.85,0-1.54-0.69-1.54-1.54c0-0.85,0.69-1.54,1.54-1.54h35.57
			c0.85,0,1.54,0.69,1.54,1.54C59.73,82.85,59.04,83.53,58.19,83.53z"/>
		<path class="st3" d="M66.84,93.93H13.92c-0.85,0-1.54-0.69-1.54-1.54V12.31c0-0.85,0.69-1.54,1.54-1.54H72
			c0.85,0,1.54,0.69,1.54,1.54v52.93c0,0.85-0.69,1.54-1.54,1.54c-6.91,0-12.54,5.62-12.54,12.53c0,5.18,3.12,9.75,7.94,11.65
			c0.69,0.27,1.08,0.99,0.94,1.71C68.21,93.41,67.58,93.93,66.84,93.93z M15.46,90.86H61.5c-3.2-2.89-5.1-7.04-5.1-11.55
			c0-8.09,6.18-14.76,14.07-15.53V13.84H15.46V90.86z"/>
		<path class="st3" d="M72,94.92c-8.61,0-15.61-7-15.61-15.61c0-8.61,7-15.61,15.61-15.61c8.61,0,15.61,7,15.61,15.61
			C87.61,87.92,80.61,94.92,72,94.92z M72,66.78c-6.91,0-12.54,5.62-12.54,12.53c0,6.91,5.62,12.54,12.54,12.54
			c6.91,0,12.54-5.62,12.54-12.54C84.54,72.4,78.92,66.78,72,66.78z"/>
		<path class="st3" d="M70.59,86.7c-0.5-0.01-0.95-0.24-1.24-0.63l-5.47-7.48c-0.5-0.68-0.35-1.64,0.33-2.15
			c0.69-0.5,1.64-0.35,2.15,0.33l4.26,5.83l6.57-8.55c0.52-0.67,1.48-0.8,2.15-0.28c0.67,0.52,0.8,1.48,0.28,2.15L71.81,86.1
			C71.52,86.48,71.07,86.7,70.59,86.7z"/>
		<path class="st3" d="M78.41,68.33c-0.24,0-0.48-0.06-0.7-0.17C75.92,67.24,74,66.78,72,66.78c-0.85,0-1.54-0.69-1.54-1.54v-51.4
			H20.33c-0.85,0-1.54-0.69-1.54-1.54V6.62c0-0.85,0.69-1.54,1.54-1.54h58.08c0.85,0,1.54,0.69,1.54,1.54V66.8
			c0,0.54-0.28,1.03-0.73,1.31C78.97,68.26,78.69,68.33,78.41,68.33z M73.54,63.78c1.14,0.11,2.25,0.35,3.34,0.71V8.15H21.87v2.62
			H72c0.85,0,1.54,0.69,1.54,1.54V63.78z"/>
	</g>
</g>
<g id="odnikatelske_pujcky" class="st0">
	<g class="st1">
		<path class="st2" d="M67.39,96.09H18.82c-3.21,0-5.82-2.61-5.82-5.82V23.11c0-3.21,2.61-5.82,5.82-5.82h48.57
			c3.21,0,5.82,2.61,5.82,5.82v67.16C73.22,93.48,70.61,96.09,67.39,96.09z M18.82,20.26c-1.57,0-2.85,1.28-2.85,2.85v67.16
			c0,1.57,1.28,2.85,2.85,2.85h48.57c1.57,0,2.85-1.28,2.85-2.85V23.11c0-1.57-1.28-2.85-2.85-2.85H18.82z"/>
		<path class="st2" d="M43.11,41.74c-5.06,0-9.18-4.12-9.18-9.17c0-5.06,4.12-9.18,9.18-9.18c5.06,0,9.17,4.12,9.17,9.18
			C52.28,37.62,48.17,41.74,43.11,41.74z M43.11,26.36c-3.42,0-6.2,2.78-6.2,6.2s2.78,6.2,6.2,6.2c3.42,0,6.2-2.78,6.2-6.2
			S46.53,26.36,43.11,26.36z"/>
		<path class="st2" d="M57.73,60.77H28.49c-0.82,0-1.49-0.67-1.49-1.49V50.7c0-4.9,3.99-8.88,8.88-8.88h0.46
			c1.07,0,2.05,0.43,2.69,1.19l4.07,5.38l4.02-5.32c0.69-0.82,1.67-1.26,2.74-1.26h0.46c4.9,0,8.88,3.99,8.88,8.88v8.58
			C59.22,60.1,58.55,60.77,57.73,60.77z M29.97,57.79h26.27V50.7c0-3.26-2.65-5.91-5.91-5.91h-0.46c-0.21,0-0.36,0.07-0.42,0.14
			l-5.16,6.83c-0.56,0.74-1.81,0.74-2.37,0l-5.21-6.89c-0.01-0.01-0.16-0.08-0.37-0.08h-0.46c-3.26,0-5.91,2.65-5.91,5.91V57.79z"/>
		<path class="st2" d="M63.99,70.69H22.23c-0.82,0-1.49-0.67-1.49-1.49c0-0.82,0.67-1.49,1.49-1.49h41.76
			c0.82,0,1.49,0.67,1.49,1.49C65.47,70.03,64.81,70.69,63.99,70.69z"/>
		<path class="st2" d="M63.99,78.75H22.23c-0.82,0-1.49-0.67-1.49-1.49c0-0.82,0.67-1.49,1.49-1.49h41.76
			c0.82,0,1.49,0.67,1.49,1.49C65.47,78.08,64.81,78.75,63.99,78.75z"/>
		<path class="st2" d="M63.99,86.8H22.23c-0.82,0-1.49-0.67-1.49-1.49c0-0.82,0.67-1.49,1.49-1.49h41.76c0.82,0,1.49,0.67,1.49,1.49
			C65.47,86.13,64.81,86.8,63.99,86.8z"/>
		<path class="st2" d="M81.18,82.71h-2.55c-0.82,0-1.49-0.67-1.49-1.49v-64.8c0-1.57-1.28-2.85-2.85-2.85H28.27
			c-0.82,0-1.49-0.67-1.49-1.49V9.73c0-3.21,2.61-5.82,5.82-5.82h48.57c3.21,0,5.82,2.61,5.82,5.82v67.16
			C87,80.1,84.39,82.71,81.18,82.71z M80.11,79.74h1.07c1.57,0,2.85-1.28,2.85-2.85V9.73c0-1.57-1.28-2.85-2.85-2.85H32.61
			c-1.57,0-2.85,1.28-2.85,2.85v0.87h44.53c3.21,0,5.82,2.61,5.82,5.82V79.74z"/>
		<path class="st2" d="M74.29,89.4h-2.55c-0.82,0-1.49-0.67-1.49-1.49v-64.8c0-1.57-1.28-2.85-2.85-2.85H21.38
			c-0.82,0-1.49-0.67-1.49-1.49v-2.35c0-3.21,2.61-5.82,5.82-5.82h48.57c3.21,0,5.82,2.61,5.82,5.82v67.16
			C80.11,86.79,77.5,89.4,74.29,89.4z M73.22,86.43h1.07c1.57,0,2.85-1.28,2.85-2.85V16.42c0-1.57-1.28-2.85-2.85-2.85H25.71
			c-1.57,0-2.85,1.28-2.85,2.85v0.87h44.53c3.21,0,5.82,2.61,5.82,5.82V86.43z"/>
	</g>
</g>
<g id="uvery_ze_stavebniho_sporeni" class="st0">
	<g class="st1">
		<path class="st7" d="M79.36,94.23c1.61,0,2.91-1.3,2.91-2.91V60.17h7.65h0.01c2.79,0,5.06-2.27,5.06-5.06
			c0-1.6-0.74-3.02-1.9-3.95l-9.9-8.58V28.3c0-1.67-1.35-3.03-3.02-3.03h-6.26c-1.67,0-3.03,1.36-3.03,3.03v3.6L53.31,16.63
			c-1.9-1.65-4.73-1.65-6.63,0L6.74,51.3c-1.59,1.38-2.16,3.61-1.42,5.59c0.74,1.98,2.63,3.29,4.74,3.29c1.91,0,7.66,0,7.66,0v31.14
			c0,1.61,1.31,2.91,2.91,2.91h17.21V71.59c0-3.2,2.59-5.8,5.79-5.8h12.74c3.2,0,5.8,2.59,5.8,5.8v22.64H79.36z"/>
		<path class="st3" d="M73.85,14.52c-0.2,0.17-0.49,0.21-0.74,0.09l-0.61-0.3c-0.34-0.17-0.48-0.58-0.32-0.92
			c0.17-0.34,0.58-0.48,0.92-0.32l0.61,0.3c0.34,0.17,0.48,0.58,0.32,0.92C73.99,14.38,73.92,14.46,73.85,14.52z"/>
		<path class="st3" d="M80.9,20.9c-2.07,1.7-5.02,2.14-7.58,0.9c-3.5-1.71-4.95-5.94-3.25-9.43c1.71-3.5,5.94-4.95,9.43-3.25
			c3.5,1.71,4.95,5.94,3.25,9.43C82.3,19.48,81.66,20.27,80.9,20.9z M72.81,11.07c-0.61,0.5-1.12,1.14-1.49,1.89
			c-1.37,2.81-0.2,6.22,2.61,7.59c2.81,1.37,6.22,0.2,7.59-2.61c1.37-2.81,0.2-6.22-2.61-7.59C76.85,9.34,74.47,9.7,72.81,11.07z"/>
		<path class="st3" d="M79.36,18.08c-0.21,0.17-0.44,0.3-0.69,0.4c-0.61,0.24-1.27,0.21-1.84-0.07c-0.34-0.17-0.48-0.58-0.32-0.92
			c0.17-0.34,0.58-0.48,0.92-0.32c0.23,0.11,0.49,0.12,0.74,0.02c0.27-0.1,0.49-0.31,0.62-0.58c0.13-0.27,0.16-0.57,0.08-0.85
			c-0.08-0.26-0.25-0.46-0.48-0.57c-0.23-0.11-0.49-0.12-0.74-0.02c-0.27,0.1-0.49,0.31-0.62,0.58c-0.6,1.23-2.04,1.76-3.21,1.19
			c-1.17-0.57-1.63-2.04-1.03-3.26c0.6-1.23,2.04-1.76,3.21-1.19c0.34,0.17,0.48,0.58,0.32,0.92c-0.17,0.34-0.58,0.48-0.92,0.32
			c-0.49-0.24-1.1,0.01-1.37,0.56c-0.27,0.55-0.09,1.18,0.4,1.42c0.49,0.24,1.1-0.01,1.37-0.56c0.29-0.59,0.77-1.04,1.37-1.26
			c0.61-0.24,1.27-0.21,1.84,0.07c0.57,0.28,1,0.78,1.19,1.41c0.19,0.61,0.13,1.27-0.15,1.86C79.87,17.56,79.64,17.85,79.36,18.08z"
			/>
		<path class="st3" d="M80.55,17.78c-0.2,0.17-0.49,0.21-0.74,0.09l-0.69-0.34c-0.34-0.17-0.48-0.58-0.32-0.92
			c0.17-0.34,0.58-0.48,0.92-0.32l0.69,0.34c0.34,0.17,0.48,0.58,0.32,0.92C80.68,17.65,80.62,17.72,80.55,17.78z"/>
		<path class="st3" d="M25.56,33.85c-0.05,0.05-0.12,0.08-0.19,0.11c-0.35,0.14-0.75-0.04-0.89-0.39c-1.09-2.8-4.18-4.26-7.04-3.34
			c-2.98,0.96-4.62,4.17-3.65,7.15c0.4,1.25,1.24,2.33,2.35,3.04c0.32,0.2,0.41,0.63,0.21,0.95c-0.2,0.32-0.63,0.41-0.95,0.21
			c-1.38-0.88-2.41-2.22-2.92-3.77c-1.2-3.7,0.84-7.69,4.54-8.89c3.55-1.15,7.4,0.67,8.75,4.15C25.87,33.36,25.78,33.67,25.56,33.85
			z"/>
		<path class="st3" d="M22.86,36.08c-0.15,0.13-0.36,0.19-0.57,0.14c-0.37-0.07-0.62-0.44-0.54-0.81c0.04-0.19,0.03-0.4-0.04-0.6
			c-0.19-0.58-0.76-0.91-1.27-0.75c-0.52,0.17-0.78,0.77-0.59,1.35c0.2,0.62,0.16,1.28-0.11,1.86c-0.28,0.59-0.77,1.03-1.37,1.23
			c-0.61,0.2-1.26,0.13-1.83-0.19c-0.56-0.31-0.98-0.82-1.18-1.44c-0.42-1.3,0.24-2.69,1.48-3.09c0.36-0.12,0.75,0.08,0.87,0.44
			c0.12,0.36-0.08,0.75-0.44,0.87c-0.51,0.17-0.78,0.77-0.59,1.35c0.09,0.29,0.28,0.52,0.53,0.66c0.24,0.13,0.5,0.16,0.74,0.08
			c0.24-0.08,0.44-0.25,0.55-0.5c0.12-0.26,0.14-0.56,0.04-0.85c-0.42-1.3,0.24-2.69,1.48-3.09c1.24-0.4,2.59,0.33,3.01,1.63
			c0.14,0.42,0.16,0.86,0.08,1.29C23.07,35.84,22.98,35.98,22.86,36.08z"/>
		<path class="st3" d="M16.45,37.2c-0.06,0.05-0.14,0.1-0.22,0.12l-0.73,0.24c-0.36,0.12-0.75-0.08-0.87-0.44
			c-0.12-0.36,0.08-0.75,0.44-0.87l0.73-0.24c0.36-0.12,0.75,0.08,0.87,0.44C16.75,36.73,16.66,37.02,16.45,37.2z"/>
		<path class="st3" d="M27.14,16.78c-0.19,0.16-0.46,0.2-0.7,0.11c-0.35-0.14-0.52-0.55-0.38-0.9l0.29-0.71
			c0.14-0.35,0.55-0.52,0.9-0.38c0.35,0.14,0.52,0.55,0.38,0.9l-0.29,0.71C27.29,16.61,27.22,16.71,27.14,16.78z"/>
		<path class="st3" d="M30.31,25.89c-2.18,1.79-5.25,2.36-8.04,1.23c-4.05-1.65-6.01-6.29-4.36-10.34
			c1.65-4.05,6.29-6.01,10.34-4.36c1.96,0.8,3.5,2.32,4.32,4.27c0.82,1.95,0.84,4.11,0.04,6.07C32.1,24.02,31.3,25.08,30.31,25.89z
			 M21.09,14.71c-0.81,0.67-1.48,1.54-1.9,2.59c-1.36,3.35,0.25,7.18,3.6,8.55c3.35,1.36,7.18-0.25,8.55-3.6
			c0.66-1.62,0.65-3.41-0.03-5.02c-0.68-1.61-1.95-2.87-3.57-3.53C25.43,12.76,22.89,13.23,21.09,14.71z"/>
		<path class="st3" d="M26.35,23.54c-0.73,0.6-1.8,0.79-2.78,0.39c-0.67-0.27-1.2-0.77-1.49-1.41c-0.3-0.65-0.32-1.37-0.06-2.02
			c0.14-0.35,0.55-0.52,0.9-0.38c0.35,0.14,0.52,0.55,0.38,0.9c-0.12,0.29-0.11,0.62,0.03,0.92c0.15,0.32,0.42,0.57,0.76,0.71
			c0.69,0.28,1.46,0.01,1.71-0.61c0.12-0.29,0.11-0.62-0.03-0.92c-0.15-0.32-0.42-0.57-0.76-0.71c-0.67-0.27-1.2-0.77-1.49-1.41
			c-0.3-0.65-0.32-1.37-0.06-2.02c0.26-0.65,0.78-1.15,1.45-1.4c0.66-0.25,1.38-0.24,2.05,0.03c1.39,0.57,2.09,2.11,1.55,3.43
			c-0.14,0.35-0.55,0.52-0.9,0.38c-0.35-0.14-0.52-0.55-0.38-0.9c0.25-0.62-0.1-1.35-0.79-1.63c-0.34-0.14-0.71-0.15-1.04-0.02
			c-0.31,0.12-0.55,0.34-0.67,0.64c-0.12,0.29-0.11,0.62,0.03,0.92c0.15,0.32,0.42,0.57,0.76,0.71c0.67,0.27,1.2,0.77,1.49,1.41
			c0.3,0.65,0.32,1.37,0.06,2.02C26.91,22.95,26.66,23.28,26.35,23.54z"/>
		<path class="st3" d="M23.94,24.63c-0.19,0.16-0.46,0.2-0.7,0.11c-0.35-0.14-0.52-0.55-0.38-0.9l0.33-0.81
			c0.14-0.35,0.55-0.52,0.9-0.38c0.35,0.14,0.52,0.55,0.38,0.9l-0.33,0.81C24.09,24.47,24.02,24.56,23.94,24.63z"/>
	</g>
</g>
<g id="rezervotvorná_pojištění" class="st0">
	<g class="st1">
		<path class="st3" d="M45.22,95.61H18.02c-0.88,0-1.6-0.72-1.6-1.6V55.49c0-0.88,0.72-1.6,1.6-1.6h27.21c0.88,0,1.6,0.72,1.6,1.6
			v38.52C46.82,94.89,46.11,95.61,45.22,95.61z M19.61,92.41h24.01V57.09H19.61V92.41z"/>
		<path class="st3" d="M45.22,57.09H18.02c-0.4,0-0.78-0.15-1.08-0.42L3.52,44.4c-0.49-0.45-0.65-1.14-0.41-1.76
			c0.24-0.61,0.83-1.02,1.49-1.02h27.21c0.4,0,0.78,0.15,1.08,0.42L46.3,54.31c0.49,0.45,0.65,1.14,0.41,1.76
			C46.47,56.68,45.88,57.09,45.22,57.09z M18.64,53.89h22.47l-9.92-9.08H8.71L18.64,53.89z"/>
		<path class="st3" d="M81.98,95.61H45.22c-0.88,0-1.6-0.72-1.6-1.6V55.49c0-0.88,0.72-1.6,1.6-1.6h36.76c0.88,0,1.6,0.72,1.6,1.6
			v38.52C83.58,94.89,82.87,95.61,81.98,95.61z M46.82,92.41h33.56V57.09H46.82V92.41z"/>
		<path class="st3" d="M81.98,57.09H45.22c-0.66,0-1.25-0.41-1.49-1.02c-0.24-0.61-0.08-1.31,0.41-1.76l13.42-12.27
			c0.29-0.27,0.68-0.42,1.08-0.42H95.4c0.66,0,1.25,0.41,1.49,1.02c0.24,0.62,0.08,1.31-0.41,1.76L83.06,56.67
			C82.77,56.94,82.38,57.09,81.98,57.09z M49.34,53.89h32.03l9.92-9.08H59.26L49.34,53.89z"/>
		<path class="st3" d="M88.26,95.61H11.74c-0.88,0-1.6-0.72-1.6-1.6c0-0.88,0.72-1.6,1.6-1.6h76.52c0.88,0,1.6,0.72,1.6,1.6
			C89.86,94.89,89.14,95.61,88.26,95.61z"/>
		<path class="st3" d="M48.7,47.51c-0.43,0-0.85-0.17-1.17-0.51c-0.6-0.65-0.57-1.66,0.08-2.26c6.61-6.17,8.64-15.9,5.05-24.2
			C47.97,9.68,35.32,4.66,24.46,9.35c-5.26,2.27-9.32,6.46-11.44,11.79c-2.11,5.33-2.03,11.16,0.25,16.42
			c0.35,0.81-0.02,1.75-0.83,2.1c-0.81,0.35-1.75-0.02-2.1-0.83C4.94,26.35,10.71,11.81,23.19,6.42
			C35.67,1.03,50.21,6.79,55.6,19.27c4.12,9.54,1.79,20.72-5.81,27.81C49.49,47.37,49.09,47.51,48.7,47.51z"/>
		<path class="st3" d="M41.71,46.47c-0.56,0-1.11-0.3-1.4-0.83c-0.43-0.77-0.14-1.75,0.63-2.17c7.46-4.11,10.54-13.12,7.15-20.96
			c-1.75-4.04-4.96-7.16-9.05-8.78c-4.09-1.62-8.57-1.56-12.61,0.19c-4.04,1.75-7.16,4.96-8.78,9.05
			c-1.62,4.09-1.55,8.57,0.19,12.61c0.35,0.81,0.77,1.59,1.23,2.33c0.47,0.74,0.25,1.73-0.49,2.21c-0.74,0.47-1.73,0.25-2.21-0.49
			c-0.56-0.88-1.05-1.81-1.47-2.78c-2.08-4.82-2.17-10.17-0.23-15.06c1.94-4.89,5.66-8.72,10.49-10.81
			c4.82-2.09,10.17-2.17,15.06-0.23c4.89,1.94,8.72,5.66,10.81,10.49c4.04,9.35,0.37,20.11-8.54,25.02
			C42.24,46.41,41.97,46.47,41.71,46.47z"/>
		<path class="st3" d="M75.74,40.37c-0.67,0-1.3-0.43-1.52-1.1c-0.55-1.7,0.05-3.55,1.5-4.6L80,31.55c0.49-0.35,0.4-0.84,0.33-1.03
			c-0.06-0.19-0.27-0.64-0.87-0.64h-5.31c-1.79,0-3.36-1.14-3.91-2.84l-1.64-5.05c-0.19-0.57-0.67-0.64-0.88-0.64
			c-0.2,0-0.69,0.06-0.87,0.64l-1.64,5.05c-0.55,1.7-2.13,2.84-3.91,2.84c-0.88,0-1.6-0.72-1.6-1.6c0-0.88,0.72-1.6,1.6-1.6
			c0.4,0,0.75-0.26,0.87-0.64l1.64-5.05c0.56-1.73,2.1-2.84,3.91-2.84c1.82,0,3.35,1.12,3.92,2.84l1.64,5.05
			c0.12,0.38,0.48,0.64,0.87,0.64h5.31c1.82,0,3.35,1.12,3.91,2.84c0.56,1.73-0.03,3.53-1.5,4.6l-4.29,3.12
			c-0.32,0.23-0.46,0.65-0.33,1.03c0.27,0.84-0.19,1.74-1.03,2.01C76.07,40.35,75.9,40.37,75.74,40.37z"/>
		<path class="st3" d="M32.97,24.15c-0.88,0-1.6-0.72-1.6-1.6v-1.31c0-0.88,0.72-1.6,1.6-1.6c0.88,0,1.6,0.72,1.6,1.6v1.31
			C34.57,23.43,33.85,24.15,32.97,24.15z"/>
		<path class="st3" d="M32.97,37.09c-2.79,0-5.07-2.17-5.07-4.83c0-0.88,0.72-1.6,1.6-1.6c0.88,0,1.6,0.72,1.6,1.6
			c0,0.9,0.84,1.64,1.87,1.64c1.03,0,1.87-0.73,1.87-1.64c0-0.9-0.84-1.64-1.87-1.64c-2.79,0-5.07-2.17-5.07-4.83
			c0-2.67,2.27-4.84,5.07-4.84c2.79,0,5.07,2.17,5.07,4.84c0,0.88-0.72,1.6-1.6,1.6c-0.88,0-1.6-0.72-1.6-1.6
			c0-0.9-0.84-1.64-1.87-1.64c-1.03,0-1.87,0.74-1.87,1.64c0,0.9,0.84,1.64,1.87,1.64c2.79,0,5.07,2.17,5.07,4.84
			C38.04,34.92,35.76,37.09,32.97,37.09z"/>
		<path class="st3" d="M32.97,38.58c-0.88,0-1.6-0.72-1.6-1.6v-1.48c0-0.88,0.72-1.6,1.6-1.6c0.88,0,1.6,0.72,1.6,1.6v1.48
			C34.57,37.86,33.85,38.58,32.97,38.58z"/>
		<path class="st3" d="M81.98,22.84c-0.88,0-1.6-0.72-1.6-1.6v-3.02c0-0.88,0.72-1.6,1.6-1.6c0.88,0,1.6,0.72,1.6,1.6v3.02
			C83.58,22.12,82.87,22.84,81.98,22.84z"/>
		<path class="st3" d="M74.21,16.43c-0.88,0-1.6-0.72-1.6-1.6v-3.86c0-0.88,0.72-1.6,1.6-1.6s1.6,0.72,1.6,1.6v3.86
			C75.81,15.72,75.09,16.43,74.21,16.43z"/>
		<path class="st3" d="M58.4,14.5c-0.88,0-1.6-0.72-1.6-1.6V7.56c0-0.88,0.72-1.6,1.6-1.6c0.88,0,1.6,0.72,1.6,1.6v5.34
			C60,13.79,59.29,14.5,58.4,14.5z"/>
		<path class="st3" d="M66.68,11.29c-0.88,0-1.6-0.72-1.6-1.6v-3.7c0-0.88,0.72-1.6,1.6-1.6c0.88,0,1.6,0.72,1.6,1.6v3.7
			C68.28,10.58,67.57,11.29,66.68,11.29z"/>
		<path class="st3" d="M63.6,87.85c-6.3,0-11.43-5.88-11.43-13.1c0-7.22,5.13-13.1,11.43-13.1c6.3,0,11.42,5.88,11.42,13.1
			C75.03,81.97,69.9,87.85,63.6,87.85z M63.6,64.85c-4.54,0-8.23,4.44-8.23,9.9s3.69,9.9,8.23,9.9c4.54,0,8.23-4.44,8.23-9.9
			S68.14,64.85,63.6,64.85z"/>
		<path class="st3" d="M63.6,81.32c-3.22,0-5.85-2.95-5.85-6.57c0-0.88,0.72-1.6,1.6-1.6s1.6,0.72,1.6,1.6
			c0,1.86,1.19,3.37,2.65,3.37c1.46,0,2.65-1.51,2.65-3.37c0-1.86-1.19-3.37-2.65-3.37c-0.88,0-1.6-0.72-1.6-1.6
			c0-0.88,0.72-1.6,1.6-1.6c3.22,0,5.85,2.95,5.85,6.57C69.45,78.37,66.83,81.32,63.6,81.32z"/>
	</g>
</g>
<g id="penzijní_připojištění" class="st0">
	<g class="st1">
		<path class="st2" d="M76.72,96.58H23.28c-3.59,0-6.51-2.92-6.51-6.51V45.78c0-0.86,0.69-1.55,1.55-1.55h63.37
			c0.86,0,1.55,0.69,1.55,1.55v44.29C83.23,93.66,80.31,96.58,76.72,96.58z M19.86,47.33v42.74c0,1.88,1.53,3.42,3.42,3.42h53.44
			c1.88,0,3.42-1.53,3.42-3.42V47.33H19.86z"/>
		<path class="st2" d="M58.03,61.46H41.97c-2.9,0-5.27-2.36-5.27-5.27c0-2.9,2.36-5.27,5.27-5.27h16.06c2.9,0,5.27,2.36,5.27,5.27
			C63.3,59.1,60.94,61.46,58.03,61.46z M41.97,54.03c-1.2,0-2.17,0.97-2.17,2.17c0,1.2,0.97,2.17,2.17,2.17h16.06
			c1.2,0,2.17-0.97,2.17-2.17c0-1.2-0.97-2.17-2.17-2.17H41.97z"/>
		<path class="st2" d="M84.45,96.58h-68.9c-0.86,0-1.55-0.69-1.55-1.55s0.69-1.55,1.55-1.55h68.9c0.86,0,1.55,0.69,1.55,1.55
			S85.31,96.58,84.45,96.58z"/>
		<path class="st2" d="M56.31,12.04c-0.05,0-0.11,0-0.16-0.01c-0.85-0.09-1.47-0.85-1.38-1.7l0.13-1.22
			c0.09-0.85,0.85-1.48,1.7-1.38c0.85,0.09,1.47,0.85,1.38,1.7l-0.13,1.22C57.77,11.45,57.09,12.04,56.31,12.04z"/>
		<path class="st2" d="M55.7,29.66c-0.45,0-0.9-0.02-1.35-0.07c-7.19-0.74-12.45-7.2-11.7-14.39C43.38,8,49.83,2.74,57.03,3.49
			c7.19,0.74,12.45,7.2,11.7,14.39C68.04,24.62,62.33,29.66,55.7,29.66z M55.68,6.52c-5.07,0-9.43,3.85-9.96,8.99
			c-0.57,5.5,3.45,10.43,8.94,11c5.49,0.55,10.43-3.45,11-8.94c0.57-5.5-3.45-10.43-8.94-11C56.37,6.53,56.02,6.52,55.68,6.52z"/>
		<path class="st2" d="M55.42,24.14c-0.17,0-0.34-0.01-0.52-0.03c-1.26-0.13-2.4-0.71-3.21-1.64c-0.84-0.96-1.23-2.17-1.1-3.41
			c0.09-0.85,0.85-1.48,1.7-1.38c0.85,0.09,1.47,0.85,1.38,1.7c-0.04,0.38,0.09,0.75,0.35,1.06c0.29,0.34,0.72,0.55,1.19,0.6
			c0.94,0.08,1.77-0.49,1.85-1.3c0.04-0.38-0.09-0.75-0.35-1.06c-0.29-0.34-0.72-0.55-1.19-0.6c-2.64-0.27-4.57-2.54-4.31-5.05
			c0.26-2.51,2.61-4.35,5.25-4.07c1.26,0.13,2.4,0.71,3.21,1.64c0.84,0.96,1.23,2.17,1.1,3.41c-0.09,0.85-0.85,1.47-1.7,1.38
			c-0.85-0.09-1.47-0.85-1.38-1.7c0.04-0.38-0.09-0.75-0.35-1.06c-0.29-0.34-0.72-0.55-1.19-0.6c-0.95-0.09-1.77,0.49-1.85,1.31
			c-0.08,0.82,0.61,1.56,1.55,1.66c1.26,0.13,2.39,0.71,3.21,1.64c0.84,0.96,1.23,2.17,1.1,3.41C59.91,22.4,57.84,24.14,55.42,24.14
			z"/>
		<path class="st2" d="M54.92,25.51c-0.05,0-0.11,0-0.16-0.01c-0.85-0.09-1.47-0.85-1.38-1.7l0.14-1.39
			c0.09-0.85,0.85-1.48,1.7-1.38c0.85,0.09,1.47,0.85,1.38,1.7l-0.14,1.39C56.38,24.92,55.71,25.51,54.92,25.51z"/>
		<path class="st2" d="M32,34.78c-0.55,0-1.08-0.29-1.36-0.81l-0.67-1.23c-0.41-0.75-0.13-1.69,0.62-2.1
			c0.75-0.4,1.69-0.13,2.1,0.63l0.67,1.23c0.41,0.75,0.13,1.69-0.62,2.1C32.5,34.72,32.25,34.78,32,34.78z"/>
		<path class="st2" d="M23.82,47.33c-0.55,0-1.07-0.29-1.36-0.8l-0.12-0.21c-3.87-7.14-1.21-16.09,5.93-19.95
			c7.13-3.87,16.09-1.21,19.95,5.93c2.43,4.48,2.38,9.81-0.12,14.25c-0.42,0.75-1.36,1.01-2.11,0.59c-0.74-0.42-1.01-1.36-0.59-2.11
			c1.98-3.51,2.01-7.72,0.1-11.25c-3.05-5.63-10.12-7.73-15.75-4.68c-5.63,3.05-7.73,10.12-4.68,15.75l0.11,0.19
			c0.41,0.75,0.14,1.69-0.6,2.11C24.33,47.27,24.08,47.33,23.82,47.33z"/>
		<path class="st2" d="M36.73,47.33c-0.44,0-0.89-0.06-1.32-0.17c-1.35-0.35-2.44-1.2-3.09-2.39c-0.41-0.75-0.13-1.69,0.62-2.1
			c0.75-0.4,1.69-0.13,2.1,0.63c0.23,0.43,0.64,0.74,1.15,0.87c0.55,0.14,1.13,0.06,1.66-0.22c0.52-0.28,0.91-0.73,1.09-1.27
			c0.17-0.49,0.13-1.01-0.1-1.44c-0.23-0.43-0.64-0.74-1.15-0.87c-0.55-0.14-1.13-0.06-1.66,0.22c-1.22,0.66-2.6,0.84-3.91,0.5
			c-1.35-0.35-2.44-1.2-3.09-2.39c-0.65-1.19-0.76-2.58-0.32-3.9c0.43-1.28,1.34-2.35,2.55-3.01c1.22-0.66,2.61-0.83,3.91-0.49
			c1.35,0.35,2.44,1.2,3.09,2.39c0.41,0.75,0.13,1.69-0.62,2.1c-0.75,0.41-1.69,0.13-2.1-0.62c-0.23-0.43-0.64-0.74-1.15-0.87
			c-0.55-0.14-1.13-0.06-1.66,0.22c-0.52,0.28-0.91,0.73-1.09,1.27c-0.17,0.49-0.13,1.01,0.1,1.44c0.23,0.43,0.64,0.74,1.15,0.87
			c0.55,0.14,1.14,0.06,1.66-0.22c1.22-0.66,2.61-0.83,3.91-0.5c1.35,0.35,2.44,1.2,3.09,2.39c0.65,1.19,0.76,2.58,0.32,3.9
			c-0.43,1.28-1.34,2.35-2.55,3.01C38.51,47.11,37.62,47.33,36.73,47.33z"/>
		<path class="st2" d="M66.62,38.24c-0.05,0-0.11,0-0.16-0.01c-0.85-0.09-1.47-0.85-1.38-1.7l0.11-1.1c0.09-0.85,0.85-1.48,1.7-1.38
			c0.85,0.09,1.47,0.85,1.38,1.7l-0.11,1.1C68.07,37.65,67.4,38.24,66.62,38.24z"/>
		<path class="st2" d="M68.52,47.33c-0.19,0-0.38-0.03-0.57-0.11c-0.8-0.31-1.19-1.21-0.87-2.01c0.03-0.08,0.05-0.17,0.06-0.26
			c0.07-0.64-0.49-1.23-1.24-1.31c-2.45-0.25-4.25-2.36-4-4.71c0.24-2.34,2.44-4.05,4.88-3.79c2.45,0.25,4.25,2.36,4.01,4.71
			c-0.09,0.85-0.85,1.48-1.7,1.38c-0.85-0.09-1.47-0.85-1.38-1.7c0.07-0.64-0.49-1.23-1.24-1.31c-0.75-0.07-1.42,0.38-1.48,1.03
			c-0.07,0.64,0.49,1.23,1.24,1.31c2.45,0.25,4.25,2.36,4,4.71c-0.04,0.37-0.13,0.74-0.26,1.08C69.72,46.96,69.14,47.33,68.52,47.33
			z"/>
		<path class="st2" d="M75.75,47.33H56.37c-0.64,0-1.22-0.4-1.45-1c-0.67-1.76-0.91-3.59-0.72-5.45c0.33-3.17,1.87-6.02,4.34-8.03
			c2.47-2.01,5.58-2.94,8.74-2.61c3.17,0.33,6.02,1.87,8.03,4.34c2.01,2.47,2.94,5.58,2.61,8.74c-0.1,1-0.35,2.01-0.72,3
			C76.97,46.93,76.39,47.33,75.75,47.33z M57.5,44.23h17.11c0.1-0.41,0.18-0.82,0.22-1.22c0.24-2.35-0.44-4.64-1.93-6.47
			c-1.49-1.83-3.6-2.97-5.94-3.21s-4.64,0.44-6.47,1.93c-1.83,1.49-2.97,3.6-3.21,5.94C57.18,42.23,57.25,43.24,57.5,44.23z"/>
		<path class="st2" d="M53.9,87.1c-0.74,0-1.48-0.23-2.12-0.7l-1.47-1.07c-0.18-0.13-0.43-0.13-0.61,0l-1.47,1.07
			c-1.29,0.94-2.96,0.94-4.25,0c-1.29-0.94-1.81-2.52-1.31-4.04l0.56-1.73c0.07-0.21-0.01-0.45-0.19-0.58l-1.47-1.07
			c-1.29-0.94-1.81-2.52-1.31-4.04c0.49-1.52,1.84-2.5,3.44-2.5h1.82c0.22,0,0.42-0.14,0.49-0.36l0.56-1.73
			c0.49-1.52,1.84-2.5,3.44-2.5s2.95,0.98,3.44,2.5L54,72.08c0.07,0.21,0.27,0.36,0.49,0.36h1.82c1.6,0,2.95,0.98,3.44,2.5
			c0.49,1.52-0.02,3.1-1.31,4.04l-1.47,1.07c-0.18,0.13-0.26,0.36-0.19,0.58l0.56,1.73c0.49,1.52-0.02,3.1-1.31,4.04
			C55.38,86.87,54.64,87.1,53.9,87.1z M43.69,75.53c-0.31,0-0.44,0.19-0.49,0.36c-0.05,0.16-0.06,0.4,0.19,0.58l1.47,1.07
			c1.27,0.92,1.8,2.55,1.31,4.04l-0.56,1.73c-0.1,0.29,0.05,0.48,0.19,0.58c0.14,0.1,0.36,0.18,0.61,0l1.47-1.07
			c1.27-0.92,2.98-0.92,4.25,0l1.47,1.07c0.25,0.19,0.47,0.1,0.61,0c0.14-0.1,0.28-0.28,0.19-0.58l-0.56-1.73
			c-0.49-1.5,0.04-3.12,1.31-4.04l1.47-1.07c0.25-0.18,0.24-0.41,0.19-0.58c-0.05-0.16-0.18-0.36-0.49-0.36h-1.82
			c-1.57,0-2.95-1-3.44-2.5l-0.56-1.73c-0.1-0.3-0.32-0.36-0.49-0.36s-0.4,0.06-0.49,0.36l-0.56,1.73c-0.49,1.49-1.87,2.5-3.44,2.5
			H43.69z"/>
	</g>
</g>
<g id="Stavební_spoření" class="st0">
	<g class="st1">
		<path class="st7" d="M79.36,94.23c1.61,0,2.91-1.3,2.91-2.91V60.17h7.65h0.01c2.79,0,5.06-2.27,5.06-5.06
			c0-1.6-0.74-3.02-1.9-3.95l-9.9-8.58V28.3c0-1.67-1.35-3.03-3.02-3.03h-6.26c-1.67,0-3.03,1.36-3.03,3.03v3.6L53.31,16.63
			c-1.9-1.65-4.73-1.65-6.63,0L6.74,51.3c-1.59,1.38-2.16,3.61-1.42,5.59c0.74,1.98,2.63,3.29,4.74,3.29c1.91,0,7.66,0,7.66,0v31.14
			c0,1.61,1.31,2.91,2.91,2.91h17.21V71.59c0-3.2,2.59-5.8,5.79-5.8h12.74c3.2,0,5.8,2.59,5.8,5.8v22.64H79.36z"/>
		<path class="st3" d="M73.85,14.52c-0.2,0.17-0.49,0.21-0.74,0.09l-0.61-0.3c-0.34-0.17-0.48-0.58-0.32-0.92
			c0.17-0.34,0.58-0.48,0.92-0.32l0.61,0.3c0.34,0.17,0.48,0.58,0.32,0.92C73.99,14.38,73.92,14.46,73.85,14.52z"/>
		<path class="st3" d="M80.9,20.9c-2.07,1.7-5.02,2.14-7.58,0.9c-3.5-1.71-4.95-5.94-3.25-9.43c1.71-3.5,5.94-4.95,9.43-3.25
			c3.5,1.71,4.95,5.94,3.25,9.43C82.3,19.48,81.66,20.27,80.9,20.9z M72.81,11.07c-0.61,0.5-1.12,1.14-1.49,1.89
			c-1.37,2.81-0.2,6.22,2.61,7.59c2.81,1.37,6.22,0.2,7.59-2.61c1.37-2.81,0.2-6.22-2.61-7.59C76.85,9.34,74.47,9.7,72.81,11.07z"/>
		<path class="st3" d="M79.36,18.08c-0.21,0.17-0.44,0.3-0.69,0.4c-0.61,0.24-1.27,0.21-1.84-0.07c-0.34-0.17-0.48-0.58-0.32-0.92
			c0.17-0.34,0.58-0.48,0.92-0.32c0.23,0.11,0.49,0.12,0.74,0.02c0.27-0.1,0.49-0.31,0.62-0.58c0.13-0.27,0.16-0.57,0.08-0.85
			c-0.08-0.26-0.25-0.46-0.48-0.57c-0.23-0.11-0.49-0.12-0.74-0.02c-0.27,0.1-0.49,0.31-0.62,0.58c-0.6,1.23-2.04,1.76-3.21,1.19
			c-1.17-0.57-1.63-2.04-1.03-3.26c0.6-1.23,2.04-1.76,3.21-1.19c0.34,0.17,0.48,0.58,0.32,0.92c-0.17,0.34-0.58,0.48-0.92,0.32
			c-0.49-0.24-1.1,0.01-1.37,0.56c-0.27,0.55-0.09,1.18,0.4,1.42c0.49,0.24,1.1-0.01,1.37-0.56c0.29-0.59,0.77-1.04,1.37-1.26
			c0.61-0.24,1.27-0.21,1.84,0.07c0.57,0.28,1,0.78,1.19,1.41c0.19,0.61,0.13,1.27-0.15,1.86C79.87,17.56,79.64,17.85,79.36,18.08z"
			/>
		<path class="st3" d="M80.55,17.78c-0.2,0.17-0.49,0.21-0.74,0.09l-0.69-0.34c-0.34-0.17-0.48-0.58-0.32-0.92
			c0.17-0.34,0.58-0.48,0.92-0.32l0.69,0.34c0.34,0.17,0.48,0.58,0.32,0.92C80.68,17.65,80.62,17.72,80.55,17.78z"/>
		<path class="st3" d="M25.56,33.85c-0.05,0.05-0.12,0.08-0.19,0.11c-0.35,0.14-0.75-0.04-0.89-0.39c-1.09-2.8-4.18-4.26-7.04-3.34
			c-2.98,0.96-4.62,4.17-3.65,7.15c0.4,1.25,1.24,2.33,2.35,3.04c0.32,0.2,0.41,0.63,0.21,0.95c-0.2,0.32-0.63,0.41-0.95,0.21
			c-1.38-0.88-2.41-2.22-2.92-3.77c-1.2-3.7,0.84-7.69,4.54-8.89c3.55-1.15,7.4,0.67,8.75,4.15C25.87,33.36,25.78,33.67,25.56,33.85
			z"/>
		<path class="st3" d="M22.86,36.08c-0.15,0.13-0.36,0.19-0.57,0.14c-0.37-0.07-0.62-0.44-0.54-0.81c0.04-0.19,0.03-0.4-0.04-0.6
			c-0.19-0.58-0.76-0.91-1.27-0.75c-0.52,0.17-0.78,0.77-0.59,1.35c0.2,0.62,0.16,1.28-0.11,1.86c-0.28,0.59-0.77,1.03-1.37,1.23
			c-0.61,0.2-1.26,0.13-1.83-0.19c-0.56-0.31-0.98-0.82-1.18-1.44c-0.42-1.3,0.24-2.69,1.48-3.09c0.36-0.12,0.75,0.08,0.87,0.44
			c0.12,0.36-0.08,0.75-0.44,0.87c-0.51,0.17-0.78,0.77-0.59,1.35c0.09,0.29,0.28,0.52,0.53,0.66c0.24,0.13,0.5,0.16,0.74,0.08
			c0.24-0.08,0.44-0.25,0.55-0.5c0.12-0.26,0.14-0.56,0.04-0.85c-0.42-1.3,0.24-2.69,1.48-3.09c1.24-0.4,2.59,0.33,3.01,1.63
			c0.14,0.42,0.16,0.86,0.08,1.29C23.07,35.84,22.98,35.98,22.86,36.08z"/>
		<path class="st3" d="M16.45,37.2c-0.06,0.05-0.14,0.1-0.22,0.12l-0.73,0.24c-0.36,0.12-0.75-0.08-0.87-0.44
			c-0.12-0.36,0.08-0.75,0.44-0.87l0.73-0.24c0.36-0.12,0.75,0.08,0.87,0.44C16.75,36.73,16.66,37.02,16.45,37.2z"/>
		<path class="st3" d="M27.14,16.78c-0.19,0.16-0.46,0.2-0.7,0.11c-0.35-0.14-0.52-0.55-0.38-0.9l0.29-0.71
			c0.14-0.35,0.55-0.52,0.9-0.38c0.35,0.14,0.52,0.55,0.38,0.9l-0.29,0.71C27.29,16.61,27.22,16.71,27.14,16.78z"/>
		<path class="st3" d="M30.31,25.89c-2.18,1.79-5.25,2.36-8.04,1.23c-4.05-1.65-6.01-6.29-4.36-10.34
			c1.65-4.05,6.29-6.01,10.34-4.36c1.96,0.8,3.5,2.32,4.32,4.27c0.82,1.95,0.84,4.11,0.04,6.07C32.1,24.02,31.3,25.08,30.31,25.89z
			 M21.09,14.71c-0.81,0.67-1.48,1.54-1.9,2.59c-1.36,3.35,0.25,7.18,3.6,8.55c3.35,1.36,7.18-0.25,8.55-3.6
			c0.66-1.62,0.65-3.41-0.03-5.02c-0.68-1.61-1.95-2.87-3.57-3.53C25.43,12.76,22.89,13.23,21.09,14.71z"/>
		<path class="st3" d="M26.35,23.54c-0.73,0.6-1.8,0.79-2.78,0.39c-0.67-0.27-1.2-0.77-1.49-1.41c-0.3-0.65-0.32-1.37-0.06-2.02
			c0.14-0.35,0.55-0.52,0.9-0.38c0.35,0.14,0.52,0.55,0.38,0.9c-0.12,0.29-0.11,0.62,0.03,0.92c0.15,0.32,0.42,0.57,0.76,0.71
			c0.69,0.28,1.46,0.01,1.71-0.61c0.12-0.29,0.11-0.62-0.03-0.92c-0.15-0.32-0.42-0.57-0.76-0.71c-0.67-0.27-1.2-0.77-1.49-1.41
			c-0.3-0.65-0.32-1.37-0.06-2.02c0.26-0.65,0.78-1.15,1.45-1.4c0.66-0.25,1.38-0.24,2.05,0.03c1.39,0.57,2.09,2.11,1.55,3.43
			c-0.14,0.35-0.55,0.52-0.9,0.38c-0.35-0.14-0.52-0.55-0.38-0.9c0.25-0.62-0.1-1.35-0.79-1.63c-0.34-0.14-0.71-0.15-1.04-0.02
			c-0.31,0.12-0.55,0.34-0.67,0.64c-0.12,0.29-0.11,0.62,0.03,0.92c0.15,0.32,0.42,0.57,0.76,0.71c0.67,0.27,1.2,0.77,1.49,1.41
			c0.3,0.65,0.32,1.37,0.06,2.02C26.91,22.95,26.66,23.28,26.35,23.54z"/>
		<path class="st3" d="M23.94,24.63c-0.19,0.16-0.46,0.2-0.7,0.11c-0.35-0.14-0.52-0.55-0.38-0.9l0.33-0.81
			c0.14-0.35,0.55-0.52,0.9-0.38c0.35,0.14,0.52,0.55,0.38,0.9l-0.33,0.81C24.09,24.47,24.02,24.56,23.94,24.63z"/>
	</g>
</g>
<g id="Investování_do_OPF" class="st0">
	<g class="st1">
		<path class="st2" d="M59,42.14H41c-0.8,0-1.47-0.62-1.52-1.42C37.85,18.36,48.4,5.98,48.85,5.47c0.58-0.66,1.72-0.66,2.3,0
			c0.45,0.52,11,12.89,9.37,35.26C60.46,41.52,59.8,42.14,59,42.14z M42.44,39.08h15.12C58.34,23.21,52.54,12.8,50,9.04
			C47.46,12.79,41.66,23.21,42.44,39.08z"/>
		<path class="st2" d="M67.36,42.14H59c-0.84,0-1.53-0.68-1.53-1.53c0-0.84,0.68-1.53,1.53-1.53h6.06
			c-2.16-3.86-6.36-5.41-6.41-5.43c-0.8-0.28-1.21-1.16-0.92-1.95c0.29-0.8,1.17-1.21,1.95-0.92c0.29,0.1,7.11,2.62,9.14,9.4
			c0.14,0.46,0.05,0.96-0.24,1.35C68.29,41.91,67.84,42.14,67.36,42.14z"/>
		<path class="st2" d="M41,42.14h-8.36c-0.48,0-0.94-0.23-1.23-0.62c-0.29-0.39-0.38-0.89-0.24-1.35c2.03-6.77,8.85-9.29,9.14-9.4
			c0.79-0.29,1.67,0.13,1.95,0.92c0.28,0.79-0.13,1.67-0.92,1.95c-0.08,0.03-4.26,1.61-6.41,5.43H41c0.84,0,1.53,0.68,1.53,1.53
			C42.53,41.46,41.85,42.14,41,42.14z"/>
		<path class="st2" d="M80.83,95.06H19.17c-2.38,0-4.32-1.94-4.32-4.32V43.4c0-2.38,1.94-4.32,4.32-4.32h61.65
			c2.38,0,4.32,1.94,4.32,4.32v47.34C85.14,93.12,83.21,95.06,80.83,95.06z M19.17,42.14c-0.7,0-1.26,0.57-1.26,1.26v47.34
			c0,0.7,0.57,1.26,1.26,1.26h61.65c0.7,0,1.26-0.57,1.26-1.26V43.4c0-0.7-0.57-1.26-1.26-1.26H19.17z"/>
		<path class="st2" d="M60.54,55.36H39.46c-2.57,0-4.66-2.09-4.66-4.66s2.09-4.66,4.66-4.66h21.09c2.57,0,4.66,2.09,4.66,4.66
			S63.11,55.36,60.54,55.36z M39.46,49.1c-0.88,0-1.6,0.72-1.6,1.6s0.72,1.6,1.6,1.6h21.09c0.88,0,1.6-0.72,1.6-1.6
			s-0.72-1.6-1.6-1.6H39.46z"/>
		<path class="st2" d="M76.39,30.11c-0.61,0-1.22-0.19-1.76-0.58l-2.15-1.56l-2.08,1.56c-1.07,0.78-2.45,0.78-3.52,0
			c-1.07-0.78-1.49-2.09-1.09-3.34l0.82-2.53l-2.13-1.49c-1.07-0.78-1.5-2.09-1.09-3.35c0.41-1.26,1.53-2.07,2.85-2.07h2.66
			l0.76-2.49c0.41-1.26,1.52-2.07,2.84-2.07c1.32,0,2.44,0.81,2.84,2.07l0.82,2.53l2.6-0.04c1.32,0,2.44,0.81,2.84,2.07
			c0.41,1.26-0.02,2.57-1.09,3.35c0,0-2.15,1.56-2.15,1.56l0.85,2.46c0.41,1.26-0.02,2.57-1.09,3.34
			C77.61,29.92,77,30.11,76.39,30.11z M72.51,24.92c0.62,0,1.23,0.19,1.76,0.57l1.99,1.45L75.5,24.6c-0.4-1.24,0.03-2.58,1.08-3.34
			l1.99-1.45h-2.46c-1.3,0-2.44-0.83-2.84-2.07l-0.76-2.34l-0.76,2.34c-0.4,1.24-1.54,2.07-2.84,2.07h-2.46l1.99,1.45
			c1.05,0.77,1.49,2.11,1.09,3.35l-0.76,2.34l1.99-1.45C71.28,25.11,71.9,24.92,72.51,24.92z"/>
		<path class="st2" d="M31.36,30.11c-0.61,0-1.22-0.19-1.76-0.58l-2.15-1.56l-2.08,1.56c-1.07,0.78-2.45,0.78-3.52,0
			c-1.07-0.78-1.49-2.09-1.09-3.34l0.82-2.53l-2.13-1.49c-1.07-0.78-1.49-2.09-1.09-3.35c0.41-1.25,1.52-2.07,2.84-2.07h2.66
			l0.76-2.48c0.41-1.26,1.52-2.07,2.84-2.07c1.32,0,2.44,0.81,2.85,2.07l0.82,2.53l2.6-0.05c1.32,0,2.44,0.81,2.85,2.07
			c0.41,1.26-0.02,2.57-1.09,3.35l-2.15,1.56l0.85,2.46c0.41,1.26-0.02,2.57-1.09,3.34C32.59,29.92,31.97,30.11,31.36,30.11z
			 M27.49,24.92c0.62,0,1.23,0.19,1.76,0.57l1.99,1.45l-0.76-2.34c-0.4-1.24,0.03-2.58,1.09-3.34l1.99-1.45l-2.46,0
			c-1.3,0-2.44-0.83-2.84-2.07l-0.76-2.34l-0.76,2.34c-0.4,1.24-1.54,2.07-2.84,2.07h-2.46l1.99,1.45c1.05,0.76,1.49,2.11,1.09,3.34
			l-0.76,2.34l1.99-1.45C26.25,25.11,26.87,24.92,27.49,24.92z M21.25,19.69l-0.89,1.24l0.89-1.22
			C21.25,19.69,21.25,19.69,21.25,19.69z"/>
		<path class="st2" d="M50,27.6c-0.84,0-1.53-0.68-1.53-1.53V6.47c0-0.84,0.68-1.53,1.53-1.53c0.84,0,1.53,0.68,1.53,1.53v19.6
			C51.53,26.92,50.84,27.6,50,27.6z"/>
		<path class="st2" d="M86.85,95.06H13.15c-0.84,0-1.53-0.68-1.53-1.53c0-0.84,0.68-1.53,1.53-1.53h73.71
			c0.84,0,1.53,0.68,1.53,1.53C88.38,94.37,87.7,95.06,86.85,95.06z"/>
		<path class="st2" d="M50,68.45c-0.84,0-1.53-0.68-1.53-1.53v-1.37c0-0.84,0.68-1.53,1.53-1.53c0.84,0,1.53,0.68,1.53,1.53v1.37
			C51.53,67.77,50.84,68.45,50,68.45z"/>
		<path class="st2" d="M50,88.08c-7.94,0-14.4-6.46-14.4-14.4c0-7.94,6.46-14.4,14.4-14.4c7.94,0,14.4,6.46,14.4,14.4
			C64.4,81.62,57.94,88.08,50,88.08z M50,62.34c-6.26,0-11.34,5.09-11.34,11.34c0,6.26,5.09,11.34,11.34,11.34
			c6.26,0,11.35-5.09,11.35-11.34C61.34,67.43,56.26,62.34,50,62.34z"/>
		<path class="st2" d="M50,81.97c-2.84,0-5.15-2.2-5.15-4.91c0-0.84,0.68-1.53,1.53-1.53c0.84,0,1.53,0.68,1.53,1.53
			c0,1.02,0.94,1.85,2.09,1.85c1.15,0,2.09-0.83,2.09-1.85c0-1.02-0.94-1.85-2.09-1.85c-2.84,0-5.15-2.2-5.15-4.91
			S47.16,65.4,50,65.4c2.84,0,5.15,2.2,5.15,4.91c0,0.84-0.68,1.53-1.53,1.53c-0.84,0-1.53-0.68-1.53-1.53
			c0-1.02-0.94-1.85-2.09-1.85c-1.15,0-2.09,0.83-2.09,1.85c0,1.02,0.94,1.85,2.09,1.85c2.84,0,5.15,2.2,5.15,4.91
			C55.15,79.77,52.84,81.97,50,81.97z"/>
		<path class="st2" d="M50,83.52c-0.84,0-1.53-0.68-1.53-1.53v-1.55c0-0.84,0.68-1.53,1.53-1.53c0.84,0,1.53,0.68,1.53,1.53v1.55
			C51.53,82.83,50.84,83.52,50,83.52z"/>
	</g>
</g>
<g id="investovani_do_komodit" class="st0">
	<g class="st1">
		<path class="st3" d="M14.55,43.59H8.43C7.64,43.59,7,42.96,7,42.17V13.52c0-0.79,0.64-1.43,1.43-1.43h6.12
			c0.79,0,1.43,0.64,1.43,1.43v28.64C15.98,42.96,15.34,43.59,14.55,43.59z M9.85,40.74h3.27V14.95H9.85V40.74z"/>
		<path class="st3" d="M37.17,46.92c-2.54,0-5-0.71-7.12-2.05l-5.94-3.76h-9.56c-0.79,0-1.43-0.64-1.43-1.43V16.01
			c0-0.79,0.64-1.43,1.43-1.43h9.88l33.44-4.15c3.92-0.49,7.79,0.53,10.89,2.87l11.29,9.4c0.46,0.38,0.63,1.02,0.43,1.58
			c-0.2,0.57-0.74,0.94-1.34,0.94H63.82c-1.81-0.13-3.38,0.57-3.7,0.73l-11.86,8.09l10.75-0.07c1.75,0,3.33,0.66,4.51,1.86
			c1.19,1.21,1.82,2.83,1.77,4.55c-0.09,3.51-3.02,6.38-6.53,6.4l-21.52,0.14C37.23,46.92,37.2,46.92,37.17,46.92z M15.98,38.25
			h8.55c0.27,0,0.54,0.08,0.76,0.22l6.29,3.98c1.68,1.06,3.58,1.63,5.66,1.61l21.52-0.14c1.98-0.01,3.64-1.64,3.69-3.62
			c0.02-0.94-0.32-1.82-0.96-2.47c-0.64-0.66-1.53-1.01-2.45-1.01L47.58,36.9c-1.11-0.01-2.11-0.68-2.49-1.74
			c-0.39-1.09-0.05-2.26,0.86-2.99l12.64-8.63c0.04-0.03,0.09-0.06,0.13-0.08c0.1-0.05,2.45-1.29,5.2-1.08l11.27,0l-8.21-6.84
			c-2.45-1.85-5.58-2.67-8.76-2.28L24.7,17.43c-0.06,0.01-0.12,0.01-0.18,0.01h-8.55V38.25z"/>
		<path class="st3" d="M72.15,33.4c-0.79,0-1.43-0.64-1.43-1.43v-2.06c0-0.79,0.64-1.43,1.43-1.43c0.79,0,1.43,0.64,1.43,1.43v2.06
			C73.58,32.76,72.94,33.4,72.15,33.4z"/>
		<path class="st3" d="M53.92,36.86c-0.16,0-0.33-0.03-0.49-0.09c-0.74-0.27-1.12-1.09-0.84-1.83c2.09-5.65,6.51-10.12,12.13-12.26
			c0.74-0.28,1.56,0.09,1.84,0.82c0.28,0.74-0.09,1.56-0.82,1.84c-4.86,1.85-8.67,5.71-10.47,10.58
			C55.05,36.51,54.5,36.86,53.92,36.86z"/>
		<path class="st3" d="M72.15,63.02c-10.23,0-18.88-7.31-20.56-17.39c-0.13-0.78,0.39-1.51,1.17-1.64c0.78-0.13,1.51,0.4,1.64,1.17
			c1.45,8.69,8.92,15.01,17.75,15.01c9.92,0,18-8.07,18-18c0-7.39-4.63-14.14-11.53-16.8c-0.74-0.28-1.1-1.11-0.82-1.84
			c0.28-0.74,1.11-1.1,1.84-0.82C87.63,25.78,93,33.6,93,42.17C93,53.66,83.65,63.02,72.15,63.02z"/>
		<path class="st3" d="M72.15,53.79c-3.8,0-6.89-2.93-6.89-6.52c0-0.79,0.64-1.43,1.43-1.43c0.79,0,1.43,0.64,1.43,1.43
			c0,2.02,1.81,3.67,4.04,3.67c2.23,0,4.04-1.65,4.04-3.67s-1.81-3.67-4.04-3.67c-3.8,0-6.89-2.93-6.89-6.53s3.09-6.53,6.89-6.53
			c3.8,0,6.89,2.93,6.89,6.53c0,0.79-0.64,1.43-1.43,1.43c-0.79,0-1.43-0.64-1.43-1.43c0-2.02-1.81-3.67-4.04-3.67
			c-2.23,0-4.04,1.65-4.04,3.67s1.81,3.67,4.04,3.67c3.8,0,6.89,2.93,6.89,6.53S75.95,53.79,72.15,53.79z"/>
		<path class="st3" d="M72.15,56.13c-0.79,0-1.43-0.64-1.43-1.43v-2.34c0-0.79,0.64-1.43,1.43-1.43c0.79,0,1.43,0.64,1.43,1.43v2.34
			C73.58,55.49,72.94,56.13,72.15,56.13z"/>
		<path class="st3" d="M91.57,91.56H8.43C7.64,91.56,7,90.92,7,90.13V9.87c0-0.79,0.64-1.43,1.43-1.43s1.43,0.64,1.43,1.43v78.84
			h81.72c0.79,0,1.43,0.64,1.43,1.43C93,90.92,92.36,91.56,91.57,91.56z"/>
		<path class="st3" d="M64.93,91.56c-0.35,0-0.71-0.13-0.98-0.39c-4.32-4.11-11.35-10.71-12.8-11.88c-0.72-0.1-2.53-0.38-7.25-1.2
			c-0.33-0.06-0.63-0.23-0.85-0.49l-7.03-8.34L25.76,80.38c-0.24,0.26-0.57,0.42-0.92,0.45l-7.28,0.65l-8.3,5.93
			c-0.64,0.46-1.53,0.31-1.99-0.33c-0.46-0.64-0.31-1.53,0.33-1.99l8.62-6.16c0.21-0.15,0.45-0.24,0.7-0.26l7.11-0.64l10.98-11.91
			c0.28-0.3,0.67-0.48,1.08-0.46c0.41,0.01,0.8,0.19,1.06,0.51l7.74,9.18c3.1,0.53,6.42,1.09,6.84,1.12
			c0.64-0.02,0.91,0,14.18,12.61c0.57,0.54,0.59,1.45,0.05,2.02C65.69,91.41,65.31,91.56,64.93,91.56z M51.5,79.33
			c0.04,0,0.07,0.01,0.11,0.01C51.59,79.34,51.56,79.33,51.5,79.33z"/>
		<path class="st3" d="M89.01,91.56c-0.55,0-1.07-0.32-1.31-0.86l-6.05-13.85l-9.35-3.99c-0.09-0.04-0.17-0.09-0.25-0.14l-6.75-4.69
			l-5.72,2.31c-0.08,0.03-0.17,0.06-0.26,0.08l-8.08,1.56l-6.13,5.74c-0.58,0.54-1.48,0.51-2.02-0.07
			c-0.54-0.58-0.51-1.48,0.07-2.02l6.43-6.02c0.2-0.18,0.44-0.31,0.7-0.36l8.35-1.62l6.3-2.55c0.45-0.18,0.95-0.12,1.35,0.15
			l7.27,5.05l9.74,4.16c0.33,0.14,0.6,0.41,0.75,0.74l6.27,14.37c0.32,0.72-0.01,1.56-0.74,1.88C89.4,91.52,89.2,91.56,89.01,91.56z
			"/>
		<path class="st3" d="M32.42,80.84h-7.71c-0.79,0-1.43-0.64-1.43-1.43c0-0.79,0.64-1.43,1.43-1.43h7.71c0.79,0,1.43,0.64,1.43,1.43
			C33.84,80.2,33.2,80.84,32.42,80.84z"/>
		<path class="st3" d="M82.74,77.19H71c-0.79,0-1.43-0.64-1.43-1.43c0-0.79,0.64-1.43,1.43-1.43h11.74c0.79,0,1.43,0.64,1.43,1.43
			C84.17,76.55,83.53,77.19,82.74,77.19z"/>
	</g>
</g>
<g id="prumyslova_pojisteni">
	<g>
		<path class="st2" d="M39.72,89.78h-7.45c-2.6,0-4.72-2.12-4.72-4.72v-2.67c-1.03-0.35-2.03-0.76-2.98-1.22l-1.88,1.88
			c-1.84,1.84-4.84,1.84-6.68,0l-5.27-5.27c-0.89-0.89-1.38-2.08-1.38-3.34c0-1.26,0.49-2.45,1.38-3.34l1.88-1.88
			c-0.46-0.95-0.87-1.95-1.23-2.98H8.72c-2.6,0-4.72-2.12-4.72-4.72v-7.45c0-2.6,2.12-4.72,4.72-4.72h2.67
			c0.35-1.03,0.76-2.03,1.23-2.98l-1.88-1.88c-1.84-1.84-1.84-4.84,0-6.68L16,32.53c0.89-0.89,2.08-1.38,3.34-1.38
			c1.26,0,2.45,0.49,3.34,1.38l1.88,1.88c0.95-0.46,1.95-0.87,2.98-1.22v-2.67c0-2.6,2.12-4.72,4.72-4.72h7.45
			c2.6,0,4.72,2.12,4.72,4.72v2.67c1.03,0.35,2.03,0.76,2.98,1.22l1.88-1.88c0.89-0.89,2.08-1.38,3.34-1.38
			c1.26,0,2.45,0.49,3.34,1.38l5.27,5.27c1.84,1.84,1.84,4.84,0,6.68l-1.88,1.88c0.46,0.95,0.87,1.95,1.22,2.98h2.67
			c2.6,0,4.72,2.12,4.72,4.72v7.45c0,2.6-2.12,4.72-4.72,4.72h-2.67c-0.35,1.03-0.76,2.03-1.22,2.98l1.88,1.88
			c0.89,0.89,1.38,2.08,1.38,3.34c0,1.26-0.49,2.45-1.38,3.34l-5.27,5.27c-1.84,1.84-4.84,1.84-6.68,0l-1.88-1.88
			c-0.95,0.46-1.95,0.87-2.98,1.22v2.67C44.44,87.66,42.32,89.78,39.72,89.78z M24.29,77.92c0.24,0,0.48,0.06,0.69,0.18
			c1.37,0.74,2.86,1.36,4.44,1.83c0.62,0.18,1.04,0.75,1.04,1.4v3.74c0,1,0.81,1.81,1.81,1.81h7.45c1,0,1.81-0.81,1.81-1.81v-3.74
			c0-0.65,0.42-1.21,1.04-1.4c1.57-0.47,3.07-1.08,4.44-1.83c0.57-0.31,1.27-0.2,1.73,0.25l2.63,2.63c0.7,0.71,1.85,0.7,2.56,0
			l5.27-5.27c0.34-0.34,0.53-0.8,0.53-1.28c0-0.48-0.19-0.94-0.53-1.28l-2.63-2.63c-0.46-0.46-0.56-1.16-0.25-1.73
			c0.74-1.37,1.36-2.86,1.82-4.44c0.18-0.62,0.75-1.04,1.4-1.04h3.74c1,0,1.81-0.81,1.81-1.81v-7.45c0-1-0.81-1.81-1.81-1.81h-3.74
			c-0.65,0-1.21-0.42-1.4-1.04c-0.47-1.57-1.08-3.07-1.82-4.44c-0.31-0.57-0.21-1.27,0.25-1.73l2.63-2.63
			c0.71-0.71,0.71-1.85,0-2.56l-5.27-5.27c-0.68-0.68-1.87-0.68-2.56,0l-2.63,2.63c-0.46,0.46-1.16,0.56-1.73,0.25
			c-1.37-0.74-2.86-1.36-4.44-1.83c-0.62-0.18-1.04-0.75-1.04-1.4v-3.74c0-1-0.81-1.81-1.81-1.81h-7.45c-1,0-1.81,0.81-1.81,1.81
			v3.74c0,0.65-0.42,1.21-1.04,1.4c-1.58,0.47-3.07,1.08-4.44,1.83c-0.57,0.31-1.27,0.21-1.73-0.25l-2.63-2.63
			c-0.68-0.68-1.87-0.68-2.56,0l-5.27,5.27c-0.7,0.71-0.7,1.85,0,2.56l2.63,2.63c0.46,0.46,0.56,1.16,0.25,1.73
			c-0.74,1.37-1.36,2.86-1.82,4.44c-0.18,0.62-0.75,1.04-1.4,1.04H8.72c-1,0-1.81,0.81-1.81,1.81v7.45c0,1,0.81,1.81,1.81,1.81h3.74
			c0.65,0,1.21,0.42,1.4,1.04c0.47,1.58,1.08,3.07,1.82,4.44c0.31,0.57,0.21,1.27-0.25,1.73l-2.63,2.63
			c-0.34,0.34-0.53,0.8-0.53,1.28c0,0.48,0.19,0.94,0.53,1.28l5.27,5.27c0.71,0.7,1.85,0.7,2.56,0l2.63-2.63
			C23.54,78.07,23.91,77.92,24.29,77.92z"/>
		<path class="st2" d="M37.77,73.82h-3.56c-1.66,0-3.02-1.35-3.02-3.01v-0.74c-0.17-0.06-0.33-0.13-0.5-0.2l-0.52,0.52
			c-1.18,1.18-3.09,1.18-4.27,0l-2.51-2.51c-1.18-1.18-1.18-3.09,0-4.26l0.52-0.52c-0.07-0.16-0.14-0.33-0.2-0.5h-0.74
			c-1.66,0-3.02-1.35-3.02-3.01v-3.56c0-1.66,1.35-3.02,3.02-3.02h0.74c0.07-0.17,0.13-0.33,0.2-0.5l-0.52-0.52
			c-1.18-1.18-1.18-3.09,0-4.27l2.51-2.51c1.18-1.18,3.09-1.18,4.26,0l0.52,0.52c0.16-0.07,0.33-0.14,0.5-0.2v-0.74
			c0-1.66,1.35-3.02,3.02-3.02h3.56c1.66,0,3.02,1.35,3.02,3.02v0.74c0.17,0.06,0.33,0.13,0.5,0.2l0.52-0.52
			c1.18-1.18,3.09-1.18,4.26,0l2.51,2.51c1.18,1.18,1.18,3.09,0,4.27l-0.52,0.52c0.07,0.16,0.14,0.33,0.2,0.5h0.74
			c1.66,0,3.02,1.35,3.02,3.02v3.56c0,1.66-1.35,3.01-3.02,3.01h-0.74c-0.06,0.17-0.13,0.33-0.2,0.5l0.52,0.52
			c1.18,1.18,1.18,3.09,0,4.26l-2.51,2.51c-1.18,1.18-3.09,1.18-4.26,0l-0.52-0.52c-0.16,0.07-0.33,0.14-0.5,0.2v0.74
			C40.79,72.47,39.43,73.82,37.77,73.82z M30.4,66.64c0.24,0,0.48,0.06,0.7,0.18c0.61,0.33,1.27,0.6,1.97,0.81
			c0.62,0.18,1.04,0.75,1.04,1.4v1.78c0,0.06,0.05,0.1,0.1,0.1h3.56c0.06,0,0.1-0.05,0.1-0.1v-1.78c0-0.64,0.42-1.21,1.04-1.4
			c0.7-0.21,1.37-0.48,1.97-0.81c0.57-0.31,1.27-0.21,1.73,0.25l1.26,1.26c0.04,0.04,0.1,0.04,0.14,0l2.51-2.51
			c0.04-0.04,0.04-0.1,0-0.14l-1.26-1.26c-0.46-0.46-0.56-1.16-0.25-1.73c0.33-0.61,0.6-1.27,0.81-1.97
			c0.18-0.62,0.75-1.04,1.4-1.04h1.78c0.06,0,0.1-0.05,0.1-0.1v-3.56c0-0.06-0.05-0.1-0.1-0.1h-1.78c-0.65,0-1.21-0.42-1.4-1.04
			c-0.21-0.7-0.48-1.36-0.81-1.97c-0.31-0.57-0.21-1.27,0.25-1.73l1.26-1.26c0.04-0.04,0.04-0.1,0-0.14l-2.51-2.51
			c-0.04-0.04-0.1-0.04-0.14,0l-1.26,1.26c-0.46,0.46-1.16,0.56-1.72,0.25c-0.61-0.33-1.27-0.6-1.97-0.81
			c-0.62-0.18-1.04-0.75-1.04-1.4v-1.78c0-0.06-0.05-0.1-0.1-0.1h-3.56c-0.06,0-0.1,0.05-0.1,0.1v1.78c0,0.65-0.42,1.21-1.04,1.4
			c-0.7,0.21-1.36,0.48-1.97,0.81c-0.57,0.31-1.27,0.2-1.73-0.25l-1.26-1.26c-0.04-0.04-0.1-0.04-0.14,0l-2.51,2.51
			c-0.04,0.04-0.04,0.11,0,0.15l1.26,1.26c0.46,0.46,0.56,1.16,0.25,1.73c-0.33,0.61-0.6,1.27-0.81,1.97
			c-0.18,0.62-0.75,1.04-1.4,1.04h-1.78c-0.06,0-0.1,0.05-0.1,0.1v3.56c0,0.06,0.05,0.1,0.1,0.1h1.78c0.64,0,1.21,0.42,1.4,1.04
			c0.21,0.7,0.48,1.36,0.81,1.97c0.31,0.57,0.21,1.27-0.25,1.73l-1.26,1.26c-0.04,0.04-0.04,0.1,0,0.14l2.51,2.51
			c0.04,0.04,0.11,0.04,0.15,0l1.26-1.26C29.65,66.79,30.03,66.64,30.4,66.64z"/>
		<path class="st2" d="M35.99,83.8c-14.34,0-26.01-11.67-26.01-26.01s11.67-26.01,26.01-26.01s26.01,11.67,26.01,26.01
			S50.34,83.8,35.99,83.8z M35.99,34.69c-12.74,0-23.1,10.36-23.1,23.1c0,12.74,10.36,23.1,23.1,23.1s23.1-10.36,23.1-23.1
			C59.09,45.05,48.73,34.69,35.99,34.69z"/>
		<path class="st2" d="M72.41,63.56c-0.8,0-1.46-0.65-1.46-1.46s0.65-1.46,1.46-1.46c0.68,0,1.24-0.56,1.24-1.24v-3.09
			c0-0.65,0.42-1.21,1.04-1.4c1.28-0.38,2.5-0.88,3.61-1.49c0.57-0.31,1.27-0.2,1.72,0.25l2.17,2.17c0.48,0.48,1.27,0.48,1.75,0
			l4.35-4.35c0.48-0.48,0.48-1.27,0-1.75l-2.17-2.17c-0.46-0.46-0.56-1.16-0.25-1.73c0.61-1.11,1.11-2.33,1.49-3.61
			c0.18-0.62,0.75-1.04,1.4-1.04h3.09c0.68,0,1.24-0.56,1.24-1.24v-6.15c0-0.68-0.56-1.24-1.24-1.24h-3.09
			c-0.64,0-1.21-0.42-1.4-1.04c-0.38-1.28-0.88-2.5-1.49-3.61c-0.31-0.57-0.21-1.27,0.25-1.73l2.17-2.17c0.48-0.48,0.48-1.27,0-1.75
			l-4.35-4.35c-0.48-0.48-1.27-0.48-1.75,0l-2.17,2.17c-0.46,0.46-1.16,0.56-1.72,0.25c-1.12-0.61-2.33-1.11-3.61-1.49
			c-0.62-0.18-1.04-0.75-1.04-1.4v-3.09c0-0.68-0.56-1.24-1.24-1.24h-6.15c-0.68,0-1.24,0.56-1.24,1.24v3.09
			c0,0.65-0.42,1.21-1.04,1.4c-1.28,0.38-2.5,0.88-3.61,1.49c-0.57,0.31-1.27,0.21-1.72-0.25l-2.17-2.17
			c-0.48-0.48-1.27-0.48-1.75,0l-4.35,4.35c-0.48,0.48-0.48,1.27,0,1.75l2.17,2.17c0.57,0.57,0.57,1.49,0,2.06
			c-0.57,0.57-1.49,0.57-2.06,0l-2.17-2.17c-1.62-1.62-1.62-4.25,0-5.87l4.35-4.35c1.62-1.62,4.25-1.62,5.87,0l1.43,1.43
			c0.69-0.33,1.41-0.62,2.16-0.88v-2.03c0-2.29,1.86-4.15,4.15-4.15h6.15c2.29,0,4.15,1.86,4.15,4.15v2.03
			c0.74,0.26,1.46,0.56,2.16,0.88l1.43-1.43c1.62-1.62,4.25-1.62,5.87,0l4.35,4.35c1.62,1.62,1.62,4.25,0,5.87l-1.43,1.43
			c0.33,0.69,0.63,1.41,0.88,2.16h2.03c2.29,0,4.15,1.86,4.15,4.15v6.15c0,2.29-1.86,4.15-4.15,4.15h-2.03
			c-0.26,0.74-0.56,1.46-0.88,2.16l1.43,1.43c1.62,1.62,1.62,4.25,0,5.87l-4.35,4.35c-1.62,1.62-4.25,1.62-5.87,0l-1.43-1.43
			c-0.69,0.33-1.41,0.62-2.16,0.88v2.03C76.56,61.69,74.7,63.56,72.41,63.56z"/>
		<path class="st2" d="M70.8,50.38c-0.8,0-1.46-0.65-1.46-1.46c0-0.75,0.56-1.36,1.29-1.45v-1.31c0-0.64,0.42-1.21,1.04-1.4
			c0.56-0.17,1.1-0.39,1.58-0.65c0.57-0.31,1.27-0.21,1.73,0.25l0.92,0.92l1.84-1.84l-0.92-0.92c-0.46-0.46-0.56-1.16-0.25-1.73
			c0.26-0.49,0.48-1.02,0.65-1.58c0.18-0.62,0.75-1.04,1.4-1.04h1.3v-2.6h-1.3c-0.65,0-1.21-0.42-1.4-1.04
			c-0.17-0.56-0.38-1.09-0.65-1.58c-0.31-0.57-0.21-1.27,0.25-1.73l0.92-0.92l-1.84-1.84l-0.92,0.92c-0.46,0.46-1.16,0.56-1.73,0.25
			c-0.48-0.26-1.01-0.48-1.58-0.65c-0.62-0.18-1.04-0.75-1.04-1.4v-1.3h-2.6v1.3c0,0.64-0.42,1.21-1.04,1.4
			c-0.56,0.17-1.1,0.39-1.58,0.65c-0.57,0.31-1.27,0.21-1.73-0.25l-0.92-0.92l-1.96,1.96c-0.57,0.57-1.49,0.57-2.06,0
			c-0.57-0.57-0.57-1.49,0-2.06l2.08-2.08c1.07-1.07,2.81-1.07,3.88,0l0.31,0.31c0.03-0.01,0.07-0.03,0.1-0.04v-0.44
			c0-1.51,1.23-2.74,2.74-2.74h2.94c1.51,0,2.74,1.23,2.74,2.74v0.44c0.03,0.01,0.07,0.03,0.1,0.04l0.31-0.31
			c1.07-1.07,2.81-1.07,3.88,0l2.08,2.08c1.07,1.07,1.07,2.81,0,3.88l-0.31,0.31c0.01,0.03,0.03,0.07,0.04,0.1h0.44
			c1.51,0,2.74,1.23,2.74,2.74v2.94c0,1.51-1.23,2.74-2.74,2.74h-0.44c-0.01,0.03-0.03,0.07-0.04,0.1l0.31,0.31
			c1.07,1.07,1.07,2.81,0,3.88l-2.08,2.08c-1.07,1.07-2.81,1.07-3.88,0l-0.31-0.31c-0.03,0.01-0.07,0.03-0.1,0.04v0.44
			C73.54,49.15,72.31,50.38,70.8,50.38z"/>
		<path class="st2" d="M72.16,58.42c-0.72,0-1.34-0.53-1.44-1.26c-0.11-0.8,0.44-1.53,1.24-1.64c9.23-1.29,16.19-9.3,16.19-18.64
			c0-10.38-8.44-18.82-18.82-18.82c-6.91,0-13.25,3.77-16.55,9.85c-0.38,0.71-1.27,0.97-1.97,0.58c-0.71-0.38-0.97-1.27-0.58-1.98
			c3.81-7.01,11.13-11.37,19.11-11.37c11.98,0,21.73,9.75,21.73,21.73c0,10.78-8.04,20.03-18.7,21.52
			C72.29,58.42,72.23,58.42,72.16,58.42z"/>
	</g>
</g>
<g id="pojisteni_dopravcu" class="st0">
	<g class="st1">
		<path class="st3" d="M89.93,23.02H44.21c-2.78,0-5.05,2.26-5.05,5.05v1.72H21.08c-1.96,0-3.76,1.15-4.58,2.93v0L8.74,49.49
			c-0.66,1.42-1.01,3-1.01,4.57v5.45H6.19c-0.64,0-1.16,0.52-1.16,1.16v6.39c0,0.64,0.52,1.16,1.16,1.16h4.65h3.21
			c1.01,4.99,5.43,8.76,10.72,8.76c5.28,0,9.7-3.77,10.72-8.76h1.2h3.67H61.8c1.01,4.99,5.43,8.76,10.72,8.76
			c5.28,0,9.7-3.77,10.72-8.76h8.64c1.71,0,3.11-1.39,3.11-3.11v-0.25v-6.24V28.07C94.97,25.29,92.71,23.02,89.93,23.02z
			 M80.84,68.22c-0.97,3.69-4.33,6.43-8.33,6.43c-3.99,0-7.36-2.73-8.32-6.43c-0.02-0.08-0.04-0.17-0.06-0.25
			c-0.07-0.3-0.12-0.6-0.16-0.92c-0.01-0.08-0.02-0.17-0.03-0.25c-0.02-0.25-0.04-0.5-0.04-0.76c0-0.05,0-0.1,0-0.15
			c0-0.08,0-0.17,0.01-0.25c0.11-2.3,1.12-4.37,2.69-5.85c0.47-0.44,0.99-0.83,1.55-1.16c1.12-0.66,2.41-1.07,3.78-1.16
			c0.19-0.01,0.38-0.02,0.57-0.02c0.19,0,0.38,0.01,0.57,0.02c1.37,0.09,2.66,0.5,3.78,1.16c0.56,0.33,1.08,0.72,1.55,1.16
			c1.57,1.48,2.59,3.55,2.69,5.85c0,0.08,0,0.17,0.01,0.25c0,0.05,0,0.1,0,0.15c0,0.26-0.01,0.51-0.04,0.76
			c-0.01,0.08-0.02,0.17-0.03,0.25c-0.04,0.31-0.09,0.62-0.16,0.92C80.88,68.05,80.86,68.14,80.84,68.22z M33.08,68.22
			c-0.97,3.69-4.33,6.43-8.32,6.43c-3.99,0-7.36-2.73-8.33-6.43c-0.1-0.38-0.17-0.77-0.22-1.16c-0.04-0.33-0.06-0.67-0.06-1.01
			c0-0.05,0-0.1,0-0.15c0.03-1.47,0.42-2.85,1.1-4.06c0.23-0.41,0.49-0.8,0.79-1.16c0.34-0.42,0.72-0.81,1.13-1.16
			c1.5-1.29,3.45-2.06,5.58-2.06c4.69,0,8.52,3.78,8.6,8.45c0,0.05,0,0.1,0,0.15c0,0.34-0.02,0.68-0.06,1.01
			C33.26,67.45,33.18,67.84,33.08,68.22z M10.84,65.89H9.06H7.84H7.36v-4.06h0.38H8.9h1.16h4.61c-0.52,1.25-0.82,2.62-0.84,4.06
			H10.84z M39.17,65.89h-1.33h-1.16h-0.98c-0.01-0.62-0.07-1.24-0.18-1.83c-0.94-5.08-5.4-8.95-10.75-8.95
			c-3.58,0-6.76,1.73-8.76,4.39h-5.94v-5.45c0-1.23,0.27-2.47,0.79-3.59l7.76-16.77v0c0.44-0.96,1.41-1.58,2.47-1.58h18.08h0.01
			v25.34v1.16v1.16v6.1H39.17z M41.49,28.07c0-1.5,1.22-2.72,2.72-2.72h45.72c1.5,0,2.72,1.22,2.72,2.72v29.39H79.27
			c-1.86-1.47-4.21-2.35-6.76-2.35c-2.55,0-4.9,0.88-6.76,2.35H41.51V30.95c0-0.05,0-0.1-0.01-0.15V28.07z M61.58,65.89H41.51v-0.25
			v-5.85h22.05c-1.17,1.67-1.88,3.68-1.96,5.85C61.59,65.72,61.58,65.81,61.58,65.89z M83.44,65.89c0-0.08,0-0.17-0.01-0.25
			c-0.08-2.17-0.79-4.18-1.96-5.85h11.17v5.07v0.25c0,0.43-0.35,0.78-0.78,0.78H83.44z"/>
		<path class="st3" d="M77.55,65.64c-0.21-2.6-2.39-4.65-5.04-4.65c-2.65,0-4.83,2.05-5.04,4.65c-0.01,0.08-0.01,0.17-0.01,0.25
			c0,0.05,0,0.1,0,0.15c0,0.26,0.02,0.51,0.06,0.76c0.01,0.08,0.03,0.17,0.04,0.25c0.06,0.32,0.16,0.62,0.28,0.92
			c0.03,0.08,0.07,0.17,0.11,0.25c0.81,1.7,2.55,2.88,4.56,2.88c2.01,0,3.75-1.18,4.56-2.88c0.04-0.08,0.08-0.16,0.11-0.25
			c0.12-0.29,0.22-0.6,0.28-0.92c0.02-0.08,0.03-0.17,0.04-0.25c0.04-0.25,0.06-0.5,0.06-0.76c0-0.05,0-0.1,0-0.15
			C77.56,65.81,77.56,65.72,77.55,65.64z M75.24,66.04c0,0.26-0.04,0.52-0.11,0.76c-0.02,0.08-0.05,0.17-0.09,0.25
			c-0.14,0.35-0.34,0.66-0.6,0.92c-0.09,0.09-0.19,0.17-0.29,0.25c-0.46,0.34-1.02,0.55-1.64,0.55c-0.61,0-1.18-0.21-1.64-0.55
			c-0.1-0.08-0.2-0.16-0.29-0.25c-0.26-0.26-0.46-0.57-0.6-0.92c-0.03-0.08-0.06-0.16-0.09-0.25c-0.07-0.24-0.11-0.5-0.11-0.76
			c0-0.05,0-0.1,0.01-0.15c0-0.08,0.01-0.17,0.03-0.25c0.2-1.31,1.33-2.32,2.69-2.32c1.37,0,2.5,1.01,2.69,2.32
			c0.01,0.08,0.02,0.16,0.03,0.25C75.23,65.94,75.24,65.99,75.24,66.04z"/>
		<path class="st3" d="M34.52,34.64H21.7c-0.45,0-0.87,0.26-1.06,0.68l-7.1,15.33c-0.17,0.36-0.14,0.78,0.08,1.12
			c0.21,0.33,0.58,0.54,0.98,0.54h19.91c0.64,0,1.16-0.52,1.16-1.16V35.81C35.68,35.16,35.16,34.64,34.52,34.64z M33.35,49.97H16.43
			l6.02-13h10.91V49.97z"/>
		<path class="st3" d="M24.76,60.99c-0.86,0-1.67,0.22-2.38,0.59c-0.43,0.23-0.82,0.52-1.16,0.86c-0.5,0.49-0.9,1.09-1.16,1.76
			c-0.21,0.53-0.33,1.1-0.35,1.69c0,0.05,0,0.1,0,0.15c0,0.35,0.04,0.68,0.1,1.01c0.08,0.41,0.22,0.8,0.39,1.16
			c0.81,1.7,2.55,2.88,4.56,2.88c2.01,0,3.75-1.18,4.56-2.88c0.18-0.37,0.31-0.76,0.39-1.16c0.07-0.33,0.1-0.66,0.1-1.01
			c0-0.05,0-0.1,0-0.15C29.73,63.17,27.5,60.99,24.76,60.99z M27.49,66.04c0,0.36-0.07,0.7-0.2,1.01c-0.19,0.47-0.5,0.87-0.89,1.16
			c-0.46,0.34-1.02,0.55-1.64,0.55c-0.61,0-1.18-0.21-1.64-0.55c-0.32-0.24-0.58-0.55-0.77-0.9c-0.05-0.09-0.09-0.17-0.12-0.27
			c-0.13-0.31-0.2-0.65-0.2-1.01c0-0.05,0-0.1,0.01-0.15c0.02-0.43,0.14-0.83,0.34-1.18c0.47-0.83,1.36-1.39,2.38-1.39
			c1.45,0,2.64,1.14,2.72,2.57C27.48,65.94,27.49,65.99,27.49,66.04z"/>
	</g>
</g>
</svg>
