<?xml version="1.0" encoding="UTF-8"?>
<svg width="98px" height="96px" viewBox="0 0 98 96" version="1.1" xmlns="http://www.w3.org/2000/svg" xmlns:xlink="http://www.w3.org/1999/xlink">
    <title>rezervotvorna-pojisteni</title>
    <g id="Page-1" stroke="none" stroke-width="1" fill="none" fill-rule="evenodd">
        <g id="rezervotvorna-pojisteni" transform="translate(-0.000000, 0.000000)" fill="#FFFFFF" fill-rule="nonzero">
            <g id="Group" transform="translate(1.761125, 2.385000)">
                <path d="M42.2199686,91.22 L15.0199686,91.22 C14.1399686,91.22 13.4199686,90.5 13.4199686,89.62 L13.4199686,51.1 C13.4199686,50.22 14.1399686,49.5 15.0199686,49.5 L42.2299686,49.5 C43.1099686,49.5 43.8299686,50.22 43.8299686,51.1 L43.8299686,89.62 C43.8199686,90.5 43.1099686,91.22 42.2199686,91.22 Z M16.6099686,88.02 L40.6199686,88.02 L40.6199686,52.7 L16.6099686,52.7 L16.6099686,88.02 Z" id="Shape"></path>
                <path d="M42.2199686,52.7 L15.0199686,52.7 C14.6199686,52.7 14.2399686,52.55 13.9399686,52.28 L0.519968582,40.01 C0.0299685825,39.56 -0.130031418,38.87 0.109968582,38.25 C0.349968582,37.64 0.939968582,37.23 1.59996858,37.23 L28.8099686,37.23 C29.2099686,37.23 29.5899686,37.38 29.8899686,37.65 L43.2999686,49.92 C43.7899686,50.37 43.9499686,51.06 43.7099686,51.68 C43.4699686,52.29 42.8799686,52.7 42.2199686,52.7 Z M15.6399686,49.5 L38.1099686,49.5 L28.1899686,40.42 L5.70996858,40.42 L15.6399686,49.5 Z" id="Shape"></path>
                <path d="M78.9799686,91.22 L42.2199686,91.22 C41.3399686,91.22 40.6199686,90.5 40.6199686,89.62 L40.6199686,51.1 C40.6199686,50.22 41.3399686,49.5 42.2199686,49.5 L78.9799686,49.5 C79.8599686,49.5 80.5799686,50.22 80.5799686,51.1 L80.5799686,89.62 C80.5799686,90.5 79.8699686,91.22 78.9799686,91.22 Z M43.8199686,88.02 L77.3799686,88.02 L77.3799686,52.7 L43.8199686,52.7 L43.8199686,88.02 Z" id="Shape"></path>
                <path d="M78.9799686,52.7 L42.2199686,52.7 C41.5599686,52.7 40.9699686,52.29 40.7299686,51.68 C40.4899686,51.07 40.6499686,50.37 41.1399686,49.92 L54.5599686,37.65 C54.8499686,37.38 55.2399686,37.23 55.6399686,37.23 L92.3999686,37.23 C93.0599686,37.23 93.6499686,37.64 93.8899686,38.25 C94.1299686,38.87 93.9699686,39.56 93.4799686,40.01 L80.0599686,52.28 C79.7699686,52.55 79.3799686,52.7 78.9799686,52.7 Z M46.3399686,49.5 L78.3699686,49.5 L88.2899686,40.42 L56.2599686,40.42 L46.3399686,49.5 Z" id="Shape"></path>
                <path d="M85.2599686,91.22 L8.73996858,91.22 C7.85996858,91.22 7.13996858,90.5 7.13996858,89.62 C7.13996858,88.74 7.85996858,88.02 8.73996858,88.02 L85.2599686,88.02 C86.1399686,88.02 86.8599686,88.74 86.8599686,89.62 C86.8599686,90.5 86.1399686,91.22 85.2599686,91.22 Z" id="Path"></path>
                <path d="M45.6999686,43.12 C45.2699686,43.12 44.8499686,42.95 44.5299686,42.61 C43.9299686,41.96 43.9599686,40.95 44.6099686,40.35 C51.2199686,34.18 53.2499686,24.45 49.6599686,16.15 C44.9699686,5.29 32.3199686,0.27 21.4599686,4.96 C16.1999686,7.23 12.1399686,11.42 10.0199686,16.75 C7.90996858,22.08 7.98996858,27.91 10.2699686,33.17 C10.6199686,33.98 10.2499686,34.92 9.43996858,35.27 C8.62996858,35.62 7.68996858,35.25 7.33996858,34.44 C1.93996858,21.96 7.70996858,7.42 20.1899686,2.03 C32.6699686,-3.36 47.2099686,2.4 52.5999686,14.88 C56.7199686,24.42 54.3899686,35.6 46.7899686,42.69 C46.4899686,42.98 46.0899686,43.12 45.6999686,43.12 Z" id="Path"></path>
                <path d="M38.7099686,42.08 C38.1499686,42.08 37.5999686,41.78 37.3099686,41.25 C36.8799686,40.48 37.1699686,39.5 37.9399686,39.08 C45.3999686,34.97 48.4799686,25.96 45.0899686,18.12 C43.3399686,14.08 40.1299686,10.96 36.0399686,9.34 C31.9499686,7.72 27.4699686,7.78 23.4299686,9.53 C19.3899686,11.28 16.2699686,14.49 14.6499686,18.58 C13.0299686,22.67 13.0999686,27.15 14.8399686,31.19 C15.1899686,32 15.6099686,32.78 16.0699686,33.52 C16.5399686,34.26 16.3199686,35.25 15.5799686,35.73 C14.8399686,36.2 13.8499686,35.98 13.3699686,35.24 C12.8099686,34.36 12.3199686,33.43 11.8999686,32.46 C9.81996858,27.64 9.72996858,22.29 11.6699686,17.4 C13.6099686,12.51 17.3299686,8.68 22.1599686,6.59 C26.9799686,4.5 32.3299686,4.42 37.2199686,6.36 C42.1099686,8.3 45.9399686,12.02 48.0299686,16.85 C52.0699686,26.2 48.3999686,36.96 39.4899686,41.87 C39.2399686,42.02 38.9699686,42.08 38.7099686,42.08 Z" id="Path"></path>
                <path d="M72.7399686,35.98 C72.0699686,35.98 71.4399686,35.55 71.2199686,34.88 C70.6699686,33.18 71.2699686,31.33 72.7199686,30.28 L76.9999686,27.16 C77.4899686,26.81 77.3999686,26.32 77.3299686,26.13 C77.2699686,25.94 77.0599686,25.49 76.4599686,25.49 L71.1499686,25.49 C69.3599686,25.49 67.7899686,24.35 67.2399686,22.65 L65.5999686,17.6 C65.4099686,17.03 64.9299686,16.96 64.7199686,16.96 C64.5199686,16.96 64.0299686,17.02 63.8499686,17.6 L62.2099686,22.65 C61.6599686,24.35 60.0799686,25.49 58.2999686,25.49 C57.4199686,25.49 56.6999686,24.77 56.6999686,23.89 C56.6999686,23.01 57.4199686,22.29 58.2999686,22.29 C58.6999686,22.29 59.0499686,22.03 59.1699686,21.65 L60.8099686,16.6 C61.3699686,14.87 62.9099686,13.76 64.7199686,13.76 C66.5399686,13.76 68.0699686,14.88 68.6399686,16.6 L70.2799686,21.65 C70.3999686,22.03 70.7599686,22.29 71.1499686,22.29 L76.4599686,22.29 C78.2799686,22.29 79.8099686,23.41 80.3699686,25.13 C80.9299686,26.86 80.3399686,28.66 78.8699686,29.73 L74.5799686,32.85 C74.2599686,33.08 74.1199686,33.5 74.2499686,33.88 C74.5199686,34.72 74.0599686,35.62 73.2199686,35.89 C73.0699686,35.96 72.8999686,35.98 72.7399686,35.98 Z" id="Path"></path>
                <path d="M29.9699686,19.76 C29.0899686,19.76 28.3699686,19.04 28.3699686,18.16 L28.3699686,16.85 C28.3699686,15.97 29.0899686,15.25 29.9699686,15.25 C30.8499686,15.25 31.5699686,15.97 31.5699686,16.85 L31.5699686,18.16 C31.5699686,19.04 30.8499686,19.76 29.9699686,19.76 Z" id="Path"></path>
                <path d="M29.9699686,32.7 C27.1799686,32.7 24.8999686,30.53 24.8999686,27.87 C24.8999686,26.99 25.6199686,26.27 26.4999686,26.27 C27.3799686,26.27 28.0999686,26.99 28.0999686,27.87 C28.0999686,28.77 28.9399686,29.51 29.9699686,29.51 C30.9999686,29.51 31.8399686,28.78 31.8399686,27.87 C31.8399686,26.97 30.9999686,26.23 29.9699686,26.23 C27.1799686,26.23 24.8999686,24.06 24.8999686,21.4 C24.8999686,18.73 27.1699686,16.56 29.9699686,16.56 C32.7599686,16.56 35.0399686,18.73 35.0399686,21.4 C35.0399686,22.28 34.3199686,23 33.4399686,23 C32.5599686,23 31.8399686,22.28 31.8399686,21.4 C31.8399686,20.5 30.9999686,19.76 29.9699686,19.76 C28.9399686,19.76 28.0999686,20.5 28.0999686,21.4 C28.0999686,22.3 28.9399686,23.04 29.9699686,23.04 C32.7599686,23.04 35.0399686,25.21 35.0399686,27.88 C35.0399686,30.53 32.7599686,32.7 29.9699686,32.7 Z" id="Path"></path>
                <path d="M29.9699686,34.19 C29.0899686,34.19 28.3699686,33.47 28.3699686,32.59 L28.3699686,31.11 C28.3699686,30.23 29.0899686,29.51 29.9699686,29.51 C30.8499686,29.51 31.5699686,30.23 31.5699686,31.11 L31.5699686,32.59 C31.5699686,33.47 30.8499686,34.19 29.9699686,34.19 Z" id="Path"></path>
                <path d="M78.9799686,18.45 C78.0999686,18.45 77.3799686,17.73 77.3799686,16.85 L77.3799686,13.83 C77.3799686,12.95 78.0999686,12.23 78.9799686,12.23 C79.8599686,12.23 80.5799686,12.95 80.5799686,13.83 L80.5799686,16.85 C80.5799686,17.73 79.8699686,18.45 78.9799686,18.45 Z" id="Path"></path>
                <path d="M71.2099686,12.04 C70.3299686,12.04 69.6099686,11.32 69.6099686,10.44 L69.6099686,6.58 C69.6099686,5.7 70.3299686,4.98 71.2099686,4.98 C72.0899686,4.98 72.8099686,5.7 72.8099686,6.58 L72.8099686,10.44 C72.8099686,11.33 72.0899686,12.04 71.2099686,12.04 Z" id="Path"></path>
                <path d="M55.3999686,10.11 C54.5199686,10.11 53.7999686,9.39 53.7999686,8.51 L53.7999686,3.17 C53.7999686,2.29 54.5199686,1.57 55.3999686,1.57 C56.2799686,1.57 56.9999686,2.29 56.9999686,3.17 L56.9999686,8.51 C56.9999686,9.4 56.2899686,10.11 55.3999686,10.11 Z" id="Path"></path>
                <path d="M63.6799686,6.9 C62.7999686,6.9 62.0799686,6.18 62.0799686,5.3 L62.0799686,1.6 C62.0799686,0.72 62.7999686,-1.77635684e-15 63.6799686,-1.77635684e-15 C64.5599686,-1.77635684e-15 65.2799686,0.72 65.2799686,1.6 L65.2799686,5.3 C65.2799686,6.19 64.5699686,6.9 63.6799686,6.9 Z" id="Path"></path>
                <path d="M60.5999686,83.46 C54.2999686,83.46 49.1699686,77.58 49.1699686,70.36 C49.1699686,63.14 54.2999686,57.26 60.5999686,57.26 C66.8999686,57.26 72.0199832,63.14 72.0199832,70.36 C72.0299686,77.58 66.8999686,83.46 60.5999686,83.46 Z M60.5999686,60.46 C56.0599686,60.46 52.3699686,64.9 52.3699686,70.36 C52.3699686,75.82 56.0599686,80.26 60.5999686,80.26 C65.1399686,80.26 68.8299686,75.82 68.8299686,70.36 C68.8299686,64.9 65.1399686,60.46 60.5999686,60.46 Z" id="Shape"></path>
                <path d="M60.5999686,76.93 C57.3799686,76.93 54.7499686,73.98 54.7499686,70.36 C54.7499686,69.48 55.4699686,68.76 56.3499686,68.76 C57.2299686,68.76 57.9499686,69.48 57.9499686,70.36 C57.9499686,72.22 59.1399686,73.73 60.5999686,73.73 C62.0599686,73.73 63.2499686,72.22 63.2499686,70.36 C63.2499686,68.5 62.0599686,66.99 60.5999686,66.99 C59.7199686,66.99 58.9999686,66.27 58.9999686,65.39 C58.9999686,64.51 59.7199686,63.79 60.5999686,63.79 C63.8199686,63.79 66.4499686,66.74 66.4499686,70.36 C66.4499686,73.98 63.8299686,76.93 60.5999686,76.93 Z" id="Path"></path>
            </g>
        </g>
    </g>
</svg>