<?xml version="1.0" encoding="UTF-8"?>
<svg width="99px" height="96px" viewBox="0 0 99 96" version="1.1" xmlns="http://www.w3.org/2000/svg" xmlns:xlink="http://www.w3.org/1999/xlink">
    <title>spotrebitelske-uvery</title>
    <g id="Page-1" stroke="none" stroke-width="1" fill="none" fill-rule="evenodd">
        <g id="spotrebitelske-uvery" transform="translate(1.000000, -0.000000)" stroke="#0F66DC" stroke-width="3">
            <g id="spotrebitelske_na_bydleni" transform="translate(1.273338, 6.400000)">
                <path d="M78.4777562,83.195 C80.1777562,83.195 81.5577562,81.825 81.5577562,80.125 L81.5577562,47.255 L89.6377562,47.255 L89.6477562,47.255 C92.5977562,47.255 94.9877562,44.865 94.9877562,41.915 C94.9877562,40.235 94.2077562,38.725 92.9877562,37.745 L82.5277562,28.695 L82.5277562,13.625 C82.5277562,11.865 81.0977562,10.435 79.3377562,10.435 L72.7377562,10.435 C70.9777562,10.435 69.5477562,11.865 69.5477562,13.625 L69.5477562,17.425 L50.9877562,1.305 C48.9777562,-0.435 45.9977562,-0.435 43.9877562,1.305 L1.83775623,37.885 C0.157756234,39.345 -0.442243766,41.695 0.337756234,43.785 C1.11775623,45.865 3.11775623,47.255 5.33775623,47.255 L13.4177562,47.255 L13.4177562,80.115 C13.4177562,81.815 14.7977562,83.185 16.4977562,83.185 L34.6577562,83.185 L34.6577562,59.305 C34.6577562,55.925 37.3977562,53.185 40.7677562,53.185 L54.2077562,53.185 C57.5877562,53.185 60.3277562,55.925 60.3277562,59.305 L60.3277562,83.195 L78.4777562,83.195 Z" id="Path"></path>
            </g>
        </g>
    </g>
</svg>