<?xml version="1.0" encoding="UTF-8"?>
<svg width="98px" height="96px" viewBox="0 0 98 96" version="1.1" xmlns="http://www.w3.org/2000/svg" xmlns:xlink="http://www.w3.org/1999/xlink">
    <title>stavebni-sporeni</title>
    <g id="Page-1" stroke="none" stroke-width="1" fill="none" fill-rule="evenodd">
        <g id="stavebni-sporeni" transform="translate(-0.000000, 0.000000)">
            <g id="Group" transform="translate(3.760721, 6.403602)">
                <path d="M74.3603727,85.8213978 C75.9703727,85.8213978 77.2703727,84.5213978 77.2703727,82.9113978 L77.2703727,51.7613978 L84.9203727,51.7613978 L84.9303727,51.7613978 C87.7203727,51.7613978 89.9903727,49.4913978 89.9903727,46.7013978 C89.9903727,45.1013978 89.2503727,43.6813978 88.0903727,42.7513978 L78.1903727,34.1713978 L78.1903727,19.8913978 C78.1903727,18.2213978 76.8403727,16.8613978 75.1703727,16.8613978 L68.9103727,16.8613978 C67.2403727,16.8613978 65.8803727,18.2213978 65.8803727,19.8913978 L65.8803727,23.4913978 L48.3103727,8.22139779 C46.4103727,6.57139779 43.5803727,6.57139779 41.6803727,8.22139779 L1.7403727,42.8913978 C0.150372696,44.2713978 -0.419627304,46.5013978 0.320372696,48.4813978 C1.0603727,50.4613978 2.9503727,51.7713978 5.0603727,51.7713978 C6.9703727,51.7713978 12.7203727,51.7713978 12.7203727,51.7713978 L12.7203727,82.9113978 C12.7203727,84.5213978 14.0303727,85.8213978 15.6303727,85.8213978 L32.8403727,85.8213978 L32.8403727,63.1813978 C32.8403727,59.9813978 35.4303727,57.3813978 38.6303727,57.3813978 L51.3703727,57.3813978 C54.5703727,57.3813978 57.1703727,59.9713978 57.1703727,63.1813978 L57.1703727,85.8213978 L74.3603727,85.8213978 Z" id="Path" stroke="#FFFFFF" stroke-width="3"></path>
                <path d="M68.8503727,6.11139779 C68.6503727,6.28139779 68.3603727,6.32139779 68.1103727,6.20139779 L67.5003727,5.90139779 C67.1603727,5.73139779 67.0203727,5.32139779 67.1803727,4.98139779 C67.3503727,4.64139779 67.7603727,4.50139779 68.1003727,4.66139779 L68.7103727,4.96139779 C69.0503727,5.13139779 69.1903727,5.54139779 69.0303727,5.88139779 C68.9903727,5.97139779 68.9203727,6.05139779 68.8503727,6.11139779 Z" id="Path" fill="#FFFFFF" fill-rule="nonzero"></path>
                <path d="M75.9003727,12.4913978 C73.8303727,14.1913978 70.8803727,14.6313978 68.3203727,13.3913978 C64.8203727,11.6813978 63.3703727,7.45139779 65.0703727,3.96139779 C66.7803727,0.461397795 71.0103727,-0.988602205 74.5003727,0.711397795 C78.0003727,2.42139779 79.4503727,6.65139779 77.7503727,10.1413978 C77.3003727,11.0713978 76.6603727,11.8613978 75.9003727,12.4913978 Z M67.8103727,2.66139779 C67.2003727,3.16139779 66.6903727,3.80139779 66.3203727,4.55139779 C64.9503727,7.36139779 66.1203727,10.7713978 68.9303727,12.1413978 C71.7403727,13.5113978 75.1503727,12.3413978 76.5203727,9.53139779 C77.8903727,6.72139779 76.7203727,3.31139779 73.9103727,1.94139779 C71.8503727,0.931397795 69.4703727,1.29139779 67.8103727,2.66139779 Z" id="Shape" fill="#FFFFFF" fill-rule="nonzero"></path>
                <path d="M74.3603727,9.67139779 C74.1503727,9.84139779 73.9203727,9.97139779 73.6703727,10.0713978 C73.0603727,10.3113978 72.4003727,10.2813978 71.8303727,10.0013978 C71.4903727,9.83139779 71.3503727,9.42139779 71.5103727,9.08139779 C71.6803727,8.74139779 72.0903727,8.60139779 72.4303727,8.76139779 C72.6603727,8.87139779 72.9203727,8.88139779 73.1703727,8.78139779 C73.4403727,8.68139779 73.6603727,8.47139779 73.7903727,8.20139779 C73.9203727,7.93139779 73.9503727,7.63139779 73.8703727,7.35139779 C73.7903727,7.09139779 73.6203727,6.89139779 73.3903727,6.78139779 C73.1603727,6.67139779 72.9003727,6.66139779 72.6503727,6.76139779 C72.3803727,6.86139779 72.1603727,7.07139779 72.0303727,7.34139779 C71.4303727,8.57139779 69.9903727,9.10139779 68.8203727,8.53139779 C67.6503727,7.96139779 67.1903727,6.49139779 67.7903727,5.27139779 C68.3903727,4.04139779 69.8303727,3.51139779 71.0003727,4.08139779 C71.3403727,4.25139779 71.4803727,4.66139779 71.3203727,5.00139779 C71.1503727,5.34139779 70.7403727,5.48139779 70.4003727,5.32139779 C69.9103727,5.08139779 69.3003727,5.33139779 69.0303727,5.88139779 C68.7603727,6.43139779 68.9403727,7.06139779 69.4303727,7.30139779 C69.9203727,7.54139779 70.5303727,7.29139779 70.8003727,6.74139779 C71.0903727,6.15139779 71.5703727,5.70139779 72.1703727,5.48139779 C72.7803727,5.24139779 73.4403727,5.27139779 74.0103727,5.55139779 C74.5803727,5.83139779 75.0103727,6.33139779 75.2003727,6.96139779 C75.3903727,7.57139779 75.3303727,8.23139779 75.0503727,8.82139779 C74.8703727,9.15139779 74.6403727,9.44139779 74.3603727,9.67139779 Z" id="Path" fill="#FFFFFF" fill-rule="nonzero"></path>
                <path d="M75.5503727,9.37139779 C75.3503727,9.54139779 75.0603727,9.58139779 74.8103727,9.46139779 L74.1203727,9.12139779 C73.7803727,8.95139779 73.6403727,8.54139779 73.8003727,8.20139779 C73.9703727,7.86139779 74.3803727,7.72139779 74.7203727,7.88139779 L75.4103727,8.22139779 C75.7503727,8.39139779 75.8903727,8.80139779 75.7303727,9.14139779 C75.6803727,9.24139779 75.6203727,9.31139779 75.5503727,9.37139779 Z" id="Path" fill="#FFFFFF" fill-rule="nonzero"></path>
                <path d="M20.5603727,25.4413978 C20.5103727,25.4913978 20.4403727,25.5213978 20.3703727,25.5513978 C20.0203727,25.6913978 19.6203727,25.5113978 19.4803727,25.1613978 C18.3903727,22.3613978 15.3003727,20.9013978 12.4403727,21.8213978 C9.4603727,22.7813978 7.8203727,25.9913978 8.7903727,28.9713978 C9.1903727,30.2213978 10.0303727,31.3013978 11.1403727,32.0113978 C11.4603727,32.2113978 11.5503727,32.6413978 11.3503727,32.9613978 C11.1503727,33.2813978 10.7203727,33.3713978 10.4003727,33.1713978 C9.0203727,32.2913978 7.9903727,30.9513978 7.4803727,29.4013978 C6.2803727,25.7013978 8.3203727,21.7113978 12.0203727,20.5113978 C15.5703727,19.3613978 19.4203727,21.1813978 20.7703727,24.6613978 C20.8703727,24.9513978 20.7803727,25.2613978 20.5603727,25.4413978 Z" id="Path" fill="#FFFFFF" fill-rule="nonzero"></path>
                <path d="M17.8603727,27.6713978 C17.7103727,27.8013978 17.5003727,27.8613978 17.2903727,27.8113978 C16.9203727,27.7413978 16.6703727,27.3713978 16.7503727,27.0013978 C16.7903727,26.8113978 16.7803727,26.6013978 16.7103727,26.4013978 C16.5203727,25.8213978 15.9503727,25.4913978 15.4403727,25.6513978 C14.9203727,25.8213978 14.6603727,26.4213978 14.8503727,27.0013978 C15.0503727,27.6213978 15.0103727,28.2813978 14.7403727,28.8613978 C14.4603727,29.4513978 13.9703727,29.8913978 13.3703727,30.0913978 C12.7603727,30.2913978 12.1103727,30.2213978 11.5403727,29.9013978 C10.9803727,29.5913978 10.5603727,29.0813978 10.3603727,28.4613978 C9.9403727,27.1613978 10.6003727,25.7713978 11.8403727,25.3713978 C12.2003727,25.2513978 12.5903727,25.4513978 12.7103727,25.8113978 C12.8303727,26.1713978 12.6303727,26.5613978 12.2703727,26.6813978 C11.7603727,26.8513978 11.4903727,27.4513978 11.6803727,28.0313978 C11.7703727,28.3213978 11.9603727,28.5513978 12.2103727,28.6913978 C12.4503727,28.8213978 12.7103727,28.8513978 12.9503727,28.7713978 C13.1903727,28.6913978 13.3903727,28.5213978 13.5003727,28.2713978 C13.6203727,28.0113978 13.6403727,27.7113978 13.5403727,27.4213978 C13.1203727,26.1213978 13.7803727,24.7313978 15.0203727,24.3313978 C16.2603727,23.9313978 17.6103727,24.6613978 18.0303727,25.9613978 C18.1703727,26.3813978 18.1903727,26.8213978 18.1103727,27.2513978 C18.0703727,27.4313978 17.9803727,27.5713978 17.8603727,27.6713978 Z" id="Path" fill="#FFFFFF" fill-rule="nonzero"></path>
                <path d="M11.4503727,28.7913978 C11.3903727,28.8413978 11.3103727,28.8913978 11.2303727,28.9113978 L10.5003727,29.1513978 C10.1403727,29.2713978 9.7503727,29.0713978 9.6303727,28.7113978 C9.5103727,28.3513978 9.7103727,27.9613978 10.0703727,27.8413978 L10.8003727,27.6013978 C11.1603727,27.4813978 11.5503727,27.6813978 11.6703727,28.0413978 C11.7503727,28.3213978 11.6603727,28.6113978 11.4503727,28.7913978 Z" id="Path" fill="#FFFFFF" fill-rule="nonzero"></path>
                <path d="M22.1403727,8.37139779 C21.9503727,8.53139779 21.6803727,8.57139779 21.4403727,8.48139779 C21.0903727,8.34139779 20.9203727,7.93139779 21.0603727,7.58139779 L21.3503727,6.87139779 C21.4903727,6.52139779 21.9003727,6.35139779 22.2503727,6.49139779 C22.6003727,6.63139779 22.7703727,7.04139779 22.6303727,7.39139779 L22.3403727,8.10139779 C22.2903727,8.20139779 22.2203727,8.30139779 22.1403727,8.37139779 Z" id="Path" fill="#FFFFFF" fill-rule="nonzero"></path>
                <path d="M25.3103727,17.4813978 C23.1303727,19.2713978 20.0603727,19.8413978 17.2703727,18.7113978 C13.2203727,17.0613978 11.2603727,12.4213978 12.9103727,8.37139779 C14.5603727,4.32139779 19.2003727,2.36139779 23.2503727,4.01139779 C25.2103727,4.81139779 26.7503727,6.33139779 27.5703727,8.28139779 C28.3903727,10.2313978 28.4103727,12.3913978 27.6103727,14.3513978 C27.1003727,15.6113978 26.3003727,16.6713978 25.3103727,17.4813978 Z M16.0903727,6.30139779 C15.2803727,6.97139779 14.6103727,7.84139779 14.1903727,8.89139779 C12.8303727,12.2413978 14.4403727,16.0713978 17.7903727,17.4413978 C21.1403727,18.8013978 24.9703727,17.1913978 26.3403727,13.8413978 C27.0003727,12.2213978 26.9903727,10.4313978 26.3103727,8.82139779 C25.6303727,7.21139779 24.3603727,5.95139779 22.7403727,5.29139779 C20.4303727,4.35139779 17.8903727,4.82139779 16.0903727,6.30139779 Z" id="Shape" fill="#FFFFFF" fill-rule="nonzero"></path>
                <path d="M21.3503727,15.1313978 C20.6203727,15.7313978 19.5503727,15.9213978 18.5703727,15.5213978 C17.9003727,15.2513978 17.3703727,14.7513978 17.0803727,14.1113978 C16.7803727,13.4613978 16.7603727,12.7413978 17.0203727,12.0913978 C17.1603727,11.7413978 17.5703727,11.5713978 17.9203727,11.7113978 C18.2703727,11.8513978 18.4403727,12.2613978 18.3003727,12.6113978 C18.1803727,12.9013978 18.1903727,13.2313978 18.3303727,13.5313978 C18.4803727,13.8513978 18.7503727,14.1013978 19.0903727,14.2413978 C19.7803727,14.5213978 20.5503727,14.2513978 20.8003727,13.6313978 C20.9203727,13.3413978 20.9103727,13.0113978 20.7703727,12.7113978 C20.6203727,12.3913978 20.3503727,12.1413978 20.0103727,12.0013978 C19.3403727,11.7313978 18.8103727,11.2313978 18.5203727,10.5913978 C18.2203727,9.94139779 18.2003727,9.22139779 18.4603727,8.57139779 C18.7203727,7.92139779 19.2403727,7.42139779 19.9103727,7.17139779 C20.5703727,6.92139779 21.2903727,6.93139779 21.9603727,7.20139779 C23.3503727,7.77139779 24.0503727,9.31139779 23.5103727,10.6313978 C23.3703727,10.9813978 22.9603727,11.1513978 22.6103727,11.0113978 C22.2603727,10.8713978 22.0903727,10.4613978 22.2303727,10.1113978 C22.4803727,9.49139779 22.1303727,8.76139779 21.4403727,8.48139779 C21.1003727,8.34139779 20.7303727,8.33139779 20.4003727,8.46139779 C20.0903727,8.58139779 19.8503727,8.80139779 19.7303727,9.10139779 C19.6103727,9.39139779 19.6203727,9.72139779 19.7603727,10.0213978 C19.9103727,10.3413978 20.1803727,10.5913978 20.5203727,10.7313978 C21.1903727,11.0013978 21.7203727,11.5013978 22.0103727,12.1413978 C22.3103727,12.7913978 22.3303727,13.5113978 22.0703727,14.1613978 C21.9103727,14.5413978 21.6603727,14.8713978 21.3503727,15.1313978 Z" id="Path" fill="#FFFFFF" fill-rule="nonzero"></path>
                <path d="M18.9403727,16.2213978 C18.7503727,16.3813978 18.4803727,16.4213978 18.2403727,16.3313978 C17.8903727,16.1913978 17.7203727,15.7813978 17.8603727,15.4313978 L18.1903727,14.6213978 C18.3303727,14.2713978 18.7403727,14.1013978 19.0903727,14.2413978 C19.4403727,14.3813978 19.6103727,14.7913978 19.4703727,15.1413978 L19.1403727,15.9513978 C19.0903727,16.0613978 19.0203727,16.1513978 18.9403727,16.2213978 Z" id="Path" fill="#FFFFFF" fill-rule="nonzero"></path>
            </g>
        </g>
    </g>
</svg>